%TF.GenerationSoftware,KiCad,Pcbnew,(6.0.4-0)*%
%TF.CreationDate,2022-09-11T17:37:57+09:00*%
%TF.ProjectId,machinev2,6d616368-696e-4657-9632-2e6b69636164,rev?*%
%TF.SameCoordinates,Original*%
%TF.FileFunction,Copper,L1,Top*%
%TF.FilePolarity,Positive*%
%FSLAX46Y46*%
G04 Gerber Fmt 4.6, Leading zero omitted, Abs format (unit mm)*
G04 Created by KiCad (PCBNEW (6.0.4-0)) date 2022-09-11 17:37:57*
%MOMM*%
%LPD*%
G01*
G04 APERTURE LIST*
G04 Aperture macros list*
%AMRoundRect*
0 Rectangle with rounded corners*
0 $1 Rounding radius*
0 $2 $3 $4 $5 $6 $7 $8 $9 X,Y pos of 4 corners*
0 Add a 4 corners polygon primitive as box body*
4,1,4,$2,$3,$4,$5,$6,$7,$8,$9,$2,$3,0*
0 Add four circle primitives for the rounded corners*
1,1,$1+$1,$2,$3*
1,1,$1+$1,$4,$5*
1,1,$1+$1,$6,$7*
1,1,$1+$1,$8,$9*
0 Add four rect primitives between the rounded corners*
20,1,$1+$1,$2,$3,$4,$5,0*
20,1,$1+$1,$4,$5,$6,$7,0*
20,1,$1+$1,$6,$7,$8,$9,0*
20,1,$1+$1,$8,$9,$2,$3,0*%
G04 Aperture macros list end*
%TA.AperFunction,ComponentPad*%
%ADD10R,1.600000X1.600000*%
%TD*%
%TA.AperFunction,ComponentPad*%
%ADD11C,1.600000*%
%TD*%
%TA.AperFunction,ComponentPad*%
%ADD12O,1.600000X1.600000*%
%TD*%
%TA.AperFunction,SMDPad,CuDef*%
%ADD13R,1.050000X0.650000*%
%TD*%
%TA.AperFunction,ComponentPad*%
%ADD14R,1.700000X1.700000*%
%TD*%
%TA.AperFunction,ComponentPad*%
%ADD15O,1.700000X1.700000*%
%TD*%
%TA.AperFunction,SMDPad,CuDef*%
%ADD16RoundRect,0.250000X-0.262500X-0.450000X0.262500X-0.450000X0.262500X0.450000X-0.262500X0.450000X0*%
%TD*%
%TA.AperFunction,SMDPad,CuDef*%
%ADD17R,1.200000X0.700000*%
%TD*%
%TA.AperFunction,SMDPad,CuDef*%
%ADD18R,0.800000X1.000000*%
%TD*%
%TA.AperFunction,SMDPad,CuDef*%
%ADD19R,2.800000X1.000000*%
%TD*%
%TA.AperFunction,SMDPad,CuDef*%
%ADD20R,1.900000X1.300000*%
%TD*%
%TA.AperFunction,SMDPad,CuDef*%
%ADD21R,1.200000X1.000000*%
%TD*%
%TA.AperFunction,ComponentPad*%
%ADD22R,1.800000X1.800000*%
%TD*%
%TA.AperFunction,ComponentPad*%
%ADD23C,1.800000*%
%TD*%
%TA.AperFunction,ComponentPad*%
%ADD24R,0.850000X0.850000*%
%TD*%
%TA.AperFunction,ComponentPad*%
%ADD25O,0.850000X0.850000*%
%TD*%
%TA.AperFunction,SMDPad,CuDef*%
%ADD26R,2.000000X0.900000*%
%TD*%
%TA.AperFunction,SMDPad,CuDef*%
%ADD27R,0.900000X2.000000*%
%TD*%
%TA.AperFunction,SMDPad,CuDef*%
%ADD28R,5.000000X5.000000*%
%TD*%
%TA.AperFunction,SMDPad,CuDef*%
%ADD29R,1.100000X1.100000*%
%TD*%
%TA.AperFunction,SMDPad,CuDef*%
%ADD30RoundRect,0.250000X-0.250000X-0.475000X0.250000X-0.475000X0.250000X0.475000X-0.250000X0.475000X0*%
%TD*%
%TA.AperFunction,SMDPad,CuDef*%
%ADD31RoundRect,0.250000X0.250000X0.475000X-0.250000X0.475000X-0.250000X-0.475000X0.250000X-0.475000X0*%
%TD*%
%TA.AperFunction,SMDPad,CuDef*%
%ADD32R,2.000000X1.500000*%
%TD*%
%TA.AperFunction,SMDPad,CuDef*%
%ADD33R,2.000000X3.800000*%
%TD*%
%TA.AperFunction,ViaPad*%
%ADD34C,0.800000*%
%TD*%
%TA.AperFunction,Conductor*%
%ADD35C,0.500000*%
%TD*%
%TA.AperFunction,Conductor*%
%ADD36C,0.250000*%
%TD*%
%TA.AperFunction,Conductor*%
%ADD37C,1.000000*%
%TD*%
%TA.AperFunction,Conductor*%
%ADD38C,2.000000*%
%TD*%
G04 APERTURE END LIST*
D10*
%TO.P,C47uF,1*%
%TO.N,GND*%
X116392888Y-94234000D03*
D11*
%TO.P,C47uF,2*%
%TO.N,Net-(AZ1117CH-3.3TRG1-Pad3)*%
X118392888Y-94234000D03*
%TD*%
%TO.P,RLED2,1*%
%TO.N,Net-(Manual1-Pad2)*%
X150905000Y-100330000D03*
D12*
%TO.P,RLED2,2*%
%TO.N,LED_MANUAL*%
X148365000Y-100330000D03*
%TD*%
D11*
%TO.P,RLED1,1*%
%TO.N,Net-(Auto1-Pad2)*%
X150905000Y-97790000D03*
D12*
%TO.P,RLED1,2*%
%TO.N,LED_AUTO*%
X148365000Y-97790000D03*
%TD*%
D13*
%TO.P,SW2,1*%
%TO.N,GND*%
X124757000Y-98611000D03*
%TO.P,SW2,2*%
X120607000Y-98611000D03*
%TO.P,SW2,3*%
%TO.N,SW2*%
X124757000Y-96461000D03*
%TO.P,SW2,4*%
%TO.N,Net-(R10k3-Pad2)*%
X120607000Y-96461000D03*
%TD*%
%TO.P,SW1,1*%
%TO.N,GND*%
X124757000Y-94293000D03*
%TO.P,SW1,2*%
X120607000Y-94293000D03*
%TO.P,SW1,3*%
%TO.N,SW1*%
X124757000Y-92143000D03*
%TO.P,SW1,4*%
%TO.N,Net-(R10k2-Pad2)*%
X120607000Y-92143000D03*
%TD*%
D14*
%TO.P,Serial_USB,1,Pin_1*%
%TO.N,unconnected-(Serial_USB-Pad1)*%
X131064000Y-105156000D03*
D15*
%TO.P,Serial_USB,2,Pin_2*%
%TO.N,TXD0*%
X133604000Y-105156000D03*
%TO.P,Serial_USB,3,Pin_3*%
%TO.N,RXD0*%
X136144000Y-105156000D03*
%TO.P,Serial_USB,4,Pin_4*%
%TO.N,VBUS*%
X138684000Y-105156000D03*
%TO.P,Serial_USB,5,Pin_5*%
%TO.N,GND*%
X141224000Y-105156000D03*
%TO.P,Serial_USB,6,Pin_6*%
X143764000Y-105156000D03*
%TD*%
D13*
%TO.P,RESET,4*%
%TO.N,Net-(R10k1-Pad2)*%
X120607000Y-87825000D03*
%TO.P,RESET,3*%
%TO.N,EN*%
X124757000Y-87825000D03*
%TO.P,RESET,2*%
%TO.N,GND*%
X120607000Y-89975000D03*
%TO.P,RESET,1*%
X124757000Y-89975000D03*
%TD*%
D14*
%TO.P,RECIV,1,Pin_1*%
%TO.N,GND*%
X103632000Y-88392000D03*
D15*
%TO.P,RECIV,2,Pin_2*%
%TO.N,+5V*%
X106172000Y-88392000D03*
%TO.P,RECIV,3,Pin_3*%
%TO.N,RECIV*%
X108712000Y-88392000D03*
%TD*%
D16*
%TO.P,R10k3,1*%
%TO.N,+3V3*%
X116689500Y-90424000D03*
%TO.P,R10k3,2*%
%TO.N,Net-(R10k3-Pad2)*%
X118514500Y-90424000D03*
%TD*%
%TO.P,R10k2,1*%
%TO.N,+3V3*%
X116689500Y-88392000D03*
%TO.P,R10k2,2*%
%TO.N,Net-(R10k2-Pad2)*%
X118514500Y-88392000D03*
%TD*%
%TO.P,R10k1,1*%
%TO.N,+3V3*%
X116689500Y-86360000D03*
%TO.P,R10k1,2*%
%TO.N,Net-(R10k1-Pad2)*%
X118514500Y-86360000D03*
%TD*%
D14*
%TO.P,PWM4,1,Pin_1*%
%TO.N,GND*%
X103632000Y-101600000D03*
D15*
%TO.P,PWM4,2,Pin_2*%
%TO.N,+5V*%
X106172000Y-101600000D03*
%TO.P,PWM4,3,Pin_3*%
%TO.N,PWM4*%
X108712000Y-101600000D03*
%TD*%
D14*
%TO.P,PWM3,1,Pin_1*%
%TO.N,GND*%
X103632000Y-98298000D03*
D15*
%TO.P,PWM3,2,Pin_2*%
%TO.N,+5V*%
X106172000Y-98298000D03*
%TO.P,PWM3,3,Pin_3*%
%TO.N,PWM3*%
X108712000Y-98298000D03*
%TD*%
D14*
%TO.P,PWM2,1,Pin_1*%
%TO.N,GND*%
X103632000Y-94996000D03*
D15*
%TO.P,PWM2,2,Pin_2*%
%TO.N,+5V*%
X106172000Y-94996000D03*
%TO.P,PWM2,3,Pin_3*%
%TO.N,PWM2*%
X108712000Y-94996000D03*
%TD*%
D14*
%TO.P,PWM1,1,Pin_1*%
%TO.N,GND*%
X103632000Y-91694000D03*
D15*
%TO.P,PWM1,2,Pin_2*%
%TO.N,+5V*%
X106172000Y-91694000D03*
%TO.P,PWM1,3,Pin_3*%
%TO.N,PWM1*%
X108712000Y-91694000D03*
%TD*%
D17*
%TO.P,microSD,1,DAT2*%
%TO.N,unconnected-(microSD-Pad1)*%
X153819000Y-88157000D03*
%TO.P,microSD,2,DAT3/CD*%
%TO.N,CS*%
X153819000Y-89257000D03*
%TO.P,microSD,3,CMD*%
%TO.N,MOSI*%
X153819000Y-90357000D03*
%TO.P,microSD,4,VDD*%
%TO.N,+3V3*%
X153819000Y-91457000D03*
%TO.P,microSD,5,CLK*%
%TO.N,SCK*%
X153819000Y-92557000D03*
%TO.P,microSD,6,VSS*%
%TO.N,GND*%
X153819000Y-93657000D03*
%TO.P,microSD,7,DAT0*%
%TO.N,MISO*%
X153819000Y-94757000D03*
%TO.P,microSD,8,DAT1*%
%TO.N,unconnected-(microSD-Pad8)*%
X153819000Y-95857000D03*
%TO.P,microSD,9,DET_B*%
%TO.N,unconnected-(microSD-Pad9)*%
X153819000Y-96807000D03*
D18*
%TO.P,microSD,10,DET_A*%
%TO.N,unconnected-(microSD-Pad10)*%
X164319000Y-97757000D03*
D19*
%TO.P,microSD,11,SHIELD*%
%TO.N,GND*%
X168469000Y-97757000D03*
D20*
X168919000Y-84257000D03*
D21*
X153819000Y-86607000D03*
X158119000Y-97757000D03*
%TD*%
D22*
%TO.P,Manual2,1,K*%
%TO.N,GND*%
X156210000Y-105918000D03*
D23*
%TO.P,Manual2,2,A*%
%TO.N,Net-(Manual1-Pad2)*%
X156210000Y-103378000D03*
%TD*%
D22*
%TO.P,Manual1,1,K*%
%TO.N,GND*%
X153924000Y-105918000D03*
D23*
%TO.P,Manual1,2,A*%
%TO.N,Net-(Manual1-Pad2)*%
X153924000Y-103378000D03*
%TD*%
D24*
%TO.P,I2C2,1,Pin_1*%
%TO.N,GND*%
X150622000Y-87146000D03*
D25*
%TO.P,I2C2,2,Pin_2*%
%TO.N,+3V3*%
X150622000Y-88146000D03*
%TO.P,I2C2,3,Pin_3*%
%TO.N,SDA*%
X150622000Y-89146000D03*
%TO.P,I2C2,4,Pin_4*%
%TO.N,SCL*%
X150622000Y-90146000D03*
%TD*%
D24*
%TO.P,I2C1,1,Pin_1*%
%TO.N,GND*%
X148590000Y-87146000D03*
D25*
%TO.P,I2C1,2,Pin_2*%
%TO.N,+3V3*%
X148590000Y-88146000D03*
%TO.P,I2C1,3,Pin_3*%
%TO.N,SDA*%
X148590000Y-89146000D03*
%TO.P,I2C1,4,Pin_4*%
%TO.N,SCL*%
X148590000Y-90146000D03*
%TD*%
D26*
%TO.P,ESP32,1,GND*%
%TO.N,GND*%
X128896000Y-84203000D03*
%TO.P,ESP32,2,VDD*%
%TO.N,+3V3*%
X128896000Y-85473000D03*
%TO.P,ESP32,3,EN*%
%TO.N,EN*%
X128896000Y-86743000D03*
%TO.P,ESP32,4,SENSOR_VP*%
%TO.N,SENSOR_VP*%
X128896000Y-88013000D03*
%TO.P,ESP32,5,SENSOR_VN*%
%TO.N,SENSOR_VN*%
X128896000Y-89283000D03*
%TO.P,ESP32,6,IO34*%
%TO.N,SW1*%
X128896000Y-90553000D03*
%TO.P,ESP32,7,IO35*%
%TO.N,SW2*%
X128896000Y-91823000D03*
%TO.P,ESP32,8,IO32*%
%TO.N,ESC*%
X128896000Y-93093000D03*
%TO.P,ESP32,9,IO33*%
%TO.N,RECIV*%
X128896000Y-94363000D03*
%TO.P,ESP32,10,IO25*%
%TO.N,PWM1*%
X128896000Y-95633000D03*
%TO.P,ESP32,11,IO26*%
%TO.N,PWM2*%
X128896000Y-96903000D03*
%TO.P,ESP32,12,IO27*%
%TO.N,PWM3*%
X128896000Y-98173000D03*
%TO.P,ESP32,13,IO14*%
%TO.N,PWM4*%
X128896000Y-99443000D03*
%TO.P,ESP32,14,IO12*%
%TO.N,IO12*%
X128896000Y-100713000D03*
D27*
%TO.P,ESP32,15,GND*%
%TO.N,GND*%
X131681000Y-101713000D03*
%TO.P,ESP32,16,IO13*%
%TO.N,IO13*%
X132951000Y-101713000D03*
%TO.P,ESP32,17,SHD/SD2*%
%TO.N,unconnected-(ESP32-Pad17)*%
X134221000Y-101713000D03*
%TO.P,ESP32,18,SWP/SD3*%
%TO.N,unconnected-(ESP32-Pad18)*%
X135491000Y-101713000D03*
%TO.P,ESP32,19,SCS/CMD*%
%TO.N,unconnected-(ESP32-Pad19)*%
X136761000Y-101713000D03*
%TO.P,ESP32,20,SCK/CLK*%
%TO.N,unconnected-(ESP32-Pad20)*%
X138031000Y-101713000D03*
%TO.P,ESP32,21,SDO/SD0*%
%TO.N,unconnected-(ESP32-Pad21)*%
X139301000Y-101713000D03*
%TO.P,ESP32,22,SDI/SD1*%
%TO.N,unconnected-(ESP32-Pad22)*%
X140571000Y-101713000D03*
%TO.P,ESP32,23,IO15*%
%TO.N,IO15*%
X141841000Y-101713000D03*
%TO.P,ESP32,24,IO2*%
%TO.N,IO2*%
X143111000Y-101713000D03*
D26*
%TO.P,ESP32,25,IO0*%
%TO.N,BOOT*%
X145896000Y-100713000D03*
%TO.P,ESP32,26,IO4*%
%TO.N,IO4*%
X145896000Y-99443000D03*
%TO.P,ESP32,27,IO16*%
%TO.N,LED_MANUAL*%
X145896000Y-98173000D03*
%TO.P,ESP32,28,IO17*%
%TO.N,LED_AUTO*%
X145896000Y-96903000D03*
%TO.P,ESP32,29,IO5*%
%TO.N,CS*%
X145896000Y-95633000D03*
%TO.P,ESP32,30,IO18*%
%TO.N,SCK*%
X145896000Y-94363000D03*
%TO.P,ESP32,31,IO19*%
%TO.N,MISO*%
X145896000Y-93093000D03*
%TO.P,ESP32,32,NC*%
%TO.N,unconnected-(ESP32-Pad32)*%
X145896000Y-91823000D03*
%TO.P,ESP32,33,IO21*%
%TO.N,SDA*%
X145896000Y-90553000D03*
%TO.P,ESP32,34,RXD0/IO3*%
%TO.N,RXD0*%
X145896000Y-89283000D03*
%TO.P,ESP32,35,TXD0/IO1*%
%TO.N,TXD0*%
X145896000Y-88013000D03*
%TO.P,ESP32,36,IO22*%
%TO.N,SCL*%
X145896000Y-86743000D03*
%TO.P,ESP32,37,IO23*%
%TO.N,MOSI*%
X145896000Y-85473000D03*
%TO.P,ESP32,38,GND*%
%TO.N,GND*%
X145896000Y-84203000D03*
D28*
%TO.P,ESP32,39,GND*%
X136396000Y-91703000D03*
%TD*%
D14*
%TO.P,ESC,1,Pin_1*%
%TO.N,GND*%
X103632000Y-85090000D03*
D15*
%TO.P,ESC,2,Pin_2*%
%TO.N,+5V*%
X106172000Y-85090000D03*
%TO.P,ESC,3,Pin_3*%
%TO.N,ESC*%
X108712000Y-85090000D03*
%TD*%
D29*
%TO.P,D2,1,K*%
%TO.N,Net-(AZ1117CH-3.3TRG1-Pad3)*%
X124460000Y-100962000D03*
%TO.P,D2,2,A*%
%TO.N,VBUS*%
X124460000Y-103762000D03*
%TD*%
%TO.P,D1,1,K*%
%TO.N,Net-(AZ1117CH-3.3TRG1-Pad3)*%
X121666000Y-100962000D03*
%TO.P,D1,2,A*%
%TO.N,+5V*%
X121666000Y-103762000D03*
%TD*%
D30*
%TO.P,C0.1uF2,1*%
%TO.N,+3V3*%
X111826000Y-96266000D03*
%TO.P,C0.1uF2,2*%
%TO.N,GND*%
X113726000Y-96266000D03*
%TD*%
D31*
%TO.P,C0.1uF1,1*%
%TO.N,Net-(AZ1117CH-3.3TRG1-Pad3)*%
X118552000Y-96266000D03*
%TO.P,C0.1uF1,2*%
%TO.N,GND*%
X116652000Y-96266000D03*
%TD*%
D13*
%TO.P,BOOT,1*%
%TO.N,GND*%
X150665000Y-105977000D03*
%TO.P,BOOT,2*%
X146515000Y-105977000D03*
%TO.P,BOOT,3*%
%TO.N,BOOT*%
X150665000Y-103827000D03*
%TO.P,BOOT,4*%
X146515000Y-103827000D03*
%TD*%
D32*
%TO.P,AZ1117CH-3.3TRG1,1,ADJ*%
%TO.N,GND*%
X118466000Y-103392000D03*
D33*
%TO.P,AZ1117CH-3.3TRG1,2,VO*%
%TO.N,+3V3*%
X112166000Y-101092000D03*
D32*
X118466000Y-101092000D03*
%TO.P,AZ1117CH-3.3TRG1,3,VI*%
%TO.N,Net-(AZ1117CH-3.3TRG1-Pad3)*%
X118466000Y-98792000D03*
%TD*%
D22*
%TO.P,Auto2,1,K*%
%TO.N,GND*%
X160782000Y-105918000D03*
D23*
%TO.P,Auto2,2,A*%
%TO.N,Net-(Auto1-Pad2)*%
X160782000Y-103378000D03*
%TD*%
D22*
%TO.P,Auto1,1,K*%
%TO.N,GND*%
X158496000Y-105918000D03*
D23*
%TO.P,Auto1,2,A*%
%TO.N,Net-(Auto1-Pad2)*%
X158496000Y-103378000D03*
%TD*%
D34*
%TO.N,SCK*%
X148590000Y-93980000D03*
%TO.N,CS*%
X148590000Y-95250000D03*
%TO.N,SCK*%
X155956000Y-92710000D03*
%TO.N,CS*%
X155956000Y-89408000D03*
%TO.N,+3V3*%
X131826000Y-85598000D03*
%TO.N,RXD0*%
X143002000Y-89154000D03*
%TO.N,TXD0*%
X143002000Y-87884000D03*
%TO.N,SCL*%
X143002000Y-86614000D03*
%TO.N,PWM4*%
X126746000Y-99568000D03*
%TO.N,PWM3*%
X126746000Y-98298000D03*
%TO.N,PWM2*%
X126746000Y-97028000D03*
%TO.N,PWM1*%
X126746000Y-95758000D03*
%TO.N,RECIV*%
X126746000Y-94488000D03*
%TO.N,ESC*%
X126746000Y-93218000D03*
%TD*%
D35*
%TO.N,+3V3*%
X153819000Y-91457000D02*
X152969000Y-91457000D01*
X151638000Y-90126000D02*
X151638000Y-88925254D01*
X152969000Y-91457000D02*
X151638000Y-90126000D01*
X151638000Y-88925254D02*
X150858746Y-88146000D01*
X150858746Y-88146000D02*
X150681970Y-88146000D01*
X128896000Y-85473000D02*
X131576000Y-85473000D01*
X131576000Y-85473000D02*
X131701000Y-85598000D01*
D36*
X131701000Y-85598000D02*
X131826000Y-85598000D01*
D35*
%TO.N,LED_MANUAL*%
X145896000Y-98173000D02*
X146941000Y-98173000D01*
X146941000Y-98173000D02*
X148365000Y-99597000D01*
X148365000Y-99597000D02*
X148365000Y-100330000D01*
D36*
%TO.N,SCK*%
X155956000Y-92710000D02*
X153972000Y-92710000D01*
X153972000Y-92710000D02*
X153819000Y-92557000D01*
%TO.N,CS*%
X153819000Y-89257000D02*
X155805000Y-89257000D01*
X155805000Y-89257000D02*
X155956000Y-89408000D01*
%TO.N,SCK*%
X145896000Y-94363000D02*
X148207000Y-94363000D01*
X148207000Y-94363000D02*
X148590000Y-93980000D01*
%TO.N,CS*%
X145896000Y-95633000D02*
X148207000Y-95633000D01*
X148207000Y-95633000D02*
X148590000Y-95250000D01*
D35*
%TO.N,+3V3*%
X150622000Y-88146000D02*
X148590000Y-88146000D01*
D36*
X150681970Y-88146000D02*
X150622000Y-88146000D01*
D35*
X112166000Y-101092000D02*
X112166000Y-96606000D01*
X112166000Y-96606000D02*
X111826000Y-96266000D01*
D37*
%TO.N,+5V*%
X106172000Y-101600000D02*
X106172000Y-104125000D01*
X106172000Y-104125000D02*
X107203000Y-105156000D01*
X107203000Y-105156000D02*
X120272000Y-105156000D01*
X120272000Y-105156000D02*
X121666000Y-103762000D01*
D36*
%TO.N,MISO*%
X145896000Y-93093000D02*
X151655978Y-93093000D01*
X151655978Y-93093000D02*
X153319978Y-94757000D01*
X153319978Y-94757000D02*
X153819000Y-94757000D01*
%TO.N,MOSI*%
X145896000Y-85473000D02*
X150448022Y-85473000D01*
X153349000Y-90357000D02*
X153819000Y-90357000D01*
X150448022Y-85473000D02*
X152894489Y-87919467D01*
X152894489Y-89902489D02*
X153349000Y-90357000D01*
X152894489Y-87919467D02*
X152894489Y-89902489D01*
%TO.N,SCL*%
X145896000Y-86743000D02*
X143131000Y-86743000D01*
X143131000Y-86743000D02*
X143002000Y-86614000D01*
%TO.N,TXD0*%
X145896000Y-88013000D02*
X143131000Y-88013000D01*
X143131000Y-88013000D02*
X143002000Y-87884000D01*
%TO.N,RXD0*%
X145896000Y-89283000D02*
X143131000Y-89283000D01*
X143131000Y-89283000D02*
X143002000Y-89154000D01*
%TO.N,SDA*%
X148590000Y-89146000D02*
X150622000Y-89146000D01*
X145896000Y-90553000D02*
X146581960Y-90553000D01*
X146581960Y-90553000D02*
X147988960Y-89146000D01*
X147988960Y-89146000D02*
X148590000Y-89146000D01*
D35*
%TO.N,+3V3*%
X116689500Y-86360000D02*
X117714020Y-85335480D01*
X117714020Y-85335480D02*
X128758480Y-85335480D01*
D36*
X128758480Y-85335480D02*
X128896000Y-85473000D01*
D35*
X116689500Y-90424000D02*
X116689500Y-86360000D01*
X111826000Y-96266000D02*
X111826000Y-95287500D01*
X111826000Y-95287500D02*
X116689500Y-90424000D01*
D36*
%TO.N,Net-(R10k1-Pad2)*%
X120607000Y-87825000D02*
X119979500Y-87825000D01*
X119979500Y-87825000D02*
X118514500Y-86360000D01*
%TO.N,Net-(R10k2-Pad2)*%
X120607000Y-92143000D02*
X120607000Y-91397000D01*
X120607000Y-91397000D02*
X119351520Y-90141520D01*
X119351520Y-90141520D02*
X119351520Y-89229020D01*
X119351520Y-89229020D02*
X118514500Y-88392000D01*
%TO.N,Net-(R10k3-Pad2)*%
X120607000Y-96461000D02*
X119517399Y-95371399D01*
X119517399Y-95371399D02*
X119517399Y-91426899D01*
X119517399Y-91426899D02*
X118514500Y-90424000D01*
D37*
%TO.N,Net-(AZ1117CH-3.3TRG1-Pad3)*%
X118552000Y-96266000D02*
X118552000Y-94393112D01*
X118552000Y-94393112D02*
X118392888Y-94234000D01*
X118466000Y-98792000D02*
X118466000Y-96352000D01*
X118466000Y-96352000D02*
X118552000Y-96266000D01*
X121666000Y-100962000D02*
X121282000Y-100962000D01*
X119955511Y-99635511D02*
X119309511Y-99635511D01*
X121282000Y-100962000D02*
X119955511Y-99635511D01*
X119309511Y-99635511D02*
X118466000Y-98792000D01*
X124460000Y-100962000D02*
X121666000Y-100962000D01*
%TO.N,VBUS*%
X138684000Y-105156000D02*
X137134489Y-103606489D01*
X137134489Y-103606489D02*
X124615511Y-103606489D01*
X124615511Y-103606489D02*
X124460000Y-103762000D01*
D38*
%TO.N,+5V*%
X106172000Y-85090000D02*
X106172000Y-101600000D01*
D36*
%TO.N,SW2*%
X128896000Y-91823000D02*
X127116386Y-91823000D01*
X125606511Y-95611489D02*
X124757000Y-96461000D01*
X127116386Y-91823000D02*
X125606511Y-93332875D01*
X125606511Y-93332875D02*
X125606511Y-95611489D01*
%TO.N,ESC*%
X128896000Y-93093000D02*
X126871000Y-93093000D01*
X126871000Y-93093000D02*
X126746000Y-93218000D01*
%TO.N,RECIV*%
X128896000Y-94363000D02*
X126871000Y-94363000D01*
X126871000Y-94363000D02*
X126746000Y-94488000D01*
%TO.N,PWM1*%
X128896000Y-95633000D02*
X126871000Y-95633000D01*
X126871000Y-95633000D02*
X126746000Y-95758000D01*
%TO.N,PWM2*%
X128896000Y-96903000D02*
X126871000Y-96903000D01*
X126871000Y-96903000D02*
X126746000Y-97028000D01*
%TO.N,PWM3*%
X128896000Y-98173000D02*
X126871000Y-98173000D01*
X126871000Y-98173000D02*
X126746000Y-98298000D01*
%TO.N,PWM4*%
X128896000Y-99443000D02*
X126871000Y-99443000D01*
X126871000Y-99443000D02*
X126746000Y-99568000D01*
%TO.N,SW1*%
X128896000Y-90553000D02*
X126347000Y-90553000D01*
X126347000Y-90553000D02*
X124757000Y-92143000D01*
%TO.N,EN*%
X128896000Y-86743000D02*
X125839000Y-86743000D01*
X125839000Y-86743000D02*
X124757000Y-87825000D01*
%TO.N,Net-(Auto1-Pad2)*%
X158496000Y-103378000D02*
X160782000Y-103378000D01*
D35*
X150905000Y-97790000D02*
X152908000Y-97790000D01*
X152908000Y-97790000D02*
X158496000Y-103378000D01*
D36*
%TO.N,Net-(Manual1-Pad2)*%
X153924000Y-103378000D02*
X156210000Y-103378000D01*
D35*
X150905000Y-100330000D02*
X153924000Y-103349000D01*
D36*
X153924000Y-103349000D02*
X153924000Y-103378000D01*
D35*
%TO.N,LED_AUTO*%
X145896000Y-96903000D02*
X147478000Y-96903000D01*
X147478000Y-96903000D02*
X148365000Y-97790000D01*
D36*
%TO.N,BOOT*%
X150665000Y-103827000D02*
X146515000Y-103827000D01*
X145896000Y-100713000D02*
X145896000Y-103208000D01*
X145896000Y-103208000D02*
X146515000Y-103827000D01*
%TD*%
%TA.AperFunction,Conductor*%
%TO.N,GND*%
G36*
X127674352Y-83078502D02*
G01*
X127720845Y-83132158D01*
X127730949Y-83202432D01*
X127701455Y-83267012D01*
X127664404Y-83292783D01*
X127665818Y-83295366D01*
X127642351Y-83308214D01*
X127540276Y-83384715D01*
X127527715Y-83397276D01*
X127451214Y-83499351D01*
X127442676Y-83514946D01*
X127397522Y-83635394D01*
X127393895Y-83650649D01*
X127388369Y-83701514D01*
X127388000Y-83708328D01*
X127388000Y-83930885D01*
X127392475Y-83946124D01*
X127393865Y-83947329D01*
X127401548Y-83949000D01*
X130385884Y-83949000D01*
X130401123Y-83944525D01*
X130402328Y-83943135D01*
X130403999Y-83935452D01*
X130403999Y-83708331D01*
X130403629Y-83701510D01*
X130398105Y-83650648D01*
X130394479Y-83635396D01*
X130349324Y-83514946D01*
X130340786Y-83499351D01*
X130264285Y-83397276D01*
X130251724Y-83384715D01*
X130149649Y-83308214D01*
X130126182Y-83295366D01*
X130127897Y-83292234D01*
X130084776Y-83259842D01*
X130060075Y-83193281D01*
X130075281Y-83123932D01*
X130125566Y-83073813D01*
X130185769Y-83058500D01*
X144606231Y-83058500D01*
X144674352Y-83078502D01*
X144720845Y-83132158D01*
X144730949Y-83202432D01*
X144701455Y-83267012D01*
X144664404Y-83292783D01*
X144665818Y-83295366D01*
X144642351Y-83308214D01*
X144540276Y-83384715D01*
X144527715Y-83397276D01*
X144451214Y-83499351D01*
X144442676Y-83514946D01*
X144397522Y-83635394D01*
X144393895Y-83650649D01*
X144388369Y-83701514D01*
X144388000Y-83708328D01*
X144388000Y-83930885D01*
X144392475Y-83946124D01*
X144393865Y-83947329D01*
X144401548Y-83949000D01*
X147385884Y-83949000D01*
X147401123Y-83944525D01*
X147402328Y-83943135D01*
X147403999Y-83935452D01*
X147403999Y-83708331D01*
X147403629Y-83701510D01*
X147398105Y-83650648D01*
X147394479Y-83635396D01*
X147349324Y-83514946D01*
X147340786Y-83499351D01*
X147264285Y-83397276D01*
X147251724Y-83384715D01*
X147149649Y-83308214D01*
X147126182Y-83295366D01*
X147127897Y-83292234D01*
X147084776Y-83259842D01*
X147060075Y-83193281D01*
X147075281Y-83123932D01*
X147125566Y-83073813D01*
X147185769Y-83058500D01*
X167493302Y-83058500D01*
X167561423Y-83078502D01*
X167607916Y-83132158D01*
X167618020Y-83202432D01*
X167594128Y-83260065D01*
X167524214Y-83353351D01*
X167515676Y-83368946D01*
X167470522Y-83489394D01*
X167466895Y-83504649D01*
X167461369Y-83555514D01*
X167461000Y-83562328D01*
X167461000Y-83984885D01*
X167465475Y-84000124D01*
X167466865Y-84001329D01*
X167474548Y-84003000D01*
X169047000Y-84003000D01*
X169115121Y-84023002D01*
X169161614Y-84076658D01*
X169173000Y-84129000D01*
X169173000Y-84385000D01*
X169152998Y-84453121D01*
X169099342Y-84499614D01*
X169047000Y-84511000D01*
X167479116Y-84511000D01*
X167463877Y-84515475D01*
X167462672Y-84516865D01*
X167461001Y-84524548D01*
X167461001Y-84951669D01*
X167461371Y-84958490D01*
X167466895Y-85009352D01*
X167470521Y-85024604D01*
X167515676Y-85145054D01*
X167524214Y-85160649D01*
X167600715Y-85262724D01*
X167613276Y-85275285D01*
X167715351Y-85351786D01*
X167730946Y-85360324D01*
X167851394Y-85405478D01*
X167866649Y-85409105D01*
X167917514Y-85414631D01*
X167924328Y-85415000D01*
X168393000Y-85415000D01*
X168461121Y-85435002D01*
X168507614Y-85488658D01*
X168519000Y-85541000D01*
X168519000Y-88007000D01*
X169869000Y-88007000D01*
X169869000Y-85532995D01*
X169889002Y-85464874D01*
X169942658Y-85418381D01*
X169965855Y-85410412D01*
X169986608Y-85405478D01*
X170009271Y-85396982D01*
X170080078Y-85391799D01*
X170142447Y-85425720D01*
X170176576Y-85487976D01*
X170179500Y-85514964D01*
X170179500Y-96649036D01*
X170159498Y-96717157D01*
X170105842Y-96763650D01*
X170035568Y-96773754D01*
X170009271Y-96767018D01*
X169986609Y-96758522D01*
X169971351Y-96754895D01*
X169920486Y-96749369D01*
X169913672Y-96749000D01*
X168741115Y-96749000D01*
X168725876Y-96753475D01*
X168724671Y-96754865D01*
X168723000Y-96762548D01*
X168723000Y-98746884D01*
X168727475Y-98762123D01*
X168728865Y-98763328D01*
X168736548Y-98764999D01*
X169913669Y-98764999D01*
X169920490Y-98764629D01*
X169971352Y-98759105D01*
X169986607Y-98755478D01*
X170009271Y-98746982D01*
X170080078Y-98741799D01*
X170142447Y-98775720D01*
X170176576Y-98837976D01*
X170179500Y-98864964D01*
X170179500Y-106807500D01*
X170159498Y-106875621D01*
X170105842Y-106922114D01*
X170053500Y-106933500D01*
X162316000Y-106933500D01*
X162247879Y-106913498D01*
X162201386Y-106859842D01*
X162190000Y-106807500D01*
X162190000Y-106190115D01*
X162185525Y-106174876D01*
X162184135Y-106173671D01*
X162176452Y-106172000D01*
X152534116Y-106172000D01*
X152518877Y-106176475D01*
X152517672Y-106177865D01*
X152516001Y-106185548D01*
X152516001Y-106807500D01*
X152495999Y-106875621D01*
X152442343Y-106922114D01*
X152390001Y-106933500D01*
X151572735Y-106933500D01*
X151504614Y-106913498D01*
X151458121Y-106859842D01*
X151448017Y-106789568D01*
X151477511Y-106724988D01*
X151497170Y-106706674D01*
X151545724Y-106670285D01*
X151558285Y-106657724D01*
X151634786Y-106555649D01*
X151643324Y-106540054D01*
X151688478Y-106419606D01*
X151692105Y-106404351D01*
X151697631Y-106353486D01*
X151698000Y-106346672D01*
X151698000Y-106249115D01*
X151693525Y-106233876D01*
X151692135Y-106232671D01*
X151684452Y-106231000D01*
X149650116Y-106231000D01*
X149634877Y-106235475D01*
X149633672Y-106236865D01*
X149632001Y-106244548D01*
X149632001Y-106346669D01*
X149632371Y-106353490D01*
X149637895Y-106404352D01*
X149641521Y-106419604D01*
X149686676Y-106540054D01*
X149695214Y-106555649D01*
X149771715Y-106657724D01*
X149784276Y-106670285D01*
X149832830Y-106706674D01*
X149875345Y-106763533D01*
X149880371Y-106834351D01*
X149846311Y-106896645D01*
X149783980Y-106930635D01*
X149757265Y-106933500D01*
X147422735Y-106933500D01*
X147354614Y-106913498D01*
X147308121Y-106859842D01*
X147298017Y-106789568D01*
X147327511Y-106724988D01*
X147347170Y-106706674D01*
X147395724Y-106670285D01*
X147408285Y-106657724D01*
X147484786Y-106555649D01*
X147493324Y-106540054D01*
X147538478Y-106419606D01*
X147542105Y-106404351D01*
X147547631Y-106353486D01*
X147548000Y-106346672D01*
X147548000Y-106249115D01*
X147543525Y-106233876D01*
X147542135Y-106232671D01*
X147534452Y-106231000D01*
X145500116Y-106231000D01*
X145484877Y-106235475D01*
X145483672Y-106236865D01*
X145482001Y-106244548D01*
X145482001Y-106346669D01*
X145482371Y-106353490D01*
X145487895Y-106404352D01*
X145491521Y-106419604D01*
X145536676Y-106540054D01*
X145545214Y-106555649D01*
X145621715Y-106657724D01*
X145634276Y-106670285D01*
X145682830Y-106706674D01*
X145725345Y-106763533D01*
X145730371Y-106834351D01*
X145696311Y-106896645D01*
X145633980Y-106930635D01*
X145607265Y-106933500D01*
X102234500Y-106933500D01*
X102166379Y-106913498D01*
X102119886Y-106859842D01*
X102108500Y-106807500D01*
X102108500Y-102776694D01*
X102128502Y-102708573D01*
X102182158Y-102662080D01*
X102252432Y-102651976D01*
X102317012Y-102681470D01*
X102335327Y-102701129D01*
X102413719Y-102805728D01*
X102426276Y-102818285D01*
X102528351Y-102894786D01*
X102543946Y-102903324D01*
X102664394Y-102948478D01*
X102679649Y-102952105D01*
X102730514Y-102957631D01*
X102737328Y-102958000D01*
X103359885Y-102958000D01*
X103375124Y-102953525D01*
X103376329Y-102952135D01*
X103378000Y-102944452D01*
X103378000Y-102939884D01*
X103886000Y-102939884D01*
X103890475Y-102955123D01*
X103891865Y-102956328D01*
X103899548Y-102957999D01*
X104526669Y-102957999D01*
X104533490Y-102957629D01*
X104584352Y-102952105D01*
X104599604Y-102948479D01*
X104720054Y-102903324D01*
X104735649Y-102894786D01*
X104837724Y-102818285D01*
X104850285Y-102805724D01*
X104926786Y-102703649D01*
X104935324Y-102688054D01*
X104980478Y-102567606D01*
X104984105Y-102552351D01*
X104989631Y-102501486D01*
X104990184Y-102491275D01*
X104991453Y-102491344D01*
X105010002Y-102428172D01*
X105063658Y-102381679D01*
X105133932Y-102371575D01*
X105198512Y-102401069D01*
X105210987Y-102414732D01*
X105211572Y-102414227D01*
X105215234Y-102418469D01*
X105218511Y-102423030D01*
X105377491Y-102577092D01*
X105379185Y-102578734D01*
X105414185Y-102640504D01*
X105417500Y-102669218D01*
X105417500Y-104058235D01*
X105416067Y-104077184D01*
X105412826Y-104098489D01*
X105413419Y-104105780D01*
X105413419Y-104105783D01*
X105417085Y-104150848D01*
X105417500Y-104161063D01*
X105417500Y-104169053D01*
X105417925Y-104172697D01*
X105420771Y-104197113D01*
X105421204Y-104201487D01*
X105426096Y-104261622D01*
X105427090Y-104273847D01*
X105429345Y-104280809D01*
X105430518Y-104286677D01*
X105431890Y-104292484D01*
X105432738Y-104299754D01*
X105457532Y-104368060D01*
X105458940Y-104372163D01*
X105481312Y-104441222D01*
X105485109Y-104447479D01*
X105487602Y-104452926D01*
X105490270Y-104458254D01*
X105492768Y-104465134D01*
X105522184Y-104510001D01*
X105532568Y-104525839D01*
X105534915Y-104529559D01*
X105560551Y-104571805D01*
X105572583Y-104591633D01*
X105576295Y-104595836D01*
X105579949Y-104599974D01*
X105579924Y-104599996D01*
X105582624Y-104603041D01*
X105585220Y-104606146D01*
X105589234Y-104612268D01*
X105594547Y-104617301D01*
X105645127Y-104665216D01*
X105647531Y-104667556D01*
X106622283Y-105642307D01*
X106634662Y-105656712D01*
X106647437Y-105674071D01*
X106656369Y-105681659D01*
X106687479Y-105708089D01*
X106694995Y-105715019D01*
X106700638Y-105720662D01*
X106722822Y-105738214D01*
X106726196Y-105740981D01*
X106781520Y-105787982D01*
X106788039Y-105791311D01*
X106793013Y-105794628D01*
X106798089Y-105797763D01*
X106803832Y-105802307D01*
X106834295Y-105816544D01*
X106869618Y-105833053D01*
X106873570Y-105834985D01*
X106938212Y-105867993D01*
X106945320Y-105869732D01*
X106950918Y-105871814D01*
X106956591Y-105873701D01*
X106963221Y-105876800D01*
X107016725Y-105887929D01*
X107034303Y-105891585D01*
X107038575Y-105892552D01*
X107109108Y-105909811D01*
X107114710Y-105910159D01*
X107114713Y-105910159D01*
X107120214Y-105910500D01*
X107120212Y-105910534D01*
X107124271Y-105910777D01*
X107128305Y-105911137D01*
X107135473Y-105912628D01*
X107142790Y-105912430D01*
X107212415Y-105910546D01*
X107215823Y-105910500D01*
X120205235Y-105910500D01*
X120224185Y-105911933D01*
X120238255Y-105914074D01*
X120238259Y-105914074D01*
X120245489Y-105915174D01*
X120252780Y-105914581D01*
X120252783Y-105914581D01*
X120297848Y-105910915D01*
X120308063Y-105910500D01*
X120316053Y-105910500D01*
X120323302Y-105909655D01*
X120344113Y-105907229D01*
X120348487Y-105906796D01*
X120413549Y-105901504D01*
X120413552Y-105901503D01*
X120420847Y-105900910D01*
X120427809Y-105898655D01*
X120433677Y-105897482D01*
X120439484Y-105896110D01*
X120446754Y-105895262D01*
X120515060Y-105870468D01*
X120519163Y-105869060D01*
X120588222Y-105846688D01*
X120594479Y-105842891D01*
X120599926Y-105840398D01*
X120605254Y-105837730D01*
X120612134Y-105835232D01*
X120672849Y-105795426D01*
X120676559Y-105793085D01*
X120733838Y-105758327D01*
X120733840Y-105758325D01*
X120738633Y-105755417D01*
X120746974Y-105748051D01*
X120746996Y-105748076D01*
X120750041Y-105745376D01*
X120753146Y-105742780D01*
X120759268Y-105738766D01*
X120812216Y-105682873D01*
X120814593Y-105680432D01*
X121352972Y-105142053D01*
X121891620Y-104603404D01*
X121953932Y-104569379D01*
X121980715Y-104566499D01*
X122241066Y-104566499D01*
X122276818Y-104559388D01*
X122303126Y-104554156D01*
X122303128Y-104554155D01*
X122315301Y-104551734D01*
X122325621Y-104544839D01*
X122325622Y-104544838D01*
X122389168Y-104502377D01*
X122399484Y-104495484D01*
X122455734Y-104411301D01*
X122470500Y-104337067D01*
X122470499Y-103186934D01*
X122470499Y-103186933D01*
X123655500Y-103186933D01*
X123655501Y-104337066D01*
X123661269Y-104366068D01*
X123667410Y-104396941D01*
X123670266Y-104411301D01*
X123677161Y-104421620D01*
X123677162Y-104421622D01*
X123708274Y-104468183D01*
X123726516Y-104495484D01*
X123810699Y-104551734D01*
X123884933Y-104566500D01*
X124459907Y-104566500D01*
X125035066Y-104566499D01*
X125070818Y-104559388D01*
X125097126Y-104554156D01*
X125097128Y-104554155D01*
X125109301Y-104551734D01*
X125119621Y-104544839D01*
X125119622Y-104544838D01*
X125183168Y-104502377D01*
X125193484Y-104495484D01*
X125245936Y-104416985D01*
X125300413Y-104371459D01*
X125350700Y-104360989D01*
X129833500Y-104360989D01*
X129901621Y-104380991D01*
X129948114Y-104434647D01*
X129959500Y-104486989D01*
X129959501Y-105283715D01*
X129959501Y-106031066D01*
X129974266Y-106105301D01*
X129981161Y-106115620D01*
X129981162Y-106115622D01*
X130018833Y-106172000D01*
X130030516Y-106189484D01*
X130040832Y-106196377D01*
X130099346Y-106235475D01*
X130114699Y-106245734D01*
X130188933Y-106260500D01*
X131063858Y-106260500D01*
X131939066Y-106260499D01*
X131974818Y-106253388D01*
X132001126Y-106248156D01*
X132001128Y-106248155D01*
X132013301Y-106245734D01*
X132023621Y-106238839D01*
X132023622Y-106238838D01*
X132087168Y-106196377D01*
X132097484Y-106189484D01*
X132153734Y-106105301D01*
X132168500Y-106031067D01*
X132168499Y-104486989D01*
X132188501Y-104418868D01*
X132242157Y-104372375D01*
X132294499Y-104360989D01*
X132566246Y-104360989D01*
X132634367Y-104380991D01*
X132680860Y-104434647D01*
X132690964Y-104504921D01*
X132673390Y-104551696D01*
X132673720Y-104551869D01*
X132672517Y-104554156D01*
X132671035Y-104556973D01*
X132671032Y-104556977D01*
X132641942Y-104612268D01*
X132579203Y-104731515D01*
X132519007Y-104925378D01*
X132495148Y-105126964D01*
X132508424Y-105329522D01*
X132509845Y-105335118D01*
X132509846Y-105335123D01*
X132536187Y-105438837D01*
X132558392Y-105526269D01*
X132560809Y-105531512D01*
X132595761Y-105607328D01*
X132643377Y-105710616D01*
X132662866Y-105738192D01*
X132756358Y-105870481D01*
X132760533Y-105876389D01*
X132764675Y-105880424D01*
X132800347Y-105915174D01*
X132905938Y-106018035D01*
X133074720Y-106130812D01*
X133080023Y-106133090D01*
X133080026Y-106133092D01*
X133255921Y-106208662D01*
X133261228Y-106210942D01*
X133334244Y-106227464D01*
X133453579Y-106254467D01*
X133453584Y-106254468D01*
X133459216Y-106255742D01*
X133464987Y-106255969D01*
X133464989Y-106255969D01*
X133524756Y-106258317D01*
X133662053Y-106263712D01*
X133769348Y-106248155D01*
X133857231Y-106235413D01*
X133857236Y-106235412D01*
X133862945Y-106234584D01*
X133868409Y-106232729D01*
X133868414Y-106232728D01*
X134049693Y-106171192D01*
X134049698Y-106171190D01*
X134055165Y-106169334D01*
X134232276Y-106070147D01*
X134271969Y-106037135D01*
X134359696Y-105964172D01*
X134388345Y-105940345D01*
X134413740Y-105909811D01*
X134514453Y-105788718D01*
X134514455Y-105788715D01*
X134518147Y-105784276D01*
X134586475Y-105662267D01*
X134614510Y-105612208D01*
X134614511Y-105612206D01*
X134617334Y-105607165D01*
X134619190Y-105601698D01*
X134619192Y-105601693D01*
X134680728Y-105420414D01*
X134680729Y-105420409D01*
X134682584Y-105414945D01*
X134683412Y-105409236D01*
X134683413Y-105409231D01*
X134711179Y-105217727D01*
X134711712Y-105214053D01*
X134713232Y-105156000D01*
X134695821Y-104966514D01*
X134695187Y-104959613D01*
X134695186Y-104959610D01*
X134694658Y-104953859D01*
X134693090Y-104948299D01*
X134641125Y-104764046D01*
X134641124Y-104764044D01*
X134639557Y-104758487D01*
X134628978Y-104737033D01*
X134552331Y-104581609D01*
X134549776Y-104576428D01*
X134539284Y-104562378D01*
X134514553Y-104495830D01*
X134529725Y-104426474D01*
X134579986Y-104376331D01*
X134640242Y-104360989D01*
X135106246Y-104360989D01*
X135174367Y-104380991D01*
X135220860Y-104434647D01*
X135230964Y-104504921D01*
X135213390Y-104551696D01*
X135213720Y-104551869D01*
X135212517Y-104554156D01*
X135211035Y-104556973D01*
X135211032Y-104556977D01*
X135181942Y-104612268D01*
X135119203Y-104731515D01*
X135059007Y-104925378D01*
X135035148Y-105126964D01*
X135048424Y-105329522D01*
X135049845Y-105335118D01*
X135049846Y-105335123D01*
X135076187Y-105438837D01*
X135098392Y-105526269D01*
X135100809Y-105531512D01*
X135135761Y-105607328D01*
X135183377Y-105710616D01*
X135202866Y-105738192D01*
X135296358Y-105870481D01*
X135300533Y-105876389D01*
X135304675Y-105880424D01*
X135340347Y-105915174D01*
X135445938Y-106018035D01*
X135614720Y-106130812D01*
X135620023Y-106133090D01*
X135620026Y-106133092D01*
X135795921Y-106208662D01*
X135801228Y-106210942D01*
X135874244Y-106227464D01*
X135993579Y-106254467D01*
X135993584Y-106254468D01*
X135999216Y-106255742D01*
X136004987Y-106255969D01*
X136004989Y-106255969D01*
X136064756Y-106258317D01*
X136202053Y-106263712D01*
X136309348Y-106248155D01*
X136397231Y-106235413D01*
X136397236Y-106235412D01*
X136402945Y-106234584D01*
X136408409Y-106232729D01*
X136408414Y-106232728D01*
X136589693Y-106171192D01*
X136589698Y-106171190D01*
X136595165Y-106169334D01*
X136772276Y-106070147D01*
X136811969Y-106037135D01*
X136899696Y-105964172D01*
X136928345Y-105940345D01*
X136953740Y-105909811D01*
X137054453Y-105788718D01*
X137054455Y-105788715D01*
X137058147Y-105784276D01*
X137126475Y-105662267D01*
X137154510Y-105612208D01*
X137154511Y-105612206D01*
X137157334Y-105607165D01*
X137159190Y-105601698D01*
X137159192Y-105601693D01*
X137220728Y-105420414D01*
X137220729Y-105420409D01*
X137222584Y-105414945D01*
X137223412Y-105409236D01*
X137223413Y-105409231D01*
X137251179Y-105217727D01*
X137251712Y-105214053D01*
X137253232Y-105156000D01*
X137252893Y-105152305D01*
X137248319Y-105102536D01*
X137262003Y-105032871D01*
X137311179Y-104981663D01*
X137380234Y-104965171D01*
X137447243Y-104988631D01*
X137462885Y-105001910D01*
X137540717Y-105079741D01*
X137574742Y-105142053D01*
X137577352Y-105160596D01*
X137588424Y-105329522D01*
X137589845Y-105335118D01*
X137589846Y-105335123D01*
X137616187Y-105438837D01*
X137638392Y-105526269D01*
X137640809Y-105531512D01*
X137675761Y-105607328D01*
X137723377Y-105710616D01*
X137742866Y-105738192D01*
X137836358Y-105870481D01*
X137840533Y-105876389D01*
X137844675Y-105880424D01*
X137880347Y-105915174D01*
X137985938Y-106018035D01*
X138154720Y-106130812D01*
X138160023Y-106133090D01*
X138160026Y-106133092D01*
X138335921Y-106208662D01*
X138341228Y-106210942D01*
X138414244Y-106227464D01*
X138533579Y-106254467D01*
X138533584Y-106254468D01*
X138539216Y-106255742D01*
X138544987Y-106255969D01*
X138544989Y-106255969D01*
X138604756Y-106258317D01*
X138742053Y-106263712D01*
X138849348Y-106248155D01*
X138937231Y-106235413D01*
X138937236Y-106235412D01*
X138942945Y-106234584D01*
X138948409Y-106232729D01*
X138948414Y-106232728D01*
X139129693Y-106171192D01*
X139129698Y-106171190D01*
X139135165Y-106169334D01*
X139312276Y-106070147D01*
X139351969Y-106037135D01*
X139439696Y-105964172D01*
X139468345Y-105940345D01*
X139493740Y-105909811D01*
X139594453Y-105788718D01*
X139594455Y-105788715D01*
X139598147Y-105784276D01*
X139666475Y-105662267D01*
X139694510Y-105612208D01*
X139694511Y-105612206D01*
X139697334Y-105607165D01*
X139699720Y-105600135D01*
X139700170Y-105599496D01*
X139701541Y-105596416D01*
X139702146Y-105596685D01*
X139740553Y-105542059D01*
X139806305Y-105515278D01*
X139876098Y-105528295D01*
X139927773Y-105576980D01*
X139935777Y-105593229D01*
X140005770Y-105765603D01*
X140010413Y-105774794D01*
X140121694Y-105956388D01*
X140127777Y-105964699D01*
X140267213Y-106125667D01*
X140274580Y-106132883D01*
X140438434Y-106268916D01*
X140446881Y-106274831D01*
X140630756Y-106382279D01*
X140640042Y-106386729D01*
X140839001Y-106462703D01*
X140848899Y-106465579D01*
X140952250Y-106486606D01*
X140966299Y-106485410D01*
X140970000Y-106475065D01*
X140970000Y-106474517D01*
X141478000Y-106474517D01*
X141482064Y-106488359D01*
X141495478Y-106490393D01*
X141502184Y-106489534D01*
X141512262Y-106487392D01*
X141716255Y-106426191D01*
X141725842Y-106422433D01*
X141917095Y-106328739D01*
X141925945Y-106323464D01*
X142099328Y-106199792D01*
X142107200Y-106193139D01*
X142258052Y-106042812D01*
X142264730Y-106034965D01*
X142392022Y-105857819D01*
X142393147Y-105858627D01*
X142440669Y-105814876D01*
X142510607Y-105802661D01*
X142576046Y-105830197D01*
X142603870Y-105862028D01*
X142661690Y-105956383D01*
X142667777Y-105964699D01*
X142807213Y-106125667D01*
X142814580Y-106132883D01*
X142978434Y-106268916D01*
X142986881Y-106274831D01*
X143170756Y-106382279D01*
X143180042Y-106386729D01*
X143379001Y-106462703D01*
X143388899Y-106465579D01*
X143492250Y-106486606D01*
X143506299Y-106485410D01*
X143510000Y-106475065D01*
X143510000Y-106474517D01*
X144018000Y-106474517D01*
X144022064Y-106488359D01*
X144035478Y-106490393D01*
X144042184Y-106489534D01*
X144052262Y-106487392D01*
X144256255Y-106426191D01*
X144265842Y-106422433D01*
X144457095Y-106328739D01*
X144465945Y-106323464D01*
X144639328Y-106199792D01*
X144647200Y-106193139D01*
X144798052Y-106042812D01*
X144804730Y-106034965D01*
X144929003Y-105862020D01*
X144934313Y-105853183D01*
X145007607Y-105704885D01*
X145482000Y-105704885D01*
X145486475Y-105720124D01*
X145487865Y-105721329D01*
X145495548Y-105723000D01*
X146242885Y-105723000D01*
X146258124Y-105718525D01*
X146259329Y-105717135D01*
X146261000Y-105709452D01*
X146261000Y-105704885D01*
X146769000Y-105704885D01*
X146773475Y-105720124D01*
X146774865Y-105721329D01*
X146782548Y-105723000D01*
X147529884Y-105723000D01*
X147545123Y-105718525D01*
X147546328Y-105717135D01*
X147547999Y-105709452D01*
X147547999Y-105704885D01*
X149632000Y-105704885D01*
X149636475Y-105720124D01*
X149637865Y-105721329D01*
X149645548Y-105723000D01*
X150392885Y-105723000D01*
X150408124Y-105718525D01*
X150409329Y-105717135D01*
X150411000Y-105709452D01*
X150411000Y-105704885D01*
X150919000Y-105704885D01*
X150923475Y-105720124D01*
X150924865Y-105721329D01*
X150932548Y-105723000D01*
X151679884Y-105723000D01*
X151695123Y-105718525D01*
X151696328Y-105717135D01*
X151697999Y-105709452D01*
X151697999Y-105607331D01*
X151697629Y-105600510D01*
X151692105Y-105549648D01*
X151688479Y-105534396D01*
X151643324Y-105413946D01*
X151634786Y-105398351D01*
X151558285Y-105296276D01*
X151545724Y-105283715D01*
X151443649Y-105207214D01*
X151428054Y-105198676D01*
X151307606Y-105153522D01*
X151292351Y-105149895D01*
X151241486Y-105144369D01*
X151234672Y-105144000D01*
X150937115Y-105144000D01*
X150921876Y-105148475D01*
X150920671Y-105149865D01*
X150919000Y-105157548D01*
X150919000Y-105704885D01*
X150411000Y-105704885D01*
X150411000Y-105162116D01*
X150406525Y-105146877D01*
X150405135Y-105145672D01*
X150397452Y-105144001D01*
X150095331Y-105144001D01*
X150088510Y-105144371D01*
X150037648Y-105149895D01*
X150022396Y-105153521D01*
X149901946Y-105198676D01*
X149886351Y-105207214D01*
X149784276Y-105283715D01*
X149771715Y-105296276D01*
X149695214Y-105398351D01*
X149686676Y-105413946D01*
X149641522Y-105534394D01*
X149637895Y-105549649D01*
X149632369Y-105600514D01*
X149632000Y-105607328D01*
X149632000Y-105704885D01*
X147547999Y-105704885D01*
X147547999Y-105607331D01*
X147547629Y-105600510D01*
X147542105Y-105549648D01*
X147538479Y-105534396D01*
X147493324Y-105413946D01*
X147484786Y-105398351D01*
X147408285Y-105296276D01*
X147395724Y-105283715D01*
X147293649Y-105207214D01*
X147278054Y-105198676D01*
X147157606Y-105153522D01*
X147142351Y-105149895D01*
X147091486Y-105144369D01*
X147084672Y-105144000D01*
X146787115Y-105144000D01*
X146771876Y-105148475D01*
X146770671Y-105149865D01*
X146769000Y-105157548D01*
X146769000Y-105704885D01*
X146261000Y-105704885D01*
X146261000Y-105162116D01*
X146256525Y-105146877D01*
X146255135Y-105145672D01*
X146247452Y-105144001D01*
X145945331Y-105144001D01*
X145938510Y-105144371D01*
X145887648Y-105149895D01*
X145872396Y-105153521D01*
X145751946Y-105198676D01*
X145736351Y-105207214D01*
X145634276Y-105283715D01*
X145621715Y-105296276D01*
X145545214Y-105398351D01*
X145536676Y-105413946D01*
X145491522Y-105534394D01*
X145487895Y-105549649D01*
X145482369Y-105600514D01*
X145482000Y-105607328D01*
X145482000Y-105704885D01*
X145007607Y-105704885D01*
X145028670Y-105662267D01*
X145032469Y-105652672D01*
X145094377Y-105448910D01*
X145096555Y-105438837D01*
X145097986Y-105427962D01*
X145095775Y-105413778D01*
X145082617Y-105410000D01*
X144036115Y-105410000D01*
X144020876Y-105414475D01*
X144019671Y-105415865D01*
X144018000Y-105423548D01*
X144018000Y-106474517D01*
X143510000Y-106474517D01*
X143510000Y-105428115D01*
X143505525Y-105412876D01*
X143504135Y-105411671D01*
X143496452Y-105410000D01*
X141496115Y-105410000D01*
X141480876Y-105414475D01*
X141479671Y-105415865D01*
X141478000Y-105423548D01*
X141478000Y-106474517D01*
X140970000Y-106474517D01*
X140970000Y-104883885D01*
X141478000Y-104883885D01*
X141482475Y-104899124D01*
X141483865Y-104900329D01*
X141491548Y-104902000D01*
X143491885Y-104902000D01*
X143507124Y-104897525D01*
X143508329Y-104896135D01*
X143510000Y-104888452D01*
X143510000Y-104883885D01*
X144018000Y-104883885D01*
X144022475Y-104899124D01*
X144023865Y-104900329D01*
X144031548Y-104902000D01*
X145082344Y-104902000D01*
X145095875Y-104898027D01*
X145097180Y-104888947D01*
X145055214Y-104721875D01*
X145051894Y-104712124D01*
X144966972Y-104516814D01*
X144962105Y-104507739D01*
X144846426Y-104328926D01*
X144840136Y-104320757D01*
X144696806Y-104163240D01*
X144689273Y-104156215D01*
X144522139Y-104024222D01*
X144513552Y-104018517D01*
X144327117Y-103915599D01*
X144317705Y-103911369D01*
X144116959Y-103840280D01*
X144106988Y-103837646D01*
X144035837Y-103824972D01*
X144022540Y-103826432D01*
X144018000Y-103840989D01*
X144018000Y-104883885D01*
X143510000Y-104883885D01*
X143510000Y-103839102D01*
X143506082Y-103825758D01*
X143491806Y-103823771D01*
X143453324Y-103829660D01*
X143443288Y-103832051D01*
X143240868Y-103898212D01*
X143231359Y-103902209D01*
X143042463Y-104000542D01*
X143033738Y-104006036D01*
X142863433Y-104133905D01*
X142855726Y-104140748D01*
X142708590Y-104294717D01*
X142702104Y-104302727D01*
X142597193Y-104456521D01*
X142542282Y-104501524D01*
X142471757Y-104509695D01*
X142408010Y-104478441D01*
X142387313Y-104453957D01*
X142306427Y-104328926D01*
X142300136Y-104320757D01*
X142156806Y-104163240D01*
X142149273Y-104156215D01*
X141982139Y-104024222D01*
X141973552Y-104018517D01*
X141787117Y-103915599D01*
X141777705Y-103911369D01*
X141576959Y-103840280D01*
X141566988Y-103837646D01*
X141495837Y-103824972D01*
X141482540Y-103826432D01*
X141478000Y-103840989D01*
X141478000Y-104883885D01*
X140970000Y-104883885D01*
X140970000Y-103839102D01*
X140966082Y-103825758D01*
X140951806Y-103823771D01*
X140913324Y-103829660D01*
X140903288Y-103832051D01*
X140700868Y-103898212D01*
X140691359Y-103902209D01*
X140502463Y-104000542D01*
X140493738Y-104006036D01*
X140323433Y-104133905D01*
X140315726Y-104140748D01*
X140168590Y-104294717D01*
X140162104Y-104302727D01*
X140042098Y-104478649D01*
X140037000Y-104487623D01*
X139947338Y-104680783D01*
X139943777Y-104690464D01*
X139939291Y-104706640D01*
X139901813Y-104766939D01*
X139837684Y-104797403D01*
X139767266Y-104788360D01*
X139712915Y-104742682D01*
X139704867Y-104728698D01*
X139632331Y-104581609D01*
X139629776Y-104576428D01*
X139622363Y-104566500D01*
X139580447Y-104510369D01*
X139508320Y-104413779D01*
X139359258Y-104275987D01*
X139354375Y-104272906D01*
X139354371Y-104272903D01*
X139202479Y-104177067D01*
X139187581Y-104167667D01*
X138999039Y-104092446D01*
X138993379Y-104091320D01*
X138993375Y-104091319D01*
X138805613Y-104053971D01*
X138805610Y-104053971D01*
X138799946Y-104052844D01*
X138794171Y-104052768D01*
X138794167Y-104052768D01*
X138697072Y-104051497D01*
X138629219Y-104030605D01*
X138609627Y-104014603D01*
X137777619Y-103182595D01*
X137743593Y-103120283D01*
X137748658Y-103049468D01*
X137791205Y-102992632D01*
X137857725Y-102967821D01*
X137866714Y-102967500D01*
X138487514Y-102967499D01*
X138506066Y-102967499D01*
X138541818Y-102960388D01*
X138568126Y-102955156D01*
X138568128Y-102955155D01*
X138580301Y-102952734D01*
X138595996Y-102942247D01*
X138663748Y-102921030D01*
X138736004Y-102942247D01*
X138751699Y-102952734D01*
X138825933Y-102967500D01*
X139300923Y-102967500D01*
X139776066Y-102967499D01*
X139811818Y-102960388D01*
X139838126Y-102955156D01*
X139838128Y-102955155D01*
X139850301Y-102952734D01*
X139865996Y-102942247D01*
X139933748Y-102921030D01*
X140006004Y-102942247D01*
X140021699Y-102952734D01*
X140095933Y-102967500D01*
X140570923Y-102967500D01*
X141046066Y-102967499D01*
X141081818Y-102960388D01*
X141108126Y-102955156D01*
X141108128Y-102955155D01*
X141120301Y-102952734D01*
X141135996Y-102942247D01*
X141203748Y-102921030D01*
X141276004Y-102942247D01*
X141291699Y-102952734D01*
X141365933Y-102967500D01*
X141840923Y-102967500D01*
X142316066Y-102967499D01*
X142351818Y-102960388D01*
X142378126Y-102955156D01*
X142378128Y-102955155D01*
X142390301Y-102952734D01*
X142405996Y-102942247D01*
X142473748Y-102921030D01*
X142546004Y-102942247D01*
X142561699Y-102952734D01*
X142635933Y-102967500D01*
X143110923Y-102967500D01*
X143586066Y-102967499D01*
X143621818Y-102960388D01*
X143648126Y-102955156D01*
X143648128Y-102955155D01*
X143660301Y-102952734D01*
X143670621Y-102945839D01*
X143670622Y-102945838D01*
X143734168Y-102903377D01*
X143744484Y-102896484D01*
X143800734Y-102812301D01*
X143815500Y-102738067D01*
X143815499Y-100687934D01*
X143800734Y-100613699D01*
X143792768Y-100601776D01*
X143751377Y-100539832D01*
X143744484Y-100529516D01*
X143660301Y-100473266D01*
X143586067Y-100458500D01*
X143111077Y-100458500D01*
X142635934Y-100458501D01*
X142600182Y-100465612D01*
X142573874Y-100470844D01*
X142573872Y-100470845D01*
X142561699Y-100473266D01*
X142546004Y-100483753D01*
X142478252Y-100504970D01*
X142405996Y-100483753D01*
X142390301Y-100473266D01*
X142316067Y-100458500D01*
X141841077Y-100458500D01*
X141365934Y-100458501D01*
X141330182Y-100465612D01*
X141303874Y-100470844D01*
X141303872Y-100470845D01*
X141291699Y-100473266D01*
X141276004Y-100483753D01*
X141208252Y-100504970D01*
X141135996Y-100483753D01*
X141120301Y-100473266D01*
X141046067Y-100458500D01*
X140571077Y-100458500D01*
X140095934Y-100458501D01*
X140060182Y-100465612D01*
X140033874Y-100470844D01*
X140033872Y-100470845D01*
X140021699Y-100473266D01*
X140006004Y-100483753D01*
X139938252Y-100504970D01*
X139865996Y-100483753D01*
X139850301Y-100473266D01*
X139776067Y-100458500D01*
X139301077Y-100458500D01*
X138825934Y-100458501D01*
X138790182Y-100465612D01*
X138763874Y-100470844D01*
X138763872Y-100470845D01*
X138751699Y-100473266D01*
X138736004Y-100483753D01*
X138668252Y-100504970D01*
X138595996Y-100483753D01*
X138580301Y-100473266D01*
X138506067Y-100458500D01*
X138031077Y-100458500D01*
X137555934Y-100458501D01*
X137520182Y-100465612D01*
X137493874Y-100470844D01*
X137493872Y-100470845D01*
X137481699Y-100473266D01*
X137466004Y-100483753D01*
X137398252Y-100504970D01*
X137325996Y-100483753D01*
X137310301Y-100473266D01*
X137236067Y-100458500D01*
X136761077Y-100458500D01*
X136285934Y-100458501D01*
X136250182Y-100465612D01*
X136223874Y-100470844D01*
X136223872Y-100470845D01*
X136211699Y-100473266D01*
X136196004Y-100483753D01*
X136128252Y-100504970D01*
X136055996Y-100483753D01*
X136040301Y-100473266D01*
X135966067Y-100458500D01*
X135491077Y-100458500D01*
X135015934Y-100458501D01*
X134980182Y-100465612D01*
X134953874Y-100470844D01*
X134953872Y-100470845D01*
X134941699Y-100473266D01*
X134926004Y-100483753D01*
X134858252Y-100504970D01*
X134785996Y-100483753D01*
X134770301Y-100473266D01*
X134696067Y-100458500D01*
X134221077Y-100458500D01*
X133745934Y-100458501D01*
X133710182Y-100465612D01*
X133683874Y-100470844D01*
X133683872Y-100470845D01*
X133671699Y-100473266D01*
X133656004Y-100483753D01*
X133588252Y-100504970D01*
X133515996Y-100483753D01*
X133500301Y-100473266D01*
X133426067Y-100458500D01*
X133391165Y-100458500D01*
X132638175Y-100458501D01*
X132570055Y-100438499D01*
X132537350Y-100408066D01*
X132499285Y-100357276D01*
X132486724Y-100344715D01*
X132384649Y-100268214D01*
X132369054Y-100259676D01*
X132248606Y-100214522D01*
X132233351Y-100210895D01*
X132182486Y-100205369D01*
X132175672Y-100205000D01*
X131953115Y-100205000D01*
X131937876Y-100209475D01*
X131936671Y-100210865D01*
X131935000Y-100218548D01*
X131935000Y-101841000D01*
X131914998Y-101909121D01*
X131861342Y-101955614D01*
X131809000Y-101967000D01*
X130741116Y-101967000D01*
X130725877Y-101971475D01*
X130724672Y-101972865D01*
X130723001Y-101980548D01*
X130723001Y-102725989D01*
X130702999Y-102794110D01*
X130649343Y-102840603D01*
X130597001Y-102851989D01*
X124682276Y-102851989D01*
X124663326Y-102850556D01*
X124649256Y-102848415D01*
X124649252Y-102848415D01*
X124642022Y-102847315D01*
X124634731Y-102847908D01*
X124634728Y-102847908D01*
X124589663Y-102851574D01*
X124579448Y-102851989D01*
X124571458Y-102851989D01*
X124564209Y-102852834D01*
X124543398Y-102855260D01*
X124539024Y-102855693D01*
X124473962Y-102860985D01*
X124473959Y-102860986D01*
X124466664Y-102861579D01*
X124459704Y-102863834D01*
X124453827Y-102865008D01*
X124448024Y-102866380D01*
X124440757Y-102867227D01*
X124372474Y-102892013D01*
X124368387Y-102893416D01*
X124299289Y-102915800D01*
X124293028Y-102919599D01*
X124287579Y-102922094D01*
X124282250Y-102924762D01*
X124275377Y-102927257D01*
X124269264Y-102931265D01*
X124269250Y-102931272D01*
X124260708Y-102936873D01*
X124191624Y-102957501D01*
X123884934Y-102957501D01*
X123849182Y-102964612D01*
X123822874Y-102969844D01*
X123822872Y-102969845D01*
X123810699Y-102972266D01*
X123800379Y-102979161D01*
X123800378Y-102979162D01*
X123771264Y-102998616D01*
X123726516Y-103028516D01*
X123719623Y-103038832D01*
X123677668Y-103101622D01*
X123670266Y-103112699D01*
X123655500Y-103186933D01*
X122470499Y-103186933D01*
X122460434Y-103136329D01*
X122458156Y-103124874D01*
X122458155Y-103124872D01*
X122455734Y-103112699D01*
X122448333Y-103101622D01*
X122406377Y-103038832D01*
X122399484Y-103028516D01*
X122315301Y-102972266D01*
X122241067Y-102957500D01*
X121666093Y-102957500D01*
X121090934Y-102957501D01*
X121055182Y-102964612D01*
X121028874Y-102969844D01*
X121028872Y-102969845D01*
X121016699Y-102972266D01*
X121006379Y-102979161D01*
X121006378Y-102979162D01*
X120977264Y-102998616D01*
X120932516Y-103028516D01*
X120925623Y-103038832D01*
X120883668Y-103101622D01*
X120876266Y-103112699D01*
X120861500Y-103186933D01*
X120861500Y-103447286D01*
X120841498Y-103515407D01*
X120824595Y-103536381D01*
X120189095Y-104171881D01*
X120126783Y-104205907D01*
X120055968Y-104200842D01*
X119999132Y-104158295D01*
X119974321Y-104091775D01*
X119974000Y-104082786D01*
X119974000Y-103664115D01*
X119969525Y-103648876D01*
X119968135Y-103647671D01*
X119960452Y-103646000D01*
X116976116Y-103646000D01*
X116960877Y-103650475D01*
X116959672Y-103651865D01*
X116958001Y-103659548D01*
X116958001Y-104186669D01*
X116958371Y-104193490D01*
X116963895Y-104244353D01*
X116964372Y-104246360D01*
X116964288Y-104247970D01*
X116964748Y-104252207D01*
X116964063Y-104252281D01*
X116960667Y-104317260D01*
X116919218Y-104374901D01*
X116853186Y-104400983D01*
X116841788Y-104401500D01*
X107567714Y-104401500D01*
X107499593Y-104381498D01*
X107478619Y-104364595D01*
X106963405Y-103849381D01*
X106929379Y-103787069D01*
X106926500Y-103760286D01*
X106926500Y-102664558D01*
X106946502Y-102596437D01*
X106975796Y-102564596D01*
X107020115Y-102530589D01*
X107020123Y-102530581D01*
X107024573Y-102527167D01*
X107028346Y-102523021D01*
X107028351Y-102523016D01*
X107171507Y-102365689D01*
X107175286Y-102361536D01*
X107294286Y-102171833D01*
X107299312Y-102159332D01*
X107374271Y-101972865D01*
X107377812Y-101964056D01*
X107395828Y-101877062D01*
X107429229Y-101814413D01*
X107491198Y-101779767D01*
X107562061Y-101784124D01*
X107619319Y-101826101D01*
X107641332Y-101871598D01*
X107642720Y-101877062D01*
X107664970Y-101964672D01*
X107664972Y-101964677D01*
X107666392Y-101970269D01*
X107668809Y-101975512D01*
X107706010Y-102056208D01*
X107751377Y-102154616D01*
X107754710Y-102159332D01*
X107826954Y-102261555D01*
X107868533Y-102320389D01*
X107872675Y-102324424D01*
X107934186Y-102384345D01*
X108013938Y-102462035D01*
X108182720Y-102574812D01*
X108188023Y-102577090D01*
X108188026Y-102577092D01*
X108362324Y-102651976D01*
X108369228Y-102654942D01*
X108411725Y-102664558D01*
X108561579Y-102698467D01*
X108561584Y-102698468D01*
X108567216Y-102699742D01*
X108572987Y-102699969D01*
X108572989Y-102699969D01*
X108632756Y-102702317D01*
X108770053Y-102707712D01*
X108870499Y-102693148D01*
X108965231Y-102679413D01*
X108965236Y-102679412D01*
X108970945Y-102678584D01*
X108976409Y-102676729D01*
X108976414Y-102676728D01*
X109157693Y-102615192D01*
X109157698Y-102615190D01*
X109163165Y-102613334D01*
X109191741Y-102597331D01*
X109294739Y-102539649D01*
X109340276Y-102514147D01*
X109355500Y-102501486D01*
X109467696Y-102408172D01*
X109496345Y-102384345D01*
X109529130Y-102344926D01*
X109622453Y-102232718D01*
X109622455Y-102232715D01*
X109626147Y-102228276D01*
X109708215Y-102081734D01*
X109722510Y-102056208D01*
X109722511Y-102056206D01*
X109725334Y-102051165D01*
X109727190Y-102045698D01*
X109727192Y-102045693D01*
X109788728Y-101864414D01*
X109788729Y-101864409D01*
X109790584Y-101858945D01*
X109791412Y-101853236D01*
X109791413Y-101853231D01*
X109815377Y-101687952D01*
X109819712Y-101658053D01*
X109821232Y-101600000D01*
X109808276Y-101459000D01*
X109803187Y-101403613D01*
X109803186Y-101403610D01*
X109802658Y-101397859D01*
X109795322Y-101371846D01*
X109749125Y-101208046D01*
X109749124Y-101208044D01*
X109747557Y-101202487D01*
X109744407Y-101196098D01*
X109660331Y-101025609D01*
X109657776Y-101020428D01*
X109536320Y-100857779D01*
X109387258Y-100719987D01*
X109382375Y-100716906D01*
X109382371Y-100716903D01*
X109220464Y-100614748D01*
X109215581Y-100611667D01*
X109027039Y-100536446D01*
X109021379Y-100535320D01*
X109021375Y-100535319D01*
X108833613Y-100497971D01*
X108833610Y-100497971D01*
X108827946Y-100496844D01*
X108822171Y-100496768D01*
X108822167Y-100496768D01*
X108720793Y-100495441D01*
X108624971Y-100494187D01*
X108619274Y-100495166D01*
X108619273Y-100495166D01*
X108459484Y-100522623D01*
X108424910Y-100528564D01*
X108234463Y-100598824D01*
X108060010Y-100702612D01*
X108055670Y-100706418D01*
X108055666Y-100706421D01*
X107955002Y-100794702D01*
X107907392Y-100836455D01*
X107781720Y-100995869D01*
X107779031Y-101000980D01*
X107779029Y-101000983D01*
X107766073Y-101025609D01*
X107687203Y-101175515D01*
X107679572Y-101200091D01*
X107672833Y-101221794D01*
X107633530Y-101280919D01*
X107568500Y-101309410D01*
X107498391Y-101298220D01*
X107445461Y-101250903D01*
X107426500Y-101184430D01*
X107426500Y-98722178D01*
X107446502Y-98654057D01*
X107500158Y-98607564D01*
X107570432Y-98597460D01*
X107635012Y-98626954D01*
X107666926Y-98669426D01*
X107751377Y-98852616D01*
X107771931Y-98881700D01*
X107853750Y-98997471D01*
X107868533Y-99018389D01*
X107872675Y-99022424D01*
X107914841Y-99063500D01*
X108013938Y-99160035D01*
X108018742Y-99163245D01*
X108024263Y-99166934D01*
X108182720Y-99272812D01*
X108188023Y-99275090D01*
X108188026Y-99275092D01*
X108320575Y-99332039D01*
X108369228Y-99352942D01*
X108442244Y-99369464D01*
X108561579Y-99396467D01*
X108561584Y-99396468D01*
X108567216Y-99397742D01*
X108572987Y-99397969D01*
X108572989Y-99397969D01*
X108628754Y-99400160D01*
X108770053Y-99405712D01*
X108883079Y-99389324D01*
X108965231Y-99377413D01*
X108965236Y-99377412D01*
X108970945Y-99376584D01*
X108976409Y-99374729D01*
X108976414Y-99374728D01*
X109157693Y-99313192D01*
X109157698Y-99313190D01*
X109163165Y-99311334D01*
X109174592Y-99304935D01*
X109272065Y-99250347D01*
X109340276Y-99212147D01*
X109352115Y-99202301D01*
X109394640Y-99166933D01*
X110911500Y-99166933D01*
X110911501Y-103017066D01*
X110926266Y-103091301D01*
X110933161Y-103101620D01*
X110933162Y-103101622D01*
X110955548Y-103135124D01*
X110982516Y-103175484D01*
X111066699Y-103231734D01*
X111140933Y-103246500D01*
X112165834Y-103246500D01*
X113191066Y-103246499D01*
X113226818Y-103239388D01*
X113253126Y-103234156D01*
X113253128Y-103234155D01*
X113265301Y-103231734D01*
X113275621Y-103224839D01*
X113275622Y-103224838D01*
X113339168Y-103182377D01*
X113349484Y-103175484D01*
X113398331Y-103102380D01*
X113398839Y-103101620D01*
X113405734Y-103091301D01*
X113420500Y-103017067D01*
X113420499Y-99166934D01*
X113405734Y-99092699D01*
X113397325Y-99080113D01*
X113356377Y-99018832D01*
X113349484Y-99008516D01*
X113265301Y-98952266D01*
X113191067Y-98937500D01*
X112796500Y-98937500D01*
X112728379Y-98917498D01*
X112681886Y-98863842D01*
X112670500Y-98811500D01*
X112670500Y-97311796D01*
X112690502Y-97243675D01*
X112744158Y-97197182D01*
X112814432Y-97187078D01*
X112879012Y-97216572D01*
X112885518Y-97222623D01*
X112997829Y-97334739D01*
X113009240Y-97343751D01*
X113147243Y-97428816D01*
X113160424Y-97434963D01*
X113314710Y-97486138D01*
X113328086Y-97489005D01*
X113422438Y-97498672D01*
X113428854Y-97499000D01*
X113453885Y-97499000D01*
X113469124Y-97494525D01*
X113470329Y-97493135D01*
X113472000Y-97485452D01*
X113472000Y-97480884D01*
X113980000Y-97480884D01*
X113984475Y-97496123D01*
X113985865Y-97497328D01*
X113993548Y-97498999D01*
X114023095Y-97498999D01*
X114029614Y-97498662D01*
X114125206Y-97488743D01*
X114138600Y-97485851D01*
X114292784Y-97434412D01*
X114305962Y-97428239D01*
X114443807Y-97342937D01*
X114455208Y-97333901D01*
X114569739Y-97219171D01*
X114578751Y-97207760D01*
X114663816Y-97069757D01*
X114669963Y-97056576D01*
X114721138Y-96902290D01*
X114724005Y-96888914D01*
X114733672Y-96794562D01*
X114734000Y-96788146D01*
X114734000Y-96788095D01*
X115644001Y-96788095D01*
X115644338Y-96794614D01*
X115654257Y-96890206D01*
X115657149Y-96903600D01*
X115708588Y-97057784D01*
X115714761Y-97070962D01*
X115800063Y-97208807D01*
X115809099Y-97220208D01*
X115923829Y-97334739D01*
X115935240Y-97343751D01*
X116073243Y-97428816D01*
X116086424Y-97434963D01*
X116240710Y-97486138D01*
X116254086Y-97489005D01*
X116348438Y-97498672D01*
X116354854Y-97499000D01*
X116379885Y-97499000D01*
X116395124Y-97494525D01*
X116396329Y-97493135D01*
X116398000Y-97485452D01*
X116398000Y-96538115D01*
X116393525Y-96522876D01*
X116392135Y-96521671D01*
X116384452Y-96520000D01*
X115662116Y-96520000D01*
X115646877Y-96524475D01*
X115645672Y-96525865D01*
X115644001Y-96533548D01*
X115644001Y-96788095D01*
X114734000Y-96788095D01*
X114734000Y-96538115D01*
X114729525Y-96522876D01*
X114728135Y-96521671D01*
X114720452Y-96520000D01*
X113998115Y-96520000D01*
X113982876Y-96524475D01*
X113981671Y-96525865D01*
X113980000Y-96533548D01*
X113980000Y-97480884D01*
X113472000Y-97480884D01*
X113472000Y-95993885D01*
X113980000Y-95993885D01*
X113984475Y-96009124D01*
X113985865Y-96010329D01*
X113993548Y-96012000D01*
X114715884Y-96012000D01*
X114731123Y-96007525D01*
X114732328Y-96006135D01*
X114733999Y-95998452D01*
X114733999Y-95743905D01*
X114733662Y-95737386D01*
X114723743Y-95641794D01*
X114720851Y-95628400D01*
X114669412Y-95474216D01*
X114663239Y-95461038D01*
X114577937Y-95323193D01*
X114568901Y-95311792D01*
X114454171Y-95197261D01*
X114442760Y-95188249D01*
X114304757Y-95103184D01*
X114291576Y-95097037D01*
X114137290Y-95045862D01*
X114123914Y-95042995D01*
X114029562Y-95033328D01*
X114023145Y-95033000D01*
X113998115Y-95033000D01*
X113982876Y-95037475D01*
X113981671Y-95038865D01*
X113980000Y-95046548D01*
X113980000Y-95993885D01*
X113472000Y-95993885D01*
X113472000Y-95051116D01*
X113467525Y-95035877D01*
X113466135Y-95034672D01*
X113458452Y-95033001D01*
X113428905Y-95033001D01*
X113422386Y-95033338D01*
X113326794Y-95043257D01*
X113313400Y-95046149D01*
X113159216Y-95097588D01*
X113146038Y-95103761D01*
X113008193Y-95189063D01*
X112996792Y-95198099D01*
X112882261Y-95312829D01*
X112873249Y-95324240D01*
X112788184Y-95462243D01*
X112782036Y-95475426D01*
X112760283Y-95541010D01*
X112719853Y-95599370D01*
X112654288Y-95626607D01*
X112584407Y-95614074D01*
X112530170Y-95561853D01*
X112526221Y-95554640D01*
X112523071Y-95546236D01*
X112484769Y-95495129D01*
X112459922Y-95428622D01*
X112474976Y-95359240D01*
X112496501Y-95330470D01*
X113865086Y-93961885D01*
X115084888Y-93961885D01*
X115089363Y-93977124D01*
X115090753Y-93978329D01*
X115098436Y-93980000D01*
X116120773Y-93980000D01*
X116136012Y-93975525D01*
X116137217Y-93974135D01*
X116138888Y-93966452D01*
X116138888Y-92944116D01*
X116134413Y-92928877D01*
X116133023Y-92927672D01*
X116125340Y-92926001D01*
X115548219Y-92926001D01*
X115541398Y-92926371D01*
X115490536Y-92931895D01*
X115475284Y-92935521D01*
X115354834Y-92980676D01*
X115339239Y-92989214D01*
X115237164Y-93065715D01*
X115224603Y-93078276D01*
X115148102Y-93180351D01*
X115139564Y-93195946D01*
X115094410Y-93316394D01*
X115090783Y-93331649D01*
X115085257Y-93382514D01*
X115084888Y-93389328D01*
X115084888Y-93961885D01*
X113865086Y-93961885D01*
X116411565Y-91415405D01*
X116473877Y-91381379D01*
X116500660Y-91378500D01*
X116999756Y-91378500D01*
X117003153Y-91378131D01*
X117053597Y-91372651D01*
X117053598Y-91372651D01*
X117061448Y-91371798D01*
X117068841Y-91369026D01*
X117068843Y-91369026D01*
X117125106Y-91347934D01*
X117196764Y-91321071D01*
X117203943Y-91315691D01*
X117203946Y-91315689D01*
X117305224Y-91239785D01*
X117312404Y-91234404D01*
X117348318Y-91186484D01*
X117393689Y-91125946D01*
X117393691Y-91125943D01*
X117399071Y-91118764D01*
X117449798Y-90983448D01*
X117456500Y-90921756D01*
X117456500Y-89926244D01*
X117449798Y-89864552D01*
X117399071Y-89729236D01*
X117393691Y-89722057D01*
X117393689Y-89722054D01*
X117317785Y-89620776D01*
X117312404Y-89613596D01*
X117273988Y-89584805D01*
X117244435Y-89562656D01*
X117201920Y-89505797D01*
X117194000Y-89461830D01*
X117194000Y-89354170D01*
X117214002Y-89286049D01*
X117244435Y-89253344D01*
X117305224Y-89207785D01*
X117312404Y-89202404D01*
X117345437Y-89158328D01*
X117393689Y-89093946D01*
X117393691Y-89093943D01*
X117399071Y-89086764D01*
X117436793Y-88986139D01*
X117447026Y-88958843D01*
X117447026Y-88958841D01*
X117449798Y-88951448D01*
X117456500Y-88889756D01*
X117456500Y-87894244D01*
X117449798Y-87832552D01*
X117446836Y-87824649D01*
X117432704Y-87786954D01*
X117399071Y-87697236D01*
X117393691Y-87690057D01*
X117393689Y-87690054D01*
X117317785Y-87588776D01*
X117312404Y-87581596D01*
X117276220Y-87554478D01*
X117244435Y-87530656D01*
X117201920Y-87473797D01*
X117194000Y-87429830D01*
X117194000Y-87322170D01*
X117214002Y-87254049D01*
X117244435Y-87221344D01*
X117305224Y-87175785D01*
X117312404Y-87170404D01*
X117358528Y-87108861D01*
X117393689Y-87061946D01*
X117393691Y-87061943D01*
X117399071Y-87054764D01*
X117449798Y-86919448D01*
X117456500Y-86857756D01*
X117456500Y-86358661D01*
X117476502Y-86290540D01*
X117493405Y-86269566D01*
X117532405Y-86230566D01*
X117594717Y-86196540D01*
X117665532Y-86201605D01*
X117722368Y-86244152D01*
X117747179Y-86310672D01*
X117747500Y-86319661D01*
X117747500Y-86857756D01*
X117754202Y-86919448D01*
X117804929Y-87054764D01*
X117810309Y-87061943D01*
X117810311Y-87061946D01*
X117845472Y-87108861D01*
X117891596Y-87170404D01*
X117898776Y-87175785D01*
X118000054Y-87251689D01*
X118000057Y-87251691D01*
X118007236Y-87257071D01*
X118015638Y-87260221D01*
X118023515Y-87264533D01*
X118022035Y-87267237D01*
X118066528Y-87300661D01*
X118091227Y-87367223D01*
X118076019Y-87436572D01*
X118025732Y-87486689D01*
X118020934Y-87488880D01*
X118015638Y-87491779D01*
X118007236Y-87494929D01*
X118000057Y-87500309D01*
X118000054Y-87500311D01*
X117912102Y-87566228D01*
X117891596Y-87581596D01*
X117886215Y-87588776D01*
X117810311Y-87690054D01*
X117810309Y-87690057D01*
X117804929Y-87697236D01*
X117771296Y-87786954D01*
X117757165Y-87824649D01*
X117754202Y-87832552D01*
X117747500Y-87894244D01*
X117747500Y-88889756D01*
X117754202Y-88951448D01*
X117756974Y-88958841D01*
X117756974Y-88958843D01*
X117767207Y-88986139D01*
X117804929Y-89086764D01*
X117810309Y-89093943D01*
X117810311Y-89093946D01*
X117858563Y-89158328D01*
X117891596Y-89202404D01*
X117898776Y-89207785D01*
X118000054Y-89283689D01*
X118000057Y-89283691D01*
X118007236Y-89289071D01*
X118015638Y-89292221D01*
X118023515Y-89296533D01*
X118022035Y-89299237D01*
X118066528Y-89332661D01*
X118091227Y-89399223D01*
X118076019Y-89468572D01*
X118025732Y-89518689D01*
X118020934Y-89520880D01*
X118015638Y-89523779D01*
X118007236Y-89526929D01*
X118000057Y-89532309D01*
X118000054Y-89532311D01*
X117930012Y-89584805D01*
X117891596Y-89613596D01*
X117886215Y-89620776D01*
X117810311Y-89722054D01*
X117810309Y-89722057D01*
X117804929Y-89729236D01*
X117754202Y-89864552D01*
X117747500Y-89926244D01*
X117747500Y-90921756D01*
X117754202Y-90983448D01*
X117804929Y-91118764D01*
X117810309Y-91125943D01*
X117810311Y-91125946D01*
X117855682Y-91186484D01*
X117891596Y-91234404D01*
X117898776Y-91239785D01*
X118000054Y-91315689D01*
X118000057Y-91315691D01*
X118007236Y-91321071D01*
X118078894Y-91347934D01*
X118135157Y-91369026D01*
X118135159Y-91369026D01*
X118142552Y-91371798D01*
X118150402Y-91372651D01*
X118150403Y-91372651D01*
X118200847Y-91378131D01*
X118204244Y-91378500D01*
X118824756Y-91378500D01*
X118828153Y-91378131D01*
X118861752Y-91374481D01*
X118931635Y-91387009D01*
X118964455Y-91410649D01*
X119100994Y-91547188D01*
X119135020Y-91609500D01*
X119137899Y-91636283D01*
X119137899Y-93226634D01*
X119117897Y-93294755D01*
X119064241Y-93341248D01*
X118993967Y-93351352D01*
X118951974Y-93337471D01*
X118803500Y-93257192D01*
X118605951Y-93196040D01*
X118599826Y-93195396D01*
X118599825Y-93195396D01*
X118406414Y-93175068D01*
X118406412Y-93175068D01*
X118400285Y-93174424D01*
X118274117Y-93185906D01*
X118200479Y-93192607D01*
X118200478Y-93192607D01*
X118194338Y-93193166D01*
X117995954Y-93251554D01*
X117990495Y-93254408D01*
X117990485Y-93254412D01*
X117847276Y-93329281D01*
X117777640Y-93343116D01*
X117711579Y-93317106D01*
X117670918Y-93261849D01*
X117646213Y-93195948D01*
X117637674Y-93180351D01*
X117561173Y-93078276D01*
X117548612Y-93065715D01*
X117446537Y-92989214D01*
X117430942Y-92980676D01*
X117310494Y-92935522D01*
X117295239Y-92931895D01*
X117244374Y-92926369D01*
X117237560Y-92926000D01*
X116665003Y-92926000D01*
X116649764Y-92930475D01*
X116648559Y-92931865D01*
X116646888Y-92939548D01*
X116646888Y-94362000D01*
X116626886Y-94430121D01*
X116573230Y-94476614D01*
X116520888Y-94488000D01*
X115103004Y-94488000D01*
X115087765Y-94492475D01*
X115086560Y-94493865D01*
X115084889Y-94501548D01*
X115084889Y-95078669D01*
X115085259Y-95085490D01*
X115090783Y-95136352D01*
X115094409Y-95151604D01*
X115139564Y-95272054D01*
X115148102Y-95287649D01*
X115224603Y-95389724D01*
X115237164Y-95402285D01*
X115339239Y-95478786D01*
X115354834Y-95487324D01*
X115475282Y-95532478D01*
X115490537Y-95536105D01*
X115538536Y-95541320D01*
X115604098Y-95568562D01*
X115644524Y-95626925D01*
X115650272Y-95679426D01*
X115644328Y-95737440D01*
X115644000Y-95743855D01*
X115644000Y-95993885D01*
X115648475Y-96009124D01*
X115649865Y-96010329D01*
X115657548Y-96012000D01*
X116780000Y-96012000D01*
X116848121Y-96032002D01*
X116894614Y-96085658D01*
X116906000Y-96138000D01*
X116906000Y-97480884D01*
X116910475Y-97496123D01*
X116911865Y-97497328D01*
X116919548Y-97498999D01*
X116949095Y-97498999D01*
X116955614Y-97498662D01*
X117051206Y-97488743D01*
X117064600Y-97485851D01*
X117218784Y-97434412D01*
X117231962Y-97428239D01*
X117369807Y-97342937D01*
X117381208Y-97333901D01*
X117496327Y-97218582D01*
X117558610Y-97184503D01*
X117629430Y-97189506D01*
X117686303Y-97232003D01*
X117711171Y-97298502D01*
X117711500Y-97307600D01*
X117711500Y-97661501D01*
X117691498Y-97729622D01*
X117637842Y-97776115D01*
X117585500Y-97787501D01*
X117440934Y-97787501D01*
X117405182Y-97794612D01*
X117378874Y-97799844D01*
X117378872Y-97799845D01*
X117366699Y-97802266D01*
X117356379Y-97809161D01*
X117356378Y-97809162D01*
X117346052Y-97816062D01*
X117282516Y-97858516D01*
X117226266Y-97942699D01*
X117211500Y-98016933D01*
X117211501Y-99567066D01*
X117226266Y-99641301D01*
X117233161Y-99651621D01*
X117233162Y-99651622D01*
X117238155Y-99659094D01*
X117282516Y-99725484D01*
X117366699Y-99781734D01*
X117440933Y-99796500D01*
X118351284Y-99796500D01*
X118419405Y-99816502D01*
X118440378Y-99833403D01*
X118479380Y-99872405D01*
X118513405Y-99934715D01*
X118508341Y-100005531D01*
X118465795Y-100062367D01*
X118399275Y-100087179D01*
X118390285Y-100087500D01*
X117465930Y-100087501D01*
X117440934Y-100087501D01*
X117405182Y-100094612D01*
X117378874Y-100099844D01*
X117378872Y-100099845D01*
X117366699Y-100102266D01*
X117356379Y-100109161D01*
X117356378Y-100109162D01*
X117333889Y-100124189D01*
X117282516Y-100158516D01*
X117275623Y-100168832D01*
X117245094Y-100214522D01*
X117226266Y-100242699D01*
X117211500Y-100316933D01*
X117211501Y-101867066D01*
X117218612Y-101902818D01*
X117219866Y-101909121D01*
X117226266Y-101941301D01*
X117233161Y-101951620D01*
X117233162Y-101951622D01*
X117271275Y-102008661D01*
X117292490Y-102076413D01*
X117273707Y-102144880D01*
X117227019Y-102189183D01*
X117212354Y-102197212D01*
X117110276Y-102273715D01*
X117097715Y-102286276D01*
X117021214Y-102388351D01*
X117012676Y-102403946D01*
X116967522Y-102524394D01*
X116963895Y-102539649D01*
X116958369Y-102590514D01*
X116958000Y-102597328D01*
X116958000Y-103119885D01*
X116962475Y-103135124D01*
X116963865Y-103136329D01*
X116971548Y-103138000D01*
X119955884Y-103138000D01*
X119971123Y-103133525D01*
X119972328Y-103132135D01*
X119973999Y-103124452D01*
X119973999Y-102597331D01*
X119973629Y-102590510D01*
X119968105Y-102539648D01*
X119964479Y-102524396D01*
X119919324Y-102403946D01*
X119910786Y-102388351D01*
X119834285Y-102286276D01*
X119821724Y-102273715D01*
X119719646Y-102197212D01*
X119704981Y-102189183D01*
X119654835Y-102138924D01*
X119639821Y-102069533D01*
X119660725Y-102008661D01*
X119698839Y-101951620D01*
X119705734Y-101941301D01*
X119720500Y-101867067D01*
X119720499Y-100771713D01*
X119740501Y-100703593D01*
X119794157Y-100657100D01*
X119864431Y-100646996D01*
X119929011Y-100676489D01*
X119935583Y-100682607D01*
X120701283Y-101448307D01*
X120713662Y-101462712D01*
X120726437Y-101480071D01*
X120732020Y-101484814D01*
X120766479Y-101514089D01*
X120773995Y-101521019D01*
X120779638Y-101526662D01*
X120801798Y-101544194D01*
X120805183Y-101546970D01*
X120856765Y-101590792D01*
X120879949Y-101616812D01*
X120932516Y-101695484D01*
X121016699Y-101751734D01*
X121090933Y-101766500D01*
X121665907Y-101766500D01*
X122241066Y-101766499D01*
X122276818Y-101759388D01*
X122303126Y-101754156D01*
X122303128Y-101754155D01*
X122315301Y-101751734D01*
X122325721Y-101744772D01*
X122336252Y-101737735D01*
X122406254Y-101716500D01*
X123719746Y-101716500D01*
X123789748Y-101737735D01*
X123810699Y-101751734D01*
X123884933Y-101766500D01*
X124459907Y-101766500D01*
X125035066Y-101766499D01*
X125070818Y-101759388D01*
X125097126Y-101754156D01*
X125097128Y-101754155D01*
X125109301Y-101751734D01*
X125119621Y-101744839D01*
X125119622Y-101744838D01*
X125183168Y-101702377D01*
X125193484Y-101695484D01*
X125249734Y-101611301D01*
X125264500Y-101537067D01*
X125264500Y-101440885D01*
X130723000Y-101440885D01*
X130727475Y-101456124D01*
X130728865Y-101457329D01*
X130736548Y-101459000D01*
X131408885Y-101459000D01*
X131424124Y-101454525D01*
X131425329Y-101453135D01*
X131427000Y-101445452D01*
X131427000Y-100223116D01*
X131422525Y-100207877D01*
X131421135Y-100206672D01*
X131413452Y-100205001D01*
X131186331Y-100205001D01*
X131179510Y-100205371D01*
X131128648Y-100210895D01*
X131113396Y-100214521D01*
X130992946Y-100259676D01*
X130977351Y-100268214D01*
X130875276Y-100344715D01*
X130862715Y-100357276D01*
X130786214Y-100459351D01*
X130777676Y-100474946D01*
X130732522Y-100595394D01*
X130728895Y-100610649D01*
X130723369Y-100661514D01*
X130723000Y-100668328D01*
X130723000Y-101440885D01*
X125264500Y-101440885D01*
X125264499Y-100386934D01*
X125256102Y-100344715D01*
X125252156Y-100324874D01*
X125252155Y-100324872D01*
X125249734Y-100312699D01*
X125239029Y-100296677D01*
X125200377Y-100238832D01*
X125193484Y-100228516D01*
X125109301Y-100172266D01*
X125035067Y-100157500D01*
X124460093Y-100157500D01*
X123884934Y-100157501D01*
X123853772Y-100163699D01*
X123822874Y-100169844D01*
X123822872Y-100169845D01*
X123810699Y-100172266D01*
X123800379Y-100179161D01*
X123800378Y-100179162D01*
X123789748Y-100186265D01*
X123719746Y-100207500D01*
X122406254Y-100207500D01*
X122336252Y-100186265D01*
X122326548Y-100179781D01*
X122315301Y-100172266D01*
X122241067Y-100157500D01*
X122167245Y-100157500D01*
X121596715Y-100157501D01*
X121528594Y-100137499D01*
X121507620Y-100120596D01*
X121046118Y-99659094D01*
X121012092Y-99596782D01*
X121017157Y-99525967D01*
X121059704Y-99469131D01*
X121126224Y-99444320D01*
X121135213Y-99443999D01*
X121176669Y-99443999D01*
X121183490Y-99443629D01*
X121234352Y-99438105D01*
X121249604Y-99434479D01*
X121370054Y-99389324D01*
X121385649Y-99380786D01*
X121487724Y-99304285D01*
X121500285Y-99291724D01*
X121576786Y-99189649D01*
X121585324Y-99174054D01*
X121630478Y-99053606D01*
X121634105Y-99038351D01*
X121639631Y-98987486D01*
X121640000Y-98980672D01*
X121640000Y-98980669D01*
X123724001Y-98980669D01*
X123724371Y-98987490D01*
X123729895Y-99038352D01*
X123733521Y-99053604D01*
X123778676Y-99174054D01*
X123787214Y-99189649D01*
X123863715Y-99291724D01*
X123876276Y-99304285D01*
X123978351Y-99380786D01*
X123993946Y-99389324D01*
X124114394Y-99434478D01*
X124129649Y-99438105D01*
X124180514Y-99443631D01*
X124187328Y-99444000D01*
X124484885Y-99444000D01*
X124500124Y-99439525D01*
X124501329Y-99438135D01*
X124503000Y-99430452D01*
X124503000Y-99425884D01*
X125011000Y-99425884D01*
X125015475Y-99441123D01*
X125016865Y-99442328D01*
X125024548Y-99443999D01*
X125326669Y-99443999D01*
X125333490Y-99443629D01*
X125384352Y-99438105D01*
X125399604Y-99434479D01*
X125520054Y-99389324D01*
X125535649Y-99380786D01*
X125637724Y-99304285D01*
X125650285Y-99291724D01*
X125726786Y-99189649D01*
X125735324Y-99174054D01*
X125780478Y-99053606D01*
X125784105Y-99038351D01*
X125789631Y-98987486D01*
X125790000Y-98980672D01*
X125790000Y-98883115D01*
X125785525Y-98867876D01*
X125784135Y-98866671D01*
X125776452Y-98865000D01*
X125029115Y-98865000D01*
X125013876Y-98869475D01*
X125012671Y-98870865D01*
X125011000Y-98878548D01*
X125011000Y-99425884D01*
X124503000Y-99425884D01*
X124503000Y-98883115D01*
X124498525Y-98867876D01*
X124497135Y-98866671D01*
X124489452Y-98865000D01*
X123742116Y-98865000D01*
X123726877Y-98869475D01*
X123725672Y-98870865D01*
X123724001Y-98878548D01*
X123724001Y-98980669D01*
X121640000Y-98980669D01*
X121640000Y-98883115D01*
X121635525Y-98867876D01*
X121634135Y-98866671D01*
X121626452Y-98865000D01*
X120479000Y-98865000D01*
X120410879Y-98844998D01*
X120364386Y-98791342D01*
X120353000Y-98739000D01*
X120353000Y-98338885D01*
X120861000Y-98338885D01*
X120865475Y-98354124D01*
X120866865Y-98355329D01*
X120874548Y-98357000D01*
X121621884Y-98357000D01*
X121637123Y-98352525D01*
X121638328Y-98351135D01*
X121639999Y-98343452D01*
X121639999Y-98338885D01*
X123724000Y-98338885D01*
X123728475Y-98354124D01*
X123729865Y-98355329D01*
X123737548Y-98357000D01*
X124484885Y-98357000D01*
X124500124Y-98352525D01*
X124501329Y-98351135D01*
X124503000Y-98343452D01*
X124503000Y-98338885D01*
X125011000Y-98338885D01*
X125015475Y-98354124D01*
X125016865Y-98355329D01*
X125024548Y-98357000D01*
X125771884Y-98357000D01*
X125787123Y-98352525D01*
X125788328Y-98351135D01*
X125789999Y-98343452D01*
X125789999Y-98241331D01*
X125789629Y-98234510D01*
X125784105Y-98183648D01*
X125780479Y-98168396D01*
X125735324Y-98047946D01*
X125726786Y-98032351D01*
X125650285Y-97930276D01*
X125637724Y-97917715D01*
X125535649Y-97841214D01*
X125520054Y-97832676D01*
X125399606Y-97787522D01*
X125384351Y-97783895D01*
X125333486Y-97778369D01*
X125326672Y-97778000D01*
X125029115Y-97778000D01*
X125013876Y-97782475D01*
X125012671Y-97783865D01*
X125011000Y-97791548D01*
X125011000Y-98338885D01*
X124503000Y-98338885D01*
X124503000Y-97796116D01*
X124498525Y-97780877D01*
X124497135Y-97779672D01*
X124489452Y-97778001D01*
X124187331Y-97778001D01*
X124180510Y-97778371D01*
X124129648Y-97783895D01*
X124114396Y-97787521D01*
X123993946Y-97832676D01*
X123978351Y-97841214D01*
X123876276Y-97917715D01*
X123863715Y-97930276D01*
X123787214Y-98032351D01*
X123778676Y-98047946D01*
X123733522Y-98168394D01*
X123729895Y-98183649D01*
X123724369Y-98234514D01*
X123724000Y-98241328D01*
X123724000Y-98338885D01*
X121639999Y-98338885D01*
X121639999Y-98241331D01*
X121639629Y-98234510D01*
X121634105Y-98183648D01*
X121630479Y-98168396D01*
X121585324Y-98047946D01*
X121576786Y-98032351D01*
X121500285Y-97930276D01*
X121487724Y-97917715D01*
X121385649Y-97841214D01*
X121370054Y-97832676D01*
X121249606Y-97787522D01*
X121234351Y-97783895D01*
X121183486Y-97778369D01*
X121176672Y-97778000D01*
X120879115Y-97778000D01*
X120863876Y-97782475D01*
X120862671Y-97783865D01*
X120861000Y-97791548D01*
X120861000Y-98338885D01*
X120353000Y-98338885D01*
X120353000Y-97796116D01*
X120348525Y-97780877D01*
X120347135Y-97779672D01*
X120339452Y-97778001D01*
X120037331Y-97778001D01*
X120030510Y-97778371D01*
X119979648Y-97783895D01*
X119964396Y-97787521D01*
X119843946Y-97832676D01*
X119828352Y-97841214D01*
X119801677Y-97861205D01*
X119735170Y-97886052D01*
X119665788Y-97870998D01*
X119649863Y-97859083D01*
X119649484Y-97858516D01*
X119565301Y-97802266D01*
X119491067Y-97787500D01*
X119346500Y-97787500D01*
X119278379Y-97767498D01*
X119231886Y-97713842D01*
X119220500Y-97661500D01*
X119220500Y-97065862D01*
X119239567Y-97000925D01*
X119239377Y-97000821D01*
X119239853Y-96999952D01*
X119240502Y-96997741D01*
X119243150Y-96993930D01*
X119243690Y-96992944D01*
X119249071Y-96985764D01*
X119291297Y-96873126D01*
X119297026Y-96857843D01*
X119297026Y-96857841D01*
X119299798Y-96850448D01*
X119304148Y-96810411D01*
X119306131Y-96792153D01*
X119306131Y-96792152D01*
X119306500Y-96788756D01*
X119306500Y-96353449D01*
X119306999Y-96342249D01*
X119307138Y-96340692D01*
X119308628Y-96333528D01*
X119306546Y-96256586D01*
X119306500Y-96253178D01*
X119306500Y-96001384D01*
X119326502Y-95933263D01*
X119380158Y-95886770D01*
X119450432Y-95876666D01*
X119515012Y-95906160D01*
X119521595Y-95912289D01*
X119790595Y-96181289D01*
X119824621Y-96243601D01*
X119827500Y-96270384D01*
X119827501Y-96538115D01*
X119827501Y-96811066D01*
X119833772Y-96842597D01*
X119838037Y-96864037D01*
X119842266Y-96885301D01*
X119849161Y-96895620D01*
X119849162Y-96895622D01*
X119881805Y-96944475D01*
X119898516Y-96969484D01*
X119982699Y-97025734D01*
X120056933Y-97040500D01*
X120606911Y-97040500D01*
X121157066Y-97040499D01*
X121195056Y-97032943D01*
X121219126Y-97028156D01*
X121219128Y-97028155D01*
X121231301Y-97025734D01*
X121241621Y-97018839D01*
X121241622Y-97018838D01*
X121305168Y-96976377D01*
X121315484Y-96969484D01*
X121371734Y-96885301D01*
X121386500Y-96811067D01*
X121386499Y-96110934D01*
X121375987Y-96058080D01*
X121374156Y-96048874D01*
X121374155Y-96048872D01*
X121371734Y-96036699D01*
X121360981Y-96020605D01*
X121322377Y-95962832D01*
X121315484Y-95952516D01*
X121231301Y-95896266D01*
X121157067Y-95881500D01*
X121094232Y-95881500D01*
X120616385Y-95881501D01*
X120548264Y-95861499D01*
X120527290Y-95844596D01*
X120023789Y-95341095D01*
X119989763Y-95278783D01*
X119994828Y-95207968D01*
X120037375Y-95151132D01*
X120103895Y-95126321D01*
X120112884Y-95126000D01*
X120334885Y-95126000D01*
X120350124Y-95121525D01*
X120351329Y-95120135D01*
X120353000Y-95112452D01*
X120353000Y-95107884D01*
X120861000Y-95107884D01*
X120865475Y-95123123D01*
X120866865Y-95124328D01*
X120874548Y-95125999D01*
X121176669Y-95125999D01*
X121183490Y-95125629D01*
X121234352Y-95120105D01*
X121249604Y-95116479D01*
X121370054Y-95071324D01*
X121385649Y-95062786D01*
X121487724Y-94986285D01*
X121500285Y-94973724D01*
X121576786Y-94871649D01*
X121585324Y-94856054D01*
X121630478Y-94735606D01*
X121634105Y-94720351D01*
X121639631Y-94669486D01*
X121640000Y-94662672D01*
X121640000Y-94662669D01*
X123724001Y-94662669D01*
X123724371Y-94669490D01*
X123729895Y-94720352D01*
X123733521Y-94735604D01*
X123778676Y-94856054D01*
X123787214Y-94871649D01*
X123863715Y-94973724D01*
X123876276Y-94986285D01*
X123978351Y-95062786D01*
X123993946Y-95071324D01*
X124114394Y-95116478D01*
X124129649Y-95120105D01*
X124180514Y-95125631D01*
X124187328Y-95126000D01*
X124484885Y-95126000D01*
X124500124Y-95121525D01*
X124501329Y-95120135D01*
X124503000Y-95112452D01*
X124503000Y-94565115D01*
X124498525Y-94549876D01*
X124497135Y-94548671D01*
X124489452Y-94547000D01*
X123742116Y-94547000D01*
X123726877Y-94551475D01*
X123725672Y-94552865D01*
X123724001Y-94560548D01*
X123724001Y-94662669D01*
X121640000Y-94662669D01*
X121640000Y-94565115D01*
X121635525Y-94549876D01*
X121634135Y-94548671D01*
X121626452Y-94547000D01*
X120879115Y-94547000D01*
X120863876Y-94551475D01*
X120862671Y-94552865D01*
X120861000Y-94560548D01*
X120861000Y-95107884D01*
X120353000Y-95107884D01*
X120353000Y-94020885D01*
X120861000Y-94020885D01*
X120865475Y-94036124D01*
X120866865Y-94037329D01*
X120874548Y-94039000D01*
X121621884Y-94039000D01*
X121637123Y-94034525D01*
X121638328Y-94033135D01*
X121639999Y-94025452D01*
X121639999Y-94020885D01*
X123724000Y-94020885D01*
X123728475Y-94036124D01*
X123729865Y-94037329D01*
X123737548Y-94039000D01*
X124484885Y-94039000D01*
X124500124Y-94034525D01*
X124501329Y-94033135D01*
X124503000Y-94025452D01*
X124503000Y-93478116D01*
X124498525Y-93462877D01*
X124497135Y-93461672D01*
X124489452Y-93460001D01*
X124187331Y-93460001D01*
X124180510Y-93460371D01*
X124129648Y-93465895D01*
X124114396Y-93469521D01*
X123993946Y-93514676D01*
X123978351Y-93523214D01*
X123876276Y-93599715D01*
X123863715Y-93612276D01*
X123787214Y-93714351D01*
X123778676Y-93729946D01*
X123733522Y-93850394D01*
X123729895Y-93865649D01*
X123724369Y-93916514D01*
X123724000Y-93923328D01*
X123724000Y-94020885D01*
X121639999Y-94020885D01*
X121639999Y-93923331D01*
X121639629Y-93916510D01*
X121634105Y-93865648D01*
X121630479Y-93850396D01*
X121585324Y-93729946D01*
X121576786Y-93714351D01*
X121500285Y-93612276D01*
X121487724Y-93599715D01*
X121385649Y-93523214D01*
X121370054Y-93514676D01*
X121249606Y-93469522D01*
X121234351Y-93465895D01*
X121183486Y-93460369D01*
X121176672Y-93460000D01*
X120879115Y-93460000D01*
X120863876Y-93464475D01*
X120862671Y-93465865D01*
X120861000Y-93473548D01*
X120861000Y-94020885D01*
X120353000Y-94020885D01*
X120353000Y-93478116D01*
X120348525Y-93462877D01*
X120347135Y-93461672D01*
X120339452Y-93460001D01*
X120037319Y-93460001D01*
X120029719Y-93460413D01*
X119960616Y-93444128D01*
X119911287Y-93393067D01*
X119896899Y-93334598D01*
X119896899Y-92844199D01*
X119916901Y-92776078D01*
X119970557Y-92729585D01*
X120044676Y-92720945D01*
X120044702Y-92720686D01*
X120045894Y-92720803D01*
X120047476Y-92720619D01*
X120049115Y-92720945D01*
X120056933Y-92722500D01*
X120606911Y-92722500D01*
X121157066Y-92722499D01*
X121192818Y-92715388D01*
X121219126Y-92710156D01*
X121219128Y-92710155D01*
X121231301Y-92707734D01*
X121241621Y-92700839D01*
X121241622Y-92700838D01*
X121305168Y-92658377D01*
X121315484Y-92651484D01*
X121371734Y-92567301D01*
X121386500Y-92493067D01*
X121386499Y-91792934D01*
X121371734Y-91718699D01*
X121357706Y-91697704D01*
X121322377Y-91644832D01*
X121315484Y-91634516D01*
X121231301Y-91578266D01*
X121157067Y-91563500D01*
X121114693Y-91563500D01*
X121046572Y-91543498D01*
X121000079Y-91489842D01*
X120988833Y-91431563D01*
X120989128Y-91425304D01*
X120991320Y-91415124D01*
X120987373Y-91381777D01*
X120987023Y-91375846D01*
X120986928Y-91375854D01*
X120986500Y-91370676D01*
X120986500Y-91365476D01*
X120985646Y-91360344D01*
X120983331Y-91346435D01*
X120982494Y-91340557D01*
X120977694Y-91299999D01*
X120977694Y-91299998D01*
X120976470Y-91289659D01*
X120972507Y-91281407D01*
X120971004Y-91272374D01*
X120961378Y-91254533D01*
X120946666Y-91227268D01*
X120943969Y-91221975D01*
X120925215Y-91182918D01*
X120925212Y-91182914D01*
X120921781Y-91175768D01*
X120918186Y-91171492D01*
X120916263Y-91169569D01*
X120914491Y-91167637D01*
X120914448Y-91167558D01*
X120914572Y-91167445D01*
X120914096Y-91166905D01*
X120911010Y-91161186D01*
X120871413Y-91124583D01*
X120867848Y-91121154D01*
X120769789Y-91023095D01*
X120735763Y-90960783D01*
X120740828Y-90889968D01*
X120783375Y-90833132D01*
X120849895Y-90808321D01*
X120858884Y-90808000D01*
X121176668Y-90807999D01*
X121183490Y-90807629D01*
X121234352Y-90802105D01*
X121249604Y-90798479D01*
X121370054Y-90753324D01*
X121385649Y-90744786D01*
X121487724Y-90668285D01*
X121500285Y-90655724D01*
X121576786Y-90553649D01*
X121585324Y-90538054D01*
X121630478Y-90417606D01*
X121634105Y-90402351D01*
X121639631Y-90351486D01*
X121640000Y-90344672D01*
X121640000Y-90344669D01*
X123724001Y-90344669D01*
X123724371Y-90351490D01*
X123729895Y-90402352D01*
X123733521Y-90417604D01*
X123778676Y-90538054D01*
X123787214Y-90553649D01*
X123863715Y-90655724D01*
X123876276Y-90668285D01*
X123978351Y-90744786D01*
X123993946Y-90753324D01*
X124114394Y-90798478D01*
X124129649Y-90802105D01*
X124180514Y-90807631D01*
X124187328Y-90808000D01*
X124484885Y-90808000D01*
X124500124Y-90803525D01*
X124501329Y-90802135D01*
X124503000Y-90794452D01*
X124503000Y-90247115D01*
X124498525Y-90231876D01*
X124497135Y-90230671D01*
X124489452Y-90229000D01*
X123742116Y-90229000D01*
X123726877Y-90233475D01*
X123725672Y-90234865D01*
X123724001Y-90242548D01*
X123724001Y-90344669D01*
X121640000Y-90344669D01*
X121640000Y-90247115D01*
X121635525Y-90231876D01*
X121634135Y-90230671D01*
X121626452Y-90229000D01*
X120479000Y-90229000D01*
X120410879Y-90208998D01*
X120364386Y-90155342D01*
X120353000Y-90103000D01*
X120353000Y-89702885D01*
X120861000Y-89702885D01*
X120865475Y-89718124D01*
X120866865Y-89719329D01*
X120874548Y-89721000D01*
X121621884Y-89721000D01*
X121637123Y-89716525D01*
X121638328Y-89715135D01*
X121639999Y-89707452D01*
X121639999Y-89702885D01*
X123724000Y-89702885D01*
X123728475Y-89718124D01*
X123729865Y-89719329D01*
X123737548Y-89721000D01*
X124484885Y-89721000D01*
X124500124Y-89716525D01*
X124501329Y-89715135D01*
X124503000Y-89707452D01*
X124503000Y-89702885D01*
X125011000Y-89702885D01*
X125015475Y-89718124D01*
X125016865Y-89719329D01*
X125024548Y-89721000D01*
X125771884Y-89721000D01*
X125787123Y-89716525D01*
X125788328Y-89715135D01*
X125789999Y-89707452D01*
X125789999Y-89605331D01*
X125789629Y-89598510D01*
X125784105Y-89547648D01*
X125780479Y-89532396D01*
X125735324Y-89411946D01*
X125726786Y-89396351D01*
X125650285Y-89294276D01*
X125637724Y-89281715D01*
X125535649Y-89205214D01*
X125520054Y-89196676D01*
X125399606Y-89151522D01*
X125384351Y-89147895D01*
X125333486Y-89142369D01*
X125326672Y-89142000D01*
X125029115Y-89142000D01*
X125013876Y-89146475D01*
X125012671Y-89147865D01*
X125011000Y-89155548D01*
X125011000Y-89702885D01*
X124503000Y-89702885D01*
X124503000Y-89160116D01*
X124498525Y-89144877D01*
X124497135Y-89143672D01*
X124489452Y-89142001D01*
X124187331Y-89142001D01*
X124180510Y-89142371D01*
X124129648Y-89147895D01*
X124114396Y-89151521D01*
X123993946Y-89196676D01*
X123978351Y-89205214D01*
X123876276Y-89281715D01*
X123863715Y-89294276D01*
X123787214Y-89396351D01*
X123778676Y-89411946D01*
X123733522Y-89532394D01*
X123729895Y-89547649D01*
X123724369Y-89598514D01*
X123724000Y-89605328D01*
X123724000Y-89702885D01*
X121639999Y-89702885D01*
X121639999Y-89605331D01*
X121639629Y-89598510D01*
X121634105Y-89547648D01*
X121630479Y-89532396D01*
X121585324Y-89411946D01*
X121576786Y-89396351D01*
X121500285Y-89294276D01*
X121487724Y-89281715D01*
X121385649Y-89205214D01*
X121370054Y-89196676D01*
X121249606Y-89151522D01*
X121234351Y-89147895D01*
X121183486Y-89142369D01*
X121176672Y-89142000D01*
X120879115Y-89142000D01*
X120863876Y-89146475D01*
X120862671Y-89147865D01*
X120861000Y-89155548D01*
X120861000Y-89702885D01*
X120353000Y-89702885D01*
X120353000Y-89160116D01*
X120348525Y-89144877D01*
X120347135Y-89143672D01*
X120339452Y-89142001D01*
X120037331Y-89142001D01*
X120030510Y-89142371D01*
X119979648Y-89147895D01*
X119964397Y-89151521D01*
X119878189Y-89183839D01*
X119807382Y-89189022D01*
X119745013Y-89155101D01*
X119720396Y-89120441D01*
X119719502Y-89118581D01*
X119716779Y-89111937D01*
X119715524Y-89104394D01*
X119706012Y-89086764D01*
X119691186Y-89059288D01*
X119688489Y-89053995D01*
X119669735Y-89014938D01*
X119669732Y-89014934D01*
X119666301Y-89007788D01*
X119662706Y-89003512D01*
X119660783Y-89001589D01*
X119659011Y-88999657D01*
X119658968Y-88999578D01*
X119659092Y-88999465D01*
X119658616Y-88998925D01*
X119655530Y-88993206D01*
X119615933Y-88956603D01*
X119612368Y-88953174D01*
X119318405Y-88659211D01*
X119284379Y-88596899D01*
X119281500Y-88570116D01*
X119281500Y-87967884D01*
X119301502Y-87899763D01*
X119355158Y-87853270D01*
X119425432Y-87843166D01*
X119490012Y-87872660D01*
X119496595Y-87878789D01*
X119673022Y-88055216D01*
X119688164Y-88073964D01*
X119689279Y-88075189D01*
X119694929Y-88083940D01*
X119703107Y-88090387D01*
X119703109Y-88090389D01*
X119721300Y-88104729D01*
X119725741Y-88108675D01*
X119725803Y-88108602D01*
X119729767Y-88111961D01*
X119733444Y-88115638D01*
X119749192Y-88126892D01*
X119753862Y-88130398D01*
X119794147Y-88162156D01*
X119794148Y-88162156D01*
X119794149Y-88162157D01*
X119790990Y-88166164D01*
X119818762Y-88187991D01*
X119835042Y-88225686D01*
X119835096Y-88225664D01*
X119836577Y-88229240D01*
X119839726Y-88236531D01*
X119842266Y-88249301D01*
X119898516Y-88333484D01*
X119982699Y-88389734D01*
X120056933Y-88404500D01*
X120606911Y-88404500D01*
X121157066Y-88404499D01*
X121192818Y-88397388D01*
X121219126Y-88392156D01*
X121219128Y-88392155D01*
X121231301Y-88389734D01*
X121241621Y-88382839D01*
X121241622Y-88382838D01*
X121305168Y-88340377D01*
X121315484Y-88333484D01*
X121371734Y-88249301D01*
X121386500Y-88175067D01*
X121386499Y-87474934D01*
X121377528Y-87429830D01*
X121374156Y-87412874D01*
X121374155Y-87412872D01*
X121371734Y-87400699D01*
X121331207Y-87340046D01*
X121322377Y-87326832D01*
X121315484Y-87316516D01*
X121231301Y-87260266D01*
X121157067Y-87245500D01*
X120607089Y-87245500D01*
X120056934Y-87245501D01*
X120022695Y-87252311D01*
X119951982Y-87245982D01*
X119909021Y-87217827D01*
X119318405Y-86627211D01*
X119284379Y-86564899D01*
X119281500Y-86538116D01*
X119281500Y-85965980D01*
X119301502Y-85897859D01*
X119355158Y-85851366D01*
X119407500Y-85839980D01*
X127517266Y-85839980D01*
X127585387Y-85859982D01*
X127631880Y-85913638D01*
X127641176Y-85948131D01*
X127641501Y-85948066D01*
X127645064Y-85965980D01*
X127651921Y-86000453D01*
X127656266Y-86022301D01*
X127666753Y-86037995D01*
X127687970Y-86105748D01*
X127666753Y-86178004D01*
X127656266Y-86193699D01*
X127644827Y-86251207D01*
X127642664Y-86262081D01*
X127609757Y-86324991D01*
X127548062Y-86360123D01*
X127519085Y-86363500D01*
X125892920Y-86363500D01*
X125868972Y-86360951D01*
X125867307Y-86360872D01*
X125857124Y-86358680D01*
X125837937Y-86360951D01*
X125823777Y-86362627D01*
X125817846Y-86362977D01*
X125817854Y-86363072D01*
X125812676Y-86363500D01*
X125807476Y-86363500D01*
X125802347Y-86364354D01*
X125802344Y-86364354D01*
X125788435Y-86366669D01*
X125782557Y-86367506D01*
X125741999Y-86372306D01*
X125741998Y-86372306D01*
X125731659Y-86373530D01*
X125723407Y-86377493D01*
X125714374Y-86378996D01*
X125705205Y-86383943D01*
X125705203Y-86383944D01*
X125669268Y-86403334D01*
X125663975Y-86406031D01*
X125624918Y-86424785D01*
X125624914Y-86424788D01*
X125617768Y-86428219D01*
X125613492Y-86431814D01*
X125611569Y-86433737D01*
X125609637Y-86435509D01*
X125609558Y-86435552D01*
X125609445Y-86435428D01*
X125608905Y-86435904D01*
X125603186Y-86438990D01*
X125596119Y-86446635D01*
X125566584Y-86478586D01*
X125563154Y-86482152D01*
X124836711Y-87208595D01*
X124774399Y-87242621D01*
X124747616Y-87245500D01*
X124269787Y-87245501D01*
X124206934Y-87245501D01*
X124172695Y-87252311D01*
X124144874Y-87257844D01*
X124144872Y-87257845D01*
X124132699Y-87260266D01*
X124122379Y-87267161D01*
X124122378Y-87267162D01*
X124077541Y-87297122D01*
X124048516Y-87316516D01*
X123992266Y-87400699D01*
X123977500Y-87474933D01*
X123977501Y-88175066D01*
X123981588Y-88195613D01*
X123989727Y-88236533D01*
X123992266Y-88249301D01*
X124048516Y-88333484D01*
X124132699Y-88389734D01*
X124206933Y-88404500D01*
X124756911Y-88404500D01*
X125307066Y-88404499D01*
X125342818Y-88397388D01*
X125369126Y-88392156D01*
X125369128Y-88392155D01*
X125381301Y-88389734D01*
X125391621Y-88382839D01*
X125391622Y-88382838D01*
X125455168Y-88340377D01*
X125465484Y-88333484D01*
X125521734Y-88249301D01*
X125536500Y-88175067D01*
X125536499Y-87634385D01*
X125556501Y-87566264D01*
X125573404Y-87545290D01*
X125959289Y-87159405D01*
X126021601Y-87125379D01*
X126048384Y-87122500D01*
X127519087Y-87122500D01*
X127587208Y-87142502D01*
X127633701Y-87196158D01*
X127642663Y-87223909D01*
X127656266Y-87292301D01*
X127666621Y-87307798D01*
X127666753Y-87307995D01*
X127687970Y-87375748D01*
X127666753Y-87448004D01*
X127656266Y-87463699D01*
X127641500Y-87537933D01*
X127641501Y-88488066D01*
X127643112Y-88496165D01*
X127652064Y-88541172D01*
X127656266Y-88562301D01*
X127666753Y-88577995D01*
X127687970Y-88645748D01*
X127666753Y-88718004D01*
X127656266Y-88733699D01*
X127641500Y-88807933D01*
X127641501Y-89758066D01*
X127643280Y-89767008D01*
X127653088Y-89816322D01*
X127656266Y-89832301D01*
X127666753Y-89847995D01*
X127687970Y-89915748D01*
X127666753Y-89988004D01*
X127656266Y-90003699D01*
X127644827Y-90061207D01*
X127642664Y-90072081D01*
X127609757Y-90134991D01*
X127548062Y-90170123D01*
X127519085Y-90173500D01*
X126400925Y-90173500D01*
X126376967Y-90170950D01*
X126375308Y-90170872D01*
X126365124Y-90168679D01*
X126354782Y-90169903D01*
X126354779Y-90169903D01*
X126331779Y-90172626D01*
X126325848Y-90172976D01*
X126325856Y-90173072D01*
X126320680Y-90173500D01*
X126315476Y-90173500D01*
X126296412Y-90176673D01*
X126290566Y-90177504D01*
X126279117Y-90178859D01*
X126239659Y-90183530D01*
X126231407Y-90187493D01*
X126222374Y-90188996D01*
X126213205Y-90193943D01*
X126213203Y-90193944D01*
X126177255Y-90213341D01*
X126172002Y-90216018D01*
X126125769Y-90238219D01*
X126121493Y-90241813D01*
X126119553Y-90243753D01*
X126117641Y-90245507D01*
X126117552Y-90245555D01*
X126117440Y-90245432D01*
X126116904Y-90245905D01*
X126111186Y-90248990D01*
X126104119Y-90256635D01*
X126074584Y-90288586D01*
X126071154Y-90292152D01*
X126005095Y-90358211D01*
X125942783Y-90392237D01*
X125871968Y-90387172D01*
X125815132Y-90344625D01*
X125790321Y-90278105D01*
X125790000Y-90269116D01*
X125790000Y-90247115D01*
X125785525Y-90231876D01*
X125784135Y-90230671D01*
X125776452Y-90229000D01*
X125029115Y-90229000D01*
X125013876Y-90233475D01*
X125012671Y-90234865D01*
X125011000Y-90242548D01*
X125011000Y-90789884D01*
X125015475Y-90805123D01*
X125016865Y-90806328D01*
X125024548Y-90807999D01*
X125251117Y-90807999D01*
X125319238Y-90828001D01*
X125365731Y-90881657D01*
X125375835Y-90951931D01*
X125346341Y-91016511D01*
X125340212Y-91023094D01*
X124836711Y-91526595D01*
X124774399Y-91560621D01*
X124747616Y-91563500D01*
X124269787Y-91563501D01*
X124206934Y-91563501D01*
X124171182Y-91570612D01*
X124144874Y-91575844D01*
X124144872Y-91575845D01*
X124132699Y-91578266D01*
X124122379Y-91585161D01*
X124122378Y-91585162D01*
X124061985Y-91625516D01*
X124048516Y-91634516D01*
X124041623Y-91644832D01*
X124011239Y-91690305D01*
X123992266Y-91718699D01*
X123977500Y-91792933D01*
X123977501Y-92493066D01*
X123984043Y-92525959D01*
X123989115Y-92551456D01*
X123992266Y-92567301D01*
X123999161Y-92577620D01*
X123999162Y-92577622D01*
X124015775Y-92602484D01*
X124048516Y-92651484D01*
X124132699Y-92707734D01*
X124206933Y-92722500D01*
X124756911Y-92722500D01*
X125307066Y-92722499D01*
X125353854Y-92713193D01*
X125365459Y-92710885D01*
X125436173Y-92717214D01*
X125492239Y-92760769D01*
X125515858Y-92827722D01*
X125499529Y-92896816D01*
X125479133Y-92923559D01*
X125376295Y-93026397D01*
X125357547Y-93041539D01*
X125356322Y-93042654D01*
X125347571Y-93048304D01*
X125341124Y-93056482D01*
X125341122Y-93056484D01*
X125326782Y-93074675D01*
X125322836Y-93079116D01*
X125322909Y-93079178D01*
X125319550Y-93083142D01*
X125315873Y-93086819D01*
X125304619Y-93102567D01*
X125301113Y-93107237D01*
X125269355Y-93147522D01*
X125266323Y-93156156D01*
X125260997Y-93163609D01*
X125251326Y-93195948D01*
X125246310Y-93212719D01*
X125244475Y-93218367D01*
X125227493Y-93266726D01*
X125227011Y-93272291D01*
X125227011Y-93274999D01*
X125226897Y-93277633D01*
X125226868Y-93277731D01*
X125226704Y-93277724D01*
X125226660Y-93278428D01*
X125224798Y-93284653D01*
X125225207Y-93295060D01*
X125226542Y-93329055D01*
X125209229Y-93397908D01*
X125157439Y-93446471D01*
X125100639Y-93460000D01*
X125029115Y-93460000D01*
X125013876Y-93464475D01*
X125012671Y-93465865D01*
X125011000Y-93473548D01*
X125011000Y-95107884D01*
X125015475Y-95123123D01*
X125016865Y-95124328D01*
X125024548Y-95125999D01*
X125101011Y-95125999D01*
X125169132Y-95146001D01*
X125215625Y-95199657D01*
X125227011Y-95251999D01*
X125227011Y-95402105D01*
X125207009Y-95470226D01*
X125190106Y-95491200D01*
X124836711Y-95844595D01*
X124774399Y-95878621D01*
X124747616Y-95881500D01*
X124269787Y-95881501D01*
X124206934Y-95881501D01*
X124180443Y-95886770D01*
X124144874Y-95893844D01*
X124144872Y-95893845D01*
X124132699Y-95896266D01*
X124122379Y-95903161D01*
X124122378Y-95903162D01*
X124071722Y-95937010D01*
X124048516Y-95952516D01*
X123992266Y-96036699D01*
X123977500Y-96110933D01*
X123977501Y-96811066D01*
X123983772Y-96842597D01*
X123988037Y-96864037D01*
X123992266Y-96885301D01*
X123999161Y-96895620D01*
X123999162Y-96895622D01*
X124031805Y-96944475D01*
X124048516Y-96969484D01*
X124132699Y-97025734D01*
X124206933Y-97040500D01*
X124756911Y-97040500D01*
X125307066Y-97040499D01*
X125345056Y-97032943D01*
X125369126Y-97028156D01*
X125369128Y-97028155D01*
X125381301Y-97025734D01*
X125391621Y-97018839D01*
X125391622Y-97018838D01*
X125455168Y-96976377D01*
X125465484Y-96969484D01*
X125521734Y-96885301D01*
X125536500Y-96811067D01*
X125536499Y-96270384D01*
X125556501Y-96202264D01*
X125573404Y-96181290D01*
X125836727Y-95917967D01*
X125855475Y-95902825D01*
X125856700Y-95901711D01*
X125865451Y-95896060D01*
X125885950Y-95870057D01*
X125943828Y-95828945D01*
X126014748Y-95825651D01*
X126076191Y-95861221D01*
X126102154Y-95909270D01*
X126104113Y-95908553D01*
X126155463Y-96048874D01*
X126158553Y-96057319D01*
X126162789Y-96063622D01*
X126162789Y-96063623D01*
X126234360Y-96170131D01*
X126246908Y-96188805D01*
X126252527Y-96193918D01*
X126252528Y-96193919D01*
X126307128Y-96243601D01*
X126359374Y-96291141D01*
X126359376Y-96291143D01*
X126364076Y-96295419D01*
X126363364Y-96296202D01*
X126402993Y-96346488D01*
X126409813Y-96417156D01*
X126377345Y-96480294D01*
X126368895Y-96488386D01*
X126256039Y-96586838D01*
X126164950Y-96716444D01*
X126136995Y-96788146D01*
X126125692Y-96817137D01*
X126107406Y-96864037D01*
X126106414Y-96871570D01*
X126106414Y-96871571D01*
X126089385Y-97000925D01*
X126086729Y-97021096D01*
X126094587Y-97092272D01*
X126101811Y-97157699D01*
X126104113Y-97178553D01*
X126106723Y-97185684D01*
X126106723Y-97185686D01*
X126155567Y-97319158D01*
X126158553Y-97327319D01*
X126162789Y-97333622D01*
X126162789Y-97333623D01*
X126234360Y-97440131D01*
X126246908Y-97458805D01*
X126252527Y-97463918D01*
X126252528Y-97463919D01*
X126295478Y-97503000D01*
X126359374Y-97561141D01*
X126359376Y-97561143D01*
X126364076Y-97565419D01*
X126363364Y-97566202D01*
X126402993Y-97616488D01*
X126409813Y-97687156D01*
X126377345Y-97750294D01*
X126368895Y-97758386D01*
X126256039Y-97856838D01*
X126164950Y-97986444D01*
X126152400Y-98018634D01*
X126120048Y-98101613D01*
X126107406Y-98134037D01*
X126106414Y-98141570D01*
X126106414Y-98141571D01*
X126087795Y-98283000D01*
X126086729Y-98291096D01*
X126092584Y-98344126D01*
X126098840Y-98400789D01*
X126104113Y-98448553D01*
X126106723Y-98455684D01*
X126106723Y-98455686D01*
X126147729Y-98567740D01*
X126158553Y-98597319D01*
X126162789Y-98603622D01*
X126162789Y-98603623D01*
X126234360Y-98710131D01*
X126246908Y-98728805D01*
X126252527Y-98733918D01*
X126252528Y-98733919D01*
X126286685Y-98764999D01*
X126359374Y-98831141D01*
X126359376Y-98831143D01*
X126364076Y-98835419D01*
X126363364Y-98836202D01*
X126402993Y-98886488D01*
X126409813Y-98957156D01*
X126377345Y-99020294D01*
X126368895Y-99028386D01*
X126256039Y-99126838D01*
X126164950Y-99256444D01*
X126146298Y-99304285D01*
X126126076Y-99356152D01*
X126107406Y-99404037D01*
X126106414Y-99411570D01*
X126106414Y-99411571D01*
X126087989Y-99551528D01*
X126086729Y-99561096D01*
X126104113Y-99718553D01*
X126106723Y-99725684D01*
X126106723Y-99725686D01*
X126147729Y-99837740D01*
X126158553Y-99867319D01*
X126162789Y-99873622D01*
X126162789Y-99873623D01*
X126239356Y-99987566D01*
X126246908Y-99998805D01*
X126252527Y-100003918D01*
X126252528Y-100003919D01*
X126344030Y-100087179D01*
X126364076Y-100105419D01*
X126503293Y-100181008D01*
X126656522Y-100221207D01*
X126740477Y-100222526D01*
X126807319Y-100223576D01*
X126807322Y-100223576D01*
X126814916Y-100223695D01*
X126969332Y-100188329D01*
X127049508Y-100148005D01*
X127104072Y-100120563D01*
X127104075Y-100120561D01*
X127110855Y-100117151D01*
X127116626Y-100112222D01*
X127116629Y-100112220D01*
X127225536Y-100019204D01*
X127225536Y-100019203D01*
X127231314Y-100014269D01*
X127323755Y-99885624D01*
X127323789Y-99885540D01*
X127371864Y-99837740D01*
X127431932Y-99822500D01*
X127519087Y-99822500D01*
X127587208Y-99842502D01*
X127633701Y-99896158D01*
X127642663Y-99923909D01*
X127656266Y-99992301D01*
X127666753Y-100007995D01*
X127687970Y-100075748D01*
X127666753Y-100148004D01*
X127656266Y-100163699D01*
X127641500Y-100237933D01*
X127641501Y-101188066D01*
X127645475Y-101208046D01*
X127649331Y-101227431D01*
X127656266Y-101262301D01*
X127663161Y-101272620D01*
X127663162Y-101272622D01*
X127691553Y-101315111D01*
X127712516Y-101346484D01*
X127796699Y-101402734D01*
X127870933Y-101417500D01*
X128895834Y-101417500D01*
X129921066Y-101417499D01*
X129956818Y-101410388D01*
X129983126Y-101405156D01*
X129983128Y-101405155D01*
X129995301Y-101402734D01*
X130005621Y-101395839D01*
X130005622Y-101395838D01*
X130069168Y-101353377D01*
X130079484Y-101346484D01*
X130135734Y-101262301D01*
X130150500Y-101188067D01*
X130150499Y-100237934D01*
X130143388Y-100202182D01*
X130138156Y-100175874D01*
X130138155Y-100175872D01*
X130135734Y-100163699D01*
X130125247Y-100148004D01*
X130104030Y-100080252D01*
X130125247Y-100007995D01*
X130135734Y-99992301D01*
X130150500Y-99918067D01*
X130150499Y-98967934D01*
X130143097Y-98930718D01*
X130138156Y-98905874D01*
X130138155Y-98905872D01*
X130135734Y-98893699D01*
X130125247Y-98878004D01*
X130104030Y-98810252D01*
X130125247Y-98737995D01*
X130135734Y-98722301D01*
X130150500Y-98648067D01*
X130150499Y-97697934D01*
X130139177Y-97641008D01*
X130138156Y-97635874D01*
X130138155Y-97635872D01*
X130135734Y-97623699D01*
X130125247Y-97608004D01*
X130104030Y-97540252D01*
X130125247Y-97467995D01*
X130135734Y-97452301D01*
X130150500Y-97378067D01*
X130150499Y-96427934D01*
X130143388Y-96392182D01*
X130138156Y-96365874D01*
X130138155Y-96365872D01*
X130135734Y-96353699D01*
X130125247Y-96338004D01*
X130104030Y-96270252D01*
X130125247Y-96197995D01*
X130135734Y-96182301D01*
X130150500Y-96108067D01*
X130150499Y-95157934D01*
X130141453Y-95112452D01*
X130138156Y-95095874D01*
X130138155Y-95095872D01*
X130135734Y-95083699D01*
X130125247Y-95068004D01*
X130104030Y-95000252D01*
X130125247Y-94927995D01*
X130135734Y-94912301D01*
X130150500Y-94838067D01*
X130150499Y-94247669D01*
X133388001Y-94247669D01*
X133388371Y-94254490D01*
X133393895Y-94305352D01*
X133397521Y-94320604D01*
X133442676Y-94441054D01*
X133451214Y-94456649D01*
X133527715Y-94558724D01*
X133540276Y-94571285D01*
X133642351Y-94647786D01*
X133657946Y-94656324D01*
X133778394Y-94701478D01*
X133793649Y-94705105D01*
X133844514Y-94710631D01*
X133851328Y-94711000D01*
X136123885Y-94711000D01*
X136139124Y-94706525D01*
X136140329Y-94705135D01*
X136142000Y-94697452D01*
X136142000Y-94692884D01*
X136650000Y-94692884D01*
X136654475Y-94708123D01*
X136655865Y-94709328D01*
X136663548Y-94710999D01*
X138940669Y-94710999D01*
X138947490Y-94710629D01*
X138998352Y-94705105D01*
X139013604Y-94701479D01*
X139134054Y-94656324D01*
X139149649Y-94647786D01*
X139251724Y-94571285D01*
X139264285Y-94558724D01*
X139340786Y-94456649D01*
X139349324Y-94441054D01*
X139394478Y-94320606D01*
X139398105Y-94305351D01*
X139403631Y-94254486D01*
X139404000Y-94247672D01*
X139404000Y-91975115D01*
X139399525Y-91959876D01*
X139398135Y-91958671D01*
X139390452Y-91957000D01*
X136668115Y-91957000D01*
X136652876Y-91961475D01*
X136651671Y-91962865D01*
X136650000Y-91970548D01*
X136650000Y-94692884D01*
X136142000Y-94692884D01*
X136142000Y-91975115D01*
X136137525Y-91959876D01*
X136136135Y-91958671D01*
X136128452Y-91957000D01*
X133406116Y-91957000D01*
X133390877Y-91961475D01*
X133389672Y-91962865D01*
X133388001Y-91970548D01*
X133388001Y-94247669D01*
X130150499Y-94247669D01*
X130150499Y-93887934D01*
X130140633Y-93838329D01*
X130138156Y-93825874D01*
X130138155Y-93825872D01*
X130135734Y-93813699D01*
X130125247Y-93798004D01*
X130104030Y-93730252D01*
X130125247Y-93657995D01*
X130126404Y-93656264D01*
X130135734Y-93642301D01*
X130150500Y-93568067D01*
X130150499Y-92617934D01*
X130142481Y-92577620D01*
X130138156Y-92555874D01*
X130138155Y-92555872D01*
X130135734Y-92543699D01*
X130125247Y-92528004D01*
X130104030Y-92460252D01*
X130125247Y-92387995D01*
X130135734Y-92372301D01*
X130150500Y-92298067D01*
X130150499Y-91430885D01*
X133388000Y-91430885D01*
X133392475Y-91446124D01*
X133393865Y-91447329D01*
X133401548Y-91449000D01*
X136123885Y-91449000D01*
X136139124Y-91444525D01*
X136140329Y-91443135D01*
X136142000Y-91435452D01*
X136142000Y-91430885D01*
X136650000Y-91430885D01*
X136654475Y-91446124D01*
X136655865Y-91447329D01*
X136663548Y-91449000D01*
X139385884Y-91449000D01*
X139401123Y-91444525D01*
X139402328Y-91443135D01*
X139403999Y-91435452D01*
X139403999Y-89158331D01*
X139403629Y-89151510D01*
X139403150Y-89147096D01*
X142342729Y-89147096D01*
X142348835Y-89202404D01*
X142359228Y-89296533D01*
X142360113Y-89304553D01*
X142362723Y-89311684D01*
X142362723Y-89311686D01*
X142399482Y-89412134D01*
X142414553Y-89453319D01*
X142418789Y-89459622D01*
X142418789Y-89459623D01*
X142493709Y-89571115D01*
X142502908Y-89584805D01*
X142508527Y-89589918D01*
X142508528Y-89589919D01*
X142525466Y-89605331D01*
X142620076Y-89691419D01*
X142759293Y-89767008D01*
X142912522Y-89807207D01*
X142996477Y-89808526D01*
X143063319Y-89809576D01*
X143063322Y-89809576D01*
X143070916Y-89809695D01*
X143225332Y-89774329D01*
X143309896Y-89731798D01*
X143360072Y-89706563D01*
X143360075Y-89706561D01*
X143366855Y-89703151D01*
X143379103Y-89692690D01*
X143443892Y-89663658D01*
X143460935Y-89662500D01*
X144519087Y-89662500D01*
X144587208Y-89682502D01*
X144633701Y-89736158D01*
X144642663Y-89763909D01*
X144656266Y-89832301D01*
X144666753Y-89847995D01*
X144687970Y-89915748D01*
X144666753Y-89988004D01*
X144656266Y-90003699D01*
X144641500Y-90077933D01*
X144641501Y-91028066D01*
X144648612Y-91063818D01*
X144651008Y-91075863D01*
X144656266Y-91102301D01*
X144666753Y-91117995D01*
X144687970Y-91185748D01*
X144666753Y-91258004D01*
X144656266Y-91273699D01*
X144641500Y-91347933D01*
X144641501Y-92298066D01*
X144656266Y-92372301D01*
X144666753Y-92387995D01*
X144687970Y-92455748D01*
X144666753Y-92528004D01*
X144656266Y-92543699D01*
X144641500Y-92617933D01*
X144641501Y-93568066D01*
X144656266Y-93642301D01*
X144666753Y-93657995D01*
X144687970Y-93725748D01*
X144666753Y-93798004D01*
X144656266Y-93813699D01*
X144641500Y-93887933D01*
X144641501Y-94838066D01*
X144643625Y-94848744D01*
X144653691Y-94899353D01*
X144656266Y-94912301D01*
X144666753Y-94927995D01*
X144687970Y-94995748D01*
X144666753Y-95068004D01*
X144656266Y-95083699D01*
X144641500Y-95157933D01*
X144641501Y-96108066D01*
X144656266Y-96182301D01*
X144666753Y-96197995D01*
X144687970Y-96265748D01*
X144666753Y-96338004D01*
X144656266Y-96353699D01*
X144641500Y-96427933D01*
X144641501Y-97378066D01*
X144646743Y-97404421D01*
X144653150Y-97436632D01*
X144656266Y-97452301D01*
X144666753Y-97467995D01*
X144687970Y-97535748D01*
X144666753Y-97608004D01*
X144656266Y-97623699D01*
X144641500Y-97697933D01*
X144641501Y-98648066D01*
X144645750Y-98669427D01*
X144652186Y-98701786D01*
X144656266Y-98722301D01*
X144666753Y-98737995D01*
X144687970Y-98805748D01*
X144666753Y-98878004D01*
X144656266Y-98893699D01*
X144641500Y-98967933D01*
X144641501Y-99918066D01*
X144656266Y-99992301D01*
X144666753Y-100007995D01*
X144687970Y-100075748D01*
X144666753Y-100148004D01*
X144656266Y-100163699D01*
X144641500Y-100237933D01*
X144641501Y-101188066D01*
X144645475Y-101208046D01*
X144649331Y-101227431D01*
X144656266Y-101262301D01*
X144663161Y-101272620D01*
X144663162Y-101272622D01*
X144691553Y-101315111D01*
X144712516Y-101346484D01*
X144796699Y-101402734D01*
X144870933Y-101417500D01*
X145390500Y-101417500D01*
X145458621Y-101437502D01*
X145505114Y-101491158D01*
X145516500Y-101543500D01*
X145516500Y-103154080D01*
X145513951Y-103178028D01*
X145513872Y-103179693D01*
X145511680Y-103189876D01*
X145512904Y-103200217D01*
X145515627Y-103223223D01*
X145515977Y-103229154D01*
X145516072Y-103229146D01*
X145516500Y-103234324D01*
X145516500Y-103239524D01*
X145517354Y-103244653D01*
X145517354Y-103244656D01*
X145519669Y-103258565D01*
X145520506Y-103264443D01*
X145521065Y-103269162D01*
X145526530Y-103315341D01*
X145530493Y-103323593D01*
X145531996Y-103332626D01*
X145536943Y-103341795D01*
X145536944Y-103341797D01*
X145556334Y-103377732D01*
X145559031Y-103383025D01*
X145577785Y-103422082D01*
X145577788Y-103422086D01*
X145581219Y-103429232D01*
X145584814Y-103433508D01*
X145586737Y-103435431D01*
X145588509Y-103437363D01*
X145588552Y-103437442D01*
X145588428Y-103437555D01*
X145588904Y-103438095D01*
X145591990Y-103443814D01*
X145599635Y-103450881D01*
X145631586Y-103480416D01*
X145635152Y-103483846D01*
X145698595Y-103547289D01*
X145732621Y-103609601D01*
X145735500Y-103636384D01*
X145735501Y-103904890D01*
X145735501Y-104177066D01*
X145741237Y-104205907D01*
X145745334Y-104226502D01*
X145750266Y-104251301D01*
X145757161Y-104261620D01*
X145757162Y-104261622D01*
X145773904Y-104286677D01*
X145806516Y-104335484D01*
X145890699Y-104391734D01*
X145964933Y-104406500D01*
X146514911Y-104406500D01*
X147065066Y-104406499D01*
X147102136Y-104399126D01*
X147127126Y-104394156D01*
X147127128Y-104394155D01*
X147139301Y-104391734D01*
X147149621Y-104384839D01*
X147149622Y-104384838D01*
X147213168Y-104342377D01*
X147223484Y-104335484D01*
X147272253Y-104262497D01*
X147326729Y-104216970D01*
X147377017Y-104206500D01*
X149802983Y-104206500D01*
X149871104Y-104226502D01*
X149907747Y-104262497D01*
X149956516Y-104335484D01*
X150040699Y-104391734D01*
X150114933Y-104406500D01*
X150664911Y-104406500D01*
X151215066Y-104406499D01*
X151252136Y-104399126D01*
X151277126Y-104394156D01*
X151277128Y-104394155D01*
X151289301Y-104391734D01*
X151299621Y-104384839D01*
X151299622Y-104384838D01*
X151363168Y-104342377D01*
X151373484Y-104335484D01*
X151415300Y-104272903D01*
X151422839Y-104261620D01*
X151429734Y-104251301D01*
X151444500Y-104177067D01*
X151444499Y-103476934D01*
X151436562Y-103437030D01*
X151432156Y-103414874D01*
X151432155Y-103414872D01*
X151429734Y-103402699D01*
X151422253Y-103391502D01*
X151380377Y-103328832D01*
X151373484Y-103318516D01*
X151289301Y-103262266D01*
X151215067Y-103247500D01*
X150665089Y-103247500D01*
X150114934Y-103247501D01*
X150079182Y-103254612D01*
X150052874Y-103259844D01*
X150052872Y-103259845D01*
X150040699Y-103262266D01*
X150030379Y-103269161D01*
X150030378Y-103269162D01*
X149976742Y-103305001D01*
X149956516Y-103318516D01*
X149949623Y-103328832D01*
X149907748Y-103391502D01*
X149853271Y-103437030D01*
X149802983Y-103447500D01*
X147377017Y-103447500D01*
X147308896Y-103427498D01*
X147272252Y-103391502D01*
X147230377Y-103328832D01*
X147223484Y-103318516D01*
X147139301Y-103262266D01*
X147065067Y-103247500D01*
X147002232Y-103247500D01*
X146524385Y-103247501D01*
X146456264Y-103227499D01*
X146435290Y-103210596D01*
X146312405Y-103087711D01*
X146278379Y-103025399D01*
X146275500Y-102998616D01*
X146275500Y-101543499D01*
X146295502Y-101475378D01*
X146349158Y-101428885D01*
X146401500Y-101417499D01*
X146921066Y-101417499D01*
X146956818Y-101410388D01*
X146983126Y-101405156D01*
X146983128Y-101405155D01*
X146995301Y-101402734D01*
X147005621Y-101395839D01*
X147005622Y-101395838D01*
X147069168Y-101353377D01*
X147079484Y-101346484D01*
X147135734Y-101262301D01*
X147150500Y-101188067D01*
X147150500Y-100794702D01*
X147170502Y-100726581D01*
X147224158Y-100680088D01*
X147294432Y-100669984D01*
X147359012Y-100699478D01*
X147388562Y-100737102D01*
X147474334Y-100903995D01*
X147602786Y-101066061D01*
X147607479Y-101070055D01*
X147607480Y-101070056D01*
X147753273Y-101194135D01*
X147760271Y-101200091D01*
X147940789Y-101300980D01*
X148137466Y-101364884D01*
X148342809Y-101389370D01*
X148348944Y-101388898D01*
X148348946Y-101388898D01*
X148542856Y-101373977D01*
X148542860Y-101373976D01*
X148548998Y-101373504D01*
X148748178Y-101317892D01*
X148753682Y-101315112D01*
X148753684Y-101315111D01*
X148927262Y-101227431D01*
X148927264Y-101227430D01*
X148932763Y-101224652D01*
X149095722Y-101097334D01*
X149099748Y-101092670D01*
X149099751Y-101092667D01*
X149226819Y-100945457D01*
X149226820Y-100945455D01*
X149230848Y-100940789D01*
X149332995Y-100760979D01*
X149383376Y-100609527D01*
X149396325Y-100570601D01*
X149396326Y-100570598D01*
X149398270Y-100564753D01*
X149424189Y-100359586D01*
X149424602Y-100330000D01*
X149404422Y-100124189D01*
X149344651Y-99926217D01*
X149289504Y-99822500D01*
X149250459Y-99749067D01*
X149250457Y-99749064D01*
X149247565Y-99743625D01*
X149243674Y-99738855D01*
X149243672Y-99738851D01*
X149120758Y-99588143D01*
X149120755Y-99588140D01*
X149116863Y-99583368D01*
X149104496Y-99573137D01*
X148962272Y-99455479D01*
X148962269Y-99455477D01*
X148957522Y-99451550D01*
X148952102Y-99448620D01*
X148952097Y-99448616D01*
X148858994Y-99398276D01*
X148817167Y-99356152D01*
X148815027Y-99357716D01*
X148810513Y-99351537D01*
X148799920Y-99333408D01*
X148798104Y-99330569D01*
X148794388Y-99322395D01*
X148763757Y-99286846D01*
X148757465Y-99278923D01*
X148749527Y-99268056D01*
X148738665Y-99257194D01*
X148732307Y-99250347D01*
X148705915Y-99219718D01*
X148700056Y-99212918D01*
X148692521Y-99208034D01*
X148685949Y-99202301D01*
X148674545Y-99193074D01*
X148518522Y-99037051D01*
X148484496Y-98974739D01*
X148489561Y-98903924D01*
X148532108Y-98847088D01*
X148573733Y-98826598D01*
X148627804Y-98811501D01*
X148748178Y-98777892D01*
X148753682Y-98775112D01*
X148753684Y-98775111D01*
X148927262Y-98687431D01*
X148927264Y-98687430D01*
X148932763Y-98684652D01*
X149095722Y-98557334D01*
X149099748Y-98552670D01*
X149099751Y-98552667D01*
X149226819Y-98405457D01*
X149226820Y-98405455D01*
X149230848Y-98400789D01*
X149283041Y-98308913D01*
X149329950Y-98226340D01*
X149329952Y-98226336D01*
X149332995Y-98220979D01*
X149372702Y-98101613D01*
X149396325Y-98030601D01*
X149396326Y-98030598D01*
X149398270Y-98024753D01*
X149424189Y-97819586D01*
X149424602Y-97790000D01*
X149424004Y-97783895D01*
X149412150Y-97663007D01*
X149404422Y-97584189D01*
X149344651Y-97386217D01*
X149280466Y-97265502D01*
X149250459Y-97209067D01*
X149250457Y-97209064D01*
X149247565Y-97203625D01*
X149243674Y-97198855D01*
X149243672Y-97198851D01*
X149120758Y-97048143D01*
X149120755Y-97048140D01*
X149116863Y-97043368D01*
X149112114Y-97039439D01*
X148962271Y-96915478D01*
X148962266Y-96915475D01*
X148957522Y-96911550D01*
X148952103Y-96908620D01*
X148952100Y-96908618D01*
X148781032Y-96816122D01*
X148781027Y-96816120D01*
X148775612Y-96813192D01*
X148578063Y-96752040D01*
X148571938Y-96751396D01*
X148571937Y-96751396D01*
X148378526Y-96731068D01*
X148378524Y-96731068D01*
X148372397Y-96730424D01*
X148296415Y-96737339D01*
X148172588Y-96748607D01*
X148172584Y-96748608D01*
X148166450Y-96749166D01*
X148160544Y-96750904D01*
X148160535Y-96750906D01*
X148138694Y-96757334D01*
X148067698Y-96757378D01*
X148014026Y-96725555D01*
X147884677Y-96596206D01*
X147877135Y-96586766D01*
X147876755Y-96587089D01*
X147870937Y-96580253D01*
X147866147Y-96572661D01*
X147826140Y-96537328D01*
X147820454Y-96531983D01*
X147809120Y-96520649D01*
X147800845Y-96514447D01*
X147793000Y-96508060D01*
X147764557Y-96482940D01*
X147757830Y-96476999D01*
X147749708Y-96473186D01*
X147746907Y-96471346D01*
X147732912Y-96462937D01*
X147729949Y-96461315D01*
X147722764Y-96455930D01*
X147714354Y-96452777D01*
X147714352Y-96452776D01*
X147678818Y-96439454D01*
X147669502Y-96435529D01*
X147627018Y-96415583D01*
X147618144Y-96414201D01*
X147614917Y-96413215D01*
X147599134Y-96409075D01*
X147595856Y-96408354D01*
X147587448Y-96405202D01*
X147569346Y-96403857D01*
X147540643Y-96401724D01*
X147530596Y-96400570D01*
X147522114Y-96399249D01*
X147522111Y-96399249D01*
X147517303Y-96398500D01*
X147501938Y-96398500D01*
X147492601Y-96398154D01*
X147476519Y-96396959D01*
X147443333Y-96394493D01*
X147434558Y-96396366D01*
X147425862Y-96396959D01*
X147411262Y-96398500D01*
X147233017Y-96398500D01*
X147164896Y-96378498D01*
X147128254Y-96342505D01*
X147128083Y-96342249D01*
X147125247Y-96338004D01*
X147104030Y-96270253D01*
X147125247Y-96197995D01*
X147135734Y-96182301D01*
X147149336Y-96113919D01*
X147182243Y-96051009D01*
X147243938Y-96015877D01*
X147272915Y-96012500D01*
X148153080Y-96012500D01*
X148177028Y-96015049D01*
X148178693Y-96015128D01*
X148188876Y-96017320D01*
X148199217Y-96016096D01*
X148201068Y-96015877D01*
X148222223Y-96013373D01*
X148228154Y-96013023D01*
X148228146Y-96012928D01*
X148233324Y-96012500D01*
X148238524Y-96012500D01*
X148243653Y-96011646D01*
X148243656Y-96011646D01*
X148257565Y-96009331D01*
X148263443Y-96008494D01*
X148304001Y-96003694D01*
X148304002Y-96003694D01*
X148314341Y-96002470D01*
X148322593Y-95998507D01*
X148331626Y-95997004D01*
X148340795Y-95992057D01*
X148340797Y-95992056D01*
X148376732Y-95972666D01*
X148382025Y-95969969D01*
X148421082Y-95951215D01*
X148421086Y-95951212D01*
X148428232Y-95947781D01*
X148432508Y-95944186D01*
X148434431Y-95942263D01*
X148436363Y-95940491D01*
X148436442Y-95940448D01*
X148436555Y-95940571D01*
X148437092Y-95940097D01*
X148442814Y-95937010D01*
X148449374Y-95929913D01*
X148515048Y-95904120D01*
X148528172Y-95903641D01*
X148599669Y-95904764D01*
X148651319Y-95905576D01*
X148651322Y-95905576D01*
X148658916Y-95905695D01*
X148813332Y-95870329D01*
X148902165Y-95825651D01*
X148948072Y-95802563D01*
X148948075Y-95802561D01*
X148954855Y-95799151D01*
X148960626Y-95794222D01*
X148960629Y-95794220D01*
X149069536Y-95701204D01*
X149069536Y-95701203D01*
X149075314Y-95696269D01*
X149167755Y-95567624D01*
X149226842Y-95420641D01*
X149233053Y-95377002D01*
X149248581Y-95267891D01*
X149248581Y-95267888D01*
X149249162Y-95263807D01*
X149249307Y-95250000D01*
X149230276Y-95092733D01*
X149174280Y-94944546D01*
X149162905Y-94927995D01*
X149088855Y-94820251D01*
X149088854Y-94820249D01*
X149084553Y-94813992D01*
X149047534Y-94781009D01*
X148966275Y-94708611D01*
X148968413Y-94706211D01*
X148933021Y-94662286D01*
X148925436Y-94591696D01*
X148957220Y-94528211D01*
X148967602Y-94518264D01*
X149069536Y-94431204D01*
X149069536Y-94431203D01*
X149075314Y-94426269D01*
X149167755Y-94297624D01*
X149226842Y-94150641D01*
X149232965Y-94107615D01*
X149248581Y-93997891D01*
X149248581Y-93997888D01*
X149249162Y-93993807D01*
X149249307Y-93980000D01*
X149248766Y-93975525D01*
X149242449Y-93923328D01*
X149230276Y-93822733D01*
X149174280Y-93674546D01*
X149169979Y-93668288D01*
X149166459Y-93661555D01*
X149168067Y-93660714D01*
X149148964Y-93602402D01*
X149166847Y-93533694D01*
X149219038Y-93485562D01*
X149274904Y-93472500D01*
X151446594Y-93472500D01*
X151514715Y-93492502D01*
X151535689Y-93509405D01*
X152927596Y-94901312D01*
X152961622Y-94963624D01*
X152964501Y-94990407D01*
X152964501Y-95132066D01*
X152968482Y-95152081D01*
X152975676Y-95188249D01*
X152979266Y-95206301D01*
X152986161Y-95216621D01*
X152986162Y-95216622D01*
X152999777Y-95236998D01*
X153020992Y-95304751D01*
X152999777Y-95377002D01*
X152986161Y-95397379D01*
X152986160Y-95397382D01*
X152979266Y-95407699D01*
X152964500Y-95481933D01*
X152964501Y-96232066D01*
X152974700Y-96283342D01*
X152979266Y-96306301D01*
X152975066Y-96307136D01*
X152980157Y-96354324D01*
X152979172Y-96357680D01*
X152979266Y-96357699D01*
X152964500Y-96431933D01*
X152964501Y-96805812D01*
X152964501Y-97159500D01*
X152944499Y-97227621D01*
X152890843Y-97274114D01*
X152838501Y-97285500D01*
X151906807Y-97285500D01*
X151838686Y-97265498D01*
X151795556Y-97218654D01*
X151787565Y-97203625D01*
X151728055Y-97130658D01*
X151660758Y-97048143D01*
X151660755Y-97048140D01*
X151656863Y-97043368D01*
X151652114Y-97039439D01*
X151502271Y-96915478D01*
X151502266Y-96915475D01*
X151497522Y-96911550D01*
X151492103Y-96908620D01*
X151492100Y-96908618D01*
X151321032Y-96816122D01*
X151321027Y-96816120D01*
X151315612Y-96813192D01*
X151118063Y-96752040D01*
X151111938Y-96751396D01*
X151111937Y-96751396D01*
X150918526Y-96731068D01*
X150918524Y-96731068D01*
X150912397Y-96730424D01*
X150786229Y-96741906D01*
X150712591Y-96748607D01*
X150712590Y-96748607D01*
X150706450Y-96749166D01*
X150508066Y-96807554D01*
X150502601Y-96810411D01*
X150330261Y-96900508D01*
X150330257Y-96900511D01*
X150324801Y-96903363D01*
X150163635Y-97032943D01*
X150030708Y-97191360D01*
X149931082Y-97372578D01*
X149868553Y-97569696D01*
X149867867Y-97575813D01*
X149867866Y-97575817D01*
X149846366Y-97767498D01*
X149845501Y-97775206D01*
X149848932Y-97816062D01*
X149860589Y-97954872D01*
X149862806Y-97981278D01*
X149919807Y-98180066D01*
X149922625Y-98185548D01*
X149922626Y-98185552D01*
X150011514Y-98358509D01*
X150011517Y-98358513D01*
X150014334Y-98363995D01*
X150142786Y-98526061D01*
X150147479Y-98530055D01*
X150147480Y-98530056D01*
X150293273Y-98654135D01*
X150300271Y-98660091D01*
X150480789Y-98760980D01*
X150677466Y-98824884D01*
X150882809Y-98849370D01*
X150888944Y-98848898D01*
X150888946Y-98848898D01*
X151082856Y-98833977D01*
X151082860Y-98833976D01*
X151088998Y-98833504D01*
X151288178Y-98777892D01*
X151293682Y-98775112D01*
X151293684Y-98775111D01*
X151467262Y-98687431D01*
X151467264Y-98687430D01*
X151472763Y-98684652D01*
X151635722Y-98557334D01*
X151639748Y-98552670D01*
X151639751Y-98552667D01*
X151766819Y-98405457D01*
X151766820Y-98405455D01*
X151770848Y-98400789D01*
X151795007Y-98358262D01*
X151846045Y-98308913D01*
X151904562Y-98294500D01*
X152646839Y-98294500D01*
X152714960Y-98314502D01*
X152735934Y-98331405D01*
X156414250Y-102009721D01*
X156448276Y-102072033D01*
X156443211Y-102142848D01*
X156400664Y-102199684D01*
X156334144Y-102224495D01*
X156323506Y-102224805D01*
X156219250Y-102223440D01*
X156119031Y-102222128D01*
X156113334Y-102223107D01*
X156113333Y-102223107D01*
X155923240Y-102255771D01*
X155909913Y-102258061D01*
X155710846Y-102331501D01*
X155705885Y-102334453D01*
X155705884Y-102334453D01*
X155533463Y-102437032D01*
X155533460Y-102437034D01*
X155528495Y-102439988D01*
X155524155Y-102443794D01*
X155524151Y-102443797D01*
X155429087Y-102527167D01*
X155368968Y-102579890D01*
X155365393Y-102584425D01*
X155365392Y-102584426D01*
X155244272Y-102738066D01*
X155237607Y-102746520D01*
X155234917Y-102751633D01*
X155178446Y-102858965D01*
X155129027Y-102909937D01*
X155059894Y-102926100D01*
X154992998Y-102902321D01*
X154953932Y-102856025D01*
X154953769Y-102855693D01*
X154926367Y-102800128D01*
X154915145Y-102777371D01*
X154915142Y-102777367D01*
X154912590Y-102772191D01*
X154887109Y-102738067D01*
X154789089Y-102606803D01*
X154789088Y-102606802D01*
X154785636Y-102602179D01*
X154781400Y-102598263D01*
X154634066Y-102462069D01*
X154634063Y-102462067D01*
X154629826Y-102458150D01*
X154450377Y-102344926D01*
X154253300Y-102266300D01*
X154247643Y-102265175D01*
X154247637Y-102265173D01*
X154050863Y-102226033D01*
X154050859Y-102226033D01*
X154045195Y-102224906D01*
X154039420Y-102224830D01*
X154039416Y-102224830D01*
X153932804Y-102223434D01*
X153833031Y-102222128D01*
X153827334Y-102223107D01*
X153827333Y-102223107D01*
X153623913Y-102258061D01*
X153623520Y-102255771D01*
X153562640Y-102254339D01*
X153511877Y-102223406D01*
X151971206Y-100682735D01*
X151937180Y-100620423D01*
X151937425Y-100567294D01*
X151938270Y-100564753D01*
X151941989Y-100535319D01*
X151949828Y-100473266D01*
X151964189Y-100359586D01*
X151964602Y-100330000D01*
X151944422Y-100124189D01*
X151884651Y-99926217D01*
X151829504Y-99822500D01*
X151790459Y-99749067D01*
X151790457Y-99749064D01*
X151787565Y-99743625D01*
X151783674Y-99738855D01*
X151783672Y-99738851D01*
X151660758Y-99588143D01*
X151660755Y-99588140D01*
X151656863Y-99583368D01*
X151644496Y-99573137D01*
X151502271Y-99455478D01*
X151502266Y-99455475D01*
X151497522Y-99451550D01*
X151492103Y-99448620D01*
X151492100Y-99448618D01*
X151321032Y-99356122D01*
X151321027Y-99356120D01*
X151315612Y-99353192D01*
X151118063Y-99292040D01*
X151111938Y-99291396D01*
X151111937Y-99291396D01*
X150918526Y-99271068D01*
X150918524Y-99271068D01*
X150912397Y-99270424D01*
X150786229Y-99281906D01*
X150712591Y-99288607D01*
X150712590Y-99288607D01*
X150706450Y-99289166D01*
X150508066Y-99347554D01*
X150502601Y-99350411D01*
X150330261Y-99440508D01*
X150330257Y-99440511D01*
X150324801Y-99443363D01*
X150320001Y-99447223D01*
X150320000Y-99447223D01*
X150318265Y-99448618D01*
X150163635Y-99572943D01*
X150030708Y-99731360D01*
X149931082Y-99912578D01*
X149868553Y-100109696D01*
X149867867Y-100115813D01*
X149867866Y-100115817D01*
X149847579Y-100296677D01*
X149845501Y-100315206D01*
X149846743Y-100330000D01*
X149861437Y-100504970D01*
X149862806Y-100521278D01*
X149919807Y-100720066D01*
X149922625Y-100725548D01*
X149922626Y-100725552D01*
X150011514Y-100898509D01*
X150011517Y-100898513D01*
X150014334Y-100903995D01*
X150142786Y-101066061D01*
X150147479Y-101070055D01*
X150147480Y-101070056D01*
X150293273Y-101194135D01*
X150300271Y-101200091D01*
X150480789Y-101300980D01*
X150677466Y-101364884D01*
X150882809Y-101389370D01*
X150888944Y-101388898D01*
X150888946Y-101388898D01*
X151082857Y-101373977D01*
X151082862Y-101373976D01*
X151088998Y-101373504D01*
X151094933Y-101371847D01*
X151132245Y-101361430D01*
X151203236Y-101362377D01*
X151255223Y-101393694D01*
X152785511Y-102923982D01*
X152819537Y-102986294D01*
X152816749Y-103050440D01*
X152789891Y-103136938D01*
X152764951Y-103347649D01*
X152778829Y-103559377D01*
X152831058Y-103765031D01*
X152919890Y-103957723D01*
X153042350Y-104131000D01*
X153046484Y-104135027D01*
X153166849Y-104252281D01*
X153194337Y-104279059D01*
X153199136Y-104282266D01*
X153203628Y-104285903D01*
X153201925Y-104288006D01*
X153240121Y-104333692D01*
X153248981Y-104404134D01*
X153218351Y-104468183D01*
X153157956Y-104505506D01*
X153124600Y-104510001D01*
X152979331Y-104510001D01*
X152972510Y-104510371D01*
X152921648Y-104515895D01*
X152906396Y-104519521D01*
X152785946Y-104564676D01*
X152770351Y-104573214D01*
X152668276Y-104649715D01*
X152655715Y-104662276D01*
X152579214Y-104764351D01*
X152570676Y-104779946D01*
X152525522Y-104900394D01*
X152521895Y-104915649D01*
X152516369Y-104966514D01*
X152516000Y-104973328D01*
X152516000Y-105645885D01*
X152520475Y-105661124D01*
X152521865Y-105662329D01*
X152529548Y-105664000D01*
X162171884Y-105664000D01*
X162187123Y-105659525D01*
X162188328Y-105658135D01*
X162189999Y-105650452D01*
X162189999Y-104973331D01*
X162189629Y-104966510D01*
X162184105Y-104915648D01*
X162180479Y-104900396D01*
X162135324Y-104779946D01*
X162126786Y-104764351D01*
X162050285Y-104662276D01*
X162037724Y-104649715D01*
X161935649Y-104573214D01*
X161920054Y-104564676D01*
X161799606Y-104519522D01*
X161784351Y-104515895D01*
X161733486Y-104510369D01*
X161726672Y-104510000D01*
X161575081Y-104510000D01*
X161506960Y-104489998D01*
X161460467Y-104436342D01*
X161450363Y-104366068D01*
X161479857Y-104301488D01*
X161494512Y-104287126D01*
X161597414Y-104201543D01*
X161601852Y-104197852D01*
X161737530Y-104034717D01*
X161740354Y-104029674D01*
X161740357Y-104029670D01*
X161838383Y-103854632D01*
X161838384Y-103854630D01*
X161841207Y-103849589D01*
X161875949Y-103747240D01*
X161907554Y-103654136D01*
X161907555Y-103654131D01*
X161909410Y-103648667D01*
X161915075Y-103609601D01*
X161933564Y-103482079D01*
X161939857Y-103438681D01*
X161941446Y-103378000D01*
X161927617Y-103227499D01*
X161922560Y-103172462D01*
X161922559Y-103172459D01*
X161922031Y-103166708D01*
X161913935Y-103138000D01*
X161866004Y-102968051D01*
X161866003Y-102968049D01*
X161864436Y-102962492D01*
X161861397Y-102956328D01*
X161773145Y-102777372D01*
X161773144Y-102777371D01*
X161770590Y-102772191D01*
X161745109Y-102738067D01*
X161647089Y-102606803D01*
X161647088Y-102606802D01*
X161643636Y-102602179D01*
X161639400Y-102598263D01*
X161492066Y-102462069D01*
X161492063Y-102462067D01*
X161487826Y-102458150D01*
X161308377Y-102344926D01*
X161111300Y-102266300D01*
X161105643Y-102265175D01*
X161105637Y-102265173D01*
X160908863Y-102226033D01*
X160908859Y-102226033D01*
X160903195Y-102224906D01*
X160897420Y-102224830D01*
X160897416Y-102224830D01*
X160790804Y-102223434D01*
X160691031Y-102222128D01*
X160685334Y-102223107D01*
X160685333Y-102223107D01*
X160495240Y-102255771D01*
X160481913Y-102258061D01*
X160282846Y-102331501D01*
X160277885Y-102334453D01*
X160277884Y-102334453D01*
X160105463Y-102437032D01*
X160105460Y-102437034D01*
X160100495Y-102439988D01*
X160096155Y-102443794D01*
X160096151Y-102443797D01*
X160001087Y-102527167D01*
X159940968Y-102579890D01*
X159937393Y-102584425D01*
X159937392Y-102584426D01*
X159816272Y-102738066D01*
X159809607Y-102746520D01*
X159806917Y-102751633D01*
X159750446Y-102858965D01*
X159701027Y-102909937D01*
X159631894Y-102926100D01*
X159564998Y-102902321D01*
X159525932Y-102856025D01*
X159525769Y-102855693D01*
X159498367Y-102800128D01*
X159487145Y-102777371D01*
X159487142Y-102777367D01*
X159484590Y-102772191D01*
X159459109Y-102738067D01*
X159361089Y-102606803D01*
X159361088Y-102606802D01*
X159357636Y-102602179D01*
X159353400Y-102598263D01*
X159206066Y-102462069D01*
X159206063Y-102462067D01*
X159201826Y-102458150D01*
X159022377Y-102344926D01*
X158825300Y-102266300D01*
X158819643Y-102265175D01*
X158819637Y-102265173D01*
X158622863Y-102226033D01*
X158622859Y-102226033D01*
X158617195Y-102224906D01*
X158611420Y-102224830D01*
X158611416Y-102224830D01*
X158504804Y-102223434D01*
X158405031Y-102222128D01*
X158399334Y-102223107D01*
X158399333Y-102223107D01*
X158201603Y-102257083D01*
X158201600Y-102257084D01*
X158195913Y-102258061D01*
X158190496Y-102260059D01*
X158184915Y-102261555D01*
X158184353Y-102259457D01*
X158123062Y-102263631D01*
X158061168Y-102229697D01*
X154203566Y-98372095D01*
X154169540Y-98309783D01*
X154173740Y-98251059D01*
X154125068Y-98258057D01*
X154060488Y-98228563D01*
X154053905Y-98222434D01*
X153458066Y-97626595D01*
X153424040Y-97564283D01*
X153429105Y-97493468D01*
X153471652Y-97436632D01*
X153538172Y-97411821D01*
X153547161Y-97411500D01*
X153968482Y-97411499D01*
X154143000Y-97411499D01*
X154211121Y-97431501D01*
X154257614Y-97485157D01*
X154269000Y-97537499D01*
X154269000Y-98133339D01*
X154259288Y-98166416D01*
X154283672Y-98157321D01*
X154292661Y-98157000D01*
X156885001Y-98157000D01*
X156953122Y-98177002D01*
X156999615Y-98230658D01*
X157011001Y-98283000D01*
X157011001Y-98301669D01*
X157011371Y-98308490D01*
X157016895Y-98359351D01*
X157020521Y-98374604D01*
X157065676Y-98495054D01*
X157074214Y-98510649D01*
X157150715Y-98612724D01*
X157163276Y-98625285D01*
X157265351Y-98701786D01*
X157280946Y-98710324D01*
X157401394Y-98755478D01*
X157416649Y-98759105D01*
X157467514Y-98764631D01*
X157474328Y-98765000D01*
X157846885Y-98765000D01*
X157862124Y-98760525D01*
X157863329Y-98759135D01*
X157865000Y-98751452D01*
X157865000Y-98746884D01*
X158373000Y-98746884D01*
X158377475Y-98762123D01*
X158378865Y-98763328D01*
X158386548Y-98764999D01*
X158763669Y-98764999D01*
X158770490Y-98764629D01*
X158821352Y-98759105D01*
X158836604Y-98755479D01*
X158957054Y-98710324D01*
X158972649Y-98701786D01*
X159074724Y-98625285D01*
X159087285Y-98612724D01*
X159163786Y-98510649D01*
X159172324Y-98495054D01*
X159217478Y-98374606D01*
X159221105Y-98359351D01*
X159226631Y-98308486D01*
X159227000Y-98301672D01*
X159227000Y-98283000D01*
X159247002Y-98214879D01*
X159300658Y-98168386D01*
X159353000Y-98157000D01*
X162319000Y-98157000D01*
X162319000Y-97407000D01*
X159352999Y-97407000D01*
X159284878Y-97386998D01*
X159238385Y-97333342D01*
X159226999Y-97281000D01*
X159226999Y-97212331D01*
X159226629Y-97205510D01*
X159221105Y-97154648D01*
X159217479Y-97139396D01*
X159172324Y-97018946D01*
X159163786Y-97003351D01*
X159087285Y-96901276D01*
X159074724Y-96888715D01*
X158972649Y-96812214D01*
X158957054Y-96803676D01*
X158836606Y-96758522D01*
X158821351Y-96754895D01*
X158770486Y-96749369D01*
X158763672Y-96749000D01*
X158391115Y-96749000D01*
X158375876Y-96753475D01*
X158374671Y-96754865D01*
X158373000Y-96762548D01*
X158373000Y-98746884D01*
X157865000Y-98746884D01*
X157865000Y-96767116D01*
X157860525Y-96751877D01*
X157859135Y-96750672D01*
X157851452Y-96749001D01*
X157474331Y-96749001D01*
X157467510Y-96749371D01*
X157416648Y-96754895D01*
X157401396Y-96758521D01*
X157280946Y-96803676D01*
X157265351Y-96812214D01*
X157163276Y-96888715D01*
X157150715Y-96901276D01*
X157074214Y-97003351D01*
X157065676Y-97018946D01*
X157020522Y-97139394D01*
X157016895Y-97154649D01*
X157011369Y-97205514D01*
X157011000Y-97212328D01*
X157011000Y-97281000D01*
X156990998Y-97349121D01*
X156937342Y-97395614D01*
X156885000Y-97407000D01*
X154782264Y-97407000D01*
X154714143Y-97386998D01*
X154667650Y-97333342D01*
X154657546Y-97263068D01*
X154659371Y-97256428D01*
X154658734Y-97256301D01*
X154672293Y-97188135D01*
X154673500Y-97182067D01*
X154673499Y-96431934D01*
X154658734Y-96357699D01*
X154662250Y-96357000D01*
X158819000Y-96357000D01*
X159993000Y-96357000D01*
X160061121Y-96377002D01*
X160107614Y-96430658D01*
X160119000Y-96483000D01*
X160119000Y-97057000D01*
X163545765Y-97057000D01*
X163613886Y-97077002D01*
X163660379Y-97130658D01*
X163669344Y-97207579D01*
X163664500Y-97231933D01*
X163664501Y-98282066D01*
X163679266Y-98356301D01*
X163686161Y-98366620D01*
X163686162Y-98366622D01*
X163689819Y-98372095D01*
X163735516Y-98440484D01*
X163819699Y-98496734D01*
X163893933Y-98511500D01*
X164318931Y-98511500D01*
X164744066Y-98511499D01*
X164779818Y-98504388D01*
X164806126Y-98499156D01*
X164806128Y-98499155D01*
X164818301Y-98496734D01*
X164828621Y-98489839D01*
X164828622Y-98489838D01*
X164892168Y-98447377D01*
X164902484Y-98440484D01*
X164958734Y-98356301D01*
X164969601Y-98301669D01*
X166561001Y-98301669D01*
X166561371Y-98308490D01*
X166566895Y-98359351D01*
X166570521Y-98374604D01*
X166615676Y-98495054D01*
X166624214Y-98510649D01*
X166700715Y-98612724D01*
X166713276Y-98625285D01*
X166815351Y-98701786D01*
X166830946Y-98710324D01*
X166951394Y-98755478D01*
X166966649Y-98759105D01*
X167017514Y-98764631D01*
X167024328Y-98765000D01*
X168196885Y-98765000D01*
X168212124Y-98760525D01*
X168213329Y-98759135D01*
X168215000Y-98751452D01*
X168215000Y-98029115D01*
X168210525Y-98013876D01*
X168209135Y-98012671D01*
X168201452Y-98011000D01*
X166579116Y-98011000D01*
X166563877Y-98015475D01*
X166562672Y-98016865D01*
X166561001Y-98024548D01*
X166561001Y-98301669D01*
X164969601Y-98301669D01*
X164973500Y-98282067D01*
X164973499Y-97231934D01*
X164968691Y-97207760D01*
X164968655Y-97207579D01*
X164974984Y-97136865D01*
X165018540Y-97080799D01*
X165092234Y-97057000D01*
X166437073Y-97057000D01*
X166505194Y-97077002D01*
X166551687Y-97130658D01*
X166562337Y-97196603D01*
X166561369Y-97205520D01*
X166561000Y-97212328D01*
X166561000Y-97484885D01*
X166565475Y-97500124D01*
X166566865Y-97501329D01*
X166574548Y-97503000D01*
X168196885Y-97503000D01*
X168212124Y-97498525D01*
X168213329Y-97497135D01*
X168215000Y-97489452D01*
X168215000Y-96767116D01*
X168210525Y-96751877D01*
X168209135Y-96750672D01*
X168201452Y-96749001D01*
X167845000Y-96749001D01*
X167776879Y-96728999D01*
X167730386Y-96675343D01*
X167719000Y-96623001D01*
X167719000Y-96357000D01*
X160545000Y-96357000D01*
X160476879Y-96336998D01*
X160430386Y-96283342D01*
X160419000Y-96231000D01*
X160419000Y-87657000D01*
X158819000Y-87657000D01*
X158819000Y-96357000D01*
X154662250Y-96357000D01*
X154662934Y-96356864D01*
X154657843Y-96309676D01*
X154658828Y-96306320D01*
X154658734Y-96306301D01*
X154672293Y-96238135D01*
X154673500Y-96232067D01*
X154673499Y-95481934D01*
X154663288Y-95430596D01*
X154661156Y-95419874D01*
X154661155Y-95419872D01*
X154658734Y-95407699D01*
X154646724Y-95389724D01*
X154638223Y-95377002D01*
X154617008Y-95309249D01*
X154638223Y-95236998D01*
X154651839Y-95216621D01*
X154651840Y-95216618D01*
X154658734Y-95206301D01*
X154673500Y-95132067D01*
X154673499Y-94514175D01*
X154693501Y-94446055D01*
X154723934Y-94413350D01*
X154774724Y-94375285D01*
X154787285Y-94362724D01*
X154863786Y-94260649D01*
X154872324Y-94245054D01*
X154917478Y-94124606D01*
X154921105Y-94109351D01*
X154926631Y-94058486D01*
X154927000Y-94051672D01*
X154927000Y-93929115D01*
X154922525Y-93913876D01*
X154921135Y-93912671D01*
X154913452Y-93911000D01*
X153691000Y-93911000D01*
X153622879Y-93890998D01*
X153576386Y-93837342D01*
X153565000Y-93785000D01*
X153565000Y-93529000D01*
X153585002Y-93460879D01*
X153638658Y-93414386D01*
X153691000Y-93403000D01*
X154908884Y-93403000D01*
X154924123Y-93398525D01*
X154925328Y-93397135D01*
X154926999Y-93389452D01*
X154926999Y-93262331D01*
X154926630Y-93255523D01*
X154923761Y-93229103D01*
X154936292Y-93159221D01*
X154984615Y-93107207D01*
X155049025Y-93089500D01*
X155356141Y-93089500D01*
X155424262Y-93109502D01*
X155451522Y-93133169D01*
X155452672Y-93134501D01*
X155456908Y-93140805D01*
X155462525Y-93145916D01*
X155539079Y-93215574D01*
X155574076Y-93247419D01*
X155713293Y-93323008D01*
X155866522Y-93363207D01*
X155950477Y-93364526D01*
X156017319Y-93365576D01*
X156017322Y-93365576D01*
X156024916Y-93365695D01*
X156179332Y-93330329D01*
X156262210Y-93288646D01*
X156314072Y-93262563D01*
X156314075Y-93262561D01*
X156320855Y-93259151D01*
X156326626Y-93254222D01*
X156326629Y-93254220D01*
X156435536Y-93161204D01*
X156435536Y-93161203D01*
X156441314Y-93156269D01*
X156533755Y-93027624D01*
X156592842Y-92880641D01*
X156605579Y-92791142D01*
X156614581Y-92727891D01*
X156614581Y-92727888D01*
X156615162Y-92723807D01*
X156615307Y-92710000D01*
X156614199Y-92700839D01*
X156607403Y-92644687D01*
X156596276Y-92552733D01*
X156540280Y-92404546D01*
X156509755Y-92360131D01*
X156454855Y-92280251D01*
X156454854Y-92280249D01*
X156450553Y-92273992D01*
X156332275Y-92168611D01*
X156324889Y-92164700D01*
X156198988Y-92098039D01*
X156198989Y-92098039D01*
X156192274Y-92094484D01*
X156038633Y-92055892D01*
X156031034Y-92055852D01*
X156031033Y-92055852D01*
X155965181Y-92055507D01*
X155880221Y-92055062D01*
X155872841Y-92056834D01*
X155872839Y-92056834D01*
X155733563Y-92090271D01*
X155733560Y-92090272D01*
X155726184Y-92092043D01*
X155585414Y-92164700D01*
X155466039Y-92268838D01*
X155461672Y-92275051D01*
X155461667Y-92275057D01*
X155460336Y-92276951D01*
X155459013Y-92278005D01*
X155456589Y-92280697D01*
X155456140Y-92280293D01*
X155404802Y-92321183D01*
X155357250Y-92330500D01*
X154799499Y-92330500D01*
X154731378Y-92310498D01*
X154684885Y-92256842D01*
X154673499Y-92204500D01*
X154673499Y-92181934D01*
X154666186Y-92145165D01*
X154661156Y-92119874D01*
X154661155Y-92119872D01*
X154658734Y-92107699D01*
X154638223Y-92077002D01*
X154617008Y-92009249D01*
X154638223Y-91936998D01*
X154651839Y-91916621D01*
X154651840Y-91916618D01*
X154658734Y-91906301D01*
X154673500Y-91832067D01*
X154673499Y-91081934D01*
X154666388Y-91046182D01*
X154661156Y-91019874D01*
X154661155Y-91019872D01*
X154658734Y-91007699D01*
X154638223Y-90977002D01*
X154617008Y-90909249D01*
X154638223Y-90836998D01*
X154651839Y-90816621D01*
X154651840Y-90816618D01*
X154658734Y-90806301D01*
X154673500Y-90732067D01*
X154673499Y-89981934D01*
X154666236Y-89945419D01*
X154661156Y-89919874D01*
X154661155Y-89919872D01*
X154658734Y-89907699D01*
X154650053Y-89894706D01*
X154638223Y-89877002D01*
X154617008Y-89809249D01*
X154638223Y-89736998D01*
X154651839Y-89716621D01*
X154651840Y-89716618D01*
X154658734Y-89706301D01*
X154659063Y-89706521D01*
X154697353Y-89659003D01*
X154769216Y-89636500D01*
X155256280Y-89636500D01*
X155324401Y-89656502D01*
X155367315Y-89703936D01*
X155368553Y-89707319D01*
X155372789Y-89713622D01*
X155372789Y-89713623D01*
X155444360Y-89820131D01*
X155456908Y-89838805D01*
X155462527Y-89843918D01*
X155462528Y-89843919D01*
X155550144Y-89923643D01*
X155574076Y-89945419D01*
X155713293Y-90021008D01*
X155866522Y-90061207D01*
X155950477Y-90062526D01*
X156017319Y-90063576D01*
X156017322Y-90063576D01*
X156024916Y-90063695D01*
X156179332Y-90028329D01*
X156255013Y-89990266D01*
X156314072Y-89960563D01*
X156314075Y-89960561D01*
X156320855Y-89957151D01*
X156326626Y-89952222D01*
X156326629Y-89952220D01*
X156435536Y-89859204D01*
X156435536Y-89859203D01*
X156441314Y-89854269D01*
X156533755Y-89725624D01*
X156592842Y-89578641D01*
X156608375Y-89469500D01*
X156614581Y-89425891D01*
X156614581Y-89425888D01*
X156615162Y-89421807D01*
X156615307Y-89408000D01*
X156596276Y-89250733D01*
X156540280Y-89102546D01*
X156528492Y-89085394D01*
X156454855Y-88978251D01*
X156454854Y-88978249D01*
X156450553Y-88971992D01*
X156332275Y-88866611D01*
X156324889Y-88862700D01*
X156221010Y-88807699D01*
X156192274Y-88792484D01*
X156038633Y-88753892D01*
X156031034Y-88753852D01*
X156031033Y-88753852D01*
X155965181Y-88753507D01*
X155880221Y-88753062D01*
X155872841Y-88754834D01*
X155872839Y-88754834D01*
X155733563Y-88788271D01*
X155733560Y-88788272D01*
X155726184Y-88790043D01*
X155585414Y-88862700D01*
X155583932Y-88859829D01*
X155526497Y-88877500D01*
X154769216Y-88877500D01*
X154701095Y-88857498D01*
X154659212Y-88807380D01*
X154658734Y-88807699D01*
X154655766Y-88803257D01*
X154655766Y-88803256D01*
X154651840Y-88797382D01*
X154651839Y-88797379D01*
X154638223Y-88777002D01*
X154617008Y-88709249D01*
X154638223Y-88636998D01*
X154651839Y-88616621D01*
X154651840Y-88616618D01*
X154658734Y-88606301D01*
X154673500Y-88532067D01*
X154673499Y-87781934D01*
X154658734Y-87707699D01*
X154651838Y-87697379D01*
X154648183Y-87688554D01*
X154640594Y-87617965D01*
X154672374Y-87554478D01*
X154689027Y-87539511D01*
X154774724Y-87475285D01*
X154787285Y-87462724D01*
X154863786Y-87360649D01*
X154872324Y-87345054D01*
X154917478Y-87224606D01*
X154921105Y-87209351D01*
X154926631Y-87158486D01*
X154927000Y-87151672D01*
X154927000Y-86879115D01*
X154922525Y-86863876D01*
X154921135Y-86862671D01*
X154913452Y-86861000D01*
X152729116Y-86861000D01*
X152713877Y-86865475D01*
X152712672Y-86866865D01*
X152711001Y-86874548D01*
X152711001Y-86895094D01*
X152690999Y-86963215D01*
X152637343Y-87009708D01*
X152567069Y-87019812D01*
X152502489Y-86990318D01*
X152495906Y-86984189D01*
X151846602Y-86334885D01*
X152711000Y-86334885D01*
X152715475Y-86350124D01*
X152716865Y-86351329D01*
X152724548Y-86353000D01*
X153546885Y-86353000D01*
X153562124Y-86348525D01*
X153563329Y-86347135D01*
X153565000Y-86339452D01*
X153565000Y-86334885D01*
X154073000Y-86334885D01*
X154077475Y-86350124D01*
X154078865Y-86351329D01*
X154086548Y-86353000D01*
X154908884Y-86353000D01*
X154924123Y-86348525D01*
X154925328Y-86347135D01*
X154926999Y-86339452D01*
X154926999Y-86062331D01*
X154926629Y-86055510D01*
X154921105Y-86004648D01*
X154917479Y-85989396D01*
X154872324Y-85868946D01*
X154863786Y-85853351D01*
X154787285Y-85751276D01*
X154774724Y-85738715D01*
X154672649Y-85662214D01*
X154657054Y-85653676D01*
X154536606Y-85608522D01*
X154521351Y-85604895D01*
X154470486Y-85599369D01*
X154463672Y-85599000D01*
X154091115Y-85599000D01*
X154075876Y-85603475D01*
X154074671Y-85604865D01*
X154073000Y-85612548D01*
X154073000Y-86334885D01*
X153565000Y-86334885D01*
X153565000Y-85617116D01*
X153560525Y-85601877D01*
X153559135Y-85600672D01*
X153551452Y-85599001D01*
X153174331Y-85599001D01*
X153167510Y-85599371D01*
X153116648Y-85604895D01*
X153101396Y-85608521D01*
X152980946Y-85653676D01*
X152965351Y-85662214D01*
X152863276Y-85738715D01*
X152850715Y-85751276D01*
X152774214Y-85853351D01*
X152765676Y-85868946D01*
X152720522Y-85989394D01*
X152716895Y-86004649D01*
X152711369Y-86055514D01*
X152711000Y-86062328D01*
X152711000Y-86334885D01*
X151846602Y-86334885D01*
X150754500Y-85242784D01*
X150739358Y-85224036D01*
X150738243Y-85222811D01*
X150732593Y-85214060D01*
X150724415Y-85207613D01*
X150724413Y-85207611D01*
X150706222Y-85193271D01*
X150701781Y-85189325D01*
X150701719Y-85189398D01*
X150697755Y-85186039D01*
X150694078Y-85182362D01*
X150678330Y-85171108D01*
X150673660Y-85167602D01*
X150633375Y-85135844D01*
X150624741Y-85132812D01*
X150617288Y-85127486D01*
X150568172Y-85112797D01*
X150562530Y-85110964D01*
X150521655Y-85096610D01*
X150521654Y-85096610D01*
X150514171Y-85093982D01*
X150508606Y-85093500D01*
X150505898Y-85093500D01*
X150503264Y-85093386D01*
X150503166Y-85093357D01*
X150503173Y-85093193D01*
X150502469Y-85093149D01*
X150496244Y-85091287D01*
X150442387Y-85093403D01*
X150437440Y-85093500D01*
X147451119Y-85093500D01*
X147382998Y-85073498D01*
X147336505Y-85019842D01*
X147326401Y-84949568D01*
X147340600Y-84906990D01*
X147349322Y-84891060D01*
X147394478Y-84770606D01*
X147398105Y-84755351D01*
X147403631Y-84704486D01*
X147404000Y-84697672D01*
X147404000Y-84475115D01*
X147399525Y-84459876D01*
X147398135Y-84458671D01*
X147390452Y-84457000D01*
X144406116Y-84457000D01*
X144390877Y-84461475D01*
X144389672Y-84462865D01*
X144388001Y-84470548D01*
X144388001Y-84697669D01*
X144388371Y-84704490D01*
X144393895Y-84755352D01*
X144397521Y-84770604D01*
X144442676Y-84891054D01*
X144451214Y-84906649D01*
X144527715Y-85008724D01*
X144540272Y-85021281D01*
X144591065Y-85059348D01*
X144633580Y-85116208D01*
X144641500Y-85160175D01*
X144641501Y-85556776D01*
X144641501Y-85948066D01*
X144645064Y-85965980D01*
X144651921Y-86000453D01*
X144656266Y-86022301D01*
X144666753Y-86037995D01*
X144687970Y-86105748D01*
X144666753Y-86178004D01*
X144656266Y-86193699D01*
X144644827Y-86251207D01*
X144642664Y-86262081D01*
X144609757Y-86324991D01*
X144548062Y-86360123D01*
X144519085Y-86363500D01*
X143690288Y-86363500D01*
X143622167Y-86343498D01*
X143588685Y-86306893D01*
X143586280Y-86308546D01*
X143500855Y-86184251D01*
X143500854Y-86184249D01*
X143496553Y-86177992D01*
X143483911Y-86166728D01*
X143443034Y-86130309D01*
X143378275Y-86072611D01*
X143370889Y-86068700D01*
X143302745Y-86032620D01*
X143238274Y-85998484D01*
X143084633Y-85959892D01*
X143077034Y-85959852D01*
X143077033Y-85959852D01*
X143011181Y-85959507D01*
X142926221Y-85959062D01*
X142918841Y-85960834D01*
X142918839Y-85960834D01*
X142779563Y-85994271D01*
X142779560Y-85994272D01*
X142772184Y-85996043D01*
X142631414Y-86068700D01*
X142512039Y-86172838D01*
X142420950Y-86302444D01*
X142401891Y-86351329D01*
X142366279Y-86442669D01*
X142363406Y-86450037D01*
X142362414Y-86457570D01*
X142362414Y-86457571D01*
X142359411Y-86480385D01*
X142342729Y-86607096D01*
X142360113Y-86764553D01*
X142362723Y-86771684D01*
X142362723Y-86771686D01*
X142407884Y-86895094D01*
X142414553Y-86913319D01*
X142418789Y-86919622D01*
X142418789Y-86919623D01*
X142497581Y-87036877D01*
X142502908Y-87044805D01*
X142508527Y-87049918D01*
X142508528Y-87049919D01*
X142511105Y-87052264D01*
X142615374Y-87147141D01*
X142615376Y-87147143D01*
X142620076Y-87151419D01*
X142619364Y-87152202D01*
X142658993Y-87202488D01*
X142665813Y-87273156D01*
X142633345Y-87336294D01*
X142624895Y-87344386D01*
X142512039Y-87442838D01*
X142420950Y-87572444D01*
X142401438Y-87622490D01*
X142372296Y-87697236D01*
X142363406Y-87720037D01*
X142362414Y-87727570D01*
X142362414Y-87727571D01*
X142345866Y-87853270D01*
X142342729Y-87877096D01*
X142345232Y-87899763D01*
X142356887Y-88005329D01*
X142360113Y-88034553D01*
X142362723Y-88041684D01*
X142362723Y-88041686D01*
X142406809Y-88162156D01*
X142414553Y-88183319D01*
X142418789Y-88189622D01*
X142418789Y-88189623D01*
X142494508Y-88302304D01*
X142502908Y-88314805D01*
X142615374Y-88417141D01*
X142615376Y-88417143D01*
X142620076Y-88421419D01*
X142619364Y-88422202D01*
X142658993Y-88472488D01*
X142665813Y-88543156D01*
X142633345Y-88606294D01*
X142624895Y-88614386D01*
X142512039Y-88712838D01*
X142420950Y-88842444D01*
X142395016Y-88908962D01*
X142372411Y-88966941D01*
X142363406Y-88990037D01*
X142362414Y-88997570D01*
X142362414Y-88997571D01*
X142347162Y-89113427D01*
X142342729Y-89147096D01*
X139403150Y-89147096D01*
X139398105Y-89100648D01*
X139394479Y-89085396D01*
X139349324Y-88964946D01*
X139340786Y-88949351D01*
X139264285Y-88847276D01*
X139251724Y-88834715D01*
X139149649Y-88758214D01*
X139134054Y-88749676D01*
X139013606Y-88704522D01*
X138998351Y-88700895D01*
X138947486Y-88695369D01*
X138940672Y-88695000D01*
X136668115Y-88695000D01*
X136652876Y-88699475D01*
X136651671Y-88700865D01*
X136650000Y-88708548D01*
X136650000Y-91430885D01*
X136142000Y-91430885D01*
X136142000Y-88713116D01*
X136137525Y-88697877D01*
X136136135Y-88696672D01*
X136128452Y-88695001D01*
X133851331Y-88695001D01*
X133844510Y-88695371D01*
X133793648Y-88700895D01*
X133778396Y-88704521D01*
X133657946Y-88749676D01*
X133642351Y-88758214D01*
X133540276Y-88834715D01*
X133527715Y-88847276D01*
X133451214Y-88949351D01*
X133442676Y-88964946D01*
X133397522Y-89085394D01*
X133393895Y-89100649D01*
X133388369Y-89151514D01*
X133388000Y-89158328D01*
X133388000Y-91430885D01*
X130150499Y-91430885D01*
X130150499Y-91347934D01*
X130140965Y-91299999D01*
X130138156Y-91285874D01*
X130138155Y-91285872D01*
X130135734Y-91273699D01*
X130125247Y-91258004D01*
X130104030Y-91190252D01*
X130125247Y-91117995D01*
X130135734Y-91102301D01*
X130150500Y-91028067D01*
X130150499Y-90077934D01*
X130140633Y-90028329D01*
X130138156Y-90015874D01*
X130138155Y-90015872D01*
X130135734Y-90003699D01*
X130125247Y-89988004D01*
X130104030Y-89920252D01*
X130125247Y-89847995D01*
X130135734Y-89832301D01*
X130150500Y-89758067D01*
X130150499Y-88807934D01*
X130141647Y-88763427D01*
X130138156Y-88745874D01*
X130138155Y-88745872D01*
X130135734Y-88733699D01*
X130125247Y-88718004D01*
X130104030Y-88650252D01*
X130125247Y-88577995D01*
X130135734Y-88562301D01*
X130150500Y-88488067D01*
X130150499Y-87537934D01*
X130141946Y-87494929D01*
X130138156Y-87475874D01*
X130138155Y-87475872D01*
X130135734Y-87463699D01*
X130125247Y-87448004D01*
X130104030Y-87380252D01*
X130125247Y-87307995D01*
X130125379Y-87307798D01*
X130135734Y-87292301D01*
X130150500Y-87218067D01*
X130150499Y-86267934D01*
X130140970Y-86220024D01*
X130138156Y-86205874D01*
X130138155Y-86205872D01*
X130135734Y-86193699D01*
X130125247Y-86178004D01*
X130104030Y-86110252D01*
X130125247Y-86037995D01*
X130128254Y-86033495D01*
X130182732Y-85987969D01*
X130233017Y-85977500D01*
X131226141Y-85977500D01*
X131294262Y-85997502D01*
X131321522Y-86021169D01*
X131322672Y-86022501D01*
X131326908Y-86028805D01*
X131444076Y-86135419D01*
X131583293Y-86211008D01*
X131736522Y-86251207D01*
X131820477Y-86252526D01*
X131887319Y-86253576D01*
X131887322Y-86253576D01*
X131894916Y-86253695D01*
X132049332Y-86218329D01*
X132148240Y-86168584D01*
X132184072Y-86150563D01*
X132184075Y-86150561D01*
X132190855Y-86147151D01*
X132196626Y-86142222D01*
X132196629Y-86142220D01*
X132305536Y-86049204D01*
X132305536Y-86049203D01*
X132311314Y-86044269D01*
X132403755Y-85915624D01*
X132462842Y-85768641D01*
X132478580Y-85658054D01*
X132484581Y-85615891D01*
X132484581Y-85615888D01*
X132485162Y-85611807D01*
X132485307Y-85598000D01*
X132466276Y-85440733D01*
X132410280Y-85292546D01*
X132376080Y-85242784D01*
X132324855Y-85168251D01*
X132324854Y-85168249D01*
X132320553Y-85161992D01*
X132202275Y-85056611D01*
X132062274Y-84982484D01*
X131908633Y-84943892D01*
X131901034Y-84943852D01*
X131901033Y-84943852D01*
X131835181Y-84943507D01*
X131750221Y-84943062D01*
X131742841Y-84944834D01*
X131742839Y-84944834D01*
X131655339Y-84965841D01*
X131617505Y-84968843D01*
X131615303Y-84968500D01*
X131599938Y-84968500D01*
X131590601Y-84968154D01*
X131574519Y-84966959D01*
X131541333Y-84964493D01*
X131532558Y-84966366D01*
X131523862Y-84966959D01*
X131509262Y-84968500D01*
X130502089Y-84968500D01*
X130433968Y-84948498D01*
X130387475Y-84894842D01*
X130377371Y-84824568D01*
X130384108Y-84798269D01*
X130394477Y-84770610D01*
X130398105Y-84755351D01*
X130403631Y-84704486D01*
X130404000Y-84697672D01*
X130404000Y-84475115D01*
X130399525Y-84459876D01*
X130398135Y-84458671D01*
X130390452Y-84457000D01*
X127406116Y-84457000D01*
X127390877Y-84461475D01*
X127389672Y-84462865D01*
X127388001Y-84470548D01*
X127388001Y-84697679D01*
X127388027Y-84698159D01*
X127388001Y-84698269D01*
X127388001Y-84701088D01*
X127387337Y-84701088D01*
X127371742Y-84767263D01*
X127320682Y-84816592D01*
X127262212Y-84830980D01*
X117784644Y-84830980D01*
X117772639Y-84829639D01*
X117772599Y-84830135D01*
X117763652Y-84829415D01*
X117754896Y-84827434D01*
X117711358Y-84830135D01*
X117701638Y-84830738D01*
X117693836Y-84830980D01*
X117677794Y-84830980D01*
X117673363Y-84831615D01*
X117673358Y-84831615D01*
X117669333Y-84832192D01*
X117667563Y-84832445D01*
X117657506Y-84833476D01*
X117635044Y-84834869D01*
X117619620Y-84835826D01*
X117619618Y-84835826D01*
X117610661Y-84836382D01*
X117602221Y-84839429D01*
X117598931Y-84840110D01*
X117583082Y-84844062D01*
X117579852Y-84845007D01*
X117570968Y-84846279D01*
X117542158Y-84859378D01*
X117528242Y-84865705D01*
X117518880Y-84869516D01*
X117483178Y-84882405D01*
X117483177Y-84882406D01*
X117474736Y-84885453D01*
X117467487Y-84890749D01*
X117464506Y-84892334D01*
X117450428Y-84900560D01*
X117447589Y-84902376D01*
X117439415Y-84906092D01*
X117408819Y-84932456D01*
X117403869Y-84936721D01*
X117395945Y-84943012D01*
X117389022Y-84948069D01*
X117389011Y-84948079D01*
X117385076Y-84950953D01*
X117374214Y-84961815D01*
X117367368Y-84968173D01*
X117329938Y-85000424D01*
X117325054Y-85007959D01*
X117319321Y-85014531D01*
X117310094Y-85025935D01*
X116967434Y-85368595D01*
X116905122Y-85402621D01*
X116878339Y-85405500D01*
X116379244Y-85405500D01*
X116375848Y-85405869D01*
X116375847Y-85405869D01*
X116325403Y-85411349D01*
X116325402Y-85411349D01*
X116317552Y-85412202D01*
X116310159Y-85414974D01*
X116310157Y-85414974D01*
X116281492Y-85425720D01*
X116182236Y-85462929D01*
X116175057Y-85468309D01*
X116175054Y-85468311D01*
X116088747Y-85532995D01*
X116066596Y-85549596D01*
X116061215Y-85556776D01*
X115985311Y-85658054D01*
X115985309Y-85658057D01*
X115979929Y-85665236D01*
X115929202Y-85800552D01*
X115922500Y-85862244D01*
X115922500Y-86857756D01*
X115929202Y-86919448D01*
X115979929Y-87054764D01*
X115985309Y-87061943D01*
X115985311Y-87061946D01*
X116020472Y-87108861D01*
X116066596Y-87170404D01*
X116073776Y-87175785D01*
X116134565Y-87221344D01*
X116177080Y-87278203D01*
X116185000Y-87322170D01*
X116185000Y-87429830D01*
X116164998Y-87497951D01*
X116134565Y-87530656D01*
X116102780Y-87554478D01*
X116066596Y-87581596D01*
X116061215Y-87588776D01*
X115985311Y-87690054D01*
X115985309Y-87690057D01*
X115979929Y-87697236D01*
X115946296Y-87786954D01*
X115932165Y-87824649D01*
X115929202Y-87832552D01*
X115922500Y-87894244D01*
X115922500Y-88889756D01*
X115929202Y-88951448D01*
X115931974Y-88958841D01*
X115931974Y-88958843D01*
X115942207Y-88986139D01*
X115979929Y-89086764D01*
X115985309Y-89093943D01*
X115985311Y-89093946D01*
X116033563Y-89158328D01*
X116066596Y-89202404D01*
X116073776Y-89207785D01*
X116134565Y-89253344D01*
X116177080Y-89310203D01*
X116185000Y-89354170D01*
X116185000Y-89461830D01*
X116164998Y-89529951D01*
X116134565Y-89562656D01*
X116105012Y-89584805D01*
X116066596Y-89613596D01*
X116061215Y-89620776D01*
X115985311Y-89722054D01*
X115985309Y-89722057D01*
X115979929Y-89729236D01*
X115929202Y-89864552D01*
X115922500Y-89926244D01*
X115922500Y-90425339D01*
X115902498Y-90493460D01*
X115885595Y-90514434D01*
X111519206Y-94880823D01*
X111509766Y-94888365D01*
X111510089Y-94888745D01*
X111503253Y-94894563D01*
X111495661Y-94899353D01*
X111489719Y-94906081D01*
X111460329Y-94939359D01*
X111454983Y-94945046D01*
X111443649Y-94956380D01*
X111440964Y-94959963D01*
X111440962Y-94959965D01*
X111437447Y-94964655D01*
X111431062Y-94972498D01*
X111399999Y-95007670D01*
X111396186Y-95015792D01*
X111394346Y-95018593D01*
X111385937Y-95032588D01*
X111384315Y-95035551D01*
X111378930Y-95042736D01*
X111375777Y-95051146D01*
X111375776Y-95051148D01*
X111362454Y-95086682D01*
X111358530Y-95095995D01*
X111338583Y-95138482D01*
X111337201Y-95147356D01*
X111336215Y-95150583D01*
X111332075Y-95166366D01*
X111331354Y-95169644D01*
X111328202Y-95178052D01*
X111327537Y-95187003D01*
X111324724Y-95224857D01*
X111323570Y-95234904D01*
X111321500Y-95248197D01*
X111321500Y-95263562D01*
X111321153Y-95272901D01*
X111319214Y-95298991D01*
X111294219Y-95365441D01*
X111269127Y-95390477D01*
X111215596Y-95430596D01*
X111210215Y-95437776D01*
X111134311Y-95539054D01*
X111134309Y-95539057D01*
X111128929Y-95546236D01*
X111098128Y-95628400D01*
X111083616Y-95667111D01*
X111078202Y-95681552D01*
X111077349Y-95689402D01*
X111077349Y-95689403D01*
X111071869Y-95739847D01*
X111071500Y-95743244D01*
X111071500Y-96788756D01*
X111071869Y-96792152D01*
X111071869Y-96792153D01*
X111073853Y-96810411D01*
X111078202Y-96850448D01*
X111080974Y-96857841D01*
X111080974Y-96857843D01*
X111086703Y-96873126D01*
X111128929Y-96985764D01*
X111134309Y-96992943D01*
X111134311Y-96992946D01*
X111175679Y-97048143D01*
X111215596Y-97101404D01*
X111222776Y-97106785D01*
X111324054Y-97182689D01*
X111324057Y-97182691D01*
X111331236Y-97188071D01*
X111412625Y-97218582D01*
X111459157Y-97236026D01*
X111459159Y-97236026D01*
X111466552Y-97238798D01*
X111474402Y-97239651D01*
X111474403Y-97239651D01*
X111518229Y-97244412D01*
X111528244Y-97245500D01*
X111535500Y-97245500D01*
X111603621Y-97265502D01*
X111650114Y-97319158D01*
X111661500Y-97371500D01*
X111661500Y-98811501D01*
X111641498Y-98879622D01*
X111587842Y-98926115D01*
X111535500Y-98937501D01*
X111140934Y-98937501D01*
X111105182Y-98944612D01*
X111078874Y-98949844D01*
X111078872Y-98949845D01*
X111066699Y-98952266D01*
X111056379Y-98959161D01*
X111056378Y-98959162D01*
X111033988Y-98974123D01*
X110982516Y-99008516D01*
X110926266Y-99092699D01*
X110911500Y-99166933D01*
X109394640Y-99166933D01*
X109491913Y-99086031D01*
X109496345Y-99082345D01*
X109538567Y-99031579D01*
X109622453Y-98930718D01*
X109622455Y-98930715D01*
X109626147Y-98926276D01*
X109709246Y-98777892D01*
X109722510Y-98754208D01*
X109722511Y-98754206D01*
X109725334Y-98749165D01*
X109727190Y-98743698D01*
X109727192Y-98743693D01*
X109788728Y-98562414D01*
X109788729Y-98562409D01*
X109790584Y-98556945D01*
X109791412Y-98551236D01*
X109791413Y-98551231D01*
X109812549Y-98405457D01*
X109819712Y-98356053D01*
X109821232Y-98298000D01*
X109819768Y-98282066D01*
X109803187Y-98101613D01*
X109803186Y-98101610D01*
X109802658Y-98095859D01*
X109801090Y-98090299D01*
X109749125Y-97906046D01*
X109749124Y-97906044D01*
X109747557Y-97900487D01*
X109740439Y-97886052D01*
X109660331Y-97723609D01*
X109657776Y-97718428D01*
X109637941Y-97691865D01*
X109616391Y-97663007D01*
X109536320Y-97555779D01*
X109407428Y-97436632D01*
X109391503Y-97421911D01*
X109387258Y-97417987D01*
X109382375Y-97414906D01*
X109382371Y-97414903D01*
X109220464Y-97312748D01*
X109215581Y-97309667D01*
X109027039Y-97234446D01*
X109021379Y-97233320D01*
X109021375Y-97233319D01*
X108833613Y-97195971D01*
X108833610Y-97195971D01*
X108827946Y-97194844D01*
X108822171Y-97194768D01*
X108822167Y-97194768D01*
X108720793Y-97193441D01*
X108624971Y-97192187D01*
X108619274Y-97193166D01*
X108619273Y-97193166D01*
X108471362Y-97218582D01*
X108424910Y-97226564D01*
X108234463Y-97296824D01*
X108060010Y-97400612D01*
X108055670Y-97404418D01*
X108055666Y-97404421D01*
X107947820Y-97499000D01*
X107907392Y-97534455D01*
X107781720Y-97693869D01*
X107779031Y-97698980D01*
X107779029Y-97698983D01*
X107735943Y-97780877D01*
X107687203Y-97873515D01*
X107678828Y-97900487D01*
X107672833Y-97919794D01*
X107633530Y-97978919D01*
X107568500Y-98007410D01*
X107498391Y-97996220D01*
X107445461Y-97948903D01*
X107426500Y-97882430D01*
X107426500Y-95420178D01*
X107446502Y-95352057D01*
X107500158Y-95305564D01*
X107570432Y-95295460D01*
X107635012Y-95324954D01*
X107666926Y-95367426D01*
X107751377Y-95550616D01*
X107763397Y-95567624D01*
X107854314Y-95696269D01*
X107868533Y-95716389D01*
X107872675Y-95720424D01*
X107896101Y-95743244D01*
X108013938Y-95858035D01*
X108018742Y-95861245D01*
X108067530Y-95893844D01*
X108182720Y-95970812D01*
X108188023Y-95973090D01*
X108188026Y-95973092D01*
X108336076Y-96036699D01*
X108369228Y-96050942D01*
X108425270Y-96063623D01*
X108561579Y-96094467D01*
X108561584Y-96094468D01*
X108567216Y-96095742D01*
X108572987Y-96095969D01*
X108572989Y-96095969D01*
X108632756Y-96098317D01*
X108770053Y-96103712D01*
X108870499Y-96089148D01*
X108965231Y-96075413D01*
X108965236Y-96075412D01*
X108970945Y-96074584D01*
X108976409Y-96072729D01*
X108976414Y-96072728D01*
X109157693Y-96011192D01*
X109157698Y-96011190D01*
X109163165Y-96009334D01*
X109168878Y-96006135D01*
X109266944Y-95951215D01*
X109340276Y-95910147D01*
X109347669Y-95903999D01*
X109491913Y-95784031D01*
X109496345Y-95780345D01*
X109562166Y-95701204D01*
X109622453Y-95628718D01*
X109622455Y-95628715D01*
X109626147Y-95624276D01*
X109702844Y-95487324D01*
X109722510Y-95452208D01*
X109722511Y-95452206D01*
X109725334Y-95447165D01*
X109727190Y-95441698D01*
X109727192Y-95441693D01*
X109788728Y-95260414D01*
X109788729Y-95260409D01*
X109790584Y-95254945D01*
X109791412Y-95249236D01*
X109791413Y-95249231D01*
X109810661Y-95116478D01*
X109819712Y-95054053D01*
X109821232Y-94996000D01*
X109804044Y-94808941D01*
X109803187Y-94799613D01*
X109803186Y-94799610D01*
X109802658Y-94793859D01*
X109799034Y-94781009D01*
X109749125Y-94604046D01*
X109749124Y-94604044D01*
X109747557Y-94598487D01*
X109744209Y-94591696D01*
X109660331Y-94421609D01*
X109657776Y-94416428D01*
X109536320Y-94253779D01*
X109431093Y-94156508D01*
X109391503Y-94119911D01*
X109387258Y-94115987D01*
X109382375Y-94112906D01*
X109382371Y-94112903D01*
X109220464Y-94010748D01*
X109215581Y-94007667D01*
X109027039Y-93932446D01*
X109021379Y-93931320D01*
X109021375Y-93931319D01*
X108833613Y-93893971D01*
X108833610Y-93893971D01*
X108827946Y-93892844D01*
X108822171Y-93892768D01*
X108822167Y-93892768D01*
X108720793Y-93891441D01*
X108624971Y-93890187D01*
X108619274Y-93891166D01*
X108619273Y-93891166D01*
X108430607Y-93923585D01*
X108424910Y-93924564D01*
X108234463Y-93994824D01*
X108060010Y-94098612D01*
X108055670Y-94102418D01*
X108055666Y-94102421D01*
X107917585Y-94223516D01*
X107907392Y-94232455D01*
X107781720Y-94391869D01*
X107779031Y-94396980D01*
X107779029Y-94396983D01*
X107755842Y-94441054D01*
X107687203Y-94571515D01*
X107678828Y-94598487D01*
X107672833Y-94617794D01*
X107633530Y-94676919D01*
X107568500Y-94705410D01*
X107498391Y-94694220D01*
X107445461Y-94646903D01*
X107426500Y-94580430D01*
X107426500Y-92118178D01*
X107446502Y-92050057D01*
X107500158Y-92003564D01*
X107570432Y-91993460D01*
X107635012Y-92022954D01*
X107666926Y-92065426D01*
X107751377Y-92248616D01*
X107754710Y-92253332D01*
X107861577Y-92404546D01*
X107868533Y-92414389D01*
X108013938Y-92556035D01*
X108182720Y-92668812D01*
X108188023Y-92671090D01*
X108188026Y-92671092D01*
X108320230Y-92727891D01*
X108369228Y-92748942D01*
X108421496Y-92760769D01*
X108561579Y-92792467D01*
X108561584Y-92792468D01*
X108567216Y-92793742D01*
X108572987Y-92793969D01*
X108572989Y-92793969D01*
X108632756Y-92796317D01*
X108770053Y-92801712D01*
X108870499Y-92787148D01*
X108965231Y-92773413D01*
X108965236Y-92773412D01*
X108970945Y-92772584D01*
X108976409Y-92770729D01*
X108976414Y-92770728D01*
X109157693Y-92709192D01*
X109157698Y-92709190D01*
X109163165Y-92707334D01*
X109174765Y-92700838D01*
X109250584Y-92658377D01*
X109340276Y-92608147D01*
X109355923Y-92595134D01*
X109491913Y-92482031D01*
X109496345Y-92478345D01*
X109520172Y-92449696D01*
X109622453Y-92326718D01*
X109622455Y-92326715D01*
X109626147Y-92322276D01*
X109714394Y-92164700D01*
X109722510Y-92150208D01*
X109722511Y-92150206D01*
X109725334Y-92145165D01*
X109727190Y-92139698D01*
X109727192Y-92139693D01*
X109788728Y-91958414D01*
X109788729Y-91958409D01*
X109790584Y-91952945D01*
X109791412Y-91947236D01*
X109791413Y-91947231D01*
X109812887Y-91799123D01*
X109819712Y-91752053D01*
X109821232Y-91694000D01*
X109807403Y-91543498D01*
X109803187Y-91497613D01*
X109803186Y-91497610D01*
X109802658Y-91491859D01*
X109794785Y-91463944D01*
X109749125Y-91302046D01*
X109749124Y-91302044D01*
X109747557Y-91296487D01*
X109742324Y-91285874D01*
X109660331Y-91119609D01*
X109657776Y-91114428D01*
X109536320Y-90951779D01*
X109387258Y-90813987D01*
X109382375Y-90810906D01*
X109382371Y-90810903D01*
X109220464Y-90708748D01*
X109215581Y-90705667D01*
X109027039Y-90630446D01*
X109021379Y-90629320D01*
X109021375Y-90629319D01*
X108833613Y-90591971D01*
X108833610Y-90591971D01*
X108827946Y-90590844D01*
X108822171Y-90590768D01*
X108822167Y-90590768D01*
X108720793Y-90589441D01*
X108624971Y-90588187D01*
X108619274Y-90589166D01*
X108619273Y-90589166D01*
X108430607Y-90621585D01*
X108424910Y-90622564D01*
X108234463Y-90692824D01*
X108060010Y-90796612D01*
X108055670Y-90800418D01*
X108055666Y-90800421D01*
X107963035Y-90881657D01*
X107907392Y-90930455D01*
X107903817Y-90934990D01*
X107903816Y-90934991D01*
X107886931Y-90956409D01*
X107781720Y-91089869D01*
X107779031Y-91094980D01*
X107779029Y-91094983D01*
X107766922Y-91117995D01*
X107687203Y-91269515D01*
X107674226Y-91311309D01*
X107672833Y-91315794D01*
X107633530Y-91374919D01*
X107568500Y-91403410D01*
X107498391Y-91392220D01*
X107445461Y-91344903D01*
X107426500Y-91278430D01*
X107426500Y-88816178D01*
X107446502Y-88748057D01*
X107500158Y-88701564D01*
X107570432Y-88691460D01*
X107635012Y-88720954D01*
X107666926Y-88763426D01*
X107751377Y-88946616D01*
X107760018Y-88958843D01*
X107862883Y-89104394D01*
X107868533Y-89112389D01*
X107872675Y-89116424D01*
X107909775Y-89152565D01*
X108013938Y-89254035D01*
X108182720Y-89366812D01*
X108188023Y-89369090D01*
X108188026Y-89369092D01*
X108320230Y-89425891D01*
X108369228Y-89446942D01*
X108425270Y-89459623D01*
X108561579Y-89490467D01*
X108561584Y-89490468D01*
X108567216Y-89491742D01*
X108572987Y-89491969D01*
X108572989Y-89491969D01*
X108632756Y-89494317D01*
X108770053Y-89499712D01*
X108870499Y-89485148D01*
X108965231Y-89471413D01*
X108965236Y-89471412D01*
X108970945Y-89470584D01*
X108976409Y-89468729D01*
X108976414Y-89468728D01*
X109157693Y-89407192D01*
X109157698Y-89407190D01*
X109163165Y-89405334D01*
X109179206Y-89396351D01*
X109254525Y-89354170D01*
X109340276Y-89306147D01*
X109348585Y-89299237D01*
X109491913Y-89180031D01*
X109496345Y-89176345D01*
X109555845Y-89104805D01*
X109622453Y-89024718D01*
X109622455Y-89024715D01*
X109626147Y-89020276D01*
X109699242Y-88889756D01*
X109722510Y-88848208D01*
X109722511Y-88848206D01*
X109725334Y-88843165D01*
X109727190Y-88837698D01*
X109727192Y-88837693D01*
X109788728Y-88656414D01*
X109788729Y-88656409D01*
X109790584Y-88650945D01*
X109791412Y-88645236D01*
X109791413Y-88645231D01*
X109817826Y-88463060D01*
X109819712Y-88450053D01*
X109821232Y-88392000D01*
X109802658Y-88189859D01*
X109796741Y-88168880D01*
X109749125Y-88000046D01*
X109749124Y-88000044D01*
X109747557Y-87994487D01*
X109744795Y-87988885D01*
X109660331Y-87817609D01*
X109657776Y-87812428D01*
X109536320Y-87649779D01*
X109415326Y-87537933D01*
X109391503Y-87515911D01*
X109387258Y-87511987D01*
X109382375Y-87508906D01*
X109382371Y-87508903D01*
X109220464Y-87406748D01*
X109215581Y-87403667D01*
X109027039Y-87328446D01*
X109021379Y-87327320D01*
X109021375Y-87327319D01*
X108833613Y-87289971D01*
X108833610Y-87289971D01*
X108827946Y-87288844D01*
X108822171Y-87288768D01*
X108822167Y-87288768D01*
X108720793Y-87287441D01*
X108624971Y-87286187D01*
X108619274Y-87287166D01*
X108619273Y-87287166D01*
X108430607Y-87319585D01*
X108424910Y-87320564D01*
X108234463Y-87390824D01*
X108229502Y-87393776D01*
X108229501Y-87393776D01*
X108216473Y-87401527D01*
X108060010Y-87494612D01*
X108055670Y-87498418D01*
X108055666Y-87498421D01*
X107921968Y-87615672D01*
X107907392Y-87628455D01*
X107781720Y-87787869D01*
X107779031Y-87792980D01*
X107779029Y-87792983D01*
X107738737Y-87869565D01*
X107687203Y-87967515D01*
X107674943Y-88007000D01*
X107672833Y-88013794D01*
X107633530Y-88072919D01*
X107568500Y-88101410D01*
X107498391Y-88090220D01*
X107445461Y-88042903D01*
X107426500Y-87976430D01*
X107426500Y-85514178D01*
X107446502Y-85446057D01*
X107500158Y-85399564D01*
X107570432Y-85389460D01*
X107635012Y-85418954D01*
X107666926Y-85461426D01*
X107751377Y-85644616D01*
X107754710Y-85649332D01*
X107856355Y-85793157D01*
X107868533Y-85810389D01*
X107872675Y-85814424D01*
X107912635Y-85853351D01*
X108013938Y-85952035D01*
X108018742Y-85955245D01*
X108083454Y-85998484D01*
X108182720Y-86064812D01*
X108188023Y-86067090D01*
X108188026Y-86067092D01*
X108355495Y-86139042D01*
X108369228Y-86144942D01*
X108442244Y-86161464D01*
X108561579Y-86188467D01*
X108561584Y-86188468D01*
X108567216Y-86189742D01*
X108572987Y-86189969D01*
X108572989Y-86189969D01*
X108632756Y-86192317D01*
X108770053Y-86197712D01*
X108870499Y-86183148D01*
X108965231Y-86169413D01*
X108965236Y-86169412D01*
X108970945Y-86168584D01*
X108976409Y-86166729D01*
X108976414Y-86166728D01*
X109157693Y-86105192D01*
X109157698Y-86105190D01*
X109163165Y-86103334D01*
X109340276Y-86004147D01*
X109349310Y-85996634D01*
X109491913Y-85878031D01*
X109496345Y-85874345D01*
X109553463Y-85805669D01*
X109622453Y-85722718D01*
X109622455Y-85722715D01*
X109626147Y-85718276D01*
X109695805Y-85593892D01*
X109722510Y-85546208D01*
X109722511Y-85546206D01*
X109725334Y-85541165D01*
X109727190Y-85535698D01*
X109727192Y-85535693D01*
X109788728Y-85354414D01*
X109788729Y-85354409D01*
X109790584Y-85348945D01*
X109791412Y-85343236D01*
X109791413Y-85343231D01*
X109813728Y-85189325D01*
X109819712Y-85148053D01*
X109821232Y-85090000D01*
X109808521Y-84951669D01*
X109803187Y-84893613D01*
X109803186Y-84893610D01*
X109802658Y-84887859D01*
X109797485Y-84869516D01*
X109749125Y-84698046D01*
X109749124Y-84698044D01*
X109747557Y-84692487D01*
X109736978Y-84671033D01*
X109660331Y-84515609D01*
X109657776Y-84510428D01*
X109631407Y-84475115D01*
X109614983Y-84453121D01*
X109536320Y-84347779D01*
X109387258Y-84209987D01*
X109382375Y-84206906D01*
X109382371Y-84206903D01*
X109220464Y-84104748D01*
X109215581Y-84101667D01*
X109027039Y-84026446D01*
X109021379Y-84025320D01*
X109021375Y-84025319D01*
X108833613Y-83987971D01*
X108833610Y-83987971D01*
X108827946Y-83986844D01*
X108822171Y-83986768D01*
X108822167Y-83986768D01*
X108720793Y-83985441D01*
X108624971Y-83984187D01*
X108619274Y-83985166D01*
X108619273Y-83985166D01*
X108430607Y-84017585D01*
X108424910Y-84018564D01*
X108234463Y-84088824D01*
X108060010Y-84192612D01*
X108055670Y-84196418D01*
X108055666Y-84196421D01*
X107961099Y-84279355D01*
X107907392Y-84326455D01*
X107781720Y-84485869D01*
X107779031Y-84490980D01*
X107779029Y-84490983D01*
X107768498Y-84511000D01*
X107687203Y-84665515D01*
X107655225Y-84768500D01*
X107639408Y-84819440D01*
X107600105Y-84878565D01*
X107535075Y-84907056D01*
X107464966Y-84895866D01*
X107412036Y-84848549D01*
X107397541Y-84815324D01*
X107365354Y-84697669D01*
X107352573Y-84650949D01*
X107292284Y-84524548D01*
X107258583Y-84453893D01*
X107258582Y-84453891D01*
X107256166Y-84448826D01*
X107169677Y-84328464D01*
X107128766Y-84271530D01*
X107128764Y-84271528D01*
X107125489Y-84266970D01*
X107052688Y-84196421D01*
X106968701Y-84115031D01*
X106968698Y-84115029D01*
X106964674Y-84111129D01*
X106947408Y-84099527D01*
X106783460Y-83989359D01*
X106783457Y-83989357D01*
X106778803Y-83986230D01*
X106573752Y-83896218D01*
X106356002Y-83843941D01*
X106271857Y-83839089D01*
X106138043Y-83831374D01*
X106138040Y-83831374D01*
X106132436Y-83831051D01*
X105910120Y-83857954D01*
X105696083Y-83923800D01*
X105691103Y-83926370D01*
X105691099Y-83926372D01*
X105548208Y-84000124D01*
X105497088Y-84026509D01*
X105319427Y-84162833D01*
X105315649Y-84166985D01*
X105209192Y-84283979D01*
X105148552Y-84320901D01*
X105077576Y-84319178D01*
X105018800Y-84279355D01*
X104990883Y-84214078D01*
X104989999Y-84199179D01*
X104989999Y-84195331D01*
X104989629Y-84188510D01*
X104984105Y-84137648D01*
X104980479Y-84122396D01*
X104935324Y-84001946D01*
X104926786Y-83986351D01*
X104850285Y-83884276D01*
X104837724Y-83871715D01*
X104735649Y-83795214D01*
X104720054Y-83786676D01*
X104599606Y-83741522D01*
X104584351Y-83737895D01*
X104533486Y-83732369D01*
X104526672Y-83732000D01*
X103904115Y-83732000D01*
X103888876Y-83736475D01*
X103887671Y-83737865D01*
X103886000Y-83745548D01*
X103886000Y-86429884D01*
X103890475Y-86445123D01*
X103891865Y-86446328D01*
X103899548Y-86447999D01*
X104526669Y-86447999D01*
X104533490Y-86447629D01*
X104584352Y-86442105D01*
X104599604Y-86438479D01*
X104720056Y-86393323D01*
X104730992Y-86387336D01*
X104800350Y-86372168D01*
X104866897Y-86396905D01*
X104909507Y-86453694D01*
X104917500Y-86497857D01*
X104917500Y-86984143D01*
X104897498Y-87052264D01*
X104843842Y-87098757D01*
X104773568Y-87108861D01*
X104730992Y-87094664D01*
X104720056Y-87088677D01*
X104599606Y-87043522D01*
X104584351Y-87039895D01*
X104533486Y-87034369D01*
X104526672Y-87034000D01*
X103904115Y-87034000D01*
X103888876Y-87038475D01*
X103887671Y-87039865D01*
X103886000Y-87047548D01*
X103886000Y-89731884D01*
X103890475Y-89747123D01*
X103891865Y-89748328D01*
X103899548Y-89749999D01*
X104526669Y-89749999D01*
X104533490Y-89749629D01*
X104584352Y-89744105D01*
X104599604Y-89740479D01*
X104720056Y-89695323D01*
X104730992Y-89689336D01*
X104800350Y-89674168D01*
X104866897Y-89698905D01*
X104909507Y-89755694D01*
X104917500Y-89799857D01*
X104917500Y-90286143D01*
X104897498Y-90354264D01*
X104843842Y-90400757D01*
X104773568Y-90410861D01*
X104730992Y-90396664D01*
X104720056Y-90390677D01*
X104599606Y-90345522D01*
X104584351Y-90341895D01*
X104533486Y-90336369D01*
X104526672Y-90336000D01*
X103904115Y-90336000D01*
X103888876Y-90340475D01*
X103887671Y-90341865D01*
X103886000Y-90349548D01*
X103886000Y-93033884D01*
X103890475Y-93049123D01*
X103891865Y-93050328D01*
X103899548Y-93051999D01*
X104526669Y-93051999D01*
X104533490Y-93051629D01*
X104584352Y-93046105D01*
X104599604Y-93042479D01*
X104720056Y-92997323D01*
X104730992Y-92991336D01*
X104800350Y-92976168D01*
X104866897Y-93000905D01*
X104909507Y-93057694D01*
X104917500Y-93101857D01*
X104917500Y-93588143D01*
X104897498Y-93656264D01*
X104843842Y-93702757D01*
X104773568Y-93712861D01*
X104730992Y-93698664D01*
X104720056Y-93692677D01*
X104599606Y-93647522D01*
X104584351Y-93643895D01*
X104533486Y-93638369D01*
X104526672Y-93638000D01*
X103904115Y-93638000D01*
X103888876Y-93642475D01*
X103887671Y-93643865D01*
X103886000Y-93651548D01*
X103886000Y-96335884D01*
X103890475Y-96351123D01*
X103891865Y-96352328D01*
X103899548Y-96353999D01*
X104526669Y-96353999D01*
X104533490Y-96353629D01*
X104584352Y-96348105D01*
X104599604Y-96344479D01*
X104720056Y-96299323D01*
X104730992Y-96293336D01*
X104800350Y-96278168D01*
X104866897Y-96302905D01*
X104909507Y-96359694D01*
X104917500Y-96403857D01*
X104917500Y-96890143D01*
X104897498Y-96958264D01*
X104843842Y-97004757D01*
X104773568Y-97014861D01*
X104730992Y-97000664D01*
X104720056Y-96994677D01*
X104599606Y-96949522D01*
X104584351Y-96945895D01*
X104533486Y-96940369D01*
X104526672Y-96940000D01*
X103904115Y-96940000D01*
X103888876Y-96944475D01*
X103887671Y-96945865D01*
X103886000Y-96953548D01*
X103886000Y-99637884D01*
X103890475Y-99653123D01*
X103891865Y-99654328D01*
X103899548Y-99655999D01*
X104526669Y-99655999D01*
X104533490Y-99655629D01*
X104584352Y-99650105D01*
X104599604Y-99646479D01*
X104720056Y-99601323D01*
X104730992Y-99595336D01*
X104800350Y-99580168D01*
X104866897Y-99604905D01*
X104909507Y-99661694D01*
X104917500Y-99705857D01*
X104917500Y-100192143D01*
X104897498Y-100260264D01*
X104843842Y-100306757D01*
X104773568Y-100316861D01*
X104730992Y-100302664D01*
X104720056Y-100296677D01*
X104599606Y-100251522D01*
X104584351Y-100247895D01*
X104533486Y-100242369D01*
X104526672Y-100242000D01*
X103904115Y-100242000D01*
X103888876Y-100246475D01*
X103887671Y-100247865D01*
X103886000Y-100255548D01*
X103886000Y-102939884D01*
X103378000Y-102939884D01*
X103378000Y-100260116D01*
X103373525Y-100244877D01*
X103372135Y-100243672D01*
X103364452Y-100242001D01*
X102737331Y-100242001D01*
X102730510Y-100242371D01*
X102679648Y-100247895D01*
X102664396Y-100251521D01*
X102543946Y-100296676D01*
X102528351Y-100305214D01*
X102426276Y-100381715D01*
X102413719Y-100394272D01*
X102335327Y-100498871D01*
X102278467Y-100541386D01*
X102207649Y-100546412D01*
X102145355Y-100512352D01*
X102111365Y-100450021D01*
X102108500Y-100423306D01*
X102108500Y-99474694D01*
X102128502Y-99406573D01*
X102182158Y-99360080D01*
X102252432Y-99349976D01*
X102317012Y-99379470D01*
X102335327Y-99399129D01*
X102413719Y-99503728D01*
X102426276Y-99516285D01*
X102528351Y-99592786D01*
X102543946Y-99601324D01*
X102664394Y-99646478D01*
X102679649Y-99650105D01*
X102730514Y-99655631D01*
X102737328Y-99656000D01*
X103359885Y-99656000D01*
X103375124Y-99651525D01*
X103376329Y-99650135D01*
X103378000Y-99642452D01*
X103378000Y-96958116D01*
X103373525Y-96942877D01*
X103372135Y-96941672D01*
X103364452Y-96940001D01*
X102737331Y-96940001D01*
X102730510Y-96940371D01*
X102679648Y-96945895D01*
X102664396Y-96949521D01*
X102543946Y-96994676D01*
X102528351Y-97003214D01*
X102426276Y-97079715D01*
X102413719Y-97092272D01*
X102335327Y-97196871D01*
X102278467Y-97239386D01*
X102207649Y-97244412D01*
X102145355Y-97210352D01*
X102111365Y-97148021D01*
X102108500Y-97121306D01*
X102108500Y-96172694D01*
X102128502Y-96104573D01*
X102182158Y-96058080D01*
X102252432Y-96047976D01*
X102317012Y-96077470D01*
X102335327Y-96097129D01*
X102413719Y-96201728D01*
X102426276Y-96214285D01*
X102528351Y-96290786D01*
X102543946Y-96299324D01*
X102664394Y-96344478D01*
X102679649Y-96348105D01*
X102730514Y-96353631D01*
X102737328Y-96354000D01*
X103359885Y-96354000D01*
X103375124Y-96349525D01*
X103376329Y-96348135D01*
X103378000Y-96340452D01*
X103378000Y-93656116D01*
X103373525Y-93640877D01*
X103372135Y-93639672D01*
X103364452Y-93638001D01*
X102737331Y-93638001D01*
X102730510Y-93638371D01*
X102679648Y-93643895D01*
X102664396Y-93647521D01*
X102543946Y-93692676D01*
X102528351Y-93701214D01*
X102426276Y-93777715D01*
X102413719Y-93790272D01*
X102335327Y-93894871D01*
X102278467Y-93937386D01*
X102207649Y-93942412D01*
X102145355Y-93908352D01*
X102111365Y-93846021D01*
X102108500Y-93819306D01*
X102108500Y-92870694D01*
X102128502Y-92802573D01*
X102182158Y-92756080D01*
X102252432Y-92745976D01*
X102317012Y-92775470D01*
X102335327Y-92795129D01*
X102413719Y-92899728D01*
X102426276Y-92912285D01*
X102528351Y-92988786D01*
X102543946Y-92997324D01*
X102664394Y-93042478D01*
X102679649Y-93046105D01*
X102730514Y-93051631D01*
X102737328Y-93052000D01*
X103359885Y-93052000D01*
X103375124Y-93047525D01*
X103376329Y-93046135D01*
X103378000Y-93038452D01*
X103378000Y-90354116D01*
X103373525Y-90338877D01*
X103372135Y-90337672D01*
X103364452Y-90336001D01*
X102737331Y-90336001D01*
X102730510Y-90336371D01*
X102679648Y-90341895D01*
X102664396Y-90345521D01*
X102543946Y-90390676D01*
X102528351Y-90399214D01*
X102426276Y-90475715D01*
X102413719Y-90488272D01*
X102335327Y-90592871D01*
X102278467Y-90635386D01*
X102207649Y-90640412D01*
X102145355Y-90606352D01*
X102111365Y-90544021D01*
X102108500Y-90517306D01*
X102108500Y-89568694D01*
X102128502Y-89500573D01*
X102182158Y-89454080D01*
X102252432Y-89443976D01*
X102317012Y-89473470D01*
X102335327Y-89493129D01*
X102413719Y-89597728D01*
X102426276Y-89610285D01*
X102528351Y-89686786D01*
X102543946Y-89695324D01*
X102664394Y-89740478D01*
X102679649Y-89744105D01*
X102730514Y-89749631D01*
X102737328Y-89750000D01*
X103359885Y-89750000D01*
X103375124Y-89745525D01*
X103376329Y-89744135D01*
X103378000Y-89736452D01*
X103378000Y-87052116D01*
X103373525Y-87036877D01*
X103372135Y-87035672D01*
X103364452Y-87034001D01*
X102737331Y-87034001D01*
X102730510Y-87034371D01*
X102679648Y-87039895D01*
X102664396Y-87043521D01*
X102543946Y-87088676D01*
X102528351Y-87097214D01*
X102426276Y-87173715D01*
X102413719Y-87186272D01*
X102335327Y-87290871D01*
X102278467Y-87333386D01*
X102207649Y-87338412D01*
X102145355Y-87304352D01*
X102111365Y-87242021D01*
X102108500Y-87215306D01*
X102108500Y-86266694D01*
X102128502Y-86198573D01*
X102182158Y-86152080D01*
X102252432Y-86141976D01*
X102317012Y-86171470D01*
X102335327Y-86191129D01*
X102413719Y-86295728D01*
X102426276Y-86308285D01*
X102528351Y-86384786D01*
X102543946Y-86393324D01*
X102664394Y-86438478D01*
X102679649Y-86442105D01*
X102730514Y-86447631D01*
X102737328Y-86448000D01*
X103359885Y-86448000D01*
X103375124Y-86443525D01*
X103376329Y-86442135D01*
X103378000Y-86434452D01*
X103378000Y-83750116D01*
X103373525Y-83734877D01*
X103372135Y-83733672D01*
X103364452Y-83732001D01*
X102737331Y-83732001D01*
X102730510Y-83732371D01*
X102679648Y-83737895D01*
X102664396Y-83741521D01*
X102543946Y-83786676D01*
X102528351Y-83795214D01*
X102426276Y-83871715D01*
X102413719Y-83884272D01*
X102335327Y-83988871D01*
X102278467Y-84031386D01*
X102207649Y-84036412D01*
X102145355Y-84002352D01*
X102111365Y-83940021D01*
X102108500Y-83913306D01*
X102108500Y-83184500D01*
X102128502Y-83116379D01*
X102182158Y-83069886D01*
X102234500Y-83058500D01*
X127606231Y-83058500D01*
X127674352Y-83078502D01*
G37*
%TD.AperFunction*%
%TA.AperFunction,Conductor*%
G36*
X150306759Y-85872502D02*
G01*
X150327733Y-85889405D01*
X150436234Y-85997906D01*
X150470260Y-86060218D01*
X150465195Y-86131033D01*
X150422648Y-86187869D01*
X150356128Y-86212680D01*
X150347139Y-86213001D01*
X150152331Y-86213001D01*
X150145510Y-86213371D01*
X150094648Y-86218895D01*
X150079396Y-86222521D01*
X149958946Y-86267676D01*
X149943351Y-86276214D01*
X149841276Y-86352715D01*
X149828715Y-86365276D01*
X149752214Y-86467351D01*
X149743676Y-86482946D01*
X149723982Y-86535479D01*
X149681340Y-86592243D01*
X149614779Y-86616943D01*
X149545430Y-86601735D01*
X149495312Y-86551449D01*
X149488018Y-86535479D01*
X149468324Y-86482946D01*
X149459786Y-86467351D01*
X149383285Y-86365276D01*
X149370724Y-86352715D01*
X149268649Y-86276214D01*
X149253054Y-86267676D01*
X149132606Y-86222522D01*
X149117351Y-86218895D01*
X149066486Y-86213369D01*
X149059672Y-86213000D01*
X148862115Y-86213000D01*
X148846876Y-86217475D01*
X148845671Y-86218865D01*
X148844000Y-86226548D01*
X148844000Y-87274000D01*
X148823998Y-87342121D01*
X148770342Y-87388614D01*
X148718000Y-87400000D01*
X147675116Y-87400000D01*
X147659877Y-87404475D01*
X147658672Y-87405865D01*
X147657001Y-87413548D01*
X147657001Y-87615669D01*
X147657371Y-87622490D01*
X147662895Y-87673352D01*
X147666521Y-87688604D01*
X147711676Y-87809054D01*
X147720214Y-87824649D01*
X147796715Y-87926724D01*
X147809275Y-87939284D01*
X147861835Y-87978675D01*
X147904351Y-88035534D01*
X147911193Y-88095949D01*
X147906654Y-88130426D01*
X147905547Y-88138832D01*
X147923594Y-88302304D01*
X147926204Y-88309436D01*
X147965467Y-88416726D01*
X147980114Y-88456752D01*
X147984350Y-88463055D01*
X147984352Y-88463060D01*
X148056661Y-88570668D01*
X148078053Y-88638365D01*
X148059449Y-88706881D01*
X148006756Y-88754462D01*
X147962510Y-88766500D01*
X147957436Y-88766500D01*
X147952313Y-88767353D01*
X147952310Y-88767353D01*
X147938387Y-88769671D01*
X147932510Y-88770508D01*
X147926009Y-88771277D01*
X147891957Y-88775307D01*
X147891955Y-88775308D01*
X147881619Y-88776531D01*
X147873370Y-88780492D01*
X147864334Y-88781996D01*
X147855165Y-88786943D01*
X147855163Y-88786944D01*
X147819200Y-88806348D01*
X147813911Y-88809043D01*
X147799053Y-88816178D01*
X147767728Y-88831220D01*
X147763452Y-88834814D01*
X147761512Y-88836754D01*
X147759601Y-88838507D01*
X147759511Y-88838556D01*
X147759399Y-88838433D01*
X147758864Y-88838905D01*
X147753146Y-88841990D01*
X147746079Y-88849635D01*
X147716544Y-88881586D01*
X147713114Y-88885152D01*
X147365595Y-89232671D01*
X147303283Y-89266697D01*
X147232468Y-89261632D01*
X147175632Y-89219085D01*
X147150821Y-89152565D01*
X147150500Y-89143576D01*
X147150499Y-88814123D01*
X147150499Y-88807934D01*
X147141647Y-88763427D01*
X147138156Y-88745874D01*
X147138155Y-88745872D01*
X147135734Y-88733699D01*
X147125247Y-88718004D01*
X147104030Y-88650252D01*
X147125247Y-88577995D01*
X147135734Y-88562301D01*
X147150500Y-88488067D01*
X147150499Y-87537934D01*
X147141946Y-87494929D01*
X147138156Y-87475874D01*
X147138155Y-87475872D01*
X147135734Y-87463699D01*
X147125247Y-87448004D01*
X147104030Y-87380252D01*
X147125247Y-87307995D01*
X147125379Y-87307798D01*
X147135734Y-87292301D01*
X147150500Y-87218067D01*
X147150500Y-86873885D01*
X147657000Y-86873885D01*
X147661475Y-86889124D01*
X147662865Y-86890329D01*
X147670548Y-86892000D01*
X148317885Y-86892000D01*
X148333124Y-86887525D01*
X148334329Y-86886135D01*
X148336000Y-86878452D01*
X148336000Y-86231116D01*
X148331525Y-86215877D01*
X148330135Y-86214672D01*
X148322452Y-86213001D01*
X148120331Y-86213001D01*
X148113510Y-86213371D01*
X148062648Y-86218895D01*
X148047396Y-86222521D01*
X147926946Y-86267676D01*
X147911351Y-86276214D01*
X147809276Y-86352715D01*
X147796715Y-86365276D01*
X147720214Y-86467351D01*
X147711676Y-86482946D01*
X147666522Y-86603394D01*
X147662895Y-86618649D01*
X147657369Y-86669514D01*
X147657000Y-86676328D01*
X147657000Y-86873885D01*
X147150500Y-86873885D01*
X147150499Y-86267934D01*
X147140970Y-86220024D01*
X147138156Y-86205874D01*
X147138155Y-86205872D01*
X147135734Y-86193699D01*
X147125247Y-86178004D01*
X147104030Y-86110252D01*
X147125247Y-86037995D01*
X147135734Y-86022301D01*
X147149336Y-85953919D01*
X147182243Y-85891009D01*
X147243938Y-85855877D01*
X147272915Y-85852500D01*
X150238638Y-85852500D01*
X150306759Y-85872502D01*
G37*
%TD.AperFunction*%
%TD*%
M02*
