M48
; DRILL file {KiCad (6.0.4-0)} date 
; FORMAT={-:-/ absolute / inch / decimal}
; #@! TF.CreationDate,2022-09-11T17:38:04+09:00
; #@! TF.GenerationSoftware,Kicad,Pcbnew,(6.0.4-0)
; #@! TF.FileFunction,Plated,1,2,PTH
FMAT,2
INCH
; #@! TA.AperFunction,Plated,PTH,ViaDrill
T1C0.0157
; #@! TA.AperFunction,Plated,PTH,ComponentDrill
T2C0.0197
; #@! TA.AperFunction,Plated,PTH,ComponentDrill
T3C0.0315
; #@! TA.AperFunction,Plated,PTH,ComponentDrill
T4C0.0354
; #@! TA.AperFunction,Plated,PTH,ComponentDrill
T5C0.0394
%
G90
G05
T1
X4.99Y-3.67
X4.99Y-3.72
X4.99Y-3.77
X4.99Y-3.82
X4.99Y-3.87
X4.99Y-3.92
X5.19Y-3.37
X5.63Y-3.41
X5.63Y-3.46
X5.63Y-3.51
X5.85Y-3.7
X5.85Y-3.75
X6.14Y-3.52
X6.14Y-3.65
T2
X5.85Y-3.4309
X5.85Y-3.4703
X5.85Y-3.5097
X5.85Y-3.5491
X5.93Y-3.4309
X5.93Y-3.4703
X5.93Y-3.5097
X5.93Y-3.5491
T3
X4.5824Y-3.71
X4.6611Y-3.71
X5.8411Y-3.85
X5.8411Y-3.95
X5.9411Y-3.85
X5.9411Y-3.95
T4
X6.06Y-4.07
X6.06Y-4.17
X6.15Y-4.07
X6.15Y-4.17
X6.24Y-4.07
X6.24Y-4.17
X6.33Y-4.07
X6.33Y-4.17
T5
X4.08Y-3.35
X4.08Y-3.48
X4.08Y-3.61
X4.08Y-3.74
X4.08Y-3.87
X4.08Y-4.0
X4.18Y-3.35
X4.18Y-3.48
X4.18Y-3.61
X4.18Y-3.74
X4.18Y-3.87
X4.18Y-4.0
X4.28Y-3.35
X4.28Y-3.48
X4.28Y-3.61
X4.28Y-3.74
X4.28Y-3.87
X4.28Y-4.0
X5.16Y-4.14
X5.26Y-4.14
X5.36Y-4.14
X5.46Y-4.14
X5.56Y-4.14
X5.66Y-4.14
T0
M30
