%TF.GenerationSoftware,KiCad,Pcbnew,(6.0.4-0)*%
%TF.CreationDate,2022-09-11T17:37:58+09:00*%
%TF.ProjectId,machinev2,6d616368-696e-4657-9632-2e6b69636164,rev?*%
%TF.SameCoordinates,Original*%
%TF.FileFunction,Soldermask,Bot*%
%TF.FilePolarity,Negative*%
%FSLAX46Y46*%
G04 Gerber Fmt 4.6, Leading zero omitted, Abs format (unit mm)*
G04 Created by KiCad (PCBNEW (6.0.4-0)) date 2022-09-11 17:37:58*
%MOMM*%
%LPD*%
G01*
G04 APERTURE LIST*
%ADD10R,1.600000X1.600000*%
%ADD11C,1.600000*%
%ADD12O,1.600000X1.600000*%
%ADD13R,1.700000X1.700000*%
%ADD14O,1.700000X1.700000*%
%ADD15R,1.800000X1.800000*%
%ADD16C,1.800000*%
%ADD17R,0.850000X0.850000*%
%ADD18O,0.850000X0.850000*%
G04 APERTURE END LIST*
D10*
%TO.C,C47uF*%
X116392888Y-94234000D03*
D11*
X118392888Y-94234000D03*
%TD*%
%TO.C,RLED2*%
X150905000Y-100330000D03*
D12*
X148365000Y-100330000D03*
%TD*%
D11*
%TO.C,RLED1*%
X150905000Y-97790000D03*
D12*
X148365000Y-97790000D03*
%TD*%
D13*
%TO.C,Serial_USB*%
X131064000Y-105156000D03*
D14*
X133604000Y-105156000D03*
X136144000Y-105156000D03*
X138684000Y-105156000D03*
X141224000Y-105156000D03*
X143764000Y-105156000D03*
%TD*%
D13*
%TO.C,RECIV*%
X103632000Y-88392000D03*
D14*
X106172000Y-88392000D03*
X108712000Y-88392000D03*
%TD*%
D13*
%TO.C,PWM4*%
X103632000Y-101600000D03*
D14*
X106172000Y-101600000D03*
X108712000Y-101600000D03*
%TD*%
D13*
%TO.C,PWM3*%
X103632000Y-98298000D03*
D14*
X106172000Y-98298000D03*
X108712000Y-98298000D03*
%TD*%
D13*
%TO.C,PWM2*%
X103632000Y-94996000D03*
D14*
X106172000Y-94996000D03*
X108712000Y-94996000D03*
%TD*%
D13*
%TO.C,PWM1*%
X103632000Y-91694000D03*
D14*
X106172000Y-91694000D03*
X108712000Y-91694000D03*
%TD*%
D15*
%TO.C,Manual2*%
X156210000Y-105918000D03*
D16*
X156210000Y-103378000D03*
%TD*%
D15*
%TO.C,Manual1*%
X153924000Y-105918000D03*
D16*
X153924000Y-103378000D03*
%TD*%
D17*
%TO.C,I2C2*%
X150622000Y-87146000D03*
D18*
X150622000Y-88146000D03*
X150622000Y-89146000D03*
X150622000Y-90146000D03*
%TD*%
D17*
%TO.C,I2C1*%
X148590000Y-87146000D03*
D18*
X148590000Y-88146000D03*
X148590000Y-89146000D03*
X148590000Y-90146000D03*
%TD*%
D13*
%TO.C,ESC*%
X103632000Y-85090000D03*
D14*
X106172000Y-85090000D03*
X108712000Y-85090000D03*
%TD*%
D15*
%TO.C,Auto2*%
X160782000Y-105918000D03*
D16*
X160782000Y-103378000D03*
%TD*%
D15*
%TO.C,Auto1*%
X158496000Y-105918000D03*
D16*
X158496000Y-103378000D03*
%TD*%
M02*
