%TF.GenerationSoftware,KiCad,Pcbnew,(6.0.4-0)*%
%TF.CreationDate,2022-09-11T17:37:57+09:00*%
%TF.ProjectId,machinev2,6d616368-696e-4657-9632-2e6b69636164,rev?*%
%TF.SameCoordinates,Original*%
%TF.FileFunction,Paste,Top*%
%TF.FilePolarity,Positive*%
%FSLAX46Y46*%
G04 Gerber Fmt 4.6, Leading zero omitted, Abs format (unit mm)*
G04 Created by KiCad (PCBNEW (6.0.4-0)) date 2022-09-11 17:37:57*
%MOMM*%
%LPD*%
G01*
G04 APERTURE LIST*
G04 Aperture macros list*
%AMRoundRect*
0 Rectangle with rounded corners*
0 $1 Rounding radius*
0 $2 $3 $4 $5 $6 $7 $8 $9 X,Y pos of 4 corners*
0 Add a 4 corners polygon primitive as box body*
4,1,4,$2,$3,$4,$5,$6,$7,$8,$9,$2,$3,0*
0 Add four circle primitives for the rounded corners*
1,1,$1+$1,$2,$3*
1,1,$1+$1,$4,$5*
1,1,$1+$1,$6,$7*
1,1,$1+$1,$8,$9*
0 Add four rect primitives between the rounded corners*
20,1,$1+$1,$2,$3,$4,$5,0*
20,1,$1+$1,$4,$5,$6,$7,0*
20,1,$1+$1,$6,$7,$8,$9,0*
20,1,$1+$1,$8,$9,$2,$3,0*%
G04 Aperture macros list end*
%ADD10R,1.050000X0.650000*%
%ADD11RoundRect,0.250000X-0.262500X-0.450000X0.262500X-0.450000X0.262500X0.450000X-0.262500X0.450000X0*%
%ADD12R,1.200000X0.700000*%
%ADD13R,0.800000X1.000000*%
%ADD14R,2.800000X1.000000*%
%ADD15R,1.900000X1.300000*%
%ADD16R,1.200000X1.000000*%
%ADD17R,2.000000X0.900000*%
%ADD18R,0.900000X2.000000*%
%ADD19R,5.000000X5.000000*%
%ADD20R,1.100000X1.100000*%
%ADD21RoundRect,0.250000X-0.250000X-0.475000X0.250000X-0.475000X0.250000X0.475000X-0.250000X0.475000X0*%
%ADD22RoundRect,0.250000X0.250000X0.475000X-0.250000X0.475000X-0.250000X-0.475000X0.250000X-0.475000X0*%
%ADD23R,2.000000X1.500000*%
%ADD24R,2.000000X3.800000*%
G04 APERTURE END LIST*
D10*
%TO.C,SW2*%
X124757000Y-98611000D03*
X120607000Y-98611000D03*
X124757000Y-96461000D03*
X120607000Y-96461000D03*
%TD*%
%TO.C,SW1*%
X124757000Y-94293000D03*
X120607000Y-94293000D03*
X124757000Y-92143000D03*
X120607000Y-92143000D03*
%TD*%
%TO.C,RESET*%
X120607000Y-87825000D03*
X124757000Y-87825000D03*
X120607000Y-89975000D03*
X124757000Y-89975000D03*
%TD*%
D11*
%TO.C,R10k3*%
X116689500Y-90424000D03*
X118514500Y-90424000D03*
%TD*%
%TO.C,R10k2*%
X116689500Y-88392000D03*
X118514500Y-88392000D03*
%TD*%
%TO.C,R10k1*%
X116689500Y-86360000D03*
X118514500Y-86360000D03*
%TD*%
D12*
%TO.C,microSD*%
X153819000Y-88157000D03*
X153819000Y-89257000D03*
X153819000Y-90357000D03*
X153819000Y-91457000D03*
X153819000Y-92557000D03*
X153819000Y-93657000D03*
X153819000Y-94757000D03*
X153819000Y-95857000D03*
X153819000Y-96807000D03*
D13*
X164319000Y-97757000D03*
D14*
X168469000Y-97757000D03*
D15*
X168919000Y-84257000D03*
D16*
X153819000Y-86607000D03*
X158119000Y-97757000D03*
%TD*%
D17*
%TO.C,ESP32*%
X128896000Y-84203000D03*
X128896000Y-85473000D03*
X128896000Y-86743000D03*
X128896000Y-88013000D03*
X128896000Y-89283000D03*
X128896000Y-90553000D03*
X128896000Y-91823000D03*
X128896000Y-93093000D03*
X128896000Y-94363000D03*
X128896000Y-95633000D03*
X128896000Y-96903000D03*
X128896000Y-98173000D03*
X128896000Y-99443000D03*
X128896000Y-100713000D03*
D18*
X131681000Y-101713000D03*
X132951000Y-101713000D03*
X134221000Y-101713000D03*
X135491000Y-101713000D03*
X136761000Y-101713000D03*
X138031000Y-101713000D03*
X139301000Y-101713000D03*
X140571000Y-101713000D03*
X141841000Y-101713000D03*
X143111000Y-101713000D03*
D17*
X145896000Y-100713000D03*
X145896000Y-99443000D03*
X145896000Y-98173000D03*
X145896000Y-96903000D03*
X145896000Y-95633000D03*
X145896000Y-94363000D03*
X145896000Y-93093000D03*
X145896000Y-91823000D03*
X145896000Y-90553000D03*
X145896000Y-89283000D03*
X145896000Y-88013000D03*
X145896000Y-86743000D03*
X145896000Y-85473000D03*
X145896000Y-84203000D03*
D19*
X136396000Y-91703000D03*
%TD*%
D20*
%TO.C,D2*%
X124460000Y-100962000D03*
X124460000Y-103762000D03*
%TD*%
%TO.C,D1*%
X121666000Y-100962000D03*
X121666000Y-103762000D03*
%TD*%
D21*
%TO.C,C0.1uF2*%
X111826000Y-96266000D03*
X113726000Y-96266000D03*
%TD*%
D22*
%TO.C,C0.1uF1*%
X118552000Y-96266000D03*
X116652000Y-96266000D03*
%TD*%
D10*
%TO.C,BOOT*%
X150665000Y-105977000D03*
X146515000Y-105977000D03*
X150665000Y-103827000D03*
X146515000Y-103827000D03*
%TD*%
D23*
%TO.C,AZ1117CH-3.3TRG1*%
X118466000Y-103392000D03*
D24*
X112166000Y-101092000D03*
D23*
X118466000Y-101092000D03*
X118466000Y-98792000D03*
%TD*%
M02*
