%TF.GenerationSoftware,KiCad,Pcbnew,(6.0.4-0)*%
%TF.CreationDate,2022-09-11T17:37:57+09:00*%
%TF.ProjectId,machinev2,6d616368-696e-4657-9632-2e6b69636164,rev?*%
%TF.SameCoordinates,Original*%
%TF.FileFunction,Copper,L2,Bot*%
%TF.FilePolarity,Positive*%
%FSLAX46Y46*%
G04 Gerber Fmt 4.6, Leading zero omitted, Abs format (unit mm)*
G04 Created by KiCad (PCBNEW (6.0.4-0)) date 2022-09-11 17:37:57*
%MOMM*%
%LPD*%
G01*
G04 APERTURE LIST*
%TA.AperFunction,ComponentPad*%
%ADD10R,1.600000X1.600000*%
%TD*%
%TA.AperFunction,ComponentPad*%
%ADD11C,1.600000*%
%TD*%
%TA.AperFunction,ComponentPad*%
%ADD12O,1.600000X1.600000*%
%TD*%
%TA.AperFunction,ComponentPad*%
%ADD13R,1.700000X1.700000*%
%TD*%
%TA.AperFunction,ComponentPad*%
%ADD14O,1.700000X1.700000*%
%TD*%
%TA.AperFunction,ComponentPad*%
%ADD15R,1.800000X1.800000*%
%TD*%
%TA.AperFunction,ComponentPad*%
%ADD16C,1.800000*%
%TD*%
%TA.AperFunction,ComponentPad*%
%ADD17R,0.850000X0.850000*%
%TD*%
%TA.AperFunction,ComponentPad*%
%ADD18O,0.850000X0.850000*%
%TD*%
%TA.AperFunction,ViaPad*%
%ADD19C,0.800000*%
%TD*%
%TA.AperFunction,Conductor*%
%ADD20C,0.500000*%
%TD*%
%TA.AperFunction,Conductor*%
%ADD21C,0.250000*%
%TD*%
G04 APERTURE END LIST*
D10*
%TO.P,C47uF,1*%
%TO.N,GND*%
X116392888Y-94234000D03*
D11*
%TO.P,C47uF,2*%
%TO.N,Net-(AZ1117CH-3.3TRG1-Pad3)*%
X118392888Y-94234000D03*
%TD*%
%TO.P,RLED2,1*%
%TO.N,Net-(Manual1-Pad2)*%
X150905000Y-100330000D03*
D12*
%TO.P,RLED2,2*%
%TO.N,LED_MANUAL*%
X148365000Y-100330000D03*
%TD*%
D11*
%TO.P,RLED1,1*%
%TO.N,Net-(Auto1-Pad2)*%
X150905000Y-97790000D03*
D12*
%TO.P,RLED1,2*%
%TO.N,LED_AUTO*%
X148365000Y-97790000D03*
%TD*%
D13*
%TO.P,Serial_USB,1,Pin_1*%
%TO.N,unconnected-(Serial_USB-Pad1)*%
X131064000Y-105156000D03*
D14*
%TO.P,Serial_USB,2,Pin_2*%
%TO.N,TXD0*%
X133604000Y-105156000D03*
%TO.P,Serial_USB,3,Pin_3*%
%TO.N,RXD0*%
X136144000Y-105156000D03*
%TO.P,Serial_USB,4,Pin_4*%
%TO.N,VBUS*%
X138684000Y-105156000D03*
%TO.P,Serial_USB,5,Pin_5*%
%TO.N,GND*%
X141224000Y-105156000D03*
%TO.P,Serial_USB,6,Pin_6*%
X143764000Y-105156000D03*
%TD*%
D13*
%TO.P,RECIV,1,Pin_1*%
%TO.N,GND*%
X103632000Y-88392000D03*
D14*
%TO.P,RECIV,2,Pin_2*%
%TO.N,+5V*%
X106172000Y-88392000D03*
%TO.P,RECIV,3,Pin_3*%
%TO.N,RECIV*%
X108712000Y-88392000D03*
%TD*%
D13*
%TO.P,PWM4,1,Pin_1*%
%TO.N,GND*%
X103632000Y-101600000D03*
D14*
%TO.P,PWM4,2,Pin_2*%
%TO.N,+5V*%
X106172000Y-101600000D03*
%TO.P,PWM4,3,Pin_3*%
%TO.N,PWM4*%
X108712000Y-101600000D03*
%TD*%
D13*
%TO.P,PWM3,1,Pin_1*%
%TO.N,GND*%
X103632000Y-98298000D03*
D14*
%TO.P,PWM3,2,Pin_2*%
%TO.N,+5V*%
X106172000Y-98298000D03*
%TO.P,PWM3,3,Pin_3*%
%TO.N,PWM3*%
X108712000Y-98298000D03*
%TD*%
D13*
%TO.P,PWM2,1,Pin_1*%
%TO.N,GND*%
X103632000Y-94996000D03*
D14*
%TO.P,PWM2,2,Pin_2*%
%TO.N,+5V*%
X106172000Y-94996000D03*
%TO.P,PWM2,3,Pin_3*%
%TO.N,PWM2*%
X108712000Y-94996000D03*
%TD*%
D13*
%TO.P,PWM1,1,Pin_1*%
%TO.N,GND*%
X103632000Y-91694000D03*
D14*
%TO.P,PWM1,2,Pin_2*%
%TO.N,+5V*%
X106172000Y-91694000D03*
%TO.P,PWM1,3,Pin_3*%
%TO.N,PWM1*%
X108712000Y-91694000D03*
%TD*%
D15*
%TO.P,Manual2,1,K*%
%TO.N,GND*%
X156210000Y-105918000D03*
D16*
%TO.P,Manual2,2,A*%
%TO.N,Net-(Manual1-Pad2)*%
X156210000Y-103378000D03*
%TD*%
D15*
%TO.P,Manual1,1,K*%
%TO.N,GND*%
X153924000Y-105918000D03*
D16*
%TO.P,Manual1,2,A*%
%TO.N,Net-(Manual1-Pad2)*%
X153924000Y-103378000D03*
%TD*%
D17*
%TO.P,I2C2,1,Pin_1*%
%TO.N,GND*%
X150622000Y-87146000D03*
D18*
%TO.P,I2C2,2,Pin_2*%
%TO.N,+3V3*%
X150622000Y-88146000D03*
%TO.P,I2C2,3,Pin_3*%
%TO.N,SDA*%
X150622000Y-89146000D03*
%TO.P,I2C2,4,Pin_4*%
%TO.N,SCL*%
X150622000Y-90146000D03*
%TD*%
D17*
%TO.P,I2C1,1,Pin_1*%
%TO.N,GND*%
X148590000Y-87146000D03*
D18*
%TO.P,I2C1,2,Pin_2*%
%TO.N,+3V3*%
X148590000Y-88146000D03*
%TO.P,I2C1,3,Pin_3*%
%TO.N,SDA*%
X148590000Y-89146000D03*
%TO.P,I2C1,4,Pin_4*%
%TO.N,SCL*%
X148590000Y-90146000D03*
%TD*%
D13*
%TO.P,ESC,1,Pin_1*%
%TO.N,GND*%
X103632000Y-85090000D03*
D14*
%TO.P,ESC,2,Pin_2*%
%TO.N,+5V*%
X106172000Y-85090000D03*
%TO.P,ESC,3,Pin_3*%
%TO.N,ESC*%
X108712000Y-85090000D03*
%TD*%
D15*
%TO.P,Auto2,1,K*%
%TO.N,GND*%
X160782000Y-105918000D03*
D16*
%TO.P,Auto2,2,A*%
%TO.N,Net-(Auto1-Pad2)*%
X160782000Y-103378000D03*
%TD*%
D15*
%TO.P,Auto1,1,K*%
%TO.N,GND*%
X158496000Y-105918000D03*
D16*
%TO.P,Auto1,2,A*%
%TO.N,Net-(Auto1-Pad2)*%
X158496000Y-103378000D03*
%TD*%
D19*
%TO.N,SCK*%
X148590000Y-93980000D03*
%TO.N,CS*%
X148590000Y-95250000D03*
%TO.N,SCK*%
X155956000Y-92710000D03*
%TO.N,CS*%
X155956000Y-89408000D03*
%TO.N,+3V3*%
X131826000Y-85598000D03*
%TO.N,RXD0*%
X143002000Y-89154000D03*
%TO.N,TXD0*%
X143002000Y-87884000D03*
%TO.N,SCL*%
X143002000Y-86614000D03*
%TO.N,PWM4*%
X126746000Y-99568000D03*
%TO.N,PWM3*%
X126746000Y-98298000D03*
%TO.N,PWM2*%
X126746000Y-97028000D03*
%TO.N,PWM1*%
X126746000Y-95758000D03*
%TO.N,RECIV*%
X126746000Y-94488000D03*
%TO.N,ESC*%
X126746000Y-93218000D03*
%TD*%
D20*
%TO.N,+3V3*%
X148336000Y-88146000D02*
X148090000Y-88146000D01*
X145542000Y-85598000D02*
X131826000Y-85598000D01*
X148336000Y-88146000D02*
X148590000Y-88146000D01*
X148090000Y-88146000D02*
X145542000Y-85598000D01*
D21*
%TO.N,PWM4*%
X126746000Y-99568000D02*
X110744000Y-99568000D01*
X110744000Y-99568000D02*
X108712000Y-101600000D01*
%TO.N,PWM3*%
X126746000Y-98298000D02*
X108712000Y-98298000D01*
%TO.N,PWM2*%
X126746000Y-97028000D02*
X110744000Y-97028000D01*
X110744000Y-97028000D02*
X108712000Y-94996000D01*
%TO.N,PWM1*%
X126746000Y-95758000D02*
X122682000Y-91694000D01*
X122682000Y-91694000D02*
X108712000Y-91694000D01*
%TO.N,RECIV*%
X126746000Y-94488000D02*
X120650000Y-88392000D01*
X120650000Y-88392000D02*
X108712000Y-88392000D01*
%TO.N,ESC*%
X126746000Y-93218000D02*
X118618000Y-85090000D01*
X118618000Y-85090000D02*
X108712000Y-85090000D01*
%TO.N,CS*%
X148590000Y-95250000D02*
X154440614Y-95250000D01*
X156680511Y-93010103D02*
X156680511Y-90132511D01*
X154440614Y-95250000D02*
X156680511Y-93010103D01*
X156680511Y-90132511D02*
X155956000Y-89408000D01*
%TO.N,SCK*%
X148590000Y-93980000D02*
X154686000Y-93980000D01*
X154686000Y-93980000D02*
X155956000Y-92710000D01*
%TO.N,RXD0*%
X136144000Y-105156000D02*
X136144000Y-96012000D01*
X136144000Y-96012000D02*
X143002000Y-89154000D01*
%TO.N,TXD0*%
X133604000Y-105156000D02*
X133604000Y-97282000D01*
X133604000Y-97282000D02*
X143002000Y-87884000D01*
%TO.N,SCL*%
X148590000Y-90146000D02*
X150622000Y-90146000D01*
X143002000Y-86614000D02*
X146534000Y-90146000D01*
X146534000Y-90146000D02*
X148590000Y-90146000D01*
%TD*%
%TA.AperFunction,Conductor*%
%TO.N,GND*%
G36*
X170121621Y-83078502D02*
G01*
X170168114Y-83132158D01*
X170179500Y-83184500D01*
X170179500Y-106807500D01*
X170159498Y-106875621D01*
X170105842Y-106922114D01*
X170053500Y-106933500D01*
X162316000Y-106933500D01*
X162247879Y-106913498D01*
X162201386Y-106859842D01*
X162190000Y-106807500D01*
X162190000Y-106190115D01*
X162185525Y-106174876D01*
X162184135Y-106173671D01*
X162176452Y-106172000D01*
X152534116Y-106172000D01*
X152518877Y-106176475D01*
X152517672Y-106177865D01*
X152516001Y-106185548D01*
X152516001Y-106807500D01*
X152495999Y-106875621D01*
X152442343Y-106922114D01*
X152390001Y-106933500D01*
X102234500Y-106933500D01*
X102166379Y-106913498D01*
X102119886Y-106859842D01*
X102108500Y-106807500D01*
X102108500Y-104280933D01*
X129959500Y-104280933D01*
X129959501Y-106031066D01*
X129974266Y-106105301D01*
X129981161Y-106115620D01*
X129981162Y-106115622D01*
X130018833Y-106172000D01*
X130030516Y-106189484D01*
X130114699Y-106245734D01*
X130188933Y-106260500D01*
X131063858Y-106260500D01*
X131939066Y-106260499D01*
X131974818Y-106253388D01*
X132001126Y-106248156D01*
X132001128Y-106248155D01*
X132013301Y-106245734D01*
X132023621Y-106238839D01*
X132023622Y-106238838D01*
X132087168Y-106196377D01*
X132097484Y-106189484D01*
X132153734Y-106105301D01*
X132168500Y-106031067D01*
X132168499Y-104280934D01*
X132153734Y-104206699D01*
X132127654Y-104167667D01*
X132104377Y-104132832D01*
X132097484Y-104122516D01*
X132013301Y-104066266D01*
X131939067Y-104051500D01*
X131064142Y-104051500D01*
X130188934Y-104051501D01*
X130153182Y-104058612D01*
X130126874Y-104063844D01*
X130126872Y-104063845D01*
X130114699Y-104066266D01*
X130104379Y-104073161D01*
X130104378Y-104073162D01*
X130055256Y-104105985D01*
X130030516Y-104122516D01*
X129974266Y-104206699D01*
X129959500Y-104280933D01*
X102108500Y-104280933D01*
X102108500Y-102776694D01*
X102128502Y-102708573D01*
X102182158Y-102662080D01*
X102252432Y-102651976D01*
X102317012Y-102681470D01*
X102335327Y-102701129D01*
X102413719Y-102805728D01*
X102426276Y-102818285D01*
X102528351Y-102894786D01*
X102543946Y-102903324D01*
X102664394Y-102948478D01*
X102679649Y-102952105D01*
X102730514Y-102957631D01*
X102737328Y-102958000D01*
X103359885Y-102958000D01*
X103375124Y-102953525D01*
X103376329Y-102952135D01*
X103378000Y-102944452D01*
X103378000Y-102939884D01*
X103886000Y-102939884D01*
X103890475Y-102955123D01*
X103891865Y-102956328D01*
X103899548Y-102957999D01*
X104526669Y-102957999D01*
X104533490Y-102957629D01*
X104584352Y-102952105D01*
X104599604Y-102948479D01*
X104720054Y-102903324D01*
X104735649Y-102894786D01*
X104837724Y-102818285D01*
X104850285Y-102805724D01*
X104926786Y-102703649D01*
X104935324Y-102688054D01*
X104980478Y-102567606D01*
X104984105Y-102552351D01*
X104989631Y-102501486D01*
X104990000Y-102494672D01*
X104990000Y-102237976D01*
X105010002Y-102169855D01*
X105063658Y-102123362D01*
X105133932Y-102113258D01*
X105198512Y-102142752D01*
X105218895Y-102165254D01*
X105328533Y-102320389D01*
X105473938Y-102462035D01*
X105478742Y-102465245D01*
X105532980Y-102501486D01*
X105642720Y-102574812D01*
X105648023Y-102577090D01*
X105648026Y-102577092D01*
X105736707Y-102615192D01*
X105829228Y-102654942D01*
X105902244Y-102671464D01*
X106021579Y-102698467D01*
X106021584Y-102698468D01*
X106027216Y-102699742D01*
X106032987Y-102699969D01*
X106032989Y-102699969D01*
X106092756Y-102702317D01*
X106230053Y-102707712D01*
X106330499Y-102693148D01*
X106425231Y-102679413D01*
X106425236Y-102679412D01*
X106430945Y-102678584D01*
X106436409Y-102676729D01*
X106436414Y-102676728D01*
X106617693Y-102615192D01*
X106617698Y-102615190D01*
X106623165Y-102613334D01*
X106800276Y-102514147D01*
X106815500Y-102501486D01*
X106951913Y-102388031D01*
X106956345Y-102384345D01*
X106989130Y-102344926D01*
X107082453Y-102232718D01*
X107082455Y-102232715D01*
X107086147Y-102228276D01*
X107185334Y-102051165D01*
X107187190Y-102045698D01*
X107187192Y-102045693D01*
X107248728Y-101864414D01*
X107248729Y-101864409D01*
X107250584Y-101858945D01*
X107251412Y-101853236D01*
X107251413Y-101853231D01*
X107279179Y-101661727D01*
X107279712Y-101658053D01*
X107281232Y-101600000D01*
X107278564Y-101570964D01*
X107603148Y-101570964D01*
X107616424Y-101773522D01*
X107617845Y-101779118D01*
X107617846Y-101779123D01*
X107638119Y-101858945D01*
X107666392Y-101970269D01*
X107668809Y-101975512D01*
X107706010Y-102056208D01*
X107751377Y-102154616D01*
X107868533Y-102320389D01*
X108013938Y-102462035D01*
X108018742Y-102465245D01*
X108072980Y-102501486D01*
X108182720Y-102574812D01*
X108188023Y-102577090D01*
X108188026Y-102577092D01*
X108276707Y-102615192D01*
X108369228Y-102654942D01*
X108442244Y-102671464D01*
X108561579Y-102698467D01*
X108561584Y-102698468D01*
X108567216Y-102699742D01*
X108572987Y-102699969D01*
X108572989Y-102699969D01*
X108632756Y-102702317D01*
X108770053Y-102707712D01*
X108870499Y-102693148D01*
X108965231Y-102679413D01*
X108965236Y-102679412D01*
X108970945Y-102678584D01*
X108976409Y-102676729D01*
X108976414Y-102676728D01*
X109157693Y-102615192D01*
X109157698Y-102615190D01*
X109163165Y-102613334D01*
X109340276Y-102514147D01*
X109355500Y-102501486D01*
X109491913Y-102388031D01*
X109496345Y-102384345D01*
X109529130Y-102344926D01*
X109622453Y-102232718D01*
X109622455Y-102232715D01*
X109626147Y-102228276D01*
X109725334Y-102051165D01*
X109727190Y-102045698D01*
X109727192Y-102045693D01*
X109788728Y-101864414D01*
X109788729Y-101864409D01*
X109790584Y-101858945D01*
X109791412Y-101853236D01*
X109791413Y-101853231D01*
X109819179Y-101661727D01*
X109819712Y-101658053D01*
X109821232Y-101600000D01*
X109802658Y-101397859D01*
X109800058Y-101388641D01*
X109749127Y-101208053D01*
X109749126Y-101208051D01*
X109747557Y-101202487D01*
X109748058Y-101202346D01*
X109742618Y-101135289D01*
X109776894Y-101071800D01*
X110864289Y-99984405D01*
X110926601Y-99950379D01*
X110953384Y-99947500D01*
X126146141Y-99947500D01*
X126214262Y-99967502D01*
X126241522Y-99991169D01*
X126242672Y-99992501D01*
X126246908Y-99998805D01*
X126364076Y-100105419D01*
X126503293Y-100181008D01*
X126656522Y-100221207D01*
X126740477Y-100222526D01*
X126807319Y-100223576D01*
X126807322Y-100223576D01*
X126814916Y-100223695D01*
X126969332Y-100188329D01*
X127039742Y-100152917D01*
X127104072Y-100120563D01*
X127104075Y-100120561D01*
X127110855Y-100117151D01*
X127116626Y-100112222D01*
X127116629Y-100112220D01*
X127225536Y-100019204D01*
X127225536Y-100019203D01*
X127231314Y-100014269D01*
X127323755Y-99885624D01*
X127382842Y-99738641D01*
X127397181Y-99637884D01*
X127404581Y-99585891D01*
X127404581Y-99585888D01*
X127405162Y-99581807D01*
X127405307Y-99568000D01*
X127386276Y-99410733D01*
X127330280Y-99262546D01*
X127306767Y-99228334D01*
X127244855Y-99138251D01*
X127244854Y-99138249D01*
X127240553Y-99131992D01*
X127122275Y-99026611D01*
X127124413Y-99024211D01*
X127089021Y-98980286D01*
X127081436Y-98909696D01*
X127113220Y-98846211D01*
X127123602Y-98836264D01*
X127225536Y-98749204D01*
X127225536Y-98749203D01*
X127231314Y-98744269D01*
X127323755Y-98615624D01*
X127382842Y-98468641D01*
X127405162Y-98311807D01*
X127405307Y-98298000D01*
X127386276Y-98140733D01*
X127330280Y-97992546D01*
X127279390Y-97918500D01*
X127244855Y-97868251D01*
X127244854Y-97868249D01*
X127240553Y-97861992D01*
X127225105Y-97848228D01*
X127122275Y-97756611D01*
X127124413Y-97754211D01*
X127089021Y-97710286D01*
X127081436Y-97639696D01*
X127113220Y-97576211D01*
X127123602Y-97566264D01*
X127225536Y-97479204D01*
X127225536Y-97479203D01*
X127231314Y-97474269D01*
X127323755Y-97345624D01*
X127382842Y-97198641D01*
X127390046Y-97148021D01*
X127404581Y-97045891D01*
X127404581Y-97045888D01*
X127405162Y-97041807D01*
X127405307Y-97028000D01*
X127386276Y-96870733D01*
X127330280Y-96722546D01*
X127279390Y-96648500D01*
X127244855Y-96598251D01*
X127244854Y-96598249D01*
X127240553Y-96591992D01*
X127122275Y-96486611D01*
X127124413Y-96484211D01*
X127089021Y-96440286D01*
X127081436Y-96369696D01*
X127113220Y-96306211D01*
X127123602Y-96296264D01*
X127225536Y-96209204D01*
X127225536Y-96209203D01*
X127231314Y-96204269D01*
X127323755Y-96075624D01*
X127382842Y-95928641D01*
X127396129Y-95835281D01*
X127404581Y-95775891D01*
X127404581Y-95775888D01*
X127405162Y-95771807D01*
X127405307Y-95758000D01*
X127403561Y-95743567D01*
X127396107Y-95681974D01*
X127386276Y-95600733D01*
X127330280Y-95452546D01*
X127270984Y-95366269D01*
X127244855Y-95328251D01*
X127244854Y-95328249D01*
X127240553Y-95321992D01*
X127188760Y-95275846D01*
X127122275Y-95216611D01*
X127124413Y-95214211D01*
X127089021Y-95170286D01*
X127081436Y-95099696D01*
X127113220Y-95036211D01*
X127123602Y-95026264D01*
X127225536Y-94939204D01*
X127225536Y-94939203D01*
X127231314Y-94934269D01*
X127323755Y-94805624D01*
X127382842Y-94658641D01*
X127395161Y-94572080D01*
X127404581Y-94505891D01*
X127404581Y-94505888D01*
X127405162Y-94501807D01*
X127405231Y-94495265D01*
X127405264Y-94492134D01*
X127405264Y-94492128D01*
X127405307Y-94488000D01*
X127386276Y-94330733D01*
X127330280Y-94182546D01*
X127287232Y-94119911D01*
X127244855Y-94058251D01*
X127244854Y-94058249D01*
X127240553Y-94051992D01*
X127220721Y-94034322D01*
X127122275Y-93946611D01*
X127124413Y-93944211D01*
X127089021Y-93900286D01*
X127081436Y-93829696D01*
X127113220Y-93766211D01*
X127123602Y-93756264D01*
X127225536Y-93669204D01*
X127225536Y-93669203D01*
X127231314Y-93664269D01*
X127323755Y-93535624D01*
X127382842Y-93388641D01*
X127401945Y-93254412D01*
X127404581Y-93235891D01*
X127404581Y-93235888D01*
X127405162Y-93231807D01*
X127405307Y-93218000D01*
X127402639Y-93195948D01*
X127392102Y-93108880D01*
X127386276Y-93060733D01*
X127330280Y-92912546D01*
X127253950Y-92801485D01*
X127244855Y-92788251D01*
X127244854Y-92788249D01*
X127240553Y-92781992D01*
X127227911Y-92770728D01*
X127152001Y-92703096D01*
X127122275Y-92676611D01*
X127111852Y-92671092D01*
X126998305Y-92610972D01*
X126982274Y-92602484D01*
X126828633Y-92563892D01*
X126821034Y-92563852D01*
X126821033Y-92563852D01*
X126760626Y-92563536D01*
X126679335Y-92563110D01*
X126611321Y-92542752D01*
X126590901Y-92526207D01*
X119655790Y-85591096D01*
X131166729Y-85591096D01*
X131171328Y-85632752D01*
X131181261Y-85722718D01*
X131184113Y-85748553D01*
X131186723Y-85755684D01*
X131186723Y-85755686D01*
X131231495Y-85878031D01*
X131238553Y-85897319D01*
X131242789Y-85903622D01*
X131242789Y-85903623D01*
X131301831Y-85991486D01*
X131326908Y-86028805D01*
X131332527Y-86033918D01*
X131332528Y-86033919D01*
X131366479Y-86064812D01*
X131444076Y-86135419D01*
X131583293Y-86211008D01*
X131736522Y-86251207D01*
X131820477Y-86252526D01*
X131887319Y-86253576D01*
X131887322Y-86253576D01*
X131894916Y-86253695D01*
X132049332Y-86218329D01*
X132129534Y-86177992D01*
X132184072Y-86150563D01*
X132184075Y-86150561D01*
X132190855Y-86147151D01*
X132207789Y-86132688D01*
X132272579Y-86103658D01*
X132289619Y-86102500D01*
X142318912Y-86102500D01*
X142387033Y-86122502D01*
X142433526Y-86176158D01*
X142443630Y-86246432D01*
X142426949Y-86288484D01*
X142428908Y-86289534D01*
X142425320Y-86296227D01*
X142420950Y-86302444D01*
X142418190Y-86309524D01*
X142366487Y-86442135D01*
X142363406Y-86450037D01*
X142362414Y-86457570D01*
X142362414Y-86457571D01*
X142361127Y-86467351D01*
X142342729Y-86607096D01*
X142345016Y-86627807D01*
X142355518Y-86722930D01*
X142360113Y-86764553D01*
X142362723Y-86771684D01*
X142362723Y-86771686D01*
X142405114Y-86887525D01*
X142414553Y-86913319D01*
X142418789Y-86919622D01*
X142418789Y-86919623D01*
X142497581Y-87036877D01*
X142502908Y-87044805D01*
X142508527Y-87049918D01*
X142508528Y-87049919D01*
X142551122Y-87088676D01*
X142615374Y-87147141D01*
X142615376Y-87147143D01*
X142620076Y-87151419D01*
X142619364Y-87152202D01*
X142658993Y-87202488D01*
X142665813Y-87273156D01*
X142633345Y-87336294D01*
X142624895Y-87344386D01*
X142512039Y-87442838D01*
X142420950Y-87572444D01*
X142400597Y-87624648D01*
X142375014Y-87690265D01*
X142363406Y-87720037D01*
X142362414Y-87727570D01*
X142362414Y-87727571D01*
X142344209Y-87865856D01*
X142342729Y-87877096D01*
X142343563Y-87884647D01*
X142348963Y-87933566D01*
X142336557Y-88003470D01*
X142312819Y-88036487D01*
X133373784Y-96975522D01*
X133355036Y-96990664D01*
X133353811Y-96991779D01*
X133345060Y-96997429D01*
X133338613Y-97005607D01*
X133338611Y-97005609D01*
X133324271Y-97023800D01*
X133320325Y-97028241D01*
X133320398Y-97028303D01*
X133317039Y-97032267D01*
X133313362Y-97035944D01*
X133302108Y-97051692D01*
X133298602Y-97056362D01*
X133266844Y-97096647D01*
X133263812Y-97105281D01*
X133258486Y-97112734D01*
X133255501Y-97122715D01*
X133243799Y-97161844D01*
X133241964Y-97167492D01*
X133230952Y-97198851D01*
X133224982Y-97215851D01*
X133224500Y-97221416D01*
X133224500Y-97224124D01*
X133224386Y-97226758D01*
X133224357Y-97226856D01*
X133224193Y-97226849D01*
X133224149Y-97227553D01*
X133222287Y-97233778D01*
X133222696Y-97244183D01*
X133224403Y-97287635D01*
X133224500Y-97292582D01*
X133224500Y-104030839D01*
X133204498Y-104098960D01*
X133150842Y-104145453D01*
X133142118Y-104149049D01*
X133126463Y-104154824D01*
X132952010Y-104258612D01*
X132947670Y-104262418D01*
X132947666Y-104262421D01*
X132866398Y-104333692D01*
X132799392Y-104392455D01*
X132673720Y-104551869D01*
X132671031Y-104556980D01*
X132671029Y-104556983D01*
X132658073Y-104581609D01*
X132579203Y-104731515D01*
X132519007Y-104925378D01*
X132495148Y-105126964D01*
X132508424Y-105329522D01*
X132509845Y-105335118D01*
X132509846Y-105335123D01*
X132536187Y-105438837D01*
X132558392Y-105526269D01*
X132560809Y-105531512D01*
X132598010Y-105612208D01*
X132643377Y-105710616D01*
X132646710Y-105715332D01*
X132750384Y-105862028D01*
X132760533Y-105876389D01*
X132905938Y-106018035D01*
X133074720Y-106130812D01*
X133080023Y-106133090D01*
X133080026Y-106133092D01*
X133255921Y-106208662D01*
X133261228Y-106210942D01*
X133334244Y-106227464D01*
X133453579Y-106254467D01*
X133453584Y-106254468D01*
X133459216Y-106255742D01*
X133464987Y-106255969D01*
X133464989Y-106255969D01*
X133524756Y-106258317D01*
X133662053Y-106263712D01*
X133769348Y-106248155D01*
X133857231Y-106235413D01*
X133857236Y-106235412D01*
X133862945Y-106234584D01*
X133868409Y-106232729D01*
X133868414Y-106232728D01*
X134049693Y-106171192D01*
X134049698Y-106171190D01*
X134055165Y-106169334D01*
X134232276Y-106070147D01*
X134271969Y-106037135D01*
X134359696Y-105964172D01*
X134388345Y-105940345D01*
X134492697Y-105814876D01*
X134514453Y-105788718D01*
X134514455Y-105788715D01*
X134518147Y-105784276D01*
X134586475Y-105662267D01*
X134614510Y-105612208D01*
X134614511Y-105612206D01*
X134617334Y-105607165D01*
X134619190Y-105601698D01*
X134619192Y-105601693D01*
X134680728Y-105420414D01*
X134680729Y-105420409D01*
X134682584Y-105414945D01*
X134683412Y-105409236D01*
X134683413Y-105409231D01*
X134711179Y-105217727D01*
X134711712Y-105214053D01*
X134713232Y-105156000D01*
X134695821Y-104966514D01*
X134695187Y-104959613D01*
X134695186Y-104959610D01*
X134694658Y-104953859D01*
X134693090Y-104948299D01*
X134641125Y-104764046D01*
X134641124Y-104764044D01*
X134639557Y-104758487D01*
X134628978Y-104737033D01*
X134552331Y-104581609D01*
X134549776Y-104576428D01*
X134533874Y-104555132D01*
X134500447Y-104510369D01*
X134428320Y-104413779D01*
X134279258Y-104275987D01*
X134274375Y-104272906D01*
X134274371Y-104272903D01*
X134112464Y-104170748D01*
X134107581Y-104167667D01*
X134062810Y-104149805D01*
X134006951Y-104105985D01*
X133983500Y-104032775D01*
X133983500Y-97491384D01*
X134003502Y-97423263D01*
X134020405Y-97402289D01*
X135547900Y-95874794D01*
X135610212Y-95840768D01*
X135681027Y-95845833D01*
X135737863Y-95888380D01*
X135762674Y-95954900D01*
X135762447Y-95963242D01*
X135762287Y-95963778D01*
X135762373Y-95965970D01*
X135762373Y-95965974D01*
X135764403Y-96017635D01*
X135764500Y-96022582D01*
X135764500Y-104030839D01*
X135744498Y-104098960D01*
X135690842Y-104145453D01*
X135682118Y-104149049D01*
X135666463Y-104154824D01*
X135492010Y-104258612D01*
X135487670Y-104262418D01*
X135487666Y-104262421D01*
X135406398Y-104333692D01*
X135339392Y-104392455D01*
X135213720Y-104551869D01*
X135211031Y-104556980D01*
X135211029Y-104556983D01*
X135198073Y-104581609D01*
X135119203Y-104731515D01*
X135059007Y-104925378D01*
X135035148Y-105126964D01*
X135048424Y-105329522D01*
X135049845Y-105335118D01*
X135049846Y-105335123D01*
X135076187Y-105438837D01*
X135098392Y-105526269D01*
X135100809Y-105531512D01*
X135138010Y-105612208D01*
X135183377Y-105710616D01*
X135186710Y-105715332D01*
X135290384Y-105862028D01*
X135300533Y-105876389D01*
X135445938Y-106018035D01*
X135614720Y-106130812D01*
X135620023Y-106133090D01*
X135620026Y-106133092D01*
X135795921Y-106208662D01*
X135801228Y-106210942D01*
X135874244Y-106227464D01*
X135993579Y-106254467D01*
X135993584Y-106254468D01*
X135999216Y-106255742D01*
X136004987Y-106255969D01*
X136004989Y-106255969D01*
X136064756Y-106258317D01*
X136202053Y-106263712D01*
X136309348Y-106248155D01*
X136397231Y-106235413D01*
X136397236Y-106235412D01*
X136402945Y-106234584D01*
X136408409Y-106232729D01*
X136408414Y-106232728D01*
X136589693Y-106171192D01*
X136589698Y-106171190D01*
X136595165Y-106169334D01*
X136772276Y-106070147D01*
X136811969Y-106037135D01*
X136899696Y-105964172D01*
X136928345Y-105940345D01*
X137032697Y-105814876D01*
X137054453Y-105788718D01*
X137054455Y-105788715D01*
X137058147Y-105784276D01*
X137126475Y-105662267D01*
X137154510Y-105612208D01*
X137154511Y-105612206D01*
X137157334Y-105607165D01*
X137159190Y-105601698D01*
X137159192Y-105601693D01*
X137220728Y-105420414D01*
X137220729Y-105420409D01*
X137222584Y-105414945D01*
X137223412Y-105409236D01*
X137223413Y-105409231D01*
X137251179Y-105217727D01*
X137251712Y-105214053D01*
X137253232Y-105156000D01*
X137250564Y-105126964D01*
X137575148Y-105126964D01*
X137588424Y-105329522D01*
X137589845Y-105335118D01*
X137589846Y-105335123D01*
X137616187Y-105438837D01*
X137638392Y-105526269D01*
X137640809Y-105531512D01*
X137678010Y-105612208D01*
X137723377Y-105710616D01*
X137726710Y-105715332D01*
X137830384Y-105862028D01*
X137840533Y-105876389D01*
X137985938Y-106018035D01*
X138154720Y-106130812D01*
X138160023Y-106133090D01*
X138160026Y-106133092D01*
X138335921Y-106208662D01*
X138341228Y-106210942D01*
X138414244Y-106227464D01*
X138533579Y-106254467D01*
X138533584Y-106254468D01*
X138539216Y-106255742D01*
X138544987Y-106255969D01*
X138544989Y-106255969D01*
X138604756Y-106258317D01*
X138742053Y-106263712D01*
X138849348Y-106248155D01*
X138937231Y-106235413D01*
X138937236Y-106235412D01*
X138942945Y-106234584D01*
X138948409Y-106232729D01*
X138948414Y-106232728D01*
X139129693Y-106171192D01*
X139129698Y-106171190D01*
X139135165Y-106169334D01*
X139312276Y-106070147D01*
X139351969Y-106037135D01*
X139439696Y-105964172D01*
X139468345Y-105940345D01*
X139572697Y-105814876D01*
X139594453Y-105788718D01*
X139594455Y-105788715D01*
X139598147Y-105784276D01*
X139666475Y-105662267D01*
X139694510Y-105612208D01*
X139694511Y-105612206D01*
X139697334Y-105607165D01*
X139699720Y-105600135D01*
X139700170Y-105599496D01*
X139701541Y-105596416D01*
X139702146Y-105596685D01*
X139740553Y-105542059D01*
X139806305Y-105515278D01*
X139876098Y-105528295D01*
X139927773Y-105576980D01*
X139935777Y-105593229D01*
X140005770Y-105765603D01*
X140010413Y-105774794D01*
X140121694Y-105956388D01*
X140127777Y-105964699D01*
X140267213Y-106125667D01*
X140274580Y-106132883D01*
X140438434Y-106268916D01*
X140446881Y-106274831D01*
X140630756Y-106382279D01*
X140640042Y-106386729D01*
X140839001Y-106462703D01*
X140848899Y-106465579D01*
X140952250Y-106486606D01*
X140966299Y-106485410D01*
X140970000Y-106475065D01*
X140970000Y-106474517D01*
X141478000Y-106474517D01*
X141482064Y-106488359D01*
X141495478Y-106490393D01*
X141502184Y-106489534D01*
X141512262Y-106487392D01*
X141716255Y-106426191D01*
X141725842Y-106422433D01*
X141917095Y-106328739D01*
X141925945Y-106323464D01*
X142099328Y-106199792D01*
X142107200Y-106193139D01*
X142258052Y-106042812D01*
X142264730Y-106034965D01*
X142392022Y-105857819D01*
X142393147Y-105858627D01*
X142440669Y-105814876D01*
X142510607Y-105802661D01*
X142576046Y-105830197D01*
X142603870Y-105862028D01*
X142661690Y-105956383D01*
X142667777Y-105964699D01*
X142807213Y-106125667D01*
X142814580Y-106132883D01*
X142978434Y-106268916D01*
X142986881Y-106274831D01*
X143170756Y-106382279D01*
X143180042Y-106386729D01*
X143379001Y-106462703D01*
X143388899Y-106465579D01*
X143492250Y-106486606D01*
X143506299Y-106485410D01*
X143510000Y-106475065D01*
X143510000Y-106474517D01*
X144018000Y-106474517D01*
X144022064Y-106488359D01*
X144035478Y-106490393D01*
X144042184Y-106489534D01*
X144052262Y-106487392D01*
X144256255Y-106426191D01*
X144265842Y-106422433D01*
X144457095Y-106328739D01*
X144465945Y-106323464D01*
X144639328Y-106199792D01*
X144647200Y-106193139D01*
X144798052Y-106042812D01*
X144804730Y-106034965D01*
X144929003Y-105862020D01*
X144934313Y-105853183D01*
X145028670Y-105662267D01*
X145032469Y-105652672D01*
X145034531Y-105645885D01*
X152516000Y-105645885D01*
X152520475Y-105661124D01*
X152521865Y-105662329D01*
X152529548Y-105664000D01*
X162171884Y-105664000D01*
X162187123Y-105659525D01*
X162188328Y-105658135D01*
X162189999Y-105650452D01*
X162189999Y-104973331D01*
X162189629Y-104966510D01*
X162184105Y-104915648D01*
X162180479Y-104900396D01*
X162135324Y-104779946D01*
X162126786Y-104764351D01*
X162050285Y-104662276D01*
X162037724Y-104649715D01*
X161935649Y-104573214D01*
X161920054Y-104564676D01*
X161799606Y-104519522D01*
X161784351Y-104515895D01*
X161733486Y-104510369D01*
X161726672Y-104510000D01*
X161575081Y-104510000D01*
X161506960Y-104489998D01*
X161460467Y-104436342D01*
X161450363Y-104366068D01*
X161479857Y-104301488D01*
X161494512Y-104287126D01*
X161597414Y-104201543D01*
X161601852Y-104197852D01*
X161737530Y-104034717D01*
X161740354Y-104029674D01*
X161740357Y-104029670D01*
X161838383Y-103854632D01*
X161838384Y-103854630D01*
X161841207Y-103849589D01*
X161909410Y-103648667D01*
X161921545Y-103564979D01*
X161939324Y-103442355D01*
X161939857Y-103438681D01*
X161941446Y-103378000D01*
X161922031Y-103166708D01*
X161864436Y-102962492D01*
X161861397Y-102956328D01*
X161773145Y-102777372D01*
X161773144Y-102777371D01*
X161770590Y-102772191D01*
X161717526Y-102701129D01*
X161647089Y-102606803D01*
X161647088Y-102606802D01*
X161643636Y-102602179D01*
X161616497Y-102577092D01*
X161492066Y-102462069D01*
X161492063Y-102462067D01*
X161487826Y-102458150D01*
X161308377Y-102344926D01*
X161111300Y-102266300D01*
X161105643Y-102265175D01*
X161105637Y-102265173D01*
X160908863Y-102226033D01*
X160908859Y-102226033D01*
X160903195Y-102224906D01*
X160897420Y-102224830D01*
X160897416Y-102224830D01*
X160790804Y-102223434D01*
X160691031Y-102222128D01*
X160685334Y-102223107D01*
X160685333Y-102223107D01*
X160487610Y-102257082D01*
X160481913Y-102258061D01*
X160282846Y-102331501D01*
X160277885Y-102334453D01*
X160277884Y-102334453D01*
X160105463Y-102437032D01*
X160105460Y-102437034D01*
X160100495Y-102439988D01*
X160096155Y-102443794D01*
X160096151Y-102443797D01*
X160038140Y-102494672D01*
X159940968Y-102579890D01*
X159937393Y-102584425D01*
X159937392Y-102584426D01*
X159845391Y-102701129D01*
X159809607Y-102746520D01*
X159806917Y-102751633D01*
X159750446Y-102858965D01*
X159701027Y-102909937D01*
X159631894Y-102926100D01*
X159564998Y-102902321D01*
X159525932Y-102856025D01*
X159487145Y-102777371D01*
X159487142Y-102777367D01*
X159484590Y-102772191D01*
X159431526Y-102701129D01*
X159361089Y-102606803D01*
X159361088Y-102606802D01*
X159357636Y-102602179D01*
X159330497Y-102577092D01*
X159206066Y-102462069D01*
X159206063Y-102462067D01*
X159201826Y-102458150D01*
X159022377Y-102344926D01*
X158825300Y-102266300D01*
X158819643Y-102265175D01*
X158819637Y-102265173D01*
X158622863Y-102226033D01*
X158622859Y-102226033D01*
X158617195Y-102224906D01*
X158611420Y-102224830D01*
X158611416Y-102224830D01*
X158504804Y-102223434D01*
X158405031Y-102222128D01*
X158399334Y-102223107D01*
X158399333Y-102223107D01*
X158201610Y-102257082D01*
X158195913Y-102258061D01*
X157996846Y-102331501D01*
X157991885Y-102334453D01*
X157991884Y-102334453D01*
X157819463Y-102437032D01*
X157819460Y-102437034D01*
X157814495Y-102439988D01*
X157810155Y-102443794D01*
X157810151Y-102443797D01*
X157752140Y-102494672D01*
X157654968Y-102579890D01*
X157651393Y-102584425D01*
X157651392Y-102584426D01*
X157559391Y-102701129D01*
X157523607Y-102746520D01*
X157520917Y-102751633D01*
X157464446Y-102858965D01*
X157415027Y-102909937D01*
X157345894Y-102926100D01*
X157278998Y-102902321D01*
X157239932Y-102856025D01*
X157201145Y-102777371D01*
X157201142Y-102777367D01*
X157198590Y-102772191D01*
X157145526Y-102701129D01*
X157075089Y-102606803D01*
X157075088Y-102606802D01*
X157071636Y-102602179D01*
X157044497Y-102577092D01*
X156920066Y-102462069D01*
X156920063Y-102462067D01*
X156915826Y-102458150D01*
X156736377Y-102344926D01*
X156539300Y-102266300D01*
X156533643Y-102265175D01*
X156533637Y-102265173D01*
X156336863Y-102226033D01*
X156336859Y-102226033D01*
X156331195Y-102224906D01*
X156325420Y-102224830D01*
X156325416Y-102224830D01*
X156218804Y-102223434D01*
X156119031Y-102222128D01*
X156113334Y-102223107D01*
X156113333Y-102223107D01*
X155915610Y-102257082D01*
X155909913Y-102258061D01*
X155710846Y-102331501D01*
X155705885Y-102334453D01*
X155705884Y-102334453D01*
X155533463Y-102437032D01*
X155533460Y-102437034D01*
X155528495Y-102439988D01*
X155524155Y-102443794D01*
X155524151Y-102443797D01*
X155466140Y-102494672D01*
X155368968Y-102579890D01*
X155365393Y-102584425D01*
X155365392Y-102584426D01*
X155273391Y-102701129D01*
X155237607Y-102746520D01*
X155234917Y-102751633D01*
X155178446Y-102858965D01*
X155129027Y-102909937D01*
X155059894Y-102926100D01*
X154992998Y-102902321D01*
X154953932Y-102856025D01*
X154915145Y-102777371D01*
X154915142Y-102777367D01*
X154912590Y-102772191D01*
X154859526Y-102701129D01*
X154789089Y-102606803D01*
X154789088Y-102606802D01*
X154785636Y-102602179D01*
X154758497Y-102577092D01*
X154634066Y-102462069D01*
X154634063Y-102462067D01*
X154629826Y-102458150D01*
X154450377Y-102344926D01*
X154253300Y-102266300D01*
X154247643Y-102265175D01*
X154247637Y-102265173D01*
X154050863Y-102226033D01*
X154050859Y-102226033D01*
X154045195Y-102224906D01*
X154039420Y-102224830D01*
X154039416Y-102224830D01*
X153932804Y-102223434D01*
X153833031Y-102222128D01*
X153827334Y-102223107D01*
X153827333Y-102223107D01*
X153629610Y-102257082D01*
X153623913Y-102258061D01*
X153424846Y-102331501D01*
X153419885Y-102334453D01*
X153419884Y-102334453D01*
X153247463Y-102437032D01*
X153247460Y-102437034D01*
X153242495Y-102439988D01*
X153238155Y-102443794D01*
X153238151Y-102443797D01*
X153180140Y-102494672D01*
X153082968Y-102579890D01*
X153079393Y-102584425D01*
X153079392Y-102584426D01*
X152987391Y-102701129D01*
X152951607Y-102746520D01*
X152852812Y-102934299D01*
X152789891Y-103136938D01*
X152764951Y-103347649D01*
X152778829Y-103559377D01*
X152831058Y-103765031D01*
X152919890Y-103957723D01*
X153042350Y-104131000D01*
X153060880Y-104149051D01*
X153177258Y-104262421D01*
X153194337Y-104279059D01*
X153199136Y-104282266D01*
X153203628Y-104285903D01*
X153201925Y-104288006D01*
X153240121Y-104333692D01*
X153248981Y-104404134D01*
X153218351Y-104468183D01*
X153157956Y-104505506D01*
X153124600Y-104510001D01*
X152979331Y-104510001D01*
X152972510Y-104510371D01*
X152921648Y-104515895D01*
X152906396Y-104519521D01*
X152785946Y-104564676D01*
X152770351Y-104573214D01*
X152668276Y-104649715D01*
X152655715Y-104662276D01*
X152579214Y-104764351D01*
X152570676Y-104779946D01*
X152525522Y-104900394D01*
X152521895Y-104915649D01*
X152516369Y-104966514D01*
X152516000Y-104973328D01*
X152516000Y-105645885D01*
X145034531Y-105645885D01*
X145094377Y-105448910D01*
X145096555Y-105438837D01*
X145097986Y-105427962D01*
X145095775Y-105413778D01*
X145082617Y-105410000D01*
X144036115Y-105410000D01*
X144020876Y-105414475D01*
X144019671Y-105415865D01*
X144018000Y-105423548D01*
X144018000Y-106474517D01*
X143510000Y-106474517D01*
X143510000Y-105428115D01*
X143505525Y-105412876D01*
X143504135Y-105411671D01*
X143496452Y-105410000D01*
X141496115Y-105410000D01*
X141480876Y-105414475D01*
X141479671Y-105415865D01*
X141478000Y-105423548D01*
X141478000Y-106474517D01*
X140970000Y-106474517D01*
X140970000Y-104883885D01*
X141478000Y-104883885D01*
X141482475Y-104899124D01*
X141483865Y-104900329D01*
X141491548Y-104902000D01*
X143491885Y-104902000D01*
X143507124Y-104897525D01*
X143508329Y-104896135D01*
X143510000Y-104888452D01*
X143510000Y-104883885D01*
X144018000Y-104883885D01*
X144022475Y-104899124D01*
X144023865Y-104900329D01*
X144031548Y-104902000D01*
X145082344Y-104902000D01*
X145095875Y-104898027D01*
X145097180Y-104888947D01*
X145055214Y-104721875D01*
X145051894Y-104712124D01*
X144966972Y-104516814D01*
X144962105Y-104507739D01*
X144846426Y-104328926D01*
X144840136Y-104320757D01*
X144696806Y-104163240D01*
X144689273Y-104156215D01*
X144522139Y-104024222D01*
X144513552Y-104018517D01*
X144327117Y-103915599D01*
X144317705Y-103911369D01*
X144116959Y-103840280D01*
X144106988Y-103837646D01*
X144035837Y-103824972D01*
X144022540Y-103826432D01*
X144018000Y-103840989D01*
X144018000Y-104883885D01*
X143510000Y-104883885D01*
X143510000Y-103839102D01*
X143506082Y-103825758D01*
X143491806Y-103823771D01*
X143453324Y-103829660D01*
X143443288Y-103832051D01*
X143240868Y-103898212D01*
X143231359Y-103902209D01*
X143042463Y-104000542D01*
X143033738Y-104006036D01*
X142863433Y-104133905D01*
X142855726Y-104140748D01*
X142708590Y-104294717D01*
X142702104Y-104302727D01*
X142597193Y-104456521D01*
X142542282Y-104501524D01*
X142471757Y-104509695D01*
X142408010Y-104478441D01*
X142387313Y-104453957D01*
X142306427Y-104328926D01*
X142300136Y-104320757D01*
X142156806Y-104163240D01*
X142149273Y-104156215D01*
X141982139Y-104024222D01*
X141973552Y-104018517D01*
X141787117Y-103915599D01*
X141777705Y-103911369D01*
X141576959Y-103840280D01*
X141566988Y-103837646D01*
X141495837Y-103824972D01*
X141482540Y-103826432D01*
X141478000Y-103840989D01*
X141478000Y-104883885D01*
X140970000Y-104883885D01*
X140970000Y-103839102D01*
X140966082Y-103825758D01*
X140951806Y-103823771D01*
X140913324Y-103829660D01*
X140903288Y-103832051D01*
X140700868Y-103898212D01*
X140691359Y-103902209D01*
X140502463Y-104000542D01*
X140493738Y-104006036D01*
X140323433Y-104133905D01*
X140315726Y-104140748D01*
X140168590Y-104294717D01*
X140162104Y-104302727D01*
X140042098Y-104478649D01*
X140037000Y-104487623D01*
X139947338Y-104680783D01*
X139943777Y-104690464D01*
X139939291Y-104706640D01*
X139901813Y-104766939D01*
X139837684Y-104797403D01*
X139767266Y-104788360D01*
X139712915Y-104742682D01*
X139704867Y-104728698D01*
X139632331Y-104581609D01*
X139629776Y-104576428D01*
X139613874Y-104555132D01*
X139580447Y-104510369D01*
X139508320Y-104413779D01*
X139359258Y-104275987D01*
X139354375Y-104272906D01*
X139354371Y-104272903D01*
X139192464Y-104170748D01*
X139187581Y-104167667D01*
X138999039Y-104092446D01*
X138993379Y-104091320D01*
X138993375Y-104091319D01*
X138805613Y-104053971D01*
X138805610Y-104053971D01*
X138799946Y-104052844D01*
X138794171Y-104052768D01*
X138794167Y-104052768D01*
X138692793Y-104051441D01*
X138596971Y-104050187D01*
X138591274Y-104051166D01*
X138591273Y-104051166D01*
X138503397Y-104066266D01*
X138396910Y-104084564D01*
X138206463Y-104154824D01*
X138032010Y-104258612D01*
X138027670Y-104262418D01*
X138027666Y-104262421D01*
X137946398Y-104333692D01*
X137879392Y-104392455D01*
X137753720Y-104551869D01*
X137751031Y-104556980D01*
X137751029Y-104556983D01*
X137738073Y-104581609D01*
X137659203Y-104731515D01*
X137599007Y-104925378D01*
X137575148Y-105126964D01*
X137250564Y-105126964D01*
X137235821Y-104966514D01*
X137235187Y-104959613D01*
X137235186Y-104959610D01*
X137234658Y-104953859D01*
X137233090Y-104948299D01*
X137181125Y-104764046D01*
X137181124Y-104764044D01*
X137179557Y-104758487D01*
X137168978Y-104737033D01*
X137092331Y-104581609D01*
X137089776Y-104576428D01*
X137073874Y-104555132D01*
X137040447Y-104510369D01*
X136968320Y-104413779D01*
X136819258Y-104275987D01*
X136814375Y-104272906D01*
X136814371Y-104272903D01*
X136652464Y-104170748D01*
X136647581Y-104167667D01*
X136602810Y-104149805D01*
X136546951Y-104105985D01*
X136523500Y-104032775D01*
X136523500Y-100315206D01*
X147305501Y-100315206D01*
X147322806Y-100521278D01*
X147379807Y-100720066D01*
X147382625Y-100725548D01*
X147382626Y-100725552D01*
X147471514Y-100898509D01*
X147471517Y-100898513D01*
X147474334Y-100903995D01*
X147602786Y-101066061D01*
X147760271Y-101200091D01*
X147940789Y-101300980D01*
X148137466Y-101364884D01*
X148342809Y-101389370D01*
X148348944Y-101388898D01*
X148348946Y-101388898D01*
X148542856Y-101373977D01*
X148542860Y-101373976D01*
X148548998Y-101373504D01*
X148748178Y-101317892D01*
X148753682Y-101315112D01*
X148753684Y-101315111D01*
X148927262Y-101227431D01*
X148927264Y-101227430D01*
X148932763Y-101224652D01*
X149095722Y-101097334D01*
X149099748Y-101092670D01*
X149099751Y-101092667D01*
X149226819Y-100945457D01*
X149226820Y-100945455D01*
X149230848Y-100940789D01*
X149332995Y-100760979D01*
X149370695Y-100647648D01*
X149396325Y-100570601D01*
X149396326Y-100570598D01*
X149398270Y-100564753D01*
X149424189Y-100359586D01*
X149424602Y-100330000D01*
X149423151Y-100315206D01*
X149845501Y-100315206D01*
X149862806Y-100521278D01*
X149919807Y-100720066D01*
X149922625Y-100725548D01*
X149922626Y-100725552D01*
X150011514Y-100898509D01*
X150011517Y-100898513D01*
X150014334Y-100903995D01*
X150142786Y-101066061D01*
X150300271Y-101200091D01*
X150480789Y-101300980D01*
X150677466Y-101364884D01*
X150882809Y-101389370D01*
X150888944Y-101388898D01*
X150888946Y-101388898D01*
X151082856Y-101373977D01*
X151082860Y-101373976D01*
X151088998Y-101373504D01*
X151288178Y-101317892D01*
X151293682Y-101315112D01*
X151293684Y-101315111D01*
X151467262Y-101227431D01*
X151467264Y-101227430D01*
X151472763Y-101224652D01*
X151635722Y-101097334D01*
X151639748Y-101092670D01*
X151639751Y-101092667D01*
X151766819Y-100945457D01*
X151766820Y-100945455D01*
X151770848Y-100940789D01*
X151872995Y-100760979D01*
X151910695Y-100647648D01*
X151936325Y-100570601D01*
X151936326Y-100570598D01*
X151938270Y-100564753D01*
X151964189Y-100359586D01*
X151964602Y-100330000D01*
X151944422Y-100124189D01*
X151884651Y-99926217D01*
X151787565Y-99743625D01*
X151783674Y-99738855D01*
X151783672Y-99738851D01*
X151660758Y-99588143D01*
X151660755Y-99588140D01*
X151656863Y-99583368D01*
X151649966Y-99577662D01*
X151502271Y-99455478D01*
X151502266Y-99455475D01*
X151497522Y-99451550D01*
X151492103Y-99448620D01*
X151492100Y-99448618D01*
X151321032Y-99356122D01*
X151321027Y-99356120D01*
X151315612Y-99353192D01*
X151118063Y-99292040D01*
X151111938Y-99291396D01*
X151111937Y-99291396D01*
X150918526Y-99271068D01*
X150918524Y-99271068D01*
X150912397Y-99270424D01*
X150786229Y-99281906D01*
X150712591Y-99288607D01*
X150712590Y-99288607D01*
X150706450Y-99289166D01*
X150508066Y-99347554D01*
X150502601Y-99350411D01*
X150330261Y-99440508D01*
X150330257Y-99440511D01*
X150324801Y-99443363D01*
X150163635Y-99572943D01*
X150030708Y-99731360D01*
X149931082Y-99912578D01*
X149868553Y-100109696D01*
X149867867Y-100115813D01*
X149867866Y-100115817D01*
X149846622Y-100305214D01*
X149845501Y-100315206D01*
X149423151Y-100315206D01*
X149404422Y-100124189D01*
X149344651Y-99926217D01*
X149247565Y-99743625D01*
X149243674Y-99738855D01*
X149243672Y-99738851D01*
X149120758Y-99588143D01*
X149120755Y-99588140D01*
X149116863Y-99583368D01*
X149109966Y-99577662D01*
X148962271Y-99455478D01*
X148962266Y-99455475D01*
X148957522Y-99451550D01*
X148952103Y-99448620D01*
X148952100Y-99448618D01*
X148781032Y-99356122D01*
X148781027Y-99356120D01*
X148775612Y-99353192D01*
X148578063Y-99292040D01*
X148571938Y-99291396D01*
X148571937Y-99291396D01*
X148378526Y-99271068D01*
X148378524Y-99271068D01*
X148372397Y-99270424D01*
X148246229Y-99281906D01*
X148172591Y-99288607D01*
X148172590Y-99288607D01*
X148166450Y-99289166D01*
X147968066Y-99347554D01*
X147962601Y-99350411D01*
X147790261Y-99440508D01*
X147790257Y-99440511D01*
X147784801Y-99443363D01*
X147623635Y-99572943D01*
X147490708Y-99731360D01*
X147391082Y-99912578D01*
X147328553Y-100109696D01*
X147327867Y-100115813D01*
X147327866Y-100115817D01*
X147306622Y-100305214D01*
X147305501Y-100315206D01*
X136523500Y-100315206D01*
X136523500Y-97775206D01*
X147305501Y-97775206D01*
X147306577Y-97788018D01*
X147316022Y-97900487D01*
X147322806Y-97981278D01*
X147379807Y-98180066D01*
X147382625Y-98185548D01*
X147382626Y-98185552D01*
X147471514Y-98358509D01*
X147471517Y-98358513D01*
X147474334Y-98363995D01*
X147602786Y-98526061D01*
X147760271Y-98660091D01*
X147940789Y-98760980D01*
X148137466Y-98824884D01*
X148342809Y-98849370D01*
X148348944Y-98848898D01*
X148348946Y-98848898D01*
X148542856Y-98833977D01*
X148542860Y-98833976D01*
X148548998Y-98833504D01*
X148748178Y-98777892D01*
X148753682Y-98775112D01*
X148753684Y-98775111D01*
X148927262Y-98687431D01*
X148927264Y-98687430D01*
X148932763Y-98684652D01*
X149095722Y-98557334D01*
X149099748Y-98552670D01*
X149099751Y-98552667D01*
X149226819Y-98405457D01*
X149226820Y-98405455D01*
X149230848Y-98400789D01*
X149305736Y-98268964D01*
X149329950Y-98226340D01*
X149329952Y-98226336D01*
X149332995Y-98220979D01*
X149372702Y-98101613D01*
X149396325Y-98030601D01*
X149396326Y-98030598D01*
X149398270Y-98024753D01*
X149424189Y-97819586D01*
X149424602Y-97790000D01*
X149423151Y-97775206D01*
X149845501Y-97775206D01*
X149846577Y-97788018D01*
X149856022Y-97900487D01*
X149862806Y-97981278D01*
X149919807Y-98180066D01*
X149922625Y-98185548D01*
X149922626Y-98185552D01*
X150011514Y-98358509D01*
X150011517Y-98358513D01*
X150014334Y-98363995D01*
X150142786Y-98526061D01*
X150300271Y-98660091D01*
X150480789Y-98760980D01*
X150677466Y-98824884D01*
X150882809Y-98849370D01*
X150888944Y-98848898D01*
X150888946Y-98848898D01*
X151082856Y-98833977D01*
X151082860Y-98833976D01*
X151088998Y-98833504D01*
X151288178Y-98777892D01*
X151293682Y-98775112D01*
X151293684Y-98775111D01*
X151467262Y-98687431D01*
X151467264Y-98687430D01*
X151472763Y-98684652D01*
X151635722Y-98557334D01*
X151639748Y-98552670D01*
X151639751Y-98552667D01*
X151766819Y-98405457D01*
X151766820Y-98405455D01*
X151770848Y-98400789D01*
X151845736Y-98268964D01*
X151869950Y-98226340D01*
X151869952Y-98226336D01*
X151872995Y-98220979D01*
X151912702Y-98101613D01*
X151936325Y-98030601D01*
X151936326Y-98030598D01*
X151938270Y-98024753D01*
X151964189Y-97819586D01*
X151964602Y-97790000D01*
X151944422Y-97584189D01*
X151884651Y-97386217D01*
X151809130Y-97244183D01*
X151790459Y-97209067D01*
X151790457Y-97209064D01*
X151787565Y-97203625D01*
X151783674Y-97198855D01*
X151783672Y-97198851D01*
X151660758Y-97048143D01*
X151660755Y-97048140D01*
X151656863Y-97043368D01*
X151647889Y-97035944D01*
X151502271Y-96915478D01*
X151502266Y-96915475D01*
X151497522Y-96911550D01*
X151492103Y-96908620D01*
X151492100Y-96908618D01*
X151321032Y-96816122D01*
X151321027Y-96816120D01*
X151315612Y-96813192D01*
X151118063Y-96752040D01*
X151111938Y-96751396D01*
X151111937Y-96751396D01*
X150918526Y-96731068D01*
X150918524Y-96731068D01*
X150912397Y-96730424D01*
X150786229Y-96741906D01*
X150712591Y-96748607D01*
X150712590Y-96748607D01*
X150706450Y-96749166D01*
X150508066Y-96807554D01*
X150502601Y-96810411D01*
X150330261Y-96900508D01*
X150330257Y-96900511D01*
X150324801Y-96903363D01*
X150163635Y-97032943D01*
X150030708Y-97191360D01*
X149931082Y-97372578D01*
X149868553Y-97569696D01*
X149867867Y-97575813D01*
X149867866Y-97575817D01*
X149848295Y-97750294D01*
X149845501Y-97775206D01*
X149423151Y-97775206D01*
X149404422Y-97584189D01*
X149344651Y-97386217D01*
X149269130Y-97244183D01*
X149250459Y-97209067D01*
X149250457Y-97209064D01*
X149247565Y-97203625D01*
X149243674Y-97198855D01*
X149243672Y-97198851D01*
X149120758Y-97048143D01*
X149120755Y-97048140D01*
X149116863Y-97043368D01*
X149107889Y-97035944D01*
X148962271Y-96915478D01*
X148962266Y-96915475D01*
X148957522Y-96911550D01*
X148952103Y-96908620D01*
X148952100Y-96908618D01*
X148781032Y-96816122D01*
X148781027Y-96816120D01*
X148775612Y-96813192D01*
X148578063Y-96752040D01*
X148571938Y-96751396D01*
X148571937Y-96751396D01*
X148378526Y-96731068D01*
X148378524Y-96731068D01*
X148372397Y-96730424D01*
X148246229Y-96741906D01*
X148172591Y-96748607D01*
X148172590Y-96748607D01*
X148166450Y-96749166D01*
X147968066Y-96807554D01*
X147962601Y-96810411D01*
X147790261Y-96900508D01*
X147790257Y-96900511D01*
X147784801Y-96903363D01*
X147623635Y-97032943D01*
X147490708Y-97191360D01*
X147391082Y-97372578D01*
X147328553Y-97569696D01*
X147327867Y-97575813D01*
X147327866Y-97575817D01*
X147308295Y-97750294D01*
X147305501Y-97775206D01*
X136523500Y-97775206D01*
X136523500Y-96221384D01*
X136543502Y-96153263D01*
X136560405Y-96132289D01*
X137449598Y-95243096D01*
X147930729Y-95243096D01*
X147938882Y-95316941D01*
X147947168Y-95391991D01*
X147948113Y-95400553D01*
X147950723Y-95407684D01*
X147950723Y-95407686D01*
X147997717Y-95536105D01*
X148002553Y-95549319D01*
X148006789Y-95555622D01*
X148006789Y-95555623D01*
X148055859Y-95628646D01*
X148090908Y-95680805D01*
X148096527Y-95685918D01*
X148096528Y-95685919D01*
X148195407Y-95775891D01*
X148208076Y-95787419D01*
X148347293Y-95863008D01*
X148500522Y-95903207D01*
X148584477Y-95904526D01*
X148651319Y-95905576D01*
X148651322Y-95905576D01*
X148658916Y-95905695D01*
X148813332Y-95870329D01*
X148900185Y-95826647D01*
X148948072Y-95802563D01*
X148948075Y-95802561D01*
X148954855Y-95799151D01*
X148960626Y-95794222D01*
X148960629Y-95794220D01*
X149069542Y-95701199D01*
X149069543Y-95701198D01*
X149075314Y-95696269D01*
X149085586Y-95681974D01*
X149141581Y-95638326D01*
X149187909Y-95629500D01*
X154386694Y-95629500D01*
X154410642Y-95632049D01*
X154412307Y-95632128D01*
X154422490Y-95634320D01*
X154432831Y-95633096D01*
X154455837Y-95630373D01*
X154461768Y-95630023D01*
X154461760Y-95629928D01*
X154466938Y-95629500D01*
X154472138Y-95629500D01*
X154477267Y-95628646D01*
X154477270Y-95628646D01*
X154491179Y-95626331D01*
X154497057Y-95625494D01*
X154537615Y-95620694D01*
X154537616Y-95620694D01*
X154547955Y-95619470D01*
X154556207Y-95615507D01*
X154565240Y-95614004D01*
X154574409Y-95609057D01*
X154574411Y-95609056D01*
X154610346Y-95589666D01*
X154615639Y-95586969D01*
X154654696Y-95568215D01*
X154654700Y-95568212D01*
X154661846Y-95564781D01*
X154666122Y-95561186D01*
X154668045Y-95559263D01*
X154669977Y-95557491D01*
X154670056Y-95557448D01*
X154670169Y-95557572D01*
X154670709Y-95557096D01*
X154676428Y-95554010D01*
X154689076Y-95540328D01*
X154713030Y-95514414D01*
X154716460Y-95510848D01*
X156910727Y-93316581D01*
X156929475Y-93301439D01*
X156930700Y-93300324D01*
X156939451Y-93294674D01*
X156945898Y-93286496D01*
X156945900Y-93286494D01*
X156960240Y-93268303D01*
X156964186Y-93263862D01*
X156964113Y-93263800D01*
X156967472Y-93259836D01*
X156971149Y-93256159D01*
X156982403Y-93240411D01*
X156985909Y-93235741D01*
X157017667Y-93195456D01*
X157020699Y-93186822D01*
X157026025Y-93179369D01*
X157040714Y-93130253D01*
X157042547Y-93124611D01*
X157056901Y-93083736D01*
X157056901Y-93083735D01*
X157059529Y-93076252D01*
X157060011Y-93070687D01*
X157060011Y-93067979D01*
X157060125Y-93065345D01*
X157060154Y-93065247D01*
X157060318Y-93065254D01*
X157060362Y-93064550D01*
X157062224Y-93058325D01*
X157060108Y-93004468D01*
X157060011Y-92999521D01*
X157060011Y-90186431D01*
X157062560Y-90162484D01*
X157062639Y-90160818D01*
X157064831Y-90150635D01*
X157063607Y-90140293D01*
X157063607Y-90140290D01*
X157060885Y-90117298D01*
X157060534Y-90111357D01*
X157060439Y-90111365D01*
X157060011Y-90106185D01*
X157060011Y-90100987D01*
X157056840Y-90081935D01*
X157056003Y-90076058D01*
X157051204Y-90035508D01*
X157051203Y-90035506D01*
X157049980Y-90025170D01*
X157046019Y-90016921D01*
X157044515Y-90007885D01*
X157039567Y-89998714D01*
X157020163Y-89962751D01*
X157017468Y-89957462D01*
X156998723Y-89918426D01*
X156995291Y-89911279D01*
X156991697Y-89907003D01*
X156989757Y-89905063D01*
X156988004Y-89903152D01*
X156987955Y-89903062D01*
X156988078Y-89902950D01*
X156987606Y-89902415D01*
X156984521Y-89896697D01*
X156944924Y-89860094D01*
X156941359Y-89856665D01*
X156646143Y-89561449D01*
X156612117Y-89499137D01*
X156610495Y-89454601D01*
X156614581Y-89425892D01*
X156614581Y-89425886D01*
X156615162Y-89421807D01*
X156615307Y-89408000D01*
X156596276Y-89250733D01*
X156540280Y-89102546D01*
X156490404Y-89029976D01*
X156454855Y-88978251D01*
X156454854Y-88978249D01*
X156450553Y-88971992D01*
X156439176Y-88961855D01*
X156337946Y-88871664D01*
X156332275Y-88866611D01*
X156324889Y-88862700D01*
X156249045Y-88822543D01*
X156192274Y-88792484D01*
X156038633Y-88753892D01*
X156031034Y-88753852D01*
X156031033Y-88753852D01*
X155965181Y-88753507D01*
X155880221Y-88753062D01*
X155872841Y-88754834D01*
X155872839Y-88754834D01*
X155733563Y-88788271D01*
X155733560Y-88788272D01*
X155726184Y-88790043D01*
X155585414Y-88862700D01*
X155466039Y-88966838D01*
X155374950Y-89096444D01*
X155317406Y-89244037D01*
X155316414Y-89251570D01*
X155316414Y-89251571D01*
X155301243Y-89366812D01*
X155296729Y-89401096D01*
X155302086Y-89449618D01*
X155309518Y-89516930D01*
X155314113Y-89558553D01*
X155316723Y-89565684D01*
X155316723Y-89565686D01*
X155364164Y-89695324D01*
X155368553Y-89707319D01*
X155372789Y-89713622D01*
X155372789Y-89713623D01*
X155396986Y-89749631D01*
X155456908Y-89838805D01*
X155462527Y-89843918D01*
X155462528Y-89843919D01*
X155528002Y-89903495D01*
X155574076Y-89945419D01*
X155713293Y-90021008D01*
X155866522Y-90061207D01*
X155963138Y-90062725D01*
X156024772Y-90063693D01*
X156092570Y-90084762D01*
X156111888Y-90100582D01*
X156264106Y-90252800D01*
X156298132Y-90315112D01*
X156301011Y-90341895D01*
X156301011Y-91960234D01*
X156281009Y-92028355D01*
X156227353Y-92074848D01*
X156157079Y-92084952D01*
X156144324Y-92082440D01*
X156038633Y-92055892D01*
X156031034Y-92055852D01*
X156031033Y-92055852D01*
X155965181Y-92055507D01*
X155880221Y-92055062D01*
X155872841Y-92056834D01*
X155872839Y-92056834D01*
X155733563Y-92090271D01*
X155733560Y-92090272D01*
X155726184Y-92092043D01*
X155585414Y-92164700D01*
X155466039Y-92268838D01*
X155374950Y-92398444D01*
X155317406Y-92546037D01*
X155316414Y-92553570D01*
X155316414Y-92553571D01*
X155299551Y-92681664D01*
X155296729Y-92703096D01*
X155297563Y-92710647D01*
X155302963Y-92759566D01*
X155290557Y-92829470D01*
X155266819Y-92862487D01*
X154565711Y-93563595D01*
X154503399Y-93597621D01*
X154476616Y-93600500D01*
X149189682Y-93600500D01*
X149121561Y-93580498D01*
X149095114Y-93554860D01*
X149093878Y-93555949D01*
X149088855Y-93550251D01*
X149084553Y-93543992D01*
X148966275Y-93438611D01*
X148958889Y-93434700D01*
X148871898Y-93388641D01*
X148826274Y-93364484D01*
X148672633Y-93325892D01*
X148665034Y-93325852D01*
X148665033Y-93325852D01*
X148599181Y-93325507D01*
X148514221Y-93325062D01*
X148506841Y-93326834D01*
X148506839Y-93326834D01*
X148367563Y-93360271D01*
X148367560Y-93360272D01*
X148360184Y-93362043D01*
X148219414Y-93434700D01*
X148100039Y-93538838D01*
X148008950Y-93668444D01*
X147951406Y-93816037D01*
X147950414Y-93823570D01*
X147950414Y-93823571D01*
X147932205Y-93961885D01*
X147930729Y-93973096D01*
X147937489Y-94034322D01*
X147946505Y-94115987D01*
X147948113Y-94130553D01*
X147950723Y-94137684D01*
X147950723Y-94137686D01*
X147996796Y-94263586D01*
X148002553Y-94279319D01*
X148006789Y-94285622D01*
X148006789Y-94285623D01*
X148078184Y-94391869D01*
X148090908Y-94410805D01*
X148096527Y-94415918D01*
X148096528Y-94415919D01*
X148106814Y-94425278D01*
X148203374Y-94513141D01*
X148203376Y-94513143D01*
X148208076Y-94517419D01*
X148207364Y-94518202D01*
X148246993Y-94568488D01*
X148253813Y-94639156D01*
X148221345Y-94702294D01*
X148212895Y-94710386D01*
X148100039Y-94808838D01*
X148008950Y-94938444D01*
X147987951Y-94992305D01*
X147954279Y-95078669D01*
X147951406Y-95086037D01*
X147950414Y-95093570D01*
X147950414Y-95093571D01*
X147933521Y-95221892D01*
X147930729Y-95243096D01*
X137449598Y-95243096D01*
X142848178Y-89844516D01*
X142910490Y-89810490D01*
X142939252Y-89807627D01*
X143063318Y-89809576D01*
X143063321Y-89809576D01*
X143070916Y-89809695D01*
X143225332Y-89774329D01*
X143309725Y-89731884D01*
X143360072Y-89706563D01*
X143360075Y-89706561D01*
X143366855Y-89703151D01*
X143372626Y-89698222D01*
X143372629Y-89698220D01*
X143481536Y-89605204D01*
X143481536Y-89605203D01*
X143487314Y-89600269D01*
X143579755Y-89471624D01*
X143638842Y-89324641D01*
X143651321Y-89236957D01*
X143660581Y-89171891D01*
X143660581Y-89171888D01*
X143661162Y-89167807D01*
X143661231Y-89161265D01*
X143661264Y-89158134D01*
X143661264Y-89158128D01*
X143661307Y-89154000D01*
X143642276Y-88996733D01*
X143586280Y-88848546D01*
X143526984Y-88762269D01*
X143500855Y-88724251D01*
X143500854Y-88724249D01*
X143496553Y-88717992D01*
X143421301Y-88650945D01*
X143378275Y-88612611D01*
X143380413Y-88610211D01*
X143345021Y-88566286D01*
X143337436Y-88495696D01*
X143369220Y-88432211D01*
X143379602Y-88422264D01*
X143481536Y-88335204D01*
X143481536Y-88335203D01*
X143487314Y-88330269D01*
X143579755Y-88201624D01*
X143638842Y-88054641D01*
X143639192Y-88052179D01*
X143675008Y-87993417D01*
X143738868Y-87962394D01*
X143809363Y-87970821D01*
X143848860Y-87997554D01*
X146227522Y-90376216D01*
X146242664Y-90394964D01*
X146243779Y-90396189D01*
X146249429Y-90404940D01*
X146257607Y-90411387D01*
X146257609Y-90411389D01*
X146275800Y-90425729D01*
X146280244Y-90429678D01*
X146280306Y-90429604D01*
X146284263Y-90432957D01*
X146287944Y-90436638D01*
X146303654Y-90447865D01*
X146308380Y-90451413D01*
X146348647Y-90483156D01*
X146357284Y-90486189D01*
X146364734Y-90491513D01*
X146374710Y-90494497D01*
X146374711Y-90494497D01*
X146390046Y-90499083D01*
X146413849Y-90506202D01*
X146419486Y-90508034D01*
X146460367Y-90522390D01*
X146467851Y-90525018D01*
X146473416Y-90525500D01*
X146476124Y-90525500D01*
X146478758Y-90525614D01*
X146478856Y-90525643D01*
X146478849Y-90525807D01*
X146479553Y-90525851D01*
X146485778Y-90527713D01*
X146539635Y-90525597D01*
X146544582Y-90525500D01*
X147959174Y-90525500D01*
X148027295Y-90545502D01*
X148063755Y-90581223D01*
X148071844Y-90593261D01*
X148077462Y-90598373D01*
X148187866Y-90698834D01*
X148187870Y-90698837D01*
X148193487Y-90703948D01*
X148200164Y-90707573D01*
X148200165Y-90707574D01*
X148331345Y-90778799D01*
X148331347Y-90778800D01*
X148338022Y-90782424D01*
X148345371Y-90784352D01*
X148489754Y-90822230D01*
X148489756Y-90822230D01*
X148497104Y-90824158D01*
X148582580Y-90825501D01*
X148653951Y-90826622D01*
X148653954Y-90826622D01*
X148661549Y-90826741D01*
X148730701Y-90810903D01*
X148814460Y-90791720D01*
X148814464Y-90791719D01*
X148821863Y-90790024D01*
X148968792Y-90716127D01*
X149093852Y-90609316D01*
X149116375Y-90577973D01*
X149172369Y-90534326D01*
X149218696Y-90525500D01*
X149991174Y-90525500D01*
X150059295Y-90545502D01*
X150095755Y-90581223D01*
X150103844Y-90593261D01*
X150109462Y-90598373D01*
X150219866Y-90698834D01*
X150219870Y-90698837D01*
X150225487Y-90703948D01*
X150232164Y-90707573D01*
X150232165Y-90707574D01*
X150363345Y-90778799D01*
X150363347Y-90778800D01*
X150370022Y-90782424D01*
X150377371Y-90784352D01*
X150521754Y-90822230D01*
X150521756Y-90822230D01*
X150529104Y-90824158D01*
X150614580Y-90825501D01*
X150685951Y-90826622D01*
X150685954Y-90826622D01*
X150693549Y-90826741D01*
X150762701Y-90810903D01*
X150846460Y-90791720D01*
X150846464Y-90791719D01*
X150853863Y-90790024D01*
X151000792Y-90716127D01*
X151030416Y-90690826D01*
X151120078Y-90614248D01*
X151120080Y-90614245D01*
X151125852Y-90609316D01*
X151221824Y-90475756D01*
X151283168Y-90323159D01*
X151306341Y-90160335D01*
X151306422Y-90152585D01*
X151306448Y-90150120D01*
X151306448Y-90150118D01*
X151306491Y-90146000D01*
X151300424Y-90095860D01*
X151291869Y-90025170D01*
X151286733Y-89982726D01*
X151228598Y-89828878D01*
X151151396Y-89716548D01*
X151129296Y-89649080D01*
X151147181Y-89580373D01*
X151152913Y-89571656D01*
X151153942Y-89570224D01*
X151221824Y-89475756D01*
X151283168Y-89323159D01*
X151303538Y-89180031D01*
X151305760Y-89164418D01*
X151305760Y-89164417D01*
X151306341Y-89160335D01*
X151306491Y-89146000D01*
X151304713Y-89131301D01*
X151292451Y-89029976D01*
X151286733Y-88982726D01*
X151228598Y-88828878D01*
X151151396Y-88716548D01*
X151129296Y-88649080D01*
X151147181Y-88580373D01*
X151152913Y-88571656D01*
X151174985Y-88540940D01*
X151221824Y-88475756D01*
X151283168Y-88323159D01*
X151302139Y-88189859D01*
X151305760Y-88164418D01*
X151305760Y-88164417D01*
X151306341Y-88160335D01*
X151306491Y-88146000D01*
X151305996Y-88141906D01*
X151305995Y-88141895D01*
X151300307Y-88094890D01*
X151311980Y-88024860D01*
X151349830Y-87978926D01*
X151402725Y-87939284D01*
X151415285Y-87926724D01*
X151491786Y-87824649D01*
X151500324Y-87809054D01*
X151545478Y-87688606D01*
X151549105Y-87673351D01*
X151554631Y-87622486D01*
X151555000Y-87615672D01*
X151555000Y-87418115D01*
X151550525Y-87402876D01*
X151549135Y-87401671D01*
X151541452Y-87400000D01*
X150494000Y-87400000D01*
X150425879Y-87379998D01*
X150379386Y-87326342D01*
X150368000Y-87274000D01*
X150368000Y-86873885D01*
X150876000Y-86873885D01*
X150880475Y-86889124D01*
X150881865Y-86890329D01*
X150889548Y-86892000D01*
X151536884Y-86892000D01*
X151552123Y-86887525D01*
X151553328Y-86886135D01*
X151554999Y-86878452D01*
X151554999Y-86676331D01*
X151554629Y-86669510D01*
X151549105Y-86618648D01*
X151545479Y-86603396D01*
X151500324Y-86482946D01*
X151491786Y-86467351D01*
X151415285Y-86365276D01*
X151402724Y-86352715D01*
X151300649Y-86276214D01*
X151285054Y-86267676D01*
X151164606Y-86222522D01*
X151149351Y-86218895D01*
X151098486Y-86213369D01*
X151091672Y-86213000D01*
X150894115Y-86213000D01*
X150878876Y-86217475D01*
X150877671Y-86218865D01*
X150876000Y-86226548D01*
X150876000Y-86873885D01*
X150368000Y-86873885D01*
X150368000Y-86231116D01*
X150363525Y-86215877D01*
X150362135Y-86214672D01*
X150354452Y-86213001D01*
X150152331Y-86213001D01*
X150145510Y-86213371D01*
X150094648Y-86218895D01*
X150079396Y-86222521D01*
X149958946Y-86267676D01*
X149943351Y-86276214D01*
X149841276Y-86352715D01*
X149828715Y-86365276D01*
X149752214Y-86467351D01*
X149743676Y-86482946D01*
X149723982Y-86535479D01*
X149681340Y-86592243D01*
X149614779Y-86616943D01*
X149545430Y-86601735D01*
X149495312Y-86551449D01*
X149488018Y-86535479D01*
X149468324Y-86482946D01*
X149459786Y-86467351D01*
X149383285Y-86365276D01*
X149370724Y-86352715D01*
X149268649Y-86276214D01*
X149253054Y-86267676D01*
X149132606Y-86222522D01*
X149117351Y-86218895D01*
X149066486Y-86213369D01*
X149059672Y-86213000D01*
X148862115Y-86213000D01*
X148846876Y-86217475D01*
X148845671Y-86218865D01*
X148844000Y-86226548D01*
X148844000Y-87274000D01*
X148823998Y-87342121D01*
X148770342Y-87388614D01*
X148718000Y-87400000D01*
X148462000Y-87400000D01*
X148393879Y-87379998D01*
X148347386Y-87326342D01*
X148336000Y-87274000D01*
X148336000Y-86231116D01*
X148331525Y-86215877D01*
X148330135Y-86214672D01*
X148322452Y-86213001D01*
X148120331Y-86213001D01*
X148113510Y-86213371D01*
X148062648Y-86218895D01*
X148047396Y-86222521D01*
X147926946Y-86267676D01*
X147911351Y-86276214D01*
X147809276Y-86352715D01*
X147796715Y-86365276D01*
X147720214Y-86467351D01*
X147711676Y-86482946D01*
X147666522Y-86603394D01*
X147662895Y-86618649D01*
X147657369Y-86669514D01*
X147657000Y-86676328D01*
X147657000Y-86695339D01*
X147636998Y-86763460D01*
X147583342Y-86809953D01*
X147513068Y-86820057D01*
X147448488Y-86790563D01*
X147441905Y-86784434D01*
X145948677Y-85291206D01*
X145941135Y-85281766D01*
X145940755Y-85282089D01*
X145934937Y-85275253D01*
X145930147Y-85267661D01*
X145890140Y-85232328D01*
X145884454Y-85226983D01*
X145873120Y-85215649D01*
X145864845Y-85209447D01*
X145857000Y-85203060D01*
X145828557Y-85177940D01*
X145821830Y-85171999D01*
X145813708Y-85168186D01*
X145810907Y-85166346D01*
X145796912Y-85157937D01*
X145793949Y-85156315D01*
X145786764Y-85150930D01*
X145778354Y-85147777D01*
X145778352Y-85147776D01*
X145742818Y-85134454D01*
X145733502Y-85130529D01*
X145691018Y-85110583D01*
X145682144Y-85109201D01*
X145678917Y-85108215D01*
X145663134Y-85104075D01*
X145659856Y-85103354D01*
X145651448Y-85100202D01*
X145637691Y-85099180D01*
X145604643Y-85096724D01*
X145594596Y-85095570D01*
X145586114Y-85094249D01*
X145586111Y-85094249D01*
X145581303Y-85093500D01*
X145565938Y-85093500D01*
X145556601Y-85093154D01*
X145540519Y-85091959D01*
X145507333Y-85089493D01*
X145498558Y-85091366D01*
X145489862Y-85091959D01*
X145475262Y-85093500D01*
X132291667Y-85093500D01*
X132223546Y-85073498D01*
X132208143Y-85061802D01*
X132207954Y-85061670D01*
X132202275Y-85056611D01*
X132062274Y-84982484D01*
X131908633Y-84943892D01*
X131901034Y-84943852D01*
X131901033Y-84943852D01*
X131835181Y-84943507D01*
X131750221Y-84943062D01*
X131742841Y-84944834D01*
X131742839Y-84944834D01*
X131603563Y-84978271D01*
X131603560Y-84978272D01*
X131596184Y-84980043D01*
X131455414Y-85052700D01*
X131336039Y-85156838D01*
X131244950Y-85286444D01*
X131187406Y-85434037D01*
X131186414Y-85441570D01*
X131186414Y-85441571D01*
X131172639Y-85546208D01*
X131166729Y-85591096D01*
X119655790Y-85591096D01*
X118924478Y-84859784D01*
X118909336Y-84841036D01*
X118908221Y-84839811D01*
X118902571Y-84831060D01*
X118894393Y-84824613D01*
X118894391Y-84824611D01*
X118876200Y-84810271D01*
X118871759Y-84806325D01*
X118871697Y-84806398D01*
X118867733Y-84803039D01*
X118864056Y-84799362D01*
X118848308Y-84788108D01*
X118843638Y-84784602D01*
X118803353Y-84752844D01*
X118794719Y-84749812D01*
X118787266Y-84744486D01*
X118738150Y-84729797D01*
X118732508Y-84727964D01*
X118691633Y-84713610D01*
X118691632Y-84713610D01*
X118684149Y-84710982D01*
X118678584Y-84710500D01*
X118675876Y-84710500D01*
X118673242Y-84710386D01*
X118673144Y-84710357D01*
X118673151Y-84710193D01*
X118672447Y-84710149D01*
X118666222Y-84708287D01*
X118612365Y-84710403D01*
X118607418Y-84710500D01*
X109834792Y-84710500D01*
X109766671Y-84690498D01*
X109721786Y-84640228D01*
X109660331Y-84515609D01*
X109657776Y-84510428D01*
X109536320Y-84347779D01*
X109387258Y-84209987D01*
X109382375Y-84206906D01*
X109382371Y-84206903D01*
X109220464Y-84104748D01*
X109215581Y-84101667D01*
X109027039Y-84026446D01*
X109021379Y-84025320D01*
X109021375Y-84025319D01*
X108833613Y-83987971D01*
X108833610Y-83987971D01*
X108827946Y-83986844D01*
X108822171Y-83986768D01*
X108822167Y-83986768D01*
X108720793Y-83985441D01*
X108624971Y-83984187D01*
X108619274Y-83985166D01*
X108619273Y-83985166D01*
X108430607Y-84017585D01*
X108424910Y-84018564D01*
X108234463Y-84088824D01*
X108060010Y-84192612D01*
X108055670Y-84196418D01*
X108055666Y-84196421D01*
X108035723Y-84213911D01*
X107907392Y-84326455D01*
X107781720Y-84485869D01*
X107779031Y-84490980D01*
X107779029Y-84490983D01*
X107767507Y-84512883D01*
X107687203Y-84665515D01*
X107627007Y-84859378D01*
X107603148Y-85060964D01*
X107616424Y-85263522D01*
X107617845Y-85269118D01*
X107617846Y-85269123D01*
X107638119Y-85348945D01*
X107666392Y-85460269D01*
X107668809Y-85465512D01*
X107703803Y-85541419D01*
X107751377Y-85644616D01*
X107868533Y-85810389D01*
X108013938Y-85952035D01*
X108018742Y-85955245D01*
X108072980Y-85991486D01*
X108182720Y-86064812D01*
X108188023Y-86067090D01*
X108188026Y-86067092D01*
X108355495Y-86139042D01*
X108369228Y-86144942D01*
X108442244Y-86161464D01*
X108561579Y-86188467D01*
X108561584Y-86188468D01*
X108567216Y-86189742D01*
X108572987Y-86189969D01*
X108572989Y-86189969D01*
X108632756Y-86192317D01*
X108770053Y-86197712D01*
X108870499Y-86183148D01*
X108965231Y-86169413D01*
X108965236Y-86169412D01*
X108970945Y-86168584D01*
X108976409Y-86166729D01*
X108976414Y-86166728D01*
X109157693Y-86105192D01*
X109157698Y-86105190D01*
X109163165Y-86103334D01*
X109340276Y-86004147D01*
X109355500Y-85991486D01*
X109491913Y-85878031D01*
X109496345Y-85874345D01*
X109553463Y-85805669D01*
X109622453Y-85722718D01*
X109622455Y-85722715D01*
X109626147Y-85718276D01*
X109725334Y-85541165D01*
X109725787Y-85541419D01*
X109769368Y-85490151D01*
X109838488Y-85469500D01*
X118408616Y-85469500D01*
X118476737Y-85489502D01*
X118497711Y-85506405D01*
X120787206Y-87795900D01*
X120821232Y-87858212D01*
X120816167Y-87929027D01*
X120773620Y-87985863D01*
X120707100Y-88010674D01*
X120698758Y-88010447D01*
X120698222Y-88010287D01*
X120696030Y-88010373D01*
X120696026Y-88010373D01*
X120644365Y-88012403D01*
X120639418Y-88012500D01*
X109834792Y-88012500D01*
X109766671Y-87992498D01*
X109721786Y-87942228D01*
X109660331Y-87817609D01*
X109657776Y-87812428D01*
X109536320Y-87649779D01*
X109387258Y-87511987D01*
X109382375Y-87508906D01*
X109382371Y-87508903D01*
X109220464Y-87406748D01*
X109215581Y-87403667D01*
X109027039Y-87328446D01*
X109021379Y-87327320D01*
X109021375Y-87327319D01*
X108833613Y-87289971D01*
X108833610Y-87289971D01*
X108827946Y-87288844D01*
X108822171Y-87288768D01*
X108822167Y-87288768D01*
X108720793Y-87287441D01*
X108624971Y-87286187D01*
X108619274Y-87287166D01*
X108619273Y-87287166D01*
X108430607Y-87319585D01*
X108424910Y-87320564D01*
X108234463Y-87390824D01*
X108060010Y-87494612D01*
X108055670Y-87498418D01*
X108055666Y-87498421D01*
X107921968Y-87615672D01*
X107907392Y-87628455D01*
X107781720Y-87787869D01*
X107779031Y-87792980D01*
X107779029Y-87792983D01*
X107702056Y-87939284D01*
X107687203Y-87967515D01*
X107627007Y-88161378D01*
X107603148Y-88362964D01*
X107616424Y-88565522D01*
X107617845Y-88571118D01*
X107617846Y-88571123D01*
X107662799Y-88748120D01*
X107666392Y-88762269D01*
X107668809Y-88767512D01*
X107703803Y-88843419D01*
X107751377Y-88946616D01*
X107754710Y-88951332D01*
X107861577Y-89102546D01*
X107868533Y-89112389D01*
X108013938Y-89254035D01*
X108018742Y-89257245D01*
X108072980Y-89293486D01*
X108182720Y-89366812D01*
X108188023Y-89369090D01*
X108188026Y-89369092D01*
X108362324Y-89443976D01*
X108369228Y-89446942D01*
X108440442Y-89463056D01*
X108561579Y-89490467D01*
X108561584Y-89490468D01*
X108567216Y-89491742D01*
X108572987Y-89491969D01*
X108572989Y-89491969D01*
X108632756Y-89494317D01*
X108770053Y-89499712D01*
X108870499Y-89485148D01*
X108965231Y-89471413D01*
X108965236Y-89471412D01*
X108970945Y-89470584D01*
X108976409Y-89468729D01*
X108976414Y-89468728D01*
X109157693Y-89407192D01*
X109157698Y-89407190D01*
X109163165Y-89405334D01*
X109170733Y-89401096D01*
X109272058Y-89344351D01*
X109340276Y-89306147D01*
X109353974Y-89294755D01*
X109491913Y-89180031D01*
X109496345Y-89176345D01*
X109557723Y-89102546D01*
X109622453Y-89024718D01*
X109622455Y-89024715D01*
X109626147Y-89020276D01*
X109725334Y-88843165D01*
X109725787Y-88843419D01*
X109769368Y-88792151D01*
X109838488Y-88771500D01*
X120440616Y-88771500D01*
X120508737Y-88791502D01*
X120529711Y-88808405D01*
X122819206Y-91097900D01*
X122853232Y-91160212D01*
X122848167Y-91231027D01*
X122805620Y-91287863D01*
X122739100Y-91312674D01*
X122730758Y-91312447D01*
X122730222Y-91312287D01*
X122728030Y-91312373D01*
X122728026Y-91312373D01*
X122676365Y-91314403D01*
X122671418Y-91314500D01*
X109834792Y-91314500D01*
X109766671Y-91294498D01*
X109721786Y-91244228D01*
X109660331Y-91119609D01*
X109657776Y-91114428D01*
X109536320Y-90951779D01*
X109387258Y-90813987D01*
X109382375Y-90810906D01*
X109382371Y-90810903D01*
X109220464Y-90708748D01*
X109215581Y-90705667D01*
X109027039Y-90630446D01*
X109021379Y-90629320D01*
X109021375Y-90629319D01*
X108833613Y-90591971D01*
X108833610Y-90591971D01*
X108827946Y-90590844D01*
X108822171Y-90590768D01*
X108822167Y-90590768D01*
X108720793Y-90589441D01*
X108624971Y-90588187D01*
X108619274Y-90589166D01*
X108619273Y-90589166D01*
X108473300Y-90614249D01*
X108424910Y-90622564D01*
X108234463Y-90692824D01*
X108060010Y-90796612D01*
X108055670Y-90800418D01*
X108055666Y-90800421D01*
X107911733Y-90926648D01*
X107907392Y-90930455D01*
X107781720Y-91089869D01*
X107779031Y-91094980D01*
X107779029Y-91094983D01*
X107767507Y-91116883D01*
X107687203Y-91269515D01*
X107627007Y-91463378D01*
X107603148Y-91664964D01*
X107616424Y-91867522D01*
X107617845Y-91873118D01*
X107617846Y-91873123D01*
X107638119Y-91952945D01*
X107666392Y-92064269D01*
X107668809Y-92069512D01*
X107703803Y-92145419D01*
X107751377Y-92248616D01*
X107868533Y-92414389D01*
X108013938Y-92556035D01*
X108018742Y-92559245D01*
X108072980Y-92595486D01*
X108182720Y-92668812D01*
X108188023Y-92671090D01*
X108188026Y-92671092D01*
X108362324Y-92745976D01*
X108369228Y-92748942D01*
X108442244Y-92765464D01*
X108561579Y-92792467D01*
X108561584Y-92792468D01*
X108567216Y-92793742D01*
X108572987Y-92793969D01*
X108572989Y-92793969D01*
X108632756Y-92796317D01*
X108770053Y-92801712D01*
X108870499Y-92787148D01*
X108965231Y-92773413D01*
X108965236Y-92773412D01*
X108970945Y-92772584D01*
X108976409Y-92770729D01*
X108976414Y-92770728D01*
X109157693Y-92709192D01*
X109157698Y-92709190D01*
X109163165Y-92707334D01*
X109170733Y-92703096D01*
X109272058Y-92646351D01*
X109340276Y-92608147D01*
X109349310Y-92600634D01*
X109491913Y-92482031D01*
X109496345Y-92478345D01*
X109556910Y-92405524D01*
X109622453Y-92326718D01*
X109622455Y-92326715D01*
X109626147Y-92322276D01*
X109725334Y-92145165D01*
X109725787Y-92145419D01*
X109769368Y-92094151D01*
X109838488Y-92073500D01*
X122472616Y-92073500D01*
X122540737Y-92093502D01*
X122561711Y-92110405D01*
X126056249Y-95604943D01*
X126090275Y-95667255D01*
X126092076Y-95710482D01*
X126086729Y-95751096D01*
X126090175Y-95782309D01*
X126102139Y-95890672D01*
X126104113Y-95908553D01*
X126106723Y-95915684D01*
X126106723Y-95915686D01*
X126139960Y-96006510D01*
X126158553Y-96057319D01*
X126162789Y-96063622D01*
X126162789Y-96063623D01*
X126186998Y-96099649D01*
X126246908Y-96188805D01*
X126252527Y-96193918D01*
X126252528Y-96193919D01*
X126261106Y-96201724D01*
X126359374Y-96291141D01*
X126359376Y-96291143D01*
X126364076Y-96295419D01*
X126363364Y-96296202D01*
X126402993Y-96346488D01*
X126409813Y-96417156D01*
X126377345Y-96480294D01*
X126368895Y-96488386D01*
X126256039Y-96586838D01*
X126251672Y-96593051D01*
X126251667Y-96593057D01*
X126250336Y-96594951D01*
X126249013Y-96596005D01*
X126246589Y-96598697D01*
X126246140Y-96598293D01*
X126194802Y-96639183D01*
X126147250Y-96648500D01*
X110953384Y-96648500D01*
X110885263Y-96628498D01*
X110864289Y-96611595D01*
X109774281Y-95521587D01*
X109740255Y-95459275D01*
X109744063Y-95391991D01*
X109752795Y-95366269D01*
X109769539Y-95316941D01*
X109788728Y-95260413D01*
X109788728Y-95260412D01*
X109790584Y-95254945D01*
X109791412Y-95249236D01*
X109791413Y-95249231D01*
X109813982Y-95093571D01*
X109816143Y-95078669D01*
X115084889Y-95078669D01*
X115085259Y-95085490D01*
X115090783Y-95136352D01*
X115094409Y-95151604D01*
X115139564Y-95272054D01*
X115148102Y-95287649D01*
X115224603Y-95389724D01*
X115237164Y-95402285D01*
X115339239Y-95478786D01*
X115354834Y-95487324D01*
X115475282Y-95532478D01*
X115490537Y-95536105D01*
X115541402Y-95541631D01*
X115548216Y-95542000D01*
X116120773Y-95542000D01*
X116136012Y-95537525D01*
X116137217Y-95536135D01*
X116138888Y-95528452D01*
X116138888Y-95523884D01*
X116646888Y-95523884D01*
X116651363Y-95539123D01*
X116652753Y-95540328D01*
X116660436Y-95541999D01*
X117237557Y-95541999D01*
X117244378Y-95541629D01*
X117295240Y-95536105D01*
X117310492Y-95532479D01*
X117430942Y-95487324D01*
X117446537Y-95478786D01*
X117548612Y-95402285D01*
X117561173Y-95389724D01*
X117637674Y-95287649D01*
X117646212Y-95272054D01*
X117671393Y-95204884D01*
X117714035Y-95148120D01*
X117780596Y-95123420D01*
X117850846Y-95139126D01*
X117866939Y-95148120D01*
X117968677Y-95204980D01*
X118165354Y-95268884D01*
X118370697Y-95293370D01*
X118376832Y-95292898D01*
X118376834Y-95292898D01*
X118570744Y-95277977D01*
X118570748Y-95277976D01*
X118576886Y-95277504D01*
X118776066Y-95221892D01*
X118781570Y-95219112D01*
X118781572Y-95219111D01*
X118955150Y-95131431D01*
X118955152Y-95131430D01*
X118960651Y-95128652D01*
X119123610Y-95001334D01*
X119127636Y-94996670D01*
X119127639Y-94996667D01*
X119254707Y-94849457D01*
X119254708Y-94849455D01*
X119258736Y-94844789D01*
X119335088Y-94710386D01*
X119357838Y-94670340D01*
X119357840Y-94670336D01*
X119360883Y-94664979D01*
X119393676Y-94566399D01*
X119424213Y-94474601D01*
X119424214Y-94474598D01*
X119426158Y-94468753D01*
X119452077Y-94263586D01*
X119452490Y-94234000D01*
X119432310Y-94028189D01*
X119372539Y-93830217D01*
X119275453Y-93647625D01*
X119271562Y-93642855D01*
X119271560Y-93642851D01*
X119148646Y-93492143D01*
X119148643Y-93492140D01*
X119144751Y-93487368D01*
X119140002Y-93483439D01*
X118990159Y-93359478D01*
X118990154Y-93359475D01*
X118985410Y-93355550D01*
X118979991Y-93352620D01*
X118979988Y-93352618D01*
X118808920Y-93260122D01*
X118808915Y-93260120D01*
X118803500Y-93257192D01*
X118605951Y-93196040D01*
X118599826Y-93195396D01*
X118599825Y-93195396D01*
X118406414Y-93175068D01*
X118406412Y-93175068D01*
X118400285Y-93174424D01*
X118294081Y-93184089D01*
X118200479Y-93192607D01*
X118200478Y-93192607D01*
X118194338Y-93193166D01*
X117995954Y-93251554D01*
X117990495Y-93254408D01*
X117990485Y-93254412D01*
X117847276Y-93329281D01*
X117777640Y-93343116D01*
X117711579Y-93317106D01*
X117670918Y-93261849D01*
X117646213Y-93195948D01*
X117637674Y-93180351D01*
X117561173Y-93078276D01*
X117548612Y-93065715D01*
X117446537Y-92989214D01*
X117430942Y-92980676D01*
X117310494Y-92935522D01*
X117295239Y-92931895D01*
X117244374Y-92926369D01*
X117237560Y-92926000D01*
X116665003Y-92926000D01*
X116649764Y-92930475D01*
X116648559Y-92931865D01*
X116646888Y-92939548D01*
X116646888Y-95523884D01*
X116138888Y-95523884D01*
X116138888Y-94506115D01*
X116134413Y-94490876D01*
X116133023Y-94489671D01*
X116125340Y-94488000D01*
X115103004Y-94488000D01*
X115087765Y-94492475D01*
X115086560Y-94493865D01*
X115084889Y-94501548D01*
X115084889Y-95078669D01*
X109816143Y-95078669D01*
X109819712Y-95054053D01*
X109821232Y-94996000D01*
X109805507Y-94824860D01*
X109803187Y-94799613D01*
X109803186Y-94799610D01*
X109802658Y-94793859D01*
X109801090Y-94788299D01*
X109749125Y-94604046D01*
X109749124Y-94604044D01*
X109747557Y-94598487D01*
X109744856Y-94593008D01*
X109660331Y-94421609D01*
X109657776Y-94416428D01*
X109536320Y-94253779D01*
X109387258Y-94115987D01*
X109382375Y-94112906D01*
X109382371Y-94112903D01*
X109220464Y-94010748D01*
X109215581Y-94007667D01*
X109100828Y-93961885D01*
X115084888Y-93961885D01*
X115089363Y-93977124D01*
X115090753Y-93978329D01*
X115098436Y-93980000D01*
X116120773Y-93980000D01*
X116136012Y-93975525D01*
X116137217Y-93974135D01*
X116138888Y-93966452D01*
X116138888Y-92944116D01*
X116134413Y-92928877D01*
X116133023Y-92927672D01*
X116125340Y-92926001D01*
X115548219Y-92926001D01*
X115541398Y-92926371D01*
X115490536Y-92931895D01*
X115475284Y-92935521D01*
X115354834Y-92980676D01*
X115339239Y-92989214D01*
X115237164Y-93065715D01*
X115224603Y-93078276D01*
X115148102Y-93180351D01*
X115139564Y-93195946D01*
X115094410Y-93316394D01*
X115090783Y-93331649D01*
X115085257Y-93382514D01*
X115084888Y-93389328D01*
X115084888Y-93961885D01*
X109100828Y-93961885D01*
X109027039Y-93932446D01*
X109021379Y-93931320D01*
X109021375Y-93931319D01*
X108833613Y-93893971D01*
X108833610Y-93893971D01*
X108827946Y-93892844D01*
X108822171Y-93892768D01*
X108822167Y-93892768D01*
X108720793Y-93891441D01*
X108624971Y-93890187D01*
X108619274Y-93891166D01*
X108619273Y-93891166D01*
X108430607Y-93923585D01*
X108424910Y-93924564D01*
X108234463Y-93994824D01*
X108060010Y-94098612D01*
X108055670Y-94102418D01*
X108055666Y-94102421D01*
X107911733Y-94228648D01*
X107907392Y-94232455D01*
X107781720Y-94391869D01*
X107779031Y-94396980D01*
X107779029Y-94396983D01*
X107744696Y-94462239D01*
X107687203Y-94571515D01*
X107627007Y-94765378D01*
X107603148Y-94966964D01*
X107616424Y-95169522D01*
X107617845Y-95175118D01*
X107617846Y-95175123D01*
X107664971Y-95360674D01*
X107666392Y-95366269D01*
X107668809Y-95371512D01*
X107747405Y-95542000D01*
X107751377Y-95550616D01*
X107754710Y-95555332D01*
X107854314Y-95696269D01*
X107868533Y-95716389D01*
X108013938Y-95858035D01*
X108018742Y-95861245D01*
X108068809Y-95894699D01*
X108182720Y-95970812D01*
X108188023Y-95973090D01*
X108188026Y-95973092D01*
X108362324Y-96047976D01*
X108369228Y-96050942D01*
X108425270Y-96063623D01*
X108561579Y-96094467D01*
X108561584Y-96094468D01*
X108567216Y-96095742D01*
X108572987Y-96095969D01*
X108572989Y-96095969D01*
X108632756Y-96098317D01*
X108770053Y-96103712D01*
X108870499Y-96089148D01*
X108965231Y-96075413D01*
X108965236Y-96075412D01*
X108970945Y-96074584D01*
X109107991Y-96028063D01*
X109178926Y-96025107D01*
X109237587Y-96058281D01*
X110437522Y-97258216D01*
X110452664Y-97276964D01*
X110453779Y-97278189D01*
X110459429Y-97286940D01*
X110467607Y-97293387D01*
X110467609Y-97293389D01*
X110485800Y-97307729D01*
X110490241Y-97311675D01*
X110490303Y-97311602D01*
X110494267Y-97314961D01*
X110497944Y-97318638D01*
X110513692Y-97329892D01*
X110518362Y-97333398D01*
X110558647Y-97365156D01*
X110567281Y-97368188D01*
X110574734Y-97373514D01*
X110623850Y-97388203D01*
X110629492Y-97390036D01*
X110670367Y-97404390D01*
X110677851Y-97407018D01*
X110683416Y-97407500D01*
X110686124Y-97407500D01*
X110688758Y-97407614D01*
X110688856Y-97407643D01*
X110688849Y-97407807D01*
X110689553Y-97407851D01*
X110695778Y-97409713D01*
X110749635Y-97407597D01*
X110754582Y-97407500D01*
X126146141Y-97407500D01*
X126214262Y-97427502D01*
X126241522Y-97451169D01*
X126242672Y-97452501D01*
X126246908Y-97458805D01*
X126359374Y-97561141D01*
X126359376Y-97561143D01*
X126364076Y-97565419D01*
X126363364Y-97566202D01*
X126402993Y-97616488D01*
X126409813Y-97687156D01*
X126377345Y-97750294D01*
X126368895Y-97758386D01*
X126256039Y-97856838D01*
X126251672Y-97863051D01*
X126251667Y-97863057D01*
X126250336Y-97864951D01*
X126249013Y-97866005D01*
X126246589Y-97868697D01*
X126246140Y-97868293D01*
X126194802Y-97909183D01*
X126147250Y-97918500D01*
X109834792Y-97918500D01*
X109766671Y-97898498D01*
X109721786Y-97848228D01*
X109660331Y-97723609D01*
X109657776Y-97718428D01*
X109536320Y-97555779D01*
X109387258Y-97417987D01*
X109382375Y-97414906D01*
X109382371Y-97414903D01*
X109220464Y-97312748D01*
X109215581Y-97309667D01*
X109027039Y-97234446D01*
X109021379Y-97233320D01*
X109021375Y-97233319D01*
X108833613Y-97195971D01*
X108833610Y-97195971D01*
X108827946Y-97194844D01*
X108822171Y-97194768D01*
X108822167Y-97194768D01*
X108720793Y-97193441D01*
X108624971Y-97192187D01*
X108619274Y-97193166D01*
X108619273Y-97193166D01*
X108454869Y-97221416D01*
X108424910Y-97226564D01*
X108234463Y-97296824D01*
X108060010Y-97400612D01*
X108055670Y-97404418D01*
X108055666Y-97404421D01*
X107970393Y-97479204D01*
X107907392Y-97534455D01*
X107781720Y-97693869D01*
X107779031Y-97698980D01*
X107779029Y-97698983D01*
X107747776Y-97758386D01*
X107687203Y-97873515D01*
X107627007Y-98067378D01*
X107603148Y-98268964D01*
X107616424Y-98471522D01*
X107617845Y-98477118D01*
X107617846Y-98477123D01*
X107639181Y-98561128D01*
X107666392Y-98668269D01*
X107668809Y-98673512D01*
X107709132Y-98760980D01*
X107751377Y-98852616D01*
X107754710Y-98857332D01*
X107841605Y-98980286D01*
X107868533Y-99018389D01*
X107872675Y-99022424D01*
X107876973Y-99026611D01*
X108013938Y-99160035D01*
X108018742Y-99163245D01*
X108069718Y-99197306D01*
X108182720Y-99272812D01*
X108188023Y-99275090D01*
X108188026Y-99275092D01*
X108276707Y-99313192D01*
X108369228Y-99352942D01*
X108442244Y-99369464D01*
X108561579Y-99396467D01*
X108561584Y-99396468D01*
X108567216Y-99397742D01*
X108572987Y-99397969D01*
X108572989Y-99397969D01*
X108632756Y-99400317D01*
X108770053Y-99405712D01*
X108870499Y-99391148D01*
X108965231Y-99377413D01*
X108965236Y-99377412D01*
X108970945Y-99376584D01*
X108976409Y-99374729D01*
X108976414Y-99374728D01*
X109157693Y-99313192D01*
X109157698Y-99313190D01*
X109163165Y-99311334D01*
X109170633Y-99307152D01*
X109254253Y-99260322D01*
X109340276Y-99212147D01*
X109350077Y-99203996D01*
X109491913Y-99086031D01*
X109496345Y-99082345D01*
X109520172Y-99053696D01*
X109622453Y-98930718D01*
X109622455Y-98930715D01*
X109626147Y-98926276D01*
X109725334Y-98749165D01*
X109725787Y-98749419D01*
X109769368Y-98698151D01*
X109838488Y-98677500D01*
X126146141Y-98677500D01*
X126214262Y-98697502D01*
X126241522Y-98721169D01*
X126242672Y-98722501D01*
X126246908Y-98728805D01*
X126359374Y-98831141D01*
X126359376Y-98831143D01*
X126364076Y-98835419D01*
X126363364Y-98836202D01*
X126402993Y-98886488D01*
X126409813Y-98957156D01*
X126377345Y-99020294D01*
X126368895Y-99028386D01*
X126256039Y-99126838D01*
X126251672Y-99133051D01*
X126251667Y-99133057D01*
X126250336Y-99134951D01*
X126249013Y-99136005D01*
X126246589Y-99138697D01*
X126246140Y-99138293D01*
X126194802Y-99179183D01*
X126147250Y-99188500D01*
X110797920Y-99188500D01*
X110773972Y-99185951D01*
X110772307Y-99185872D01*
X110762124Y-99183680D01*
X110751783Y-99184904D01*
X110728777Y-99187627D01*
X110722846Y-99187977D01*
X110722854Y-99188072D01*
X110717676Y-99188500D01*
X110712476Y-99188500D01*
X110707347Y-99189354D01*
X110707344Y-99189354D01*
X110693435Y-99191669D01*
X110687557Y-99192506D01*
X110646999Y-99197306D01*
X110646998Y-99197306D01*
X110636659Y-99198530D01*
X110628407Y-99202493D01*
X110619374Y-99203996D01*
X110610205Y-99208943D01*
X110610203Y-99208944D01*
X110574268Y-99228334D01*
X110568975Y-99231031D01*
X110529918Y-99249785D01*
X110529914Y-99249788D01*
X110522768Y-99253219D01*
X110518492Y-99256814D01*
X110516569Y-99258737D01*
X110514637Y-99260509D01*
X110514558Y-99260552D01*
X110514445Y-99260428D01*
X110513905Y-99260904D01*
X110508186Y-99263990D01*
X110501119Y-99271635D01*
X110471584Y-99303586D01*
X110468154Y-99307152D01*
X109237144Y-100538162D01*
X109174832Y-100572188D01*
X109101360Y-100566097D01*
X109027039Y-100536446D01*
X109021379Y-100535320D01*
X109021375Y-100535319D01*
X108833613Y-100497971D01*
X108833610Y-100497971D01*
X108827946Y-100496844D01*
X108822171Y-100496768D01*
X108822167Y-100496768D01*
X108720793Y-100495441D01*
X108624971Y-100494187D01*
X108619274Y-100495166D01*
X108619273Y-100495166D01*
X108432830Y-100527203D01*
X108424910Y-100528564D01*
X108234463Y-100598824D01*
X108060010Y-100702612D01*
X108055670Y-100706418D01*
X108055666Y-100706421D01*
X107993455Y-100760979D01*
X107907392Y-100836455D01*
X107781720Y-100995869D01*
X107779031Y-101000980D01*
X107779029Y-101000983D01*
X107767507Y-101022883D01*
X107687203Y-101175515D01*
X107627007Y-101369378D01*
X107603148Y-101570964D01*
X107278564Y-101570964D01*
X107262658Y-101397859D01*
X107260058Y-101388641D01*
X107209125Y-101208046D01*
X107209124Y-101208044D01*
X107207557Y-101202487D01*
X107204407Y-101196098D01*
X107120331Y-101025609D01*
X107117776Y-101020428D01*
X106996320Y-100857779D01*
X106847258Y-100719987D01*
X106842375Y-100716906D01*
X106842371Y-100716903D01*
X106680464Y-100614748D01*
X106675581Y-100611667D01*
X106487039Y-100536446D01*
X106481379Y-100535320D01*
X106481375Y-100535319D01*
X106293613Y-100497971D01*
X106293610Y-100497971D01*
X106287946Y-100496844D01*
X106282171Y-100496768D01*
X106282167Y-100496768D01*
X106180793Y-100495441D01*
X106084971Y-100494187D01*
X106079274Y-100495166D01*
X106079273Y-100495166D01*
X105892830Y-100527203D01*
X105884910Y-100528564D01*
X105694463Y-100598824D01*
X105520010Y-100702612D01*
X105515670Y-100706418D01*
X105515666Y-100706421D01*
X105453455Y-100760979D01*
X105367392Y-100836455D01*
X105241720Y-100995869D01*
X105239031Y-101000980D01*
X105239029Y-101000983D01*
X105227507Y-101022883D01*
X105178087Y-101073856D01*
X105108955Y-101090018D01*
X105042059Y-101066239D01*
X104998638Y-101010068D01*
X104989999Y-100964215D01*
X104989999Y-100705331D01*
X104989629Y-100698510D01*
X104984105Y-100647648D01*
X104980479Y-100632396D01*
X104935324Y-100511946D01*
X104926786Y-100496351D01*
X104850285Y-100394276D01*
X104837724Y-100381715D01*
X104735649Y-100305214D01*
X104720054Y-100296676D01*
X104599606Y-100251522D01*
X104584351Y-100247895D01*
X104533486Y-100242369D01*
X104526672Y-100242000D01*
X103904115Y-100242000D01*
X103888876Y-100246475D01*
X103887671Y-100247865D01*
X103886000Y-100255548D01*
X103886000Y-102939884D01*
X103378000Y-102939884D01*
X103378000Y-100260116D01*
X103373525Y-100244877D01*
X103372135Y-100243672D01*
X103364452Y-100242001D01*
X102737331Y-100242001D01*
X102730510Y-100242371D01*
X102679648Y-100247895D01*
X102664396Y-100251521D01*
X102543946Y-100296676D01*
X102528351Y-100305214D01*
X102426276Y-100381715D01*
X102413719Y-100394272D01*
X102335327Y-100498871D01*
X102278467Y-100541386D01*
X102207649Y-100546412D01*
X102145355Y-100512352D01*
X102111365Y-100450021D01*
X102108500Y-100423306D01*
X102108500Y-99474694D01*
X102128502Y-99406573D01*
X102182158Y-99360080D01*
X102252432Y-99349976D01*
X102317012Y-99379470D01*
X102335327Y-99399129D01*
X102413719Y-99503728D01*
X102426276Y-99516285D01*
X102528351Y-99592786D01*
X102543946Y-99601324D01*
X102664394Y-99646478D01*
X102679649Y-99650105D01*
X102730514Y-99655631D01*
X102737328Y-99656000D01*
X103359885Y-99656000D01*
X103375124Y-99651525D01*
X103376329Y-99650135D01*
X103378000Y-99642452D01*
X103378000Y-99637884D01*
X103886000Y-99637884D01*
X103890475Y-99653123D01*
X103891865Y-99654328D01*
X103899548Y-99655999D01*
X104526669Y-99655999D01*
X104533490Y-99655629D01*
X104584352Y-99650105D01*
X104599604Y-99646479D01*
X104720054Y-99601324D01*
X104735649Y-99592786D01*
X104837724Y-99516285D01*
X104850285Y-99503724D01*
X104926786Y-99401649D01*
X104935324Y-99386054D01*
X104980478Y-99265606D01*
X104984105Y-99250351D01*
X104989631Y-99199486D01*
X104990000Y-99192672D01*
X104990000Y-98935976D01*
X105010002Y-98867855D01*
X105063658Y-98821362D01*
X105133932Y-98811258D01*
X105198512Y-98840752D01*
X105218895Y-98863254D01*
X105328533Y-99018389D01*
X105332675Y-99022424D01*
X105336973Y-99026611D01*
X105473938Y-99160035D01*
X105478742Y-99163245D01*
X105529718Y-99197306D01*
X105642720Y-99272812D01*
X105648023Y-99275090D01*
X105648026Y-99275092D01*
X105736707Y-99313192D01*
X105829228Y-99352942D01*
X105902244Y-99369464D01*
X106021579Y-99396467D01*
X106021584Y-99396468D01*
X106027216Y-99397742D01*
X106032987Y-99397969D01*
X106032989Y-99397969D01*
X106092756Y-99400317D01*
X106230053Y-99405712D01*
X106330499Y-99391148D01*
X106425231Y-99377413D01*
X106425236Y-99377412D01*
X106430945Y-99376584D01*
X106436409Y-99374729D01*
X106436414Y-99374728D01*
X106617693Y-99313192D01*
X106617698Y-99313190D01*
X106623165Y-99311334D01*
X106630633Y-99307152D01*
X106714253Y-99260322D01*
X106800276Y-99212147D01*
X106810077Y-99203996D01*
X106951913Y-99086031D01*
X106956345Y-99082345D01*
X106980172Y-99053696D01*
X107082453Y-98930718D01*
X107082455Y-98930715D01*
X107086147Y-98926276D01*
X107185334Y-98749165D01*
X107187190Y-98743698D01*
X107187192Y-98743693D01*
X107248728Y-98562414D01*
X107248729Y-98562409D01*
X107250584Y-98556945D01*
X107251412Y-98551236D01*
X107251413Y-98551231D01*
X107272549Y-98405457D01*
X107279712Y-98356053D01*
X107281232Y-98298000D01*
X107262658Y-98095859D01*
X107261090Y-98090299D01*
X107209125Y-97906046D01*
X107209124Y-97906044D01*
X107207557Y-97900487D01*
X107196978Y-97879033D01*
X107120331Y-97723609D01*
X107117776Y-97718428D01*
X106996320Y-97555779D01*
X106847258Y-97417987D01*
X106842375Y-97414906D01*
X106842371Y-97414903D01*
X106680464Y-97312748D01*
X106675581Y-97309667D01*
X106487039Y-97234446D01*
X106481379Y-97233320D01*
X106481375Y-97233319D01*
X106293613Y-97195971D01*
X106293610Y-97195971D01*
X106287946Y-97194844D01*
X106282171Y-97194768D01*
X106282167Y-97194768D01*
X106180793Y-97193441D01*
X106084971Y-97192187D01*
X106079274Y-97193166D01*
X106079273Y-97193166D01*
X105914869Y-97221416D01*
X105884910Y-97226564D01*
X105694463Y-97296824D01*
X105520010Y-97400612D01*
X105515670Y-97404418D01*
X105515666Y-97404421D01*
X105430393Y-97479204D01*
X105367392Y-97534455D01*
X105241720Y-97693869D01*
X105239031Y-97698980D01*
X105239029Y-97698983D01*
X105227507Y-97720883D01*
X105178087Y-97771856D01*
X105108955Y-97788018D01*
X105042059Y-97764239D01*
X104998638Y-97708068D01*
X104989999Y-97662215D01*
X104989999Y-97403331D01*
X104989629Y-97396510D01*
X104984105Y-97345648D01*
X104980479Y-97330396D01*
X104935324Y-97209946D01*
X104926786Y-97194351D01*
X104850285Y-97092276D01*
X104837724Y-97079715D01*
X104735649Y-97003214D01*
X104720054Y-96994676D01*
X104599606Y-96949522D01*
X104584351Y-96945895D01*
X104533486Y-96940369D01*
X104526672Y-96940000D01*
X103904115Y-96940000D01*
X103888876Y-96944475D01*
X103887671Y-96945865D01*
X103886000Y-96953548D01*
X103886000Y-99637884D01*
X103378000Y-99637884D01*
X103378000Y-96958116D01*
X103373525Y-96942877D01*
X103372135Y-96941672D01*
X103364452Y-96940001D01*
X102737331Y-96940001D01*
X102730510Y-96940371D01*
X102679648Y-96945895D01*
X102664396Y-96949521D01*
X102543946Y-96994676D01*
X102528351Y-97003214D01*
X102426276Y-97079715D01*
X102413719Y-97092272D01*
X102335327Y-97196871D01*
X102278467Y-97239386D01*
X102207649Y-97244412D01*
X102145355Y-97210352D01*
X102111365Y-97148021D01*
X102108500Y-97121306D01*
X102108500Y-96172694D01*
X102128502Y-96104573D01*
X102182158Y-96058080D01*
X102252432Y-96047976D01*
X102317012Y-96077470D01*
X102335327Y-96097129D01*
X102413719Y-96201728D01*
X102426276Y-96214285D01*
X102528351Y-96290786D01*
X102543946Y-96299324D01*
X102664394Y-96344478D01*
X102679649Y-96348105D01*
X102730514Y-96353631D01*
X102737328Y-96354000D01*
X103359885Y-96354000D01*
X103375124Y-96349525D01*
X103376329Y-96348135D01*
X103378000Y-96340452D01*
X103378000Y-96335884D01*
X103886000Y-96335884D01*
X103890475Y-96351123D01*
X103891865Y-96352328D01*
X103899548Y-96353999D01*
X104526669Y-96353999D01*
X104533490Y-96353629D01*
X104584352Y-96348105D01*
X104599604Y-96344479D01*
X104720054Y-96299324D01*
X104735649Y-96290786D01*
X104837724Y-96214285D01*
X104850285Y-96201724D01*
X104926786Y-96099649D01*
X104935324Y-96084054D01*
X104980478Y-95963606D01*
X104984105Y-95948351D01*
X104989631Y-95897486D01*
X104990000Y-95890672D01*
X104990000Y-95633976D01*
X105010002Y-95565855D01*
X105063658Y-95519362D01*
X105133932Y-95509258D01*
X105198512Y-95538752D01*
X105218895Y-95561254D01*
X105264295Y-95625494D01*
X105314314Y-95696269D01*
X105328533Y-95716389D01*
X105473938Y-95858035D01*
X105478742Y-95861245D01*
X105528809Y-95894699D01*
X105642720Y-95970812D01*
X105648023Y-95973090D01*
X105648026Y-95973092D01*
X105822324Y-96047976D01*
X105829228Y-96050942D01*
X105885270Y-96063623D01*
X106021579Y-96094467D01*
X106021584Y-96094468D01*
X106027216Y-96095742D01*
X106032987Y-96095969D01*
X106032989Y-96095969D01*
X106092756Y-96098317D01*
X106230053Y-96103712D01*
X106330499Y-96089148D01*
X106425231Y-96075413D01*
X106425236Y-96075412D01*
X106430945Y-96074584D01*
X106436409Y-96072729D01*
X106436414Y-96072728D01*
X106617693Y-96011192D01*
X106617698Y-96011190D01*
X106623165Y-96009334D01*
X106800276Y-95910147D01*
X106807669Y-95903999D01*
X106951913Y-95784031D01*
X106956345Y-95780345D01*
X107014447Y-95710485D01*
X107082453Y-95628718D01*
X107082455Y-95628715D01*
X107086147Y-95624276D01*
X107162844Y-95487324D01*
X107182510Y-95452208D01*
X107182511Y-95452206D01*
X107185334Y-95447165D01*
X107187190Y-95441698D01*
X107187192Y-95441693D01*
X107248728Y-95260414D01*
X107248729Y-95260409D01*
X107250584Y-95254945D01*
X107251412Y-95249236D01*
X107251413Y-95249231D01*
X107273982Y-95093571D01*
X107279712Y-95054053D01*
X107281232Y-94996000D01*
X107265507Y-94824860D01*
X107263187Y-94799613D01*
X107263186Y-94799610D01*
X107262658Y-94793859D01*
X107261090Y-94788299D01*
X107209125Y-94604046D01*
X107209124Y-94604044D01*
X107207557Y-94598487D01*
X107204856Y-94593008D01*
X107120331Y-94421609D01*
X107117776Y-94416428D01*
X106996320Y-94253779D01*
X106847258Y-94115987D01*
X106842375Y-94112906D01*
X106842371Y-94112903D01*
X106680464Y-94010748D01*
X106675581Y-94007667D01*
X106487039Y-93932446D01*
X106481379Y-93931320D01*
X106481375Y-93931319D01*
X106293613Y-93893971D01*
X106293610Y-93893971D01*
X106287946Y-93892844D01*
X106282171Y-93892768D01*
X106282167Y-93892768D01*
X106180793Y-93891441D01*
X106084971Y-93890187D01*
X106079274Y-93891166D01*
X106079273Y-93891166D01*
X105890607Y-93923585D01*
X105884910Y-93924564D01*
X105694463Y-93994824D01*
X105520010Y-94098612D01*
X105515670Y-94102418D01*
X105515666Y-94102421D01*
X105371733Y-94228648D01*
X105367392Y-94232455D01*
X105241720Y-94391869D01*
X105239031Y-94396980D01*
X105239029Y-94396983D01*
X105227507Y-94418883D01*
X105178087Y-94469856D01*
X105108955Y-94486018D01*
X105042059Y-94462239D01*
X104998638Y-94406068D01*
X104989999Y-94360215D01*
X104989999Y-94101331D01*
X104989629Y-94094510D01*
X104984105Y-94043648D01*
X104980479Y-94028396D01*
X104935324Y-93907946D01*
X104926786Y-93892351D01*
X104850285Y-93790276D01*
X104837724Y-93777715D01*
X104735649Y-93701214D01*
X104720054Y-93692676D01*
X104599606Y-93647522D01*
X104584351Y-93643895D01*
X104533486Y-93638369D01*
X104526672Y-93638000D01*
X103904115Y-93638000D01*
X103888876Y-93642475D01*
X103887671Y-93643865D01*
X103886000Y-93651548D01*
X103886000Y-96335884D01*
X103378000Y-96335884D01*
X103378000Y-93656116D01*
X103373525Y-93640877D01*
X103372135Y-93639672D01*
X103364452Y-93638001D01*
X102737331Y-93638001D01*
X102730510Y-93638371D01*
X102679648Y-93643895D01*
X102664396Y-93647521D01*
X102543946Y-93692676D01*
X102528351Y-93701214D01*
X102426276Y-93777715D01*
X102413719Y-93790272D01*
X102335327Y-93894871D01*
X102278467Y-93937386D01*
X102207649Y-93942412D01*
X102145355Y-93908352D01*
X102111365Y-93846021D01*
X102108500Y-93819306D01*
X102108500Y-92870694D01*
X102128502Y-92802573D01*
X102182158Y-92756080D01*
X102252432Y-92745976D01*
X102317012Y-92775470D01*
X102335327Y-92795129D01*
X102413719Y-92899728D01*
X102426276Y-92912285D01*
X102528351Y-92988786D01*
X102543946Y-92997324D01*
X102664394Y-93042478D01*
X102679649Y-93046105D01*
X102730514Y-93051631D01*
X102737328Y-93052000D01*
X103359885Y-93052000D01*
X103375124Y-93047525D01*
X103376329Y-93046135D01*
X103378000Y-93038452D01*
X103378000Y-93033884D01*
X103886000Y-93033884D01*
X103890475Y-93049123D01*
X103891865Y-93050328D01*
X103899548Y-93051999D01*
X104526669Y-93051999D01*
X104533490Y-93051629D01*
X104584352Y-93046105D01*
X104599604Y-93042479D01*
X104720054Y-92997324D01*
X104735649Y-92988786D01*
X104837724Y-92912285D01*
X104850285Y-92899724D01*
X104926786Y-92797649D01*
X104935324Y-92782054D01*
X104980478Y-92661606D01*
X104984105Y-92646351D01*
X104989631Y-92595486D01*
X104990000Y-92588672D01*
X104990000Y-92331976D01*
X105010002Y-92263855D01*
X105063658Y-92217362D01*
X105133932Y-92207258D01*
X105198512Y-92236752D01*
X105218895Y-92259254D01*
X105328533Y-92414389D01*
X105473938Y-92556035D01*
X105478742Y-92559245D01*
X105532980Y-92595486D01*
X105642720Y-92668812D01*
X105648023Y-92671090D01*
X105648026Y-92671092D01*
X105822324Y-92745976D01*
X105829228Y-92748942D01*
X105902244Y-92765464D01*
X106021579Y-92792467D01*
X106021584Y-92792468D01*
X106027216Y-92793742D01*
X106032987Y-92793969D01*
X106032989Y-92793969D01*
X106092756Y-92796317D01*
X106230053Y-92801712D01*
X106330499Y-92787148D01*
X106425231Y-92773413D01*
X106425236Y-92773412D01*
X106430945Y-92772584D01*
X106436409Y-92770729D01*
X106436414Y-92770728D01*
X106617693Y-92709192D01*
X106617698Y-92709190D01*
X106623165Y-92707334D01*
X106630733Y-92703096D01*
X106732058Y-92646351D01*
X106800276Y-92608147D01*
X106809310Y-92600634D01*
X106951913Y-92482031D01*
X106956345Y-92478345D01*
X107016910Y-92405524D01*
X107082453Y-92326718D01*
X107082455Y-92326715D01*
X107086147Y-92322276D01*
X107174394Y-92164700D01*
X107182510Y-92150208D01*
X107182513Y-92150202D01*
X107185334Y-92145165D01*
X107187190Y-92139698D01*
X107187192Y-92139693D01*
X107248728Y-91958414D01*
X107248729Y-91958409D01*
X107250584Y-91952945D01*
X107251412Y-91947236D01*
X107251413Y-91947231D01*
X107279179Y-91755727D01*
X107279712Y-91752053D01*
X107281232Y-91694000D01*
X107262658Y-91491859D01*
X107261090Y-91486299D01*
X107209125Y-91302046D01*
X107209124Y-91302044D01*
X107207557Y-91296487D01*
X107203305Y-91287863D01*
X107120331Y-91119609D01*
X107117776Y-91114428D01*
X106996320Y-90951779D01*
X106847258Y-90813987D01*
X106842375Y-90810906D01*
X106842371Y-90810903D01*
X106680464Y-90708748D01*
X106675581Y-90705667D01*
X106487039Y-90630446D01*
X106481379Y-90629320D01*
X106481375Y-90629319D01*
X106293613Y-90591971D01*
X106293610Y-90591971D01*
X106287946Y-90590844D01*
X106282171Y-90590768D01*
X106282167Y-90590768D01*
X106180793Y-90589441D01*
X106084971Y-90588187D01*
X106079274Y-90589166D01*
X106079273Y-90589166D01*
X105933300Y-90614249D01*
X105884910Y-90622564D01*
X105694463Y-90692824D01*
X105520010Y-90796612D01*
X105515670Y-90800418D01*
X105515666Y-90800421D01*
X105371733Y-90926648D01*
X105367392Y-90930455D01*
X105241720Y-91089869D01*
X105239031Y-91094980D01*
X105239029Y-91094983D01*
X105227507Y-91116883D01*
X105178087Y-91167856D01*
X105108955Y-91184018D01*
X105042059Y-91160239D01*
X104998638Y-91104068D01*
X104989999Y-91058215D01*
X104989999Y-90799331D01*
X104989629Y-90792510D01*
X104984105Y-90741648D01*
X104980479Y-90726396D01*
X104935324Y-90605946D01*
X104926786Y-90590351D01*
X104850285Y-90488276D01*
X104837724Y-90475715D01*
X104735649Y-90399214D01*
X104720054Y-90390676D01*
X104599606Y-90345522D01*
X104584351Y-90341895D01*
X104533486Y-90336369D01*
X104526672Y-90336000D01*
X103904115Y-90336000D01*
X103888876Y-90340475D01*
X103887671Y-90341865D01*
X103886000Y-90349548D01*
X103886000Y-93033884D01*
X103378000Y-93033884D01*
X103378000Y-90354116D01*
X103373525Y-90338877D01*
X103372135Y-90337672D01*
X103364452Y-90336001D01*
X102737331Y-90336001D01*
X102730510Y-90336371D01*
X102679648Y-90341895D01*
X102664396Y-90345521D01*
X102543946Y-90390676D01*
X102528351Y-90399214D01*
X102426276Y-90475715D01*
X102413719Y-90488272D01*
X102335327Y-90592871D01*
X102278467Y-90635386D01*
X102207649Y-90640412D01*
X102145355Y-90606352D01*
X102111365Y-90544021D01*
X102108500Y-90517306D01*
X102108500Y-89568694D01*
X102128502Y-89500573D01*
X102182158Y-89454080D01*
X102252432Y-89443976D01*
X102317012Y-89473470D01*
X102335327Y-89493129D01*
X102413719Y-89597728D01*
X102426276Y-89610285D01*
X102528351Y-89686786D01*
X102543946Y-89695324D01*
X102664394Y-89740478D01*
X102679649Y-89744105D01*
X102730514Y-89749631D01*
X102737328Y-89750000D01*
X103359885Y-89750000D01*
X103375124Y-89745525D01*
X103376329Y-89744135D01*
X103378000Y-89736452D01*
X103378000Y-89731884D01*
X103886000Y-89731884D01*
X103890475Y-89747123D01*
X103891865Y-89748328D01*
X103899548Y-89749999D01*
X104526669Y-89749999D01*
X104533490Y-89749629D01*
X104584352Y-89744105D01*
X104599604Y-89740479D01*
X104720054Y-89695324D01*
X104735649Y-89686786D01*
X104837724Y-89610285D01*
X104850285Y-89597724D01*
X104926786Y-89495649D01*
X104935324Y-89480054D01*
X104980478Y-89359606D01*
X104984105Y-89344351D01*
X104989631Y-89293486D01*
X104990000Y-89286672D01*
X104990000Y-89029976D01*
X105010002Y-88961855D01*
X105063658Y-88915362D01*
X105133932Y-88905258D01*
X105198512Y-88934752D01*
X105218895Y-88957254D01*
X105266574Y-89024718D01*
X105321577Y-89102546D01*
X105328533Y-89112389D01*
X105473938Y-89254035D01*
X105478742Y-89257245D01*
X105532980Y-89293486D01*
X105642720Y-89366812D01*
X105648023Y-89369090D01*
X105648026Y-89369092D01*
X105822324Y-89443976D01*
X105829228Y-89446942D01*
X105900442Y-89463056D01*
X106021579Y-89490467D01*
X106021584Y-89490468D01*
X106027216Y-89491742D01*
X106032987Y-89491969D01*
X106032989Y-89491969D01*
X106092756Y-89494317D01*
X106230053Y-89499712D01*
X106330499Y-89485148D01*
X106425231Y-89471413D01*
X106425236Y-89471412D01*
X106430945Y-89470584D01*
X106436409Y-89468729D01*
X106436414Y-89468728D01*
X106617693Y-89407192D01*
X106617698Y-89407190D01*
X106623165Y-89405334D01*
X106630733Y-89401096D01*
X106732058Y-89344351D01*
X106800276Y-89306147D01*
X106813974Y-89294755D01*
X106951913Y-89180031D01*
X106956345Y-89176345D01*
X107017723Y-89102546D01*
X107082453Y-89024718D01*
X107082455Y-89024715D01*
X107086147Y-89020276D01*
X107174394Y-88862700D01*
X107182510Y-88848208D01*
X107182513Y-88848202D01*
X107185334Y-88843165D01*
X107187190Y-88837698D01*
X107187192Y-88837693D01*
X107248728Y-88656414D01*
X107248729Y-88656409D01*
X107250584Y-88650945D01*
X107251412Y-88645236D01*
X107251413Y-88645231D01*
X107277007Y-88468709D01*
X107279712Y-88450053D01*
X107281232Y-88392000D01*
X107269797Y-88267551D01*
X107263187Y-88195613D01*
X107263186Y-88195610D01*
X107262658Y-88189859D01*
X107261090Y-88184299D01*
X107209125Y-88000046D01*
X107209124Y-88000044D01*
X107207557Y-87994487D01*
X107203305Y-87985863D01*
X107120331Y-87817609D01*
X107117776Y-87812428D01*
X106996320Y-87649779D01*
X106847258Y-87511987D01*
X106842375Y-87508906D01*
X106842371Y-87508903D01*
X106680464Y-87406748D01*
X106675581Y-87403667D01*
X106487039Y-87328446D01*
X106481379Y-87327320D01*
X106481375Y-87327319D01*
X106293613Y-87289971D01*
X106293610Y-87289971D01*
X106287946Y-87288844D01*
X106282171Y-87288768D01*
X106282167Y-87288768D01*
X106180793Y-87287441D01*
X106084971Y-87286187D01*
X106079274Y-87287166D01*
X106079273Y-87287166D01*
X105890607Y-87319585D01*
X105884910Y-87320564D01*
X105694463Y-87390824D01*
X105520010Y-87494612D01*
X105515670Y-87498418D01*
X105515666Y-87498421D01*
X105381968Y-87615672D01*
X105367392Y-87628455D01*
X105241720Y-87787869D01*
X105239031Y-87792980D01*
X105239029Y-87792983D01*
X105227507Y-87814883D01*
X105178087Y-87865856D01*
X105108955Y-87882018D01*
X105042059Y-87858239D01*
X104998638Y-87802068D01*
X104989999Y-87756215D01*
X104989999Y-87497331D01*
X104989629Y-87490510D01*
X104984105Y-87439648D01*
X104980479Y-87424396D01*
X104935324Y-87303946D01*
X104926786Y-87288351D01*
X104850285Y-87186276D01*
X104837724Y-87173715D01*
X104735649Y-87097214D01*
X104720054Y-87088676D01*
X104599606Y-87043522D01*
X104584351Y-87039895D01*
X104533486Y-87034369D01*
X104526672Y-87034000D01*
X103904115Y-87034000D01*
X103888876Y-87038475D01*
X103887671Y-87039865D01*
X103886000Y-87047548D01*
X103886000Y-89731884D01*
X103378000Y-89731884D01*
X103378000Y-87052116D01*
X103373525Y-87036877D01*
X103372135Y-87035672D01*
X103364452Y-87034001D01*
X102737331Y-87034001D01*
X102730510Y-87034371D01*
X102679648Y-87039895D01*
X102664396Y-87043521D01*
X102543946Y-87088676D01*
X102528351Y-87097214D01*
X102426276Y-87173715D01*
X102413719Y-87186272D01*
X102335327Y-87290871D01*
X102278467Y-87333386D01*
X102207649Y-87338412D01*
X102145355Y-87304352D01*
X102111365Y-87242021D01*
X102108500Y-87215306D01*
X102108500Y-86266694D01*
X102128502Y-86198573D01*
X102182158Y-86152080D01*
X102252432Y-86141976D01*
X102317012Y-86171470D01*
X102335327Y-86191129D01*
X102413719Y-86295728D01*
X102426276Y-86308285D01*
X102528351Y-86384786D01*
X102543946Y-86393324D01*
X102664394Y-86438478D01*
X102679649Y-86442105D01*
X102730514Y-86447631D01*
X102737328Y-86448000D01*
X103359885Y-86448000D01*
X103375124Y-86443525D01*
X103376329Y-86442135D01*
X103378000Y-86434452D01*
X103378000Y-86429884D01*
X103886000Y-86429884D01*
X103890475Y-86445123D01*
X103891865Y-86446328D01*
X103899548Y-86447999D01*
X104526669Y-86447999D01*
X104533490Y-86447629D01*
X104584352Y-86442105D01*
X104599604Y-86438479D01*
X104720054Y-86393324D01*
X104735649Y-86384786D01*
X104837724Y-86308285D01*
X104850285Y-86295724D01*
X104926786Y-86193649D01*
X104935324Y-86178054D01*
X104980478Y-86057606D01*
X104984105Y-86042351D01*
X104989631Y-85991486D01*
X104990000Y-85984672D01*
X104990000Y-85727976D01*
X105010002Y-85659855D01*
X105063658Y-85613362D01*
X105133932Y-85603258D01*
X105198512Y-85632752D01*
X105218895Y-85655254D01*
X105328533Y-85810389D01*
X105473938Y-85952035D01*
X105478742Y-85955245D01*
X105532980Y-85991486D01*
X105642720Y-86064812D01*
X105648023Y-86067090D01*
X105648026Y-86067092D01*
X105815495Y-86139042D01*
X105829228Y-86144942D01*
X105902244Y-86161464D01*
X106021579Y-86188467D01*
X106021584Y-86188468D01*
X106027216Y-86189742D01*
X106032987Y-86189969D01*
X106032989Y-86189969D01*
X106092756Y-86192317D01*
X106230053Y-86197712D01*
X106330499Y-86183148D01*
X106425231Y-86169413D01*
X106425236Y-86169412D01*
X106430945Y-86168584D01*
X106436409Y-86166729D01*
X106436414Y-86166728D01*
X106617693Y-86105192D01*
X106617698Y-86105190D01*
X106623165Y-86103334D01*
X106800276Y-86004147D01*
X106815500Y-85991486D01*
X106951913Y-85878031D01*
X106956345Y-85874345D01*
X107013463Y-85805669D01*
X107082453Y-85722718D01*
X107082455Y-85722715D01*
X107086147Y-85718276D01*
X107185334Y-85541165D01*
X107187190Y-85535698D01*
X107187192Y-85535693D01*
X107248728Y-85354414D01*
X107248729Y-85354409D01*
X107250584Y-85348945D01*
X107251412Y-85343236D01*
X107251413Y-85343231D01*
X107271736Y-85203060D01*
X107279712Y-85148053D01*
X107281232Y-85090000D01*
X107262658Y-84887859D01*
X107261090Y-84882299D01*
X107209125Y-84698046D01*
X107209124Y-84698044D01*
X107207557Y-84692487D01*
X107196978Y-84671033D01*
X107120331Y-84515609D01*
X107117776Y-84510428D01*
X106996320Y-84347779D01*
X106847258Y-84209987D01*
X106842375Y-84206906D01*
X106842371Y-84206903D01*
X106680464Y-84104748D01*
X106675581Y-84101667D01*
X106487039Y-84026446D01*
X106481379Y-84025320D01*
X106481375Y-84025319D01*
X106293613Y-83987971D01*
X106293610Y-83987971D01*
X106287946Y-83986844D01*
X106282171Y-83986768D01*
X106282167Y-83986768D01*
X106180793Y-83985441D01*
X106084971Y-83984187D01*
X106079274Y-83985166D01*
X106079273Y-83985166D01*
X105890607Y-84017585D01*
X105884910Y-84018564D01*
X105694463Y-84088824D01*
X105520010Y-84192612D01*
X105515670Y-84196418D01*
X105515666Y-84196421D01*
X105495723Y-84213911D01*
X105367392Y-84326455D01*
X105241720Y-84485869D01*
X105239031Y-84490980D01*
X105239029Y-84490983D01*
X105227507Y-84512883D01*
X105178087Y-84563856D01*
X105108955Y-84580018D01*
X105042059Y-84556239D01*
X104998638Y-84500068D01*
X104989999Y-84454215D01*
X104989999Y-84195331D01*
X104989629Y-84188510D01*
X104984105Y-84137648D01*
X104980479Y-84122396D01*
X104935324Y-84001946D01*
X104926786Y-83986351D01*
X104850285Y-83884276D01*
X104837724Y-83871715D01*
X104735649Y-83795214D01*
X104720054Y-83786676D01*
X104599606Y-83741522D01*
X104584351Y-83737895D01*
X104533486Y-83732369D01*
X104526672Y-83732000D01*
X103904115Y-83732000D01*
X103888876Y-83736475D01*
X103887671Y-83737865D01*
X103886000Y-83745548D01*
X103886000Y-86429884D01*
X103378000Y-86429884D01*
X103378000Y-83750116D01*
X103373525Y-83734877D01*
X103372135Y-83733672D01*
X103364452Y-83732001D01*
X102737331Y-83732001D01*
X102730510Y-83732371D01*
X102679648Y-83737895D01*
X102664396Y-83741521D01*
X102543946Y-83786676D01*
X102528351Y-83795214D01*
X102426276Y-83871715D01*
X102413719Y-83884272D01*
X102335327Y-83988871D01*
X102278467Y-84031386D01*
X102207649Y-84036412D01*
X102145355Y-84002352D01*
X102111365Y-83940021D01*
X102108500Y-83913306D01*
X102108500Y-83184500D01*
X102128502Y-83116379D01*
X102182158Y-83069886D01*
X102234500Y-83058500D01*
X170053500Y-83058500D01*
X170121621Y-83078502D01*
G37*
%TD.AperFunction*%
%TD*%
M02*
